<svg xmlns="http://www.w3.org/2000/svg" viewBox="71 -821 3659.78955078125 884" fill="#000000"><path d="M259 17L259 17Q193 17 148.50-2Q104-21 104-54L104-54Q104-86 133-102L133-102Q192-65 258-65L258-65Q341-65 390-120L390-120Q446-183 446-299L446-299Q437-289 403-271L403-271Q354-245 296-245L296-245Q198-245 138-297L138-297Q71-354 71-464L71-464Q71-567 134.50-629.50Q198-692 293-692L293-692Q408-692 472-611L472-611Q542-524 542-359L542-359Q542 17 259 17ZM307-325L307-325Q354-325 392.50-350Q431-375 446-411L446-411Q444-506 403.50-558.50Q363-611 293-611L293-611Q240-611 203.50-574Q167-537 167-467L167-467Q167-394 209-358L209-358Q246-325 307-325Z" /><path d="M853 7L837 9Q771 9 771-34L771-34Q771-54 788-90L788-90L1018-597L697-597Q686-617 686-636L686-636Q686-679 725-679L725-679L1096-679Q1122-662 1122-631L1122-631Q1122-609 1111-584L1111-584L853 7Z" /><path d="M1474 17L1474 17Q1387 17 1327-14L1327-14Q1272-43 1272-77L1272-77Q1272-111 1312-130L1312-130Q1381-63 1474-63L1474-63Q1541-63 1578.50-104Q1616-145 1616-211L1616-211Q1616-279 1577-315Q1538-351 1477-351L1477-351Q1425-351 1359-311L1359-311Q1326-314 1308-331.50Q1290-349 1290-374L1290-374L1291-412L1309-625Q1314-679 1361-679L1361-679L1679-679Q1689-658 1689-640L1689-640Q1689-597 1652-597L1652-597L1396-597L1381-409Q1421-432 1487-432L1487-432Q1584-432 1648-373.50Q1712-315 1712-211L1712-211Q1712-111 1651-49L1651-49Q1585 17 1474 17Z" /><path d="M2142-540L2424-540Q2438-540 2438-553L2438-553L2438-593Q2438-606 2424-606L2424-606L2142-606Q2128-606 2128-593L2128-593L2128-553Q2128-540 2142-540L2142-540ZM2097-669L2472-669Q2517-669 2517-624L2517-624L2517-522Q2517-477 2472-477L2472-477L2097-477Q2052-477 2052-522L2052-522L2052-624Q2052-669 2097-669L2097-669ZM2448-359L2118-359Q2105-359 2105-345L2105-345L2105-195Q2105-159 2067-159L2067-159Q2028-159 2028-195L2028-195L2028-382Q2028-427 2074-427L2074-427L2497-427Q2541-427 2541-382L2541-382L2541-200Q2541-164 2501-164L2501-164Q2461-164 2461-200L2461-200L2461-345Q2461-359 2448-359L2448-359ZM2289-339L2289-339Q2327-339 2327-303L2327-303L2327-272Q2327-244 2321-222L2321-222Q2315-197 2296-168L2296-168Q2287-154 2273.50-140.50Q2260-127 2243-114L2243-114Q2211-90 2151-65L2151-65Q2122-52 2094.50-43.50Q2067-35 2041-29L2041-29Q2009-22 1985-52L1985-52Q1973-69 1977-79.50Q1981-90 1999-94L1999-94Q2019-99 2044-106Q2069-113 2098-122L2098-122Q2129-133 2149-142.50Q2169-152 2183-160L2183-160L2182-160Q2211-180 2226-201L2226-201Q2234-212 2239.50-221Q2245-230 2247-237L2247-237L2250-303Q2251-339 2289-339ZM2516-33L2332-125L2332-124Q2297-141 2317-170L2317-170Q2336-195 2368-183L2368-183L2551-97Q2585-82 2565-48L2565-48L2565-49Q2547-18 2516-33L2516-33ZM1945-697L1945-22Q1945-8 1958-8L1958-8L2612-8Q2625-8 2625-22L2625-22L2625-697Q2625-711 2612-711L2612-711L1958-711Q1945-711 1945-697L1945-697ZM1862 18L1862-739Q1862-784 1908-784L1908-784L2662-784Q2708-784 2708-739L2708-739L2708 18Q2708 63 2662 63L2662 63L1908 63Q1862 63 1862 18L1862 18Z" /><path d="M3033-787L3033-787Q3045-823 3083-810L3083-810L3082-810Q3122-798 3109-765L3109-765L3035-590L3035 26Q3035 63 2996 63L2996 63Q2956 63 2956 26L2956 26L2956-458Q2940-433 2927-415Q2914-397 2904-386L2904-386Q2878-356 2855-395L2855-395Q2849-404 2846.50-413.50Q2844-423 2844-431L2844-431Q2844-449 2855-461L2855-461Q2876-484 2901.50-521.50Q2927-559 2953-606L2953-606Q3006-703 3033-787ZM3687-551L3485-551Q3506-494 3535-435.50Q3564-377 3594-327L3594-327Q3628-274 3659.50-235Q3691-196 3718-177L3718-177Q3745-153 3715-121L3715-121Q3683-89 3658-114L3658-114L3659-114Q3606-161 3539-273L3539-273Q3509-325 3483.50-377.50Q3458-430 3437-487L3437-487L3437-188L3555-188Q3591-188 3591-151L3591-151Q3591-113 3555-113L3555-113L3437-113L3437 23Q3437 59 3397 59L3397 59Q3358 59 3358 23L3358 23L3358-113L3237-113Q3201-113 3201-151L3201-151Q3201-188 3237-188L3237-188L3358-188L3358-482Q3335-426 3309-373Q3283-320 3252-269L3252-269Q3219-212 3189-173.50Q3159-135 3133-112L3133-112L3134-112Q3107-86 3077-116L3077-116Q3049-148 3076-173L3076-173Q3127-213 3199-324L3199-324Q3231-375 3260.50-434.50Q3290-494 3312-551L3312-551L3125-551Q3088-551 3088-591L3088-591Q3088-631 3125-631L3125-631L3358-631L3358-783Q3358-821 3397-821L3397-821Q3437-821 3437-783L3437-783L3437-631L3687-631Q3724-631 3724-591L3724-591Q3724-551 3687-551L3687-551Z" /></svg>