<svg xmlns="http://www.w3.org/2000/svg" viewBox="60 -740 8260 930" fill="#000000"><path d="M540-655L540-35Q540-12 529-1Q518 10 495 10L495 10Q472 10 461-1Q450-12 450-35L450-35L450-640L351-297Q346-278 333-269Q320-260 300-260L300-260Q280-260 267-269Q254-278 249-297L249-297L150-640L150-35Q150-12 139-1Q128 10 105 10L105 10Q82 10 71-1Q60-12 60-35L60-35L60-655Q60-698 80.50-719Q101-740 140-740L140-740Q171-740 190-726.50Q209-713 217-685L217-685L300-390L383-685Q391-713 410-726.50Q429-740 460-740L460-740Q499-740 519.50-719Q540-698 540-655L540-655Z" /><path d="M842 10L842 10Q806 10 774.50-2Q743-14 720-41.50Q697-69 683.50-113.50Q670-158 670-224L670-224Q670-293 684-354.50Q698-416 726.50-461.50Q755-507 798.50-533.50Q842-560 900-560L900-560Q948-560 975-536L975-536Q997-516 1010-487L1010-487Q1012-502 1014-516L1014-516Q1018-541 1031-550.50Q1044-560 1065-560L1065-560Q1089-560 1098.50-549.50Q1108-539 1104-516L1104-516Q1094-457 1089-399.50Q1084-342 1085.50-283.50Q1087-225 1095.50-163.50Q1104-102 1120-34L1120-34Q1125-12 1117-1Q1109 10 1086 10Q1063 10 1049-1Q1035-12 1030-34L1030-34Q1018-83 1010-129L1010-129Q1004-111 996-94L996-94Q974-48 936.50-19Q899 10 842 10ZM851-80L851-80Q882-80 908.50-96.50Q935-113 954-143Q973-173 984-215Q995-257 995-308L995-308Q995-332 993.50-360.50Q992-389 984-413Q976-437 958.50-453.50Q941-470 908-470L908-470Q877-470 850-450.50Q823-431 803-397Q783-363 771.50-316Q760-269 760-215L760-215Q760-151 782.50-115.50Q805-80 851-80Z" /><path d="M1335-560L1335-560Q1358-560 1369-548.50Q1380-537 1380-514L1380-514L1380-450Q1389-475 1402.50-495Q1416-515 1434-529.50Q1452-544 1475-552Q1498-560 1527-560L1527-560Q1588-560 1626-536Q1664-512 1685-473.50Q1706-435 1713-388Q1720-341 1720-294L1720-294Q1720-240 1712-186Q1704-132 1682-88.50Q1660-45 1620-17.50Q1580 10 1517 10L1517 10Q1462 10 1425.50-19.50Q1389-49 1380-94L1380-94L1380 145Q1380 168 1369 179Q1358 190 1335 190L1335 190Q1312 190 1301 179Q1290 168 1290 145L1290 145L1290-514Q1290-537 1301-548.50Q1312-560 1335-560ZM1518-470L1518-470Q1491-470 1466-459Q1441-448 1422-430.50Q1403-413 1391.50-390.50Q1380-368 1380-344L1380-344L1380-234Q1380-210 1389-183Q1398-156 1414-133Q1430-110 1452.50-95Q1475-80 1502-80L1502-80Q1545-80 1570-98Q1595-116 1608.50-145.50Q1622-175 1626-212.50Q1630-250 1630-288L1630-288Q1630-327 1625-360.50Q1620-394 1607.50-418.50Q1595-443 1573-456.50Q1551-470 1518-470Z" /><path d="M2110-650L2109-224Q2109-152 2130.50-116Q2152-80 2194-80L2194-80Q2214-80 2233-83Q2252-86 2275-97L2275-97Q2295-108 2310.50-102.50Q2326-97 2337-78L2337-78Q2349-58 2344.50-41.50Q2340-25 2321-15L2321-15Q2291 1 2256 5.50Q2221 10 2179 10L2179 10Q2143 10 2113.50-3Q2084-16 2063-42.50Q2042-69 2030.50-110Q2019-151 2019-207L2019-207L2020-608Q2020-628 2010-638Q2000-648 1980-648L1980-648L1906-648Q1886-648 1875.50-658.50Q1865-669 1865-689L1865-689Q1865-709 1875.50-719.50Q1886-730 1906-730L1906-730L2030-730Q2071-730 2090.50-710.50Q2110-691 2110-650L2110-650Z" /><path d="M2859-132L2859-132Q2878-132 2890.50-118.50Q2903-105 2903-88L2903-88Q2903-79 2898.50-70.50Q2894-62 2882-50L2882-50Q2866-35 2848-24Q2830-13 2809.50-5Q2789 3 2766.50 6.50Q2744 10 2719 10L2719 10Q2661 10 2615.50-9.50Q2570-29 2538.50-65.50Q2507-102 2490-154.50Q2473-207 2473-272L2473-272Q2473-329 2485.50-381.50Q2498-434 2525.50-473.50Q2553-513 2597-536.50Q2641-560 2705-560L2705-560Q2765-560 2805-539.50Q2845-519 2869.50-482Q2894-445 2904.50-395.50Q2915-346 2915-287L2915-287Q2915-269 2902-254.50Q2889-240 2868-240L2868-240L2565-240Q2569-200 2582-169.50Q2595-139 2615-119.50Q2635-100 2661.50-90Q2688-80 2720-80L2720-80Q2765-80 2791.50-94Q2818-108 2833-120L2833-120Q2841-127 2846-129.50Q2851-132 2859-132ZM2565-320L2809-320Q2814-320 2819.50-326Q2825-332 2825-353L2825-353Q2825-374 2817-395Q2809-416 2793.50-432.50Q2778-449 2755.50-459.50Q2733-470 2705-470L2705-470Q2674-470 2649.50-459Q2625-448 2607.50-428Q2590-408 2579.50-380.50Q2569-353 2565-320L2565-320Z" /><path d="M3540-655L3540-35Q3540-12 3529-1Q3518 10 3495 10L3495 10Q3472 10 3461-1Q3450-12 3450-35L3450-35L3450-640L3351-297Q3346-278 3333-269Q3320-260 3300-260L3300-260Q3280-260 3267-269Q3254-278 3249-297L3249-297L3150-640L3150-35Q3150-12 3139-1Q3128 10 3105 10L3105 10Q3082 10 3071-1Q3060-12 3060-35L3060-35L3060-655Q3060-698 3080.50-719Q3101-740 3140-740L3140-740Q3171-740 3190-726.50Q3209-713 3217-685L3217-685L3300-390L3383-685Q3391-713 3410-726.50Q3429-740 3460-740L3460-740Q3499-740 3519.50-719Q3540-698 3540-655L3540-655Z" /><path d="M3900 10L3900 10Q3842 10 3800-11.50Q3758-33 3730-71Q3702-109 3688.50-161.50Q3675-214 3675-276L3675-276Q3675-338 3688-390Q3701-442 3729-479.50Q3757-517 3799.50-538.50Q3842-560 3900-560L3900-560Q3959-560 4001.50-538.50Q4044-517 4071.50-479.50Q4099-442 4112-390Q4125-338 4125-276L4125-276Q4125-214 4111.50-161.50Q4098-109 4070.50-71Q4043-33 4000.50-11.50Q3958 10 3900 10ZM3900-80L3900-80Q3935-80 3960.50-94.50Q3986-109 4002.50-134.50Q4019-160 4027-196.50Q4035-233 4035-276L4035-276Q4035-319 4027.50-354.50Q4020-390 4003.50-415.50Q3987-441 3961.50-455.50Q3936-470 3900-470L3900-470Q3864-470 3838.50-455.50Q3813-441 3796.50-415.50Q3780-390 3772.50-354Q3765-318 3765-275L3765-275Q3765-232 3773-196Q3781-160 3797.50-134.50Q3814-109 3839.50-94.50Q3865-80 3900-80Z" /><path d="M4385-316L4385-35Q4385-12 4374-1Q4363 10 4340 10L4340 10Q4317 10 4306-1Q4295-12 4295-35L4295-35L4295-515Q4295-538 4306-549Q4317-560 4340-560L4340-560Q4363-560 4374-549Q4385-538 4385-515L4385-515L4385-456Q4399-504 4433-532Q4467-560 4522-560L4522-560Q4562-560 4595.50-546.50Q4629-533 4653.50-508Q4678-483 4691.50-448Q4705-413 4705-370L4705-370L4705-35Q4705-12 4694-1Q4683 10 4660 10L4660 10Q4637 10 4626-1Q4615-12 4615-35L4615-35L4615-344Q4615-370 4608-393.50Q4601-417 4587.50-435Q4574-453 4554-464Q4534-475 4507-475L4507-475Q4480-475 4457.50-459Q4435-443 4419-419.50Q4403-396 4394-368Q4385-340 4385-316L4385-316Z" /><path d="M5100 10L5100 10Q5042 10 5000-11.50Q4958-33 4930-71Q4902-109 4888.50-161.50Q4875-214 4875-276L4875-276Q4875-338 4888-390Q4901-442 4929-479.50Q4957-517 4999.50-538.50Q5042-560 5100-560L5100-560Q5159-560 5201.50-538.50Q5244-517 5271.50-479.50Q5299-442 5312-390Q5325-338 5325-276L5325-276Q5325-214 5311.50-161.50Q5298-109 5270.50-71Q5243-33 5200.50-11.50Q5158 10 5100 10ZM5100-80L5100-80Q5135-80 5160.50-94.50Q5186-109 5202.50-134.50Q5219-160 5227-196.50Q5235-233 5235-276L5235-276Q5235-319 5227.50-354.50Q5220-390 5203.50-415.50Q5187-441 5161.50-455.50Q5136-470 5100-470L5100-470Q5064-470 5038.50-455.50Q5013-441 4996.50-415.50Q4980-390 4972.50-354Q4965-318 4965-275L4965-275Q4965-232 4973-196Q4981-160 4997.50-134.50Q5014-109 5039.50-94.50Q5065-80 5100-80Z" /><path d="M5480-35L5480-662Q5480-701 5499-720.50Q5518-740 5554-740L5554-740Q5583-740 5600-727.50Q5617-715 5626-690L5626-690L5830-130L5830-695Q5830-718 5841-729Q5852-740 5875-740L5875-740Q5898-740 5909-729Q5920-718 5920-695L5920-695L5920-68Q5920-29 5901-9.50Q5882 10 5846 10L5846 10Q5817 10 5800-2.50Q5783-15 5774-40L5774-40L5570-600L5570-35Q5570-12 5559-1Q5548 10 5525 10L5525 10Q5502 10 5491-1Q5480-12 5480-35L5480-35Z" /><path d="M6185-600L6185-427L6459-427Q6479-427 6489-417Q6499-407 6499-387L6499-387Q6499-367 6489-357Q6479-347 6459-347L6459-347L6185-347L6185-35Q6185-12 6174-1Q6163 10 6140 10L6140 10Q6117 10 6106-1Q6095-12 6095-35L6095-35L6095-650Q6095-691 6114.50-710.50Q6134-730 6175-730L6175-730L6480-730Q6503-730 6514-719Q6525-708 6525-685L6525-685Q6525-662 6514-651Q6503-640 6480-640L6480-640L6225-640Q6205-640 6195-630Q6185-620 6185-600L6185-600Z" /><path d="M7080-285L6720-285Q6697-285 6686-296Q6675-307 6675-330Q6675-353 6686-364Q6697-375 6720-375L6720-375L7080-375Q7103-375 7114-364Q7125-353 7125-330Q7125-307 7114-296Q7103-285 7080-285L7080-285Z" /><path d="M7260-367L7260-367Q7260-443 7276.50-510.50Q7293-578 7328.50-629Q7364-680 7420-710Q7476-740 7556-740L7556-740Q7598-740 7629-732Q7660-724 7682-711Q7704-698 7718-681Q7732-664 7739-646L7739-646Q7748-622 7743.50-606.50Q7739-591 7725-583L7725-583Q7711-575 7694.50-577.50Q7678-580 7664-600L7664-600Q7651-619 7623-634.50Q7595-650 7551-650L7551-650Q7500-650 7462.50-626.50Q7425-603 7400-564Q7375-525 7362.50-474Q7350-423 7350-367L7350-367Q7350-319 7360.50-268Q7371-217 7395-175Q7419-133 7459-106.50Q7499-80 7558-80L7558-80Q7572-80 7587.50-81.50Q7603-83 7617.50-86.50Q7632-90 7645-95.50Q7658-101 7667-108L7667-108Q7684-122 7702-120.50Q7720-119 7733-106L7733-106Q7746-93 7746-75Q7746-57 7726-37L7726-37Q7711-22 7691-13Q7671-4 7648 1.50Q7625 7 7601 8.50Q7577 10 7554 10L7554 10Q7474 10 7418-21Q7362-52 7327-104Q7292-156 7276-224Q7260-292 7260-367Z" /><path d="M7880-35L7880-662Q7880-701 7899-720.50Q7918-740 7954-740L7954-740Q7983-740 8000-727.50Q8017-715 8026-690L8026-690L8230-130L8230-695Q8230-718 8241-729Q8252-740 8275-740L8275-740Q8298-740 8309-729Q8320-718 8320-695L8320-695L8320-68Q8320-29 8301-9.50Q8282 10 8246 10L8246 10Q8217 10 8200-2.50Q8183-15 8174-40L8174-40L7970-600L7970-35Q7970-12 7959-1Q7948 10 7925 10L7925 10Q7902 10 7891-1Q7880-12 7880-35L7880-35Z" /></svg>