<svg xmlns="http://www.w3.org/2000/svg" viewBox="54 -805 4890 914" fill="#000000"><path d="M919-584L919-584Q841-593 717-592L717-592L288-592Q164-590 87-585L87-585Q54-586 54-614L54-614Q66-633 87-633L87-633Q98-633 110-631L110-631Q194-626 323-626L323-626L442-627Q458-629 463-641L463-641Q463-670 458-711L458-711Q448-769 448-786L448-786Q448-801 489-802L489-802Q519-799 546.50-789.50Q574-780 574-762L574-762Q545-734 545-716L545-716L542-641Q543-632 553-632L553-632L731-630L749-629Q803-684 821-698L821-698Q842-713 865-697L865-697Q928-650 944-617L944-617Q945-588 919-584ZM486 103L486 103L484 103Q453 103 445 69L445 69Q426 52 378 39L378 39L361 37Q343 35 343 20L343 20Q343 0 366 3L366 3Q433 11 439 11L439 11Q472 6 473-27L473-27L474-204Q474-259 454-269L454-269L440-270L333-269Q327-269 324-260L324-260Q322-239 317-226L317-226Q309-214 273-212L273-212L255-213Q234-214 235-231L235-231Q240-251 247-294L247-294L253-423Q252-490 248-514L248-514Q247-539 272-539L272-539Q323-528 352-497L352-497L647-500Q657-500 664-512L664-512Q680-537 703-537L703-537Q737-539 790-485L790-485Q805-469 790-456L790-456Q778-442 761-430L761-430L772-252Q745-222 691-222L691-222Q676-229 676-250L676-250L676-257Q671-264 664-266L664-266L576-268Q547-268 542-239L542-239L553 2Q556 19 556 31L556 31Q556 44 553 52L553 52Q510 95 486 103ZM334-295L334-295L676-298L675-397Q673-448 664-456L664-456Q656-468 641-469L641-469L356-465Q325-462 325-440L325-440L325-319Q325-304 334-295ZM107 61L107 61Q92 71 80 60L80 60Q71 42 86 33L86 33Q136 3 187-40L187-40Q238-87 293-151L293-151Q307-169 328-200L328-200Q337-212 350-205L350-205Q364-198 386-174L386-174Q401-158 404-147L404-147Q407-127 387-125L387-125L375-124Q367-124 362-118L362-118Q337-94 282-49L282-49Q241-15 191 16L191 16Q144 46 107 61ZM825 56L825 56L813 56Q768 55 744-15L744-15Q725-90 643-141L643-141Q616-146 616-163L616-163Q616-182 637-182L637-182Q645-182 655-179L655-179Q875-130 875-11L875-11Q875 43 825 56Z" /><path d="M1614-541L1614-541Q1593-542 1582-547Q1571-552 1571-563L1571-563Q1575-590 1575-658L1575-658L1414-658Q1401-652 1401-635L1401-635L1403-565Q1393-544 1343-543L1343-543Q1325-543 1325-554L1325-554Q1329-587 1329-618L1329-618L1328-647L1323-657L1078-651Q1051-651 1051-671L1051-671Q1051-692 1077-692L1077-692L1319-689Q1327-691 1328-699L1328-699Q1326-744 1321-785L1321-785Q1321-802 1342-803L1342-803Q1414-796 1421-778L1421-778Q1418-761 1403-730L1403-730Q1401-714 1401-700L1401-700Q1402-694 1410-690L1410-690L1571-690L1574-697Q1573-739 1566-780L1566-780L1566-782Q1566-797 1593-797L1593-797Q1605-797 1621-794L1621-794Q1668-781 1668-767L1668-767Q1668-753 1648-723L1648-723L1645-695Q1649-690 1656-689L1656-689L1781-689Q1781-693 1822-748L1822-748L1839-749Q1861-749 1945-683L1945-683L1946-671Q1946-660 1926-659L1926-659L1653-659Q1642-656 1641-644L1641-644Q1643-587 1645-567L1645-567L1645-566Q1645-542 1614-541ZM1474 100L1474 100Q1452 96 1452 68L1452 68Q1459 0 1459-60L1459-60L1444-70Q1130-66 1118-64L1118-64L1109-64Q1081-64 1081-82L1081-82Q1083-102 1106-102L1106-102L1115-101L1459-100L1459-189Q1459-206 1435-206L1435-206L1084-206Q1063-206 1063-221L1063-221Q1065-234 1089-234L1089-234L1103-233L1270-231Q1275-266 1275-313L1275-313L1274-345L1085-345L1055-344Q1035-344 1035-357L1035-357Q1035-373 1052-373L1052-373L1264-371Q1271-371 1273-385L1273-385L1274-470Q1265-488 1255-488L1255-488L1145-485Q1133-485 1120-488L1120-488Q1112-492 1112-506L1112-506Q1115-521 1133-521L1133-521L1233-516L1732-515Q1780-569 1798-570L1798-570L1809-570Q1858-546 1889-514L1889-514Q1891-510 1891-505L1891-505L1890-498Q1882-486 1868-485L1868-485Q1807-491 1786-491L1786-491L1733-490Q1707-484 1707-412L1707-412L1707-397Q1707-379 1720-378L1720-378L1729-376L1817-377Q1822-377 1859-432L1859-432Q1864-437 1870-437L1870-437Q1876-437 1884-432L1884-432Q1964-391 1964-366L1964-366Q1963-349 1933-349L1933-349L1923-349Q1877-350 1718-350L1718-350Q1708-348 1706-333L1706-333L1708-233L1772-234L1811-281Q1818-288 1827-288L1827-288Q1835-288 1845-282L1845-282Q1872-272 1900-251L1900-251Q1923-238 1923-224L1923-224L1922-219Q1914-210 1890-208L1890-208L1576-205Q1535-205 1531-206L1531-206Q1523-199 1522-185L1522-185L1526-115L1530-100L1782-105Q1797-113 1819-149L1819-149Q1824-157 1832-157L1832-157Q1839-157 1849-151L1849-151Q1884-131 1919-98L1919-98Q1922-92 1922-87L1922-87Q1922-75 1900-75L1900-75Q1870-74 1822-74L1822-74Q1734-74 1551-70L1551-70Q1539-66 1530-58L1530-58L1536 66Q1536 100 1474 100ZM1348-372L1446-372Q1456-374 1456-417L1456-417Q1456-436 1452-474L1452-474Q1444-487 1433-487L1433-487L1380-490L1352-489Q1342-489 1341-469.50Q1340-450 1340-433L1340-433Q1340-381 1348-372L1348-372ZM1534-374L1630-374Q1645-374 1647-391L1647-391Q1643-460 1641-473L1641-473Q1639-489 1620-491L1620-491L1540-490Q1521-487 1521-467L1521-467L1524-390Q1524-378 1534-374L1534-374ZM1352-229L1352-229L1374-231L1421-231L1429-230Q1454-230 1460-252L1460-252L1461-289Q1460-321 1457.50-334Q1455-347 1417-347L1417-347L1350-346Q1338-341 1338-336L1338-336L1340-253Q1340-236 1352-229ZM1531-237L1544-229L1630-231Q1642-232 1645-243Q1648-254 1648-270L1648-270Q1648-319 1642-336L1642-336Q1636-346 1623-349L1623-349L1541-347L1530-341Q1524-339 1524-323L1524-323Q1524-248 1531-237L1531-237Z" /><path d="M2522 91L2522 91Q2425 91 2378 83L2378 83Q2336 70 2326 27L2326 27Q2324 10 2324-13L2324-13Q2324-41 2327-78L2327-78L2328-134L2329-141Q2329-149 2324-157L2324-157Q2308-157 2290-149L2290-149Q2239-113 2137-56L2137-56Q2109-33 2086-24L2086-24Q2060-34 2060-48L2060-48Q2060-53 2063-59L2063-59Q2066-71 2136-98L2136-98Q2266-179 2322-236L2322-236Q2329-241 2329-255L2329-255L2328-266L2324-290Q2324-301 2334-302L2334-302Q2371-295 2385-287L2385-287Q2425-320 2476-377L2476-377L2484-394L2474-399L2445-400Q2417-400 2374-398L2374-398L2144-397Q2105-391 2047-391L2047-391Q2043-391 2035-403L2035-403L2035-422Q2035-426 2048-434L2048-434L2090-433L2135-430L2226-427L2382-428Q2392-440 2392-471L2392-471L2393-560L2385-575Q2370-580 2366-580L2366-580Q2232-578 2157-575L2157-575L2150-575Q2126-575 2126-600L2126-600Q2126-615 2142-617L2142-617L2236-611L2378-607Q2392-610 2392-614L2392-614L2391-653L2392-689Q2392-720 2385-753L2385-753Q2378-765 2378-774L2378-774Q2378-785 2391-791L2391-791L2431-791Q2497-785 2497-767L2497-767Q2497-743 2460-715L2460-715L2457-666Q2457-645 2460-613L2460-613L2472-606Q2511-606 2563-669L2563-669Q2595-669 2632-624L2632-624Q2645-604 2647-593L2647-593Q2646-580 2629-578L2629-578L2519-580L2503-581Q2486-581 2467-578L2467-578Q2455-572 2455-554L2455-554L2455-551Q2457-520 2457-455L2457-455L2462-432Q2475-431 2490-428L2490-428L2516-428Q2524-428 2544-444L2544-444Q2675-573 2743-734L2743-734Q2753-768 2766-768L2766-768Q2794-768 2865-710L2865-710Q2874-698 2874-692L2874-692Q2869-674 2817-656L2817-656Q2797-642 2780-620L2780-620Q2661-468 2610-428L2610-428Q2615-427 2624-427L2624-427L2646-428L2743-428Q2775-428 2819-487L2819-487Q2830-505 2844-505L2844-505Q2855-505 2867-495L2867-495Q2921-460 2943-423L2943-423L2944-413Q2944-400 2930-395L2930-395L2670-400L2603-399Q2592-399 2582-396L2582-396Q2510-330 2464-283L2464-283Q2447-271 2433-256L2433-256Q2432-239 2410-224L2410-224Q2403-208 2400-147L2400-147Q2406-147 2412-144L2412-144Q2501-173 2630-247L2630-247Q2683-289 2694-291L2694-291Q2711-291 2742-263L2742-263Q2775-237 2775-220L2775-220Q2775-204 2748-200L2748-200Q2730-196 2693-191L2693-191Q2540-147 2408-114L2408-114Q2408-111 2402-111L2402-111L2402-28Q2411 11 2477 16L2477 16L2544 17Q2707 14 2803-7L2803-7Q2840-21 2864-92L2864-92Q2868-124 2868-157L2868-157Q2868-173 2883-181L2883-181Q2899-181 2907-157L2907-157Q2901-132 2901-87L2901-87Q2940-24 2940 7L2940 7Q2940 34 2886 55L2886 55Q2739 91 2522 91Z" /><path d="M3142-458L3142-458L3139-458Q3104-458 3086-478L3086-478Q3078-488 3078-503L3078-503L3079-517Q3083-538 3153-593L3153-593Q3174-622 3174-667L3174-667L3174-681Q3174-696 3191-696L3191-696Q3208-696 3215-646L3215-646Q3219-641 3233-640L3233-640L3439-640Q3450-640 3453-658L3453-658Q3453-677 3442-780L3442-780L3441-788Q3441-803 3459-805L3459-805Q3522-805 3563-776L3563-776Q3570-770 3570-762L3570-762Q3570-757 3567-751L3567-751Q3554-739 3533-723L3533-723L3533-657Q3533-640 3547-640L3547-640L3737-641Q3742-641 3778-684L3778-684L3790-686Q3815-686 3855-646L3855-646Q3906-619 3906-599L3906-599Q3894-555 3879-555L3879-555Q3798-555 3769-533L3769-533Q3734-508 3719-503L3719-503Q3698-504 3698-515L3698-515Q3698-531 3749-576L3749-576Q3762-591 3762-599L3762-599L3761-602Q3756-612 3741-612L3741-612Q3454-609 3225-608L3225-608Q3218-599 3218-583L3218-583Q3212-460 3142-458ZM3526 109L3526 109Q3454 103 3454 61L3454 61Q3454 54 3456 45L3456 45Q3464-5 3469-100L3469-100L3475-287Q3471-295 3464-295L3464-295Q3460-295 3454-290L3454-290Q3447-269 3420-227L3420-227Q3333-93 3195-2L3195-2Q3155 23 3119 49L3119 49Q3110 52 3103 52L3103 52Q3085 52 3085 31L3085 31Q3085 11 3115-1L3115-1Q3158-31 3221-86L3221-86Q3360-213 3399-329L3399-329Q3394-345 3382-345L3382-345L3102-341Q3071-341 3071-360L3071-360Q3071-378 3105-378L3105-378L3439-376L3445-375Q3465-375 3466-410L3466-410Q3463-510 3456-532.50Q3449-555 3449-567L3449-567Q3449-586 3463-589L3463-589L3477-589Q3559-589 3559-558L3559-558Q3559-553 3557-547L3557-547Q3539-525 3533-502L3533-502L3533-406Q3533-384 3543-378L3543-378L3729-376Q3746-392 3784-433L3784-433Q3798-442 3811-442L3811-442Q3852-442 3914-380L3914-380Q3917-370 3917-363L3917-363Q3917-350 3907-345L3907-345L3750-347Q3650-347 3595-346L3595-346Q3574-340 3574-335L3574-335Q3601-280 3637-242L3637-242Q3793-92 3919-90L3919-90Q3931-92 3940-92L3940-92Q3960-92 3960-78L3960-78Q3960-57 3912-34L3912-34Q3868 12 3839 12L3839 12Q3805-8 3773-36L3773-36Q3614-164 3556-306L3556-306Q3548-314 3544-314L3544-314Q3538-314 3538-248L3538-248Q3538-141 3552 70L3552 70L3552 73Q3552 106 3526 109Z" /><path d="M4551 98L4551 98Q4539 98 4532 85L4532 85Q4543-58 4544-123L4544-123Q4533-133 4519-133L4519-133L4497-130Q4422-127 4411-124L4411-124Q4378-124 4377-140L4377-140Q4377-155 4394-161L4394-161Q4492-156 4531-156L4531-156Q4543-160 4547-173L4547-173Q4544-194 4544-362L4544-362L4542-407Q4538-429 4531-429L4531-429L4526-429Q4510-402 4494-382L4494-382Q4460-309 4403-248L4403-248Q4307-142 4288-136L4288-136L4278-136Q4272-142 4272-147L4272-147Q4272-152 4276-157L4276-157Q4344-215 4384-297L4384-297Q4478-446 4492-505L4492-505L4499-537L4428-536Q4396-536 4369-537L4369-537Q4340-535 4327-535L4327-535Q4304-537 4304-553L4304-553Q4304-568 4324-568L4324-568L4345-566Q4366-563 4538-563L4538-563L4541-602L4532-733Q4532-746 4525-763L4525-763Q4523-769 4523-774L4523-774Q4523-786 4536-797L4536-797Q4627-797 4639-761L4639-761L4639-760Q4636-760 4612-714L4612-714Q4606-693 4604-642Q4602-591 4602-570L4602-570Q4605-565 4605-560L4605-560Q4626-560 4735-565L4735-565Q4754-567 4794-627L4794-627L4805-637L4821-637Q4861-613 4898-565L4898-565L4898-542Q4898-538 4892-535L4892-535Q4796-535 4769-536L4769-536L4641-535L4633-531Q4633-512 4690-399L4690-399Q4819-227 4930-196L4930-196Q4944-192 4944-182L4944-182Q4944-177 4941-171L4941-171Q4940-164 4887-141L4887-141L4854-116L4847-116Q4793-148 4720-257L4720-257Q4668-355 4663-379L4663-379Q4638-423 4623-483L4623-483Q4620-483 4620-489L4620-489Q4614-489 4606-448L4606-448Q4605-411 4602-357L4602-357L4605-211Q4610-169 4610-160L4610-160Q4612-153 4625-153L4625-153Q4644-153 4653-164L4653-164Q4659-164 4693-207L4693-207L4715-207Q4756-180 4767-146L4767-146Q4767-133 4760-122L4760-122L4753-121Q4746-121 4736-125L4736-125Q4724-133 4611-133L4611-133Q4605-122 4605-114L4605-114Q4611-57 4613-9L4613-9Q4614 27 4619 74L4619 74Q4605 98 4551 98ZM4187 98L4187 98Q4145 98 4145 68L4145 68Q4153 57 4153 37L4153 37L4156 14L4165-111L4165-452L4157-452Q4131-427 4106-391L4106-391Q4089-377 4072-337L4072-337L4065-332L4050-332Q4048-332 4042-342L4042-342L4042-357L4068-388Q4092-421 4125-482L4125-482Q4193-610 4230-747L4230-747Q4233-794 4246-794L4246-794L4254-794Q4320-764 4345-727L4345-727Q4345-721 4288-676L4288-676Q4286-655 4231-578L4231-578L4231-566Q4237-566 4243-556L4243-556L4243-542Q4235-530 4223-516L4223-516L4220-174L4225-65L4229 79Q4229 87 4189 96L4189 96Q4189 98 4187 98Z" /></svg>