<svg xmlns="http://www.w3.org/2000/svg" viewBox="32 -833 4940 910" fill="#000000"><path d="M436-675L428-704L900-704L900-675L436-675ZM63-622L54-651L391-651L391-622L63-622ZM220-634L220-832L301-823Q300-813 291-805.50Q282-798 264-796L264-796L264-634L220-634ZM244-372L255-383Q311-365 347.50-343.50Q384-322 405-300.50Q426-279 434-261Q442-243 440-230.50Q438-218 428.50-214Q419-210 405-217L405-217Q394-244 367-273Q340-302 307-328.50Q274-355 244-372L244-372ZM367-651L367-651L357-651L392-683L448-630Q442-624 433-622Q424-620 406-619L406-619Q370-549 315.50-474Q261-399 192.50-329.50Q124-260 45-205L45-205L32-220Q100-275 165-348Q230-421 283-500Q336-579 367-651ZM220-385L264-428L264 56Q264 60 253 66.50Q242 73 227 73L227 73L220 73L220-385ZM880-704L880-704L869-704L898-740L964-686Q955-674 923-670L923-670Q920-533 914-417.50Q908-302 898.50-213Q889-124 875.50-66Q862-8 844 14L844 14Q825 39 797 51Q769 63 737 63L737 63Q737 52 734 41.50Q731 31 720 26L720 26Q708 19 678 12Q648 5 619 1L619 1L620-19Q644-17 673.50-13.50Q703-10 728.50-7.50Q754-5 765-5L765-5Q782-5 790-8Q798-11 808-21L808-21Q824-37 836-93.50Q848-150 856.50-240.50Q865-331 871-448.50Q877-566 880-704ZM408-485L408-485L469-443Q465-437 455-433.50Q445-430 431-434L431-434Q403-407 372.50-380Q342-353 316-334L316-334L303-348Q325-371 353-408.50Q381-446 408-485ZM626-704L626-704L675-704Q671-607 664-516Q657-425 638.50-342Q620-259 584-184.50Q548-110 487-44.50Q426 21 332 76L332 76L319 61Q424-16 484.50-103Q545-190 574-286.50Q603-383 613-488Q623-593 626-704Z" /><path d="M1398-332L1398-316Q1343-223 1257.50-146Q1172-69 1067-13L1067-13L1055-30Q1148-88 1224.50-167.50Q1301-247 1348-332L1348-332L1398-332ZM1450-771L1512-771Q1506-753 1496-729.50Q1486-706 1475.50-682.50Q1465-659 1455-642L1455-642L1423-642Q1430-670 1438-708Q1446-746 1450-771L1450-771ZM1297-205L1309-223Q1376-146 1462.50-95Q1549-44 1670-16Q1791 12 1959 20L1959 20L1957 31Q1943 34 1930.50 44Q1918 54 1914 71L1914 71Q1793 59 1699.50 37.50Q1606 16 1533.50-16.50Q1461-49 1403.50-95.50Q1346-142 1297-205L1297-205ZM1700-237L1689-237L1728-269L1785-214Q1778-208 1768-206Q1758-204 1738-204L1738-204Q1667-124 1564.50-67Q1462-10 1332.50 25Q1203 60 1050 77L1050 77L1043 59Q1187 37 1314-1.50Q1441-40 1541-98.50Q1641-157 1700-237L1700-237ZM1329-237L1720-237L1720-207L1294-207L1329-237ZM1246-627L1246-280Q1246-278 1241-274Q1236-270 1228-267Q1220-264 1210-264L1210-264L1202-264L1202-656L1202-682L1202-682L1251-656L1753-656L1753-627L1246-627ZM1815-771L1858-824Q1858-824 1866-817.50Q1874-811 1886.50-801Q1899-791 1913-779.50Q1927-768 1939-757L1939-757Q1935-741 1912-741L1912-741L1080-741L1071-771L1815-771ZM1731-656L1721-656L1751-689L1819-636Q1814-630 1802-625Q1790-620 1775-617L1775-617L1775-293Q1775-291 1768.50-286.50Q1762-282 1753.50-278.50Q1745-275 1737-275L1737-275L1731-275L1731-656ZM1221-341L1755-341L1755-311L1221-311L1221-341ZM1221-448L1755-448L1755-418L1221-418L1221-448ZM1221-553L1755-553L1755-523L1221-523L1221-553Z" /><path d="M2533-744L2533-773L2879-773L2879-744L2533-744ZM2533-514L2533-544L2879-544L2879-514L2533-514ZM2524-278L2524-307L2880-307L2880-278L2524-278ZM2848-15L2848-773L2838-773L2864-808L2937-754Q2932-747 2919.50-741.50Q2907-736 2893-734L2893-734L2893-9Q2893 12 2887 29Q2881 46 2861 57.50Q2841 69 2797 74L2797 74Q2794 63 2788 53.50Q2782 44 2771 38L2771 38Q2759 31 2734.50 26Q2710 21 2672 17L2672 17L2672 0Q2672 0 2691 1.50Q2710 3 2736.50 5Q2763 7 2787 8.50Q2811 10 2820 10L2820 10Q2837 10 2842.50 4.50Q2848-1 2848-15L2848-15ZM2518-454L2518-773L2518-783L2518-801L2572-773L2563-773L2563-455Q2563-396 2558-337Q2553-278 2538.50-221.50Q2524-165 2497-112Q2470-59 2426.50-11.50Q2383 36 2320 76L2320 76L2305 63Q2372 12 2414-45.50Q2456-103 2478.50-167.50Q2501-232 2509.50-304Q2518-376 2518-454L2518-454ZM2083-93L2083-758L2083-784L2139-758L2127-758L2127-110Q2127-108 2122-104Q2117-100 2108.50-96.50Q2100-93 2089-93L2089-93L2083-93ZM2340-128L2340-758L2330-758L2360-791L2428-738Q2424-732 2411.50-726.50Q2399-721 2384-718L2384-718L2384-148Q2384-145 2377.50-140Q2371-135 2362.50-131.50Q2354-128 2346-128L2346-128L2340-128ZM2106-728L2106-758L2362-758L2362-728L2106-728ZM2106-473L2106-502L2362-502L2362-473L2106-473ZM2106-206L2106-236L2362-236L2362-206L2106-206Z" /><path d="M3585-724L3585-754L3884-754L3884-724L3585-724ZM3858-10L3858-754L3847-754L3874-790L3951-733Q3945-726 3931-719.50Q3917-713 3900-711L3900-711L3900-5Q3900 15 3895 31.50Q3890 48 3872 58.50Q3854 69 3815 73L3815 73Q3814 63 3809 54.50Q3804 46 3793 40L3793 40Q3782 34 3761 29.50Q3740 25 3707 21L3707 21L3707 4Q3707 4 3723 5.50Q3739 7 3762 8.50Q3785 10 3805 11.50Q3825 13 3832 13L3832 13Q3847 13 3852.50 8Q3858 3 3858-10L3858-10ZM3578-420L3578-754L3578-763L3578-781L3632-754L3622-754L3622-421Q3622-352 3615.50-283.50Q3609-215 3588.50-150.50Q3568-86 3528-29Q3488 28 3422 75L3422 75L3406 62Q3480-1 3516.50-76Q3553-151 3565.50-237.50Q3578-324 3578-420L3578-420ZM3612-564L3620-577Q3677-570 3716-557Q3755-544 3779-528.50Q3803-513 3814-498Q3825-483 3825-471Q3825-459 3816.50-454Q3808-449 3793-453L3793-453Q3776-474 3745.50-495Q3715-516 3679.50-534.50Q3644-553 3612-564L3612-564ZM3606-339L3615-351Q3673-338 3712.50-320Q3752-302 3775.50-283Q3799-264 3808.50-246.50Q3818-229 3817-216Q3816-203 3807-198Q3798-193 3783-199L3783-199Q3769-224 3739-250.50Q3709-277 3673.50-300.50Q3638-324 3606-339L3606-339ZM3056-679L3048-708L3433-708L3472-757Q3472-757 3479.50-751Q3487-745 3498-735.50Q3509-726 3522-715.50Q3535-705 3545-695L3545-695Q3541-679 3519-679L3519-679L3056-679ZM3056-137L3048-167L3429-167L3465-212Q3465-212 3476.50-202.50Q3488-193 3504.50-179.50Q3521-166 3535-153L3535-153Q3531-137 3509-137L3509-137L3056-137ZM3264-560L3264-831L3341-823Q3340-813 3332.50-806.50Q3325-800 3308-797L3308-797L3308-560L3264-560ZM3131-281L3131-310L3434-310L3434-281L3131-281ZM3131-414L3131-443L3434-443L3434-414L3131-414ZM3423-237L3423-577L3413-577L3442-610L3510-558Q3506-552 3494-546Q3482-540 3467-538L3467-538L3467-255Q3467-252 3460-248Q3453-244 3444.50-240.50Q3436-237 3429-237L3429-237L3423-237ZM3106-230L3106-577L3106-602L3106-602L3156-577L3437-577L3437-548L3151-548L3151-245Q3151-243 3145.50-239Q3140-235 3131.50-232.50Q3123-230 3114-230L3114-230L3106-230ZM3264 76L3264-295L3308-295L3308 59Q3308 61 3303.50 65Q3299 69 3290.50 72.50Q3282 76 3270 76L3270 76L3264 76Z" /><path d="M4254-833L4337-808Q4334-800 4325-794Q4316-788 4299-788L4299-788Q4271-699 4233-612.50Q4195-526 4151-451Q4107-376 4059-318L4059-318L4043-328Q4084-390 4123-471.50Q4162-553 4196-645.50Q4230-738 4254-833L4254-833ZM4201-578L4254-557Q4251-550 4243.50-545.50Q4236-541 4223-539L4223-539L4223 57Q4223 59 4217.50 63.50Q4212 68 4203.50 71.50Q4195 75 4186 75L4186 75L4177 75L4177-546L4201-578ZM4626-621L4645-629Q4677-531 4728-438Q4779-345 4842-270.50Q4905-196 4972-152L4972-152L4969-142Q4954-141 4941.50-132.50Q4929-124 4922-108L4922-108Q4859-161 4802.50-238.50Q4746-316 4701-413.50Q4656-511 4626-621L4626-621ZM4597-631L4597-615Q4553-464 4469.50-330.50Q4386-197 4265-96L4265-96L4251-111Q4323-179 4381.50-263Q4440-347 4484-441Q4528-535 4554-631L4554-631L4597-631ZM4583-831L4663-821Q4661-811 4653-804Q4645-797 4627-794L4627-794L4627 57Q4627 60 4622 63.50Q4617 67 4609 69.50Q4601 72 4593 72L4593 72L4583 72L4583-831ZM4825-631L4865-681Q4865-681 4872.50-675Q4880-669 4892-659.50Q4904-650 4917-639Q4930-628 4941-617L4941-617Q4937-601 4916-601L4916-601L4291-601L4283-631L4825-631ZM4721-162L4757-206Q4757-206 4768.50-197Q4780-188 4795.50-174.50Q4811-161 4824-148L4824-148Q4821-132 4799-132L4799-132L4409-132L4401-162L4721-162Z" /></svg>