<svg xmlns="http://www.w3.org/2000/svg" viewBox="123 -823 3790 965" fill="#000000"><path d="M149-772L149-772Q161-772 224-712L224-712Q243-706 250-706L250-706L253-706Q261-706 290-723L290-723Q331-723 598-732L598-732Q626-739 739-746L739-746Q773-764 791-764L791-764Q831-744 831-723L831-723L831-718Q831-703 817-698L817-698L811-698Q770-698 716-700L716-700Q700-699 690-692L690-692Q713-649 713-640L713-640L713-628Q713-621 676-551L676-551L673-536Q673-513 713-513L713-513Q726-513 788-528L788-528Q818-528 823-490L823-490Q815-467 785-467L785-467Q744-473 742-473L742-473Q653-473 653-433L653-433Q649-433 647-401L647-401Q655-366 682-366L682-366L685-366L759-375Q785-375 785-352L785-352Q785-335 731-335L731-335L719-335Q705-335 685-340L685-340Q644-324 644-277L644-277L644-274Q644-249 676-245L676-245Q755-263 768-263L768-263Q794-253 794-234L794-234Q788-214 768-214L768-214L754-214Q718-214 664-217L664-217Q641-205 641-185L641-185L641-176Q641-130 696-130L696-130Q791-145 820-145L820-145Q842-135 846-124L846-124L846-104Q846-98 831-96L831-96Q805-96 791-98L791-98Q744-96 699-96L699-96L650-96Q626-96 613-90L613-90Q605-90 590-93L590-93Q534-90 492-90L492-90Q477-83 477-61L477-61L477-41Q477-34 457-32L457-32Q431-60 431-84L431-84L431-87Q446-133 446-228L446-228Q447-233 460-335L460-335Q457-356 454-361L454-361Q466-389 466-395L466-395Q459-427 437-427L437-427L434-427L379-389L376-389Q372-389 368-398L368-398L368-401Q458-501 480-574L480-574Q503-612 503-646L503-646L503-680L486-683Q448-683 376-680L376-680L362-683Q326-677 319-677L319-677L247-683Q198-664 198-628L198-628Q195-628 195-626L195-626Q198-592 198-577L198-577Q198-566 189-536L189-536Q195-507 195-496L195-496Q186-304 186-271L186-271Q186-247 192-145L192-145L181-52Q191 11 207 11L207 11Q213 11 238 8L238 8Q271 8 518 2L518 2Q615 5 650 5L650 5Q807-15 837-15L837-15Q861-15 878 14L878 14L878 31Q878 44 814 48L814 48Q794 48 751 43L751 43Q629 48 615 48L615 48Q565 48 512 46L512 46Q403 48 281 48L281 48L235 48Q196 48 181 77L181 77Q181 89 163 92L163 92Q145 92 123 37L123 37Q134-55 152-55L152-55L152-58Q152-64 137-90L137-90Q135-95 135-104L135-104Q146-216 146-257L146-257L140-338Q149-411 158-568L158-568Q152-729 143-729L143-729Q138-729 132-746L132-746Q137-772 149-772ZM529-677L529-677L529-666Q552-643 552-628L552-628L552-614Q552-605 509-522L509-522L509-510Q526-490 558-490L558-490Q574-493 581-493L581-493Q592-481 592-470L592-470L592-464Q571-458 552-458L552-458L526-458Q500-458 495-415L495-415Q497-367 497-340L497-340L489-248L492-242Q477-220 477-217L477-217L486-202L486-147Q486-122 520-122L520-122L555-122Q558-122 558-119L558-119Q610-128 610-165L610-165Q603-214 552-214L552-214Q523-214 523-222L523-222L523-231Q523-238 590-248L590-248Q610-262 610-294L610-294Q607-320 592-338L592-338Q571-329 555-329L555-329Q520-329 520-352L520-352L520-355Q521-361 526-361L526-361L569-361L587-358Q613-358 613-404L613-404L613-453Q613-463 607-502L607-502Q629-502 653-620L653-620Q656-620 664-660L664-660Q644-695 610-695L610-695L604-695Q536-692 529-677ZM299-631L299-631Q374-592 374-568L374-568Q355-513 327-513L327-513L322-513Q313-516 313-530L313-530L313-539Q313-554 316-582L316-582Q279-597 279-614L279-614L279-620Q279-627 299-631ZM261-461L261-461L270-461Q276-461 327-433L327-433Q339-433 348-418L348-418L348-410Q348-389 296-332L296-332L284-332Q280-332 276-340L276-340Q287-360 287-381L287-381Q287-399 258-450L258-450L258-453Q261-458 261-461ZM374-332L374-332L379-332Q383-332 388-323L388-323L388-320Q375-269 319-147L319-147Q310-73 281-73L281-73Q253-73 227-150L227-150Q235-158 267-162L267-162Q296-182 313-242L313-242Q368-330 374-332Z" /><path d="M1445-778L1445-778L1457-778Q1509-768 1560-718L1560-718L1560-712Q1560-708 1540-666L1540-666Q1529-576 1529-545L1529-545Q1529-541 1543-530L1543-530L1546-530Q1738-556 1779-585L1779-585L1802-591Q1826-591 1848-522L1848-522L1848-513Q1843-499 1834-499L1834-499Q1761-505 1753-505L1753-505Q1629-499 1629-487L1629-487L1629-479Q1655-459 1655-441L1655-441Q1655-430 1615-366L1615-366Q1596-323 1572-254L1572-254Q1537-211 1537-196L1537-196Q1554-172 1678-73L1678-73Q1743-11 1874 11L1874 11Q1889 11 1889 31L1889 31L1889 48Q1889 65 1788 69L1788 69Q1768 77 1739 77L1739 77L1722 77Q1692 77 1624-15L1624-15Q1510-150 1503-150L1503-150L1500-150Q1492-150 1451-93L1451-93Q1338 14 1301 25L1301 25Q1173 97 1154 97L1154 97L1134 97Q1111 97 1111 69L1111 69L1111 66Q1111 43 1160 37L1160 37Q1206 9 1252-6L1252-6Q1351-79 1445-170L1445-170L1459-188L1459-199Q1304-329 1267-340L1267-340L1267-352Q1267-378 1313-378L1313-378Q1347-378 1385-329L1385-329Q1483-229 1485-228L1485-228Q1512-228 1578-441L1578-441Q1580-457 1580-467L1580-467Q1580-482 1563-482L1563-482L1549-482Q1474-482 1180-435L1180-435Q1123-448 1123-476L1123-476L1123-487Q1123-499 1157-499L1157-499L1166-499L1183-496Q1352-522 1457-522L1457-522Q1485-533 1485-548L1485-548Q1485-637 1448-721L1448-721Q1442-721 1434-758L1434-758Q1440-778 1445-778Z" /><path d="M2346-810L2358-818L2369-818Q2416-769 2430-726L2430-726L2430-718Q2430-694 2369-637L2369-637Q2317-559 2317-507L2317-507L2317-355Q2317-242 2326-170L2326-170Q2326-168 2320-122L2320-122Q2326-87 2326-84L2326-84Q2317-23 2317 22L2317 22Q2317 60 2335 60L2335 60Q2362 42 2432-61L2432-61Q2474-135 2539-309L2539-309Q2568-369 2579-444L2579-444L2579-456Q2579-470 2522-473L2522-473Q2501-473 2381-461L2381-461Q2349-475 2349-484L2349-484L2349-487Q2349-510 2392-510L2392-510L2407-510Q2617-519 2617-539L2617-539Q2617-564 2620-602L2620-602Q2605-722 2585-758L2585-758Q2580-759 2574-781L2574-781Q2581-798 2594-798L2594-798Q2627-798 2686-729L2686-729L2689-715Q2666-675 2666-623L2666-623Q2669-574 2669-548L2669-548Q2669-530 2715-530L2715-530Q2807-530 2870-574L2870-574L2885-574Q2904-574 2945-522L2945-522L2945-513Q2945-484 2882-484L2882-484Q2625-484 2625-453L2625-453Q2620-424 2614-361L2614-361Q2617-349 2631-349L2631-349L2692-349Q2728-349 2772-381L2772-381L2784-381Q2804-381 2833-329L2833-329L2833-312Q2790-277 2790-260L2790-260Q2758-147 2720-58L2720-58Q2712-8 2640 126L2640 126Q2628 138 2617 138L2617 138Q2594 138 2576 71L2576 71L2536-6L2536-9Q2536-13 2545-18L2545-18L2556-18Q2566-18 2605 11L2605 11Q2610 14 2617 14L2617 14Q2659-9 2735-263L2735-263Q2739-263 2744-286L2744-286Q2731-309 2715-309L2715-309Q2585-299 2585-283L2585-283Q2522-115 2484-81L2484-81Q2474-24 2418 31L2418 31Q2369 80 2335 106L2335 106Q2314 138 2309 138L2309 138L2288 138Q2269 138 2245 60L2245 60Q2271-5 2271-67L2271-67Q2271-83 2268-113L2268-113Q2271-294 2271-412L2271-412L2271-424Q2271-476 2260-476L2260-476L2257-476Q2238-475 2193-410L2193-410Q2124-349 2101-349L2101-349L2087-349Q2087-356 2084-361L2084-361Q2084-375 2202-490L2202-490Q2347-702 2352-744L2352-744L2352-758L2346-810Z" /><path d="M3463-823L3463-823L3469-823Q3498-821 3570-777L3570-777Q3576-770 3576-768L3576-768L3576-757L3550-696Q3544-667 3544-644L3544-644Q3544-627 3564-627L3564-627L3570-627Q3777-643 3777-667L3777-667Q3781-667 3798-685L3798-685L3806-690L3821-690Q3849-690 3895-624L3895-624L3895-618Q3895-598 3852-587L3852-587Q3771-500 3766-500L3766-500L3757-500Q3753-500 3749-509L3749-509L3749-512Q3749-521 3777-590L3777-590Q3777-597 3763-604L3763-604Q3611-581 3530-581L3530-581Q3489-575 3489-566L3489-566L3489-558Q3489-551 3533-532L3533-532L3544-518Q3530-464 3518-382L3518-382Q3528-362 3541-362L3541-362Q3575-372 3654-379L3654-379Q3718-399 3757-399L3757-399Q3757-402 3800-417L3800-417Q3822-417 3858-379L3858-379Q3864-365 3864-359L3864-359Q3864-344 3835-342L3835-342L3731-342Q3553-340 3553-330L3553-330Q3550-325 3550-319L3550-319Q3595-279 3602-250L3602-250Q3605-250 3726-117L3726-117Q3731-117 3775-77L3775-77Q3825-42 3895-31L3895-31Q3913-31 3913-11L3913-11L3913 1Q3913 11 3878 18L3878 18L3872 15L3763 15Q3728 15 3691-60L3691-60L3538-284L3533-284L3527-276L3527-255Q3527-246 3535-192L3535-192L3535-186Q3527-157 3524-132L3524-132L3530 38Q3515 139 3501 139L3501 139L3487 142Q3461 142 3446 87L3446 87Q3426 59 3363-5L3363-5Q3357-12 3357-14L3357-14L3357-19Q3357-37 3374-37L3374-37L3380-37Q3451 15 3461 15L3461 15L3463 15Q3481 5 3481-19L3481-19L3481-45Q3481-117 3484-244L3484-244Q3479-255 3475-255L3475-255L3472-255Q3449-237 3403-169L3403-169Q3305-73 3144 38L3144 38Q3093 76 3072 76L3072 76Q3043 70 3043 47L3043 47Q3043 28 3129-5L3129-5Q3189-44 3265-117L3265-117Q3290-132 3317-134L3317-134Q3336-186 3360-206L3360-206Q3428-268 3446-310L3446-310L3446-316Q3446-320 3435-325L3435-325Q3416-325 3273-299L3273-299Q3241-299 3190-284L3190-284L3181-284Q3162-284 3127-327L3127-327L3127-339Q3132-350 3141-350L3141-350Q3157-350 3190-345L3190-345Q3226-350 3357-356L3357-356Q3357-361 3386-362L3386-362L3432-362Q3481-362 3481-440L3481-440L3481-469Q3481-491 3463-535L3463-535Q3458-569 3452-569L3452-569Q3279-552 3279-538L3279-538Q3270-525 3233-422L3233-422L3224-417Q3199-417 3178-474L3178-474L3178-480Q3178-491 3213-529L3213-529Q3230-567 3230-598L3230-598L3230-624Q3230-642 3216-662L3216-662L3216-682Q3216-686 3224-690L3224-690Q3252-690 3288-610L3288-610Q3295-601 3305-601L3305-601L3311-601Q3498-609 3498-630L3498-630Q3485-794 3461-794L3461-794Q3455-806 3452-806L3452-806Q3458-823 3463-823Z" /></svg>