<svg xmlns="http://www.w3.org/2000/svg" viewBox="154 -765 3825 842" fill="#000000"><path d="M666-718L666-718Q781-704 781-672L781-672L781-653Q781-638 730-635L730-635Q693-653 689-653L689-653Q524-653 274-603L274-603Q200-619 200-644L200-644Q200-658 246-672L246-672L255-667L297-667Q302-667 302-672L302-672L311-667Q321-667 380-677L380-677L412-672Q427-685 518-690L518-690Q526-686 537-686L537-686Q637-705 666-718ZM555-598L555-598Q592-598 592-566L592-566Q541-494 541-478L541-478L541-474Q557-446 564-446L564-446L569-446Q647-460 647-483L647-483Q647-513 656-524L656-524Q643-568 643-570L643-570L652-575L656-575Q721-567 721-538L721-538Q709-512 698-501L698-501Q703-492 703-488L703-488L758-488Q783-488 790-469L790-469L790-455Q790-437 735-437L735-437L698-437L689-405L689-386Q735-386 749-368L749-368Q749-341 684-335L684-335L680-326L680-289L684-289Q686-289 744-294L744-294Q754-271 758-271L758-271Q758-245 675-243L675-243Q675-197 716-197L716-197L735-197L776-202Q790-184 790-169L790-169Q790-156 643-146L643-146Q643-142 615-142L615-142L583-142L569-151L560-151Q553-151 546-137L546-137L546-119Q546-114 550-114L550-114L546-105L546-73L550-63Q656-77 749-82L749-82Q845-71 845-31L845-31L845-22Q845-8 804 1L804 1Q703-27 647-27L647-27L620-22L560-31Q499-22 440-22L440-22L435-22Q228 10 228 38L228 38L223 38Q189 38 168-22L168-22L172-63Q172-77 168-77L168-77L172-123L172-156Q172-325 182-405L182-405Q168-557 154-557L154-557Q154-575 177-584L177-584Q242-562 242-524L242-524Q242-506 232-469L232-469L237-437L228-349Q228-345 232-345L232-345L223-280Q228-252 228-211L228-211L223-179L232-156Q232-151 228-142L228-142Q232-40 251-40L251-40L265-40Q280-40 315-54L315-54Q491-54 491-73L491-73L491-96L481-110L481-128Q481-150 504-266L504-266L504-377Q504-386 495-386L495-386L486-386Q464-364 408-335L408-335Q384-277 352-142L352-142Q340-112 329-105L329-105Q322-105 288-137L288-137Q275-137 260-160L260-160Q315-216 315-225L315-225Q373-332 417-381L417-381Q476-464 491-515L491-515Q518-550 537-594L537-594Q545-598 555-598ZM348-566L348-566Q440-566 440-515L440-515L440-501Q440-493 417-488L417-488Q394-488 325-538L325-538L325-547Q325-554 348-566ZM315-441L315-441Q355-441 375-395L375-395Q375-381 348-372L348-372Q306-372 269-423L269-423Q269-436 315-441ZM592-423L560-432Q560-430 550-418L550-418L550-386Q553-358 564-358L564-358L587-358Q638-365 638-381L638-381L638-418Q638-428 629-428L629-428Q603-423 592-423L592-423ZM541-322L541-322Q541-282 569-266L569-266Q629-269 629-280L629-280L629-312L620-326L597-322L592-322Q577-322 560-335L560-335L555-335Q548-335 541-322ZM555-248L555-248L546-234L546-225Q546-169 564-169L564-169Q629-169 629-239L629-239L629-243L597-239Q585-239 555-248Z" /><path d="M1401-757L1401-757Q1572-725 1572-660L1572-660L1572-651Q1560-600 1544-596L1544-596Q1498-596 1461-647L1461-647L1373-725L1373-730Q1373-757 1401-757ZM1742-554L1742-554Q1816-521 1816-508L1816-508L1816-494Q1770-486 1770-481L1770-481L1761-485Q1688-485 1581-462L1581-462L1581-448Q1632-418 1632-365L1632-365Q1586-275 1539-218L1539-218L1539-209Q1741-25 1811-24L1811-24Q1837-9 1973 22L1973 22L1991 40L1991 50Q1988 63 1959 73L1959 73Q1924 63 1913 63L1913 63Q1913 71 1890 77L1890 77Q1885 77 1876 73L1876 73Q1836 77 1825 77L1825 77Q1745 77 1645-20L1645-20Q1507-158 1507-186L1507-186L1498-186Q1379-70 1083-10L1083-10L1060-15L1060-24Q1060-39 1161-66L1161-66Q1216-98 1327-135L1327-135Q1349-158 1410-195L1410-195Q1438-213 1438-236L1438-236Q1391-303 1290-370L1290-370L1290-375Q1292-384 1300-384L1300-384Q1332-384 1433-296L1433-296Q1460-273 1480-273L1480-273Q1504-273 1553-384L1553-384Q1553-398 1539-462L1539-462Q1423-453 1300-421L1300-421Q1273-408 1180-393L1180-393Q1115-410 1115-453L1115-453L1129-453Q1265-453 1521-508L1521-508Q1558-521 1742-554Z" /><path d="M2680-667L2680-667Q2776-642 2776-621L2776-621L2776-612Q2776-580 2703-580L2703-580Q2679-584 2675-584L2675-584Q2551-572 2551-561L2551-561L2551-552Q2564-536 2564-506L2564-506L2560-474Q2560-469 2564-469L2564-469L2560-446L2560-381Q2560-372 2574-372L2574-372Q2647-386 2689-405L2689-405Q2737-405 2767-368L2767-368Q2767-327 2703-322L2703-322Q2675-322 2555-335L2555-335L2551-335L2551-192Q2541-126 2541-119L2541-119L2541-114L2592-114Q2621-114 2689-128L2689-128L2698-123L2726-123L2753-128Q2892-116 2892-36L2892-36L2892-31Q2889-22 2869-13L2869-13Q2712-59 2611-59L2611-59Q2587-59 2486-68L2486-68L2477-63Q2469-68 2458-68L2458-68Q2447-68 2422-63L2422-63L2389-68Q2286-45 2150-31L2150-31Q2147-20 2085-13L2085-13Q2043-46 2007-59L2007-59L2002-82L2002-86L2090-96Q2114-91 2136-91L2136-91Q2161-105 2186-105L2186-105Q2227-100 2232-100L2232-100Q2269-104 2269-123L2269-123Q2269-197 2260-197L2260-197L2265-206Q2259-305 2246-322L2246-322L2251-345L2251-363L2242-377L2242-405Q2243-428 2251-428L2251-428Q2309-428 2334-381L2334-381Q2334-377 2329-368L2329-368Q2334-328 2334-303L2334-303L2325-262Q2329-146 2334-146L2334-146Q2325-128 2325-119L2325-119Q2336-110 2339-110L2339-110Q2440-114 2472-114L2472-114Q2481-126 2481-133L2481-133Q2481-172 2486-289L2486-289L2481-289Q2486-335 2491-335L2491-335L2486-381L2486-451Q2486-557 2458-557L2458-557Q2428-557 2357-543L2357-543L2339-543Q2299-543 2283-570L2283-570L2283-589Q2284-598 2292-598L2292-598L2320-594Q2422-594 2680-667Z" /><path d="M3694-764L3694-764L3708-765L3769-715L3769-711Q3748-616 3749-567L3749-567L3758-563Q3776-563 3855-583L3855-583Q3895-567 3897-557L3897-557L3897-543Q3881-520 3847-519L3847-519L3824-518Q3800-518 3745-521L3745-521L3741-512L3742-475Q3744-373 3772-374L3772-374L3776-374Q3810-375 3923-405L3923-405Q3958-406 3979-365L3979-365Q3969-323 3944-323L3944-323Q3717-335 3716-382L3716-382Q3710-382 3702-414L3702-414L3706-437Q3702-455 3696-455L3696-455L3701-465L3699-520L3694-548L3698-557L3693-589Q3701-632 3701-640L3701-640Q3700-695 3671-736L3671-736Q3678-755 3694-764ZM3252-731L3252-731Q3335-704 3336-678L3336-678Q3320-587 3320-567L3320-567Q3328-558 3394-550L3394-550L3395-532Q3395-518 3322-498L3322-498Q3299-472 3300-433L3300-433Q3301-391 3329-392L3329-392Q3407-377 3408-338L3408-338L3408-334Q3391-319 3376-319L3376-319L3372-319Q3338-353 3325-359L3325-359L3302-359Q3294-313 3294-276L3294-276L3295-266Q3295-256 3300-248L3300-248Q3288 15 3269 15L3269 15Q3258 16 3250 20L3250 20Q3229 21 3217-48L3217-48Q3238-91 3248-298L3248-298Q3241-316 3234-316L3234-316Q3079-183 3025-182L3025-182L3015-182L3015-191Q3028-212 3137-300L3137-300Q3206-364 3239-473L3239-473L3239-482L3216-481Q3085-442 3079-441L3079-441L3065-441Q3026-440 2995-476L2995-476Q3000-495 3036-496L3036-496L3114-497Q3266-527 3265-547L3265-547L3263-648Q3263-663 3234-717L3234-717Q3234-724 3252-731ZM3425-629L3425-629Q3499-602 3500-552L3500-552Q3505-544 3505-529L3505-529Q3524-530 3583-545L3583-545Q3590-545 3602-527L3602-527L3603-518Q3603-501 3534-493L3534-493Q3515-497 3502-497L3502-497L3493-478L3504-382L3541-383L3582-407L3591-407Q3671-346 3671-340L3671-340Q3626-310 3604-269L3604-269L3604-246L3673-247Q3689-248 3742-267L3742-267Q3779-268 3808-204L3808-204Q3795-183 3795-167L3795-167L3806-84Q3806 72 3768 73L3768 73L3750 74Q3700 19 3647 21L3647 21L3596 22Q3579 22 3546 41L3546 41Q3509 42 3508-18L3508-18L3507-41Q3506-108 3494-225L3494-225Q3557-226 3597-342L3597-342L3592-375L3573-374L3469-289Q3418-296 3418-325L3418-325L3418-329Q3449-373 3449-390L3449-390L3448-436Q3444-593 3412-592L3412-592L3407-601L3407-615Q3406-622 3425-629ZM3596-213L3596-213L3563-213Q3554-211 3554-203L3554-203Q3556-134 3579-135L3579-135Q3641-150 3662-150L3662-150Q3686-151 3699-128L3699-128Q3684-114 3644-104L3644-104L3612-108L3566-102L3562-70Q3562-59 3567-51L3567-51Q3563-43 3563-33L3563-33Q3571-10 3586-10L3586-10Q3596-10 3669-21L3669-21Q3702-13 3725-13L3725-13Q3742-41 3742-55L3742-55Q3742-60 3737-60L3737-60L3745-120Q3740-150 3739-180L3739-180L3739-198Q3738-230 3697-229L3697-229L3687-229Q3601-213 3596-213Z" /></svg>