<svg xmlns="http://www.w3.org/2000/svg" viewBox="63 -796 4883 894" fill="#000000"><path d="M106 1Q64 1 64-41L64-41Q64-69 98-82L98-82Q161-108 208.50-149Q256-190 293-249L293-249L102-249Q63-249 63-283L63-283Q63-317 102-317L102-317L316-317L316-382L219-382Q183-382 183-414L183-414Q183-447 219-447L219-447L316-447L316-507L213-507Q176-507 176-540L176-540Q176-573 213-573L213-573L316-573L316-627Q316-637 319-644L319-644L193-644Q156-644 157-605L157-605L157-547Q157-498 114-498L114-498Q71-498 71-547L71-547L71-613Q71-669 96-690L96-690Q124-717 175-715L175-715L449-715L449-754Q449-796 494-796L494-796Q539-796 539-754L539-754L539-715L825-715Q877-715 903-690L903-690Q928-668 928-617L928-617L928-547Q928-498 885-498L885-498Q844-498 844-547L844-547L844-605Q844-646 806-644L806-644L668-644L670-628L670-573L787-573Q823-573 823-540L823-540Q823-507 787-507L787-507L670-507L670-447L781-447Q817-447 817-414L817-414Q817-382 781-382L781-382L670-382L670-317L896-317Q936-317 936-283L936-283Q936-249 896-249L896-249L692-249Q764-149 902-93L902-93Q935-80 935-51L935-51Q935-8 893-8L893-8Q854-8 761-74L761-74Q661-146 604-249L604-249L385-249Q327-146 242-72L242-72Q157 1 106 1L106 1ZM280-14Q280-53 320-53L320-53Q386-53 548-21L548-21Q707 12 728 23L728 23Q747 35 747 54L747 54Q747 96 706 96L706 96Q697 96 677 90L677 90Q539 52 336 25L336 25Q280 19 280-14L280-14ZM392-644Q395-637 395-627L395-627L395-573L592-573L592-628L594-644L392-644ZM395-317L592-317L592-382L395-382L395-317ZM395-447L592-447L592-507L395-507L395-447ZM409-168Q409-203 447-203L447-203Q467-203 543-171L543-171Q619-138 619-110L619-110Q619-70 581-70L581-70Q567-70 507-103L507-103L449-130Q409-148 409-168L409-168Z" /><path d="M1668 98Q1633 98 1633 53L1633 53L1633-88L1455-88Q1412-88 1412-124L1412-124Q1412-160 1455-160L1455-160L1633-160L1633-228L1518-228Q1440-228 1440-307L1440-307L1440-542Q1440-621 1518-621L1518-621L1732-621L1785-739Q1801-773 1831-774L1831-774Q1873-774 1873-740L1873-740Q1873-717 1807-621L1807-621L1826-621Q1904-621 1904-542L1904-542L1904-307Q1904-228 1826-228L1826-228L1704-228L1704-160L1906-160Q1947-160 1947-124L1947-124Q1947-88 1906-88L1906-88L1704-88L1704 53Q1704 98 1668 98L1668 98ZM1052-6Q1052-41 1104-48L1104-48L1208-67L1208-236L1158-236Q1085-236 1085-312L1085-312L1085-551Q1085-626 1158-626L1158-626L1208-626L1208-757Q1208-795 1241-795L1241-795Q1274-795 1274-757L1274-757L1274-626L1324-626Q1399-626 1399-551L1399-551L1399-312Q1399-236 1324-236L1324-236L1274-236L1274-79L1343-94L1325-149L1320-170Q1320-198 1350-198L1350-198Q1373-198 1381-178L1381-178Q1440-30 1440-2L1440-2Q1440 33 1403 33L1403 33Q1374 33 1365-7L1365-7L1359-34L1265-6Q1116 38 1093 33L1093 33Q1052 33 1052-6L1052-6ZM1151-332Q1151-308 1176-308L1176-308L1208-308L1208-555L1176-555Q1151-555 1151-530L1151-530L1151-332ZM1274-308L1309-308Q1319-308 1326-314.50Q1333-321 1333-332L1333-332L1333-530Q1333-555 1309-555L1309-555L1274-555L1274-308ZM1481-739Q1481-774 1522-774L1522-774Q1546-774 1576-730L1576-730Q1607-687 1607-667L1607-667Q1607-632 1565-632L1565-632Q1544-632 1512-683L1512-683L1507-689Q1481-732 1481-739L1481-739ZM1510-321Q1510-295 1538-294L1538-294L1633-294L1633-395L1510-395L1510-321ZM1510-457L1633-457L1633-555L1538-555Q1512-555 1510-526L1510-526L1510-457ZM1704-294L1803-294Q1830-294 1830-321L1830-321L1830-395L1704-395L1704-294ZM1704-457L1830-457L1830-526Q1830-555 1803-555L1803-555L1704-555L1704-457Z" /><path d="M2144 62Q2094 62 2094 21L2094 21Q2094-19 2144-19L2144-19L2455-19L2455-169L2245-169Q2195-169 2195-209L2195-209Q2195-249 2245-249L2245-249L2455-249L2455-378L2248-378Q2201-378 2201-416L2201-416Q2201-455 2248-455L2248-455L2755-455Q2802-455 2802-416L2802-416Q2802-378 2755-378L2755-378L2538-378L2538-249L2756-249Q2805-249 2805-209L2805-209Q2805-169 2756-169L2756-169L2538-169L2538-19L2856-19Q2906-19 2906 22L2906 22Q2906 62 2856 62L2856 62L2144 62ZM2054-440Q2054-462 2069-472L2069-472Q2081-480 2140-508L2140-508Q2201-535 2288.50-603.50Q2376-672 2424-731L2424-731L2466-782Q2480-796 2502-796L2502-796Q2547-796 2547-763L2547-763Q2547-754 2540-741L2540-741Q2603-672 2705.50-606Q2808-540 2905-503L2905-503Q2946-488 2946-458L2946-458Q2946-408 2901-408L2901-408Q2864-408 2789-451Q2714-494 2631.50-558.50Q2549-623 2492-680L2492-680Q2363-539 2211-445L2211-445Q2129-396 2093-396L2093-396Q2054-396 2054-440L2054-440Z" /><path d="M3195 82Q3141 82 3116.50 57Q3092 32 3092-23L3092-23L3092-653Q3092-710 3116-735Q3140-760 3195-760L3195-760L3807-760Q3862-760 3886-735Q3910-710 3910-653L3910-653L3910-23Q3910 32 3885.50 57Q3861 82 3807 82L3807 82L3195 82ZM3171-41Q3171 8 3221 8L3221 8L3781 8Q3831 8 3831-42L3831-42L3831-636Q3831-685 3781-685L3781-685L3221-685Q3171-685 3171-636L3171-636L3171-41ZM3205-62Q3205-77 3216.50-85Q3228-93 3250-96L3250-96Q3334-109 3382-132L3382-132Q3430-155 3455-194L3455-194Q3478-230 3479-270L3479-270Q3484-304 3514-304L3514-304Q3548-304 3548-268L3548-268Q3548-227 3541.50-207Q3535-187 3516-152L3516-152Q3482-99 3410-67L3410-67Q3360-47 3318-37L3318-37Q3272-25 3245-25L3245-25Q3205-25 3205-62L3205-62ZM3264-182L3264-328Q3264-404 3340-404L3340-404L3669-404Q3745-404 3745-328L3745-328L3745-182Q3745-144 3709-144L3709-144Q3674-144 3674-182L3674-182L3674-313Q3674-337 3648-339L3648-339L3360-339Q3335-339 3335-313L3335-313L3335-182Q3335-143 3300-143L3300-143Q3264-143 3264-182L3264-182ZM3289-502L3289-572Q3289-601 3307-618Q3325-635 3361-635L3361-635L3648-635Q3718-635 3719-572L3719-572L3719-502Q3719-445 3648-445L3648-445L3359-445Q3289-445 3289-502L3289-502ZM3359-532Q3359-509 3382-509L3382-509L3626-509Q3648-509 3648-532L3648-532L3648-550Q3648-573 3626-573L3626-573L3382-573Q3359-573 3359-550L3359-550L3359-532ZM3521-112Q3521-126 3528.50-134Q3536-142 3549-142L3549-142L3561-140Q3632-119 3765-92L3765-92Q3795-86 3795-62L3795-62Q3795-27 3756-27L3756-27Q3743-27 3692-39Q3641-51 3571-74L3571-74Q3521-91 3521-112L3521-112Z" /><path d="M4600 96Q4562 96 4562 48L4562 48L4562-75L4462-75Q4420-75 4420-112L4420-112Q4420-150 4462-150L4462-150L4562-150L4562-442Q4519-316 4436-195L4436-195Q4388-127 4365-103L4365-103Q4337-72 4319-72L4319-72Q4279-72 4279-115L4279-115Q4279-135 4315-175L4315-175Q4473-350 4532-526L4532-526L4352-526Q4305-526 4305-566L4305-566Q4305-605 4352-605L4352-605L4562-605L4562-746Q4562-796 4600-796L4600-796Q4639-796 4639-746L4639-746L4639-605L4880-605Q4928-605 4928-566L4928-566Q4928-526 4880-526L4880-526L4660-526Q4734-335 4916-167L4916-167Q4946-140 4946-119L4946-119Q4946-72 4903-72L4903-72Q4870-72 4780-191L4780-191Q4686-316 4639-439L4639-439L4639-150L4750-150Q4790-150 4790-112L4790-112Q4790-75 4750-75L4750-75L4639-75L4639 48Q4639 96 4600 96L4600 96ZM4054-334Q4054-352 4075-383L4075-383Q4180-533 4236-720L4236-720Q4256-778 4265-786L4265-786Q4274-796 4294-796L4294-796Q4336-796 4336-762L4336-762Q4336-731 4260-567L4260-567L4260 48Q4260 96 4220 96L4220 96Q4181 96 4181 48L4181 48L4181-411Q4113-289 4089-289L4089-289Q4054-289 4054-334L4054-334Z" /></svg>