<svg xmlns="http://www.w3.org/2000/svg" viewBox="30 -850 4941 943" fill="#000000"><path d="M903-40Q806-86 728.50-141Q651-196 590-272L590-272L409-272Q354-203 272-143Q190-83 104-42L104-42Q89-35 74-35L74-35Q48-35 36-57L36-57Q30-68 30-79L30-79Q30-104 55-116L55-116Q207-182 302-272L302-272L79-272Q64-272 53.50-283Q43-294 43-309L43-309Q43-324 53.50-335.50Q64-347 79-347L79-347L337-347L337-408L209-408Q195-408 185-419Q175-430 175-445L175-445Q175-459 185-470Q195-481 209-481L209-481L337-481L337-538L196-538Q182-538 171.50-549Q161-560 161-574L161-574Q161-588 171.50-599Q182-610 196-610L196-610L337-610L337-675L231-675Q188-675 171.50-662.50Q155-650 155-617L155-617L155-591Q155-572 143-561Q131-550 112-550L112-550Q94-550 81.50-561.50Q69-573 69-592L69-592L69-620Q69-691 103.50-721Q138-751 222-751L222-751L449-751L449-805Q449-825 463-837.50Q477-850 497-850L497-850Q518-850 532-837.50Q546-825 546-805L546-805L546-751L776-751Q860-751 894.50-721Q929-691 929-620L929-620L929-592Q929-573 916.50-561.50Q904-550 886-550L886-550Q867-550 855-561Q843-572 843-591L843-591L843-617Q843-650 826.50-662.50Q810-675 767-675L767-675L664-675L664-610L805-610Q819-610 829-599Q839-588 839-574L839-574Q839-560 829-549Q819-538 805-538L805-538L664-538L664-481L795-481Q809-481 819-470Q829-459 829-445L829-445Q829-430 819-419Q809-408 795-408L795-408L664-408L664-347L923-347Q938-347 948.50-335.50Q959-324 959-309L959-309Q959-294 948.50-283Q938-272 923-272L923-272L696-272Q792-179 948-118L948-118Q961-113 968-102.50Q975-92 975-78L975-78Q975-67 971-59L971-59Q958-34 929-34L929-34Q917-34 903-40L903-40ZM253-43Q253-63 267.50-73.50Q282-84 304-82L304-82Q390-70 517-42Q644-14 727 12L727 12Q741 17 748.50 27Q756 37 756 51L756 51Q756 70 744 81.50Q732 93 715 93L715 93Q707 93 698 90L698 90Q617 64 493 35.50Q369 7 290-3L290-3Q273-6 263-17Q253-28 253-43L253-43ZM391-200Q400-226 428-226L428-226Q433-226 443-224L443-224Q487-214 544-195.50Q601-177 638-160L638-160Q650-155 657.50-145Q665-135 665-123L665-123Q665-105 653-93.50Q641-82 625-82L625-82Q616-82 608-86L608-86Q574-101 516.50-120.50Q459-140 417-151L417-151Q404-155 396.50-165Q389-175 389-187L389-187Q389-192 391-200L391-200ZM424-347L576-347L576-408L424-408L424-347ZM424-481L576-481L576-538L424-538L424-481ZM424-610L576-610L576-675L424-675L424-610Z" /><path d="M1693 85Q1675 85 1663 73.50Q1651 62 1651 43L1651 43L1651-107L1475-107Q1456-107 1446-118.50Q1436-130 1436-145L1436-145Q1436-161 1447-172Q1458-183 1475-183L1475-183L1651-183L1651-255L1623-255Q1538-255 1501.50-288Q1465-321 1465-400L1465-400L1465-507Q1465-586 1501.50-618.50Q1538-651 1623-651L1623-651L1698-651Q1766-755 1789-809L1789-809Q1794-821 1805-828.50Q1816-836 1829-836L1829-836Q1837-836 1844-833L1844-833Q1857-828 1864-818Q1871-808 1871-797L1871-797Q1871-788 1867-780L1867-780Q1857-756 1833.50-719.50Q1810-683 1788-651L1788-651Q1859-646 1889.50-612.50Q1920-579 1920-507L1920-507L1920-400Q1920-321 1883-288Q1846-255 1761-255L1761-255L1735-255L1735-183L1943-183Q1960-183 1971-172Q1982-161 1982-145L1982-145Q1982-129 1971-118Q1960-107 1943-107L1943-107L1735-107L1735 43Q1735 62 1723 73.50Q1711 85 1693 85L1693 85ZM1028-4Q1027-7 1027-14L1027-14Q1027-28 1035.50-38.50Q1044-49 1060-52L1060-52Q1090-58 1197-83L1197-83L1197-282L1196-282Q1145-282 1117.50-292.50Q1090-303 1077.50-330Q1065-357 1065-406L1065-406L1065-520Q1065-569 1077.50-596Q1090-623 1117.50-633.50Q1145-644 1196-644L1196-644L1197-644L1197-798Q1197-815 1208-825.50Q1219-836 1235-836L1235-836Q1251-836 1262-825.50Q1273-815 1273-798L1273-798L1273-644L1274-644Q1325-644 1352.50-633.50Q1380-623 1392.50-596Q1405-569 1405-520L1405-520L1405-406Q1405-357 1392.50-330Q1380-303 1352.50-292.50Q1325-282 1274-282L1274-282L1273-282L1273-102Q1333-118 1345-121L1345-121Q1328-164 1316-189L1316-189Q1314-197 1314-201L1314-201Q1314-216 1325.50-226.50Q1337-237 1353-237L1353-237Q1365-237 1375-230Q1385-223 1389-211L1389-211Q1449-62 1463-14L1463-14Q1465-6 1465-2L1465-2Q1465 14 1453.50 25Q1442 36 1425 36L1425 36Q1412 36 1402 28.50Q1392 21 1389 8L1389 8Q1386-7 1369-55L1369-55Q1314-37 1230-13.50Q1146 10 1081 27L1081 27Q1071 29 1068 29L1068 29Q1053 29 1042.50 20.50Q1032 12 1028-4L1028-4ZM1140-422Q1140-393 1143.50-380.50Q1147-368 1158.50-363.50Q1170-359 1197-359L1197-359L1197-567Q1170-567 1158.50-562.50Q1147-558 1143.50-545.50Q1140-533 1140-504L1140-504L1140-422ZM1273-359Q1300-359 1312-363.50Q1324-368 1327.50-380.50Q1331-393 1331-422L1331-422L1331-504Q1331-533 1327.50-545.50Q1324-558 1312-562.50Q1300-567 1273-567L1273-567L1273-359ZM1496-771Q1490-780 1490-790L1490-790Q1490-800 1495-809Q1500-818 1509-823L1509-823Q1520-830 1532-830L1532-830Q1553-830 1565-812L1565-812Q1572-801 1593-778L1593-778Q1621-744 1630-729L1630-729Q1636-719 1636-708L1636-708Q1636-688 1615-674L1615-674Q1605-668 1594-668L1594-668Q1573-668 1560-687L1560-687Q1549-703 1521-738L1521-738L1496-771ZM1547-399Q1547-357 1564.50-341.50Q1582-326 1629-326L1629-326L1651-326L1651-419L1547-419L1547-399ZM1547-488L1651-488L1651-581L1629-581Q1582-581 1564.50-565.50Q1547-550 1547-508L1547-508L1547-488ZM1735-326L1756-326Q1803-326 1820.50-341.50Q1838-357 1838-399L1838-399L1838-419L1735-419L1735-326ZM1735-488L1838-488L1838-508Q1838-550 1820.50-565.50Q1803-581 1756-581L1756-581L1735-581L1735-488Z" /><path d="M2499 87Q2480 87 2467 73Q2454 59 2454 37L2454 37L2454-219L2082-219Q2064-219 2051-232Q2038-245 2038-263L2038-263Q2038-281 2051-294Q2064-307 2082-307L2082-307L2454-307L2454-434L2147-434Q2130-434 2117.50-446Q2105-458 2105-475L2105-475Q2105-492 2117.50-504.50Q2130-517 2147-517L2147-517L2454-517L2454-791Q2454-813 2467-827Q2480-841 2499-841L2499-841Q2518-841 2531-827Q2544-813 2544-791L2544-791L2544-517L2854-517Q2871-517 2883-504.50Q2895-492 2895-475L2895-475Q2895-458 2883-446Q2871-434 2854-434L2854-434L2544-434L2544-307L2918-307Q2936-307 2949-294Q2962-281 2962-263L2962-263Q2962-245 2949-232Q2936-219 2918-219L2918-219L2544-219L2544 37Q2544 58 2530.50 72.50Q2517 87 2499 87L2499 87ZM2174-734Q2166-743 2166-758L2166-758Q2166-782 2186-796L2186-796Q2199-806 2217-806L2217-806Q2227-806 2236.50-801.50Q2246-797 2252-788L2252-788Q2278-752 2309-704Q2340-656 2355-627L2355-627Q2362-614 2362-600L2362-600Q2362-575 2339-560L2339-560Q2328-553 2313-553L2313-553Q2286-553 2274-575L2274-575Q2270-581 2236.50-638.50Q2203-696 2174-734L2174-734ZM2639-617Q2665-654 2747-782L2747-782Q2754-794 2766-800.50Q2778-807 2791-807L2791-807Q2804-807 2814-801L2814-801Q2826-794 2832.50-782.50Q2839-771 2839-758L2839-758Q2839-746 2833-734L2833-734Q2814-701 2778.50-649.50Q2743-598 2720-568L2720-568Q2704-547 2679-547L2679-547Q2665-547 2652-555L2652-555Q2642-561 2636-571Q2630-581 2630-592L2630-592Q2630-607 2639-617L2639-617Z" /><path d="M3363 62Q3250 62 3189.50 40.50Q3129 19 3103-37Q3077-93 3077-201L3077-201L3077-558Q3077-666 3103-721.50Q3129-777 3189-798.50Q3249-820 3363-820L3363-820L3637-820Q3751-820 3811-798.50Q3871-777 3897-721.50Q3923-666 3923-558L3923-558L3923-201Q3923-93 3897-37Q3871 19 3810.50 40.50Q3750 62 3637 62L3637 62L3363 62ZM3162-199Q3162-119 3179-80Q3196-41 3237.50-27Q3279-13 3363-13L3363-13L3637-13Q3721-13 3762.50-27Q3804-41 3821-80Q3838-119 3838-199L3838-199L3838-560Q3838-637 3821-679L3821-679Q3804-717 3762-731.50Q3720-746 3637-746L3637-746L3363-746Q3282-746 3240-733L3240-733Q3197-720 3179.50-680Q3162-640 3162-560L3162-560L3162-199ZM3222-101Q3220-105 3220-114L3220-114Q3220-123 3224-131L3224-131Q3233-149 3255-152L3255-152Q3456-185 3456-296L3456-296L3456-313Q3456-332 3470-343L3470-343Q3482-352 3502-352L3502-352Q3540-352 3540-312L3540-312L3540-296Q3540-206 3456-143L3456-143Q3380-95 3274-80L3274-80L3263-79Q3233-79 3222-101L3222-101ZM3275-250L3274-304L3275-373Q3275-443 3367-445L3367-445Q3411-447 3502-447L3502-447Q3597-447 3647-445L3647-445Q3697-443 3715-425L3715-425Q3732-408 3733-375L3733-375Q3734-346 3734-300L3734-300Q3734-263 3733-250L3733-250Q3731-235 3719-228L3719-228Q3709-221 3690-221L3690-221Q3675-221 3664-228L3664-228Q3650-236 3650-250L3650-250Q3652-284 3652-299L3652-299Q3652-316 3650-348L3650-348Q3650-364 3644-368L3644-368Q3637-373 3619-373L3619-373Q3589-375 3515-375L3515-375Q3434-375 3387-373L3387-373Q3372-373 3365-368L3365-368Q3360-363 3358-348L3358-348Q3356-267 3357-250L3357-250L3357-248Q3357-237 3344-229L3344-229Q3333-222 3318-222L3318-222Q3300-222 3289-228L3289-228Q3277-235 3275-250L3275-250ZM3288-593Q3288-641 3312.50-667Q3337-693 3395-693L3395-693L3603-693Q3661-693 3685.50-667Q3710-641 3710-593L3710-593Q3710-537 3687-515Q3664-493 3603-493L3603-493L3395-493Q3334-493 3311-515Q3288-537 3288-593L3288-593ZM3367-593Q3367-576 3370.50-569Q3374-562 3380-561Q3386-560 3404-560L3404-560L3594-560Q3612-560 3618-561Q3624-562 3627.50-569Q3631-576 3631-593L3631-593Q3631-611 3623-618.50Q3615-626 3594-626L3594-626L3404-626Q3383-626 3375-618.50Q3367-611 3367-593L3367-593ZM3534-181L3534-187Q3534-200 3540-209L3540-209Q3554-224 3574-224L3574-224Q3579-224 3591-222L3591-222Q3701-190 3767-155L3767-155Q3785-145 3786-124L3786-124L3786-120Q3786-104 3777-95L3777-95Q3764-82 3747-82L3747-82Q3732-82 3714-91L3714-91Q3660-124 3552-157L3552-157Q3536-162 3534-181L3534-181Z" /><path d="M4620 87Q4602 87 4590 74.50Q4578 62 4578 42L4578 42L4578-91L4476-91Q4457-91 4444-104Q4431-117 4431-136L4431-136Q4431-155 4444-168Q4457-181 4476-181L4476-181L4578-181L4578-417Q4534-341 4472-261Q4410-181 4354-125L4354-125Q4338-109 4318-109L4318-109Q4299-109 4286-122L4286-122Q4273-135 4273-154L4273-154Q4273-172 4285-184L4285-184Q4356-252 4439-358.50Q4522-465 4561-543L4561-543L4353-543Q4336-543 4323.50-555.50Q4311-568 4311-585L4311-585Q4311-603 4323.50-615.50Q4336-628 4353-628L4353-628L4578-628L4578-796Q4578-815 4590-827.50Q4602-840 4620-840L4620-840Q4638-840 4650-827.50Q4662-815 4662-796L4662-796L4662-628L4897-628Q4914-628 4927-615.50Q4940-603 4940-585L4940-585Q4940-568 4927-555.50Q4914-543 4897-543L4897-543L4681-543Q4719-465 4800.50-363.50Q4882-262 4957-189L4957-189Q4971-175 4971-157L4971-157Q4971-139 4957-125L4957-125Q4942-110 4922-110L4922-110Q4902-110 4887-125L4887-125Q4827-187 4766-265.50Q4705-344 4662-419L4662-419L4662-181L4765-181Q4784-181 4797-168Q4810-155 4810-136L4810-136Q4810-117 4797-104Q4784-91 4765-91L4765-91L4662-91L4662 42Q4662 62 4650 74.50Q4638 87 4620 87L4620 87ZM4031-417Q4093-490 4157-603.50Q4221-717 4252-803L4252-803Q4258-818 4269-826Q4280-834 4294-834L4294-834Q4313-834 4326.50-821.50Q4340-809 4340-792L4340-792Q4340-784 4337-775L4337-775Q4316-720 4266-623L4266-623L4266 40Q4266 59 4253.50 72Q4241 85 4224 85L4224 85Q4206 85 4194 72Q4182 59 4182 40L4182 40L4182-471Q4149-420 4102-365L4102-365Q4088-348 4066-348L4066-348Q4049-348 4038-358L4038-358Q4022-372 4022-392L4022-392Q4022-405 4031-417L4031-417Z" /></svg>