<svg xmlns="http://www.w3.org/2000/svg" viewBox="67 -766 4904 873" fill="#000000"><path d="M382-502L513-515L513-544Q513-556 507-568L507-568Q502-582 502-588L502-588L502-590Q502-596 506-599L506-599Q510-602 518-602L518-602L522-602Q534-600 545-595L545-595Q556-590 563-585L563-585Q572-580 581-572L581-572Q590-565 590-560L590-560L590-559Q589-555 585-548L585-548Q581-540 580-535L580-535L577-525Q591-529 599-529L599-529Q604-529 623-523L623-523Q641-518 647-512L647-512Q654-507 654-501L654-501L654-499Q653-492 641-492L641-492L569-484L562-418L579-418Q586-418 602-415L602-415Q618-412 627-404L627-404Q635-398 635-395L635-395Q635-393 634-392L634-392Q631-387 614-383L614-383Q599-379 589-379L589-379L554-375L544-313L595-316Q615-318 634-320L634-320Q653-322 665-324L665-324Q678-326 683-326L683-326Q691-326 708-321L708-321Q724-316 735-311L735-311Q747-305 755-297L755-297Q761-290 761-285L761-285L761-283Q761-279 753-275L753-275Q746-271 718-271L718-271L557-273L615-234L684-190Q725-164 754-151L754-151Q784-139 835-123L835-123L912-101L929-96Q934-92 934-88L934-88L934-87Q934-82 928-81L928-81L901-74L847-63Q813-57 793-57L793-57L788-57Q769-59 752-64L752-64Q735-71 714-88L714-88Q691-105 659-136L659-136L594-197Q562-229 556-234L556-234L503-272L368-268L388-248Q396-240 396-234L396-234L396-227Q394-223 386-217L386-217L364-201L324-167Q300-146 283-134L283-134Q267-122 241-107L241-107Q216-92 187-79L187-79Q157-65 139-60L139-60Q120-55 108-51L108-51L87-47Q78-44 73-44L73-44Q71-44 70-45L70-45Q67-47 67-50L67-50L67-51Q67-53 74-57L74-57L91-64Q108-72 136-88L136-88Q162-104 192-125L192-125Q224-146 251-168L251-168Q278-191 292-208L292-208Q306-225 313-241L313-241L325-263Q306-260 282-258L282-258Q260-256 258-256L258-256L222-250Q208-250 191-254L191-254Q175-258 164-265L164-265Q153-271 150-276L150-276Q148-279 148-282L148-282Q148-284 149-286L149-286Q151-291 167-291L167-291L198-291L343-301L337-365L304-366Q288-367 280-371L280-371Q272-375 271-381L271-381L271-384Q271-388 273-391L273-391Q276-395 288-396L288-396Q300-398 312-398L312-398L334-400L327-464L292-465Q277-466 267-469L267-469Q257-473 253-479L253-479Q250-483 250-486L250-486Q250-488 251-489L251-489Q253-493 280-494L280-494L324-495L321-523Q320-537 314-551L314-551Q309-564 309-570L309-570Q310-576 313-579L313-579Q316-582 323-582L323-582Q333-582 356-574L356-574Q380-568 385-562L385-562Q390-555 390-552L390-552Q391-551 391-549L391-549Q391-548 390-546L390-546Q390-543 386-531L386-531Q382-520 382-514L382-514L382-502ZM382-467L382-404L508-414L513-479L382-467ZM384-366L386-305Q438-307 450-309L450-309L503-311L505-373L384-366ZM337-641L458-648Q452-656 445-664L445-664Q439-672 435-684L435-684L413-727Q405-744 405-749L405-749Q405-753 407-755L407-755Q409-758 416-758L416-758Q427-757 446-749L446-749Q465-741 478-733L478-733Q489-727 497-716L497-716Q503-706 505-692L505-692Q505-676 499-667L499-667L489-650L636-667Q669-670 679-672L679-672L710-680Q722-682 729-682L729-682Q741-680 754-672L754-672Q768-664 786-648L786-648L818-617Q832-604 832-596L832-596L832-592Q832-588 831-586L831-586Q827-580 820-576L820-576Q813-574 798-572L798-572Q782-571 753-566L753-566Q724-561 707-556L707-556L688-549Q680-546 676-546L676-546Q672-546 671-548L671-548L671-550Q671-554 676-562L676-562L688-582Q690-584 698-598L698-598Q707-611 708-618L708-618Q708-626 704-631L704-631Q701-636 691-636L691-636Q688-636 684-635L684-635L665-635L505-622L312-600L257-594L229-598Q228-585 226-576L226-576Q224-566 211-539L211-539Q198-512 189-500L189-500Q182-490 174-485L174-485Q167-481 163-481L163-481L161-481Q151-481 144-490L144-490Q136-499 133-513L133-513Q132-518 132-522L132-522Q132-531 136-539L136-539L157-574L175-611Q184-631 188-646L188-646Q192-661 196-668L196-668Q200-674 208-676L208-676Q216-676 220-660L220-660L227-635Q319-639 337-641L337-641ZM429 39L397 8L366-22Q358-29 358-33L358-33Q358-35 359-36L359-36Q361-38 365-38L365-38Q369-38 374-37L374-37L413-26Q431-21 457-10L457-10Q483 1 500 11L500 11Q517 21 527 36L527 36Q538 51 539 67L539 67L539 71Q539 85 532 96L532 96Q526 104 519 106L519 106Q516 107 511 107L511 107Q507 107 501 106L501 106Q486 103 468 81L468 81L429 39ZM459-93L436-120L403-157Q394-167 391-173L391-173Q389-176 389-179L389-179Q389-180 390-182L390-182Q392-185 401-186L401-186Q413-186 436-178L436-178L472-167Q499-158 509-146L509-146Q521-133 521-117L521-117L521-110Q521-98 517-88L517-88Q511-75 502-72L502-72L498-72Q491-72 479-78L479-78Q467-85 459-93L459-93Z" /><path d="M1347-497Q1368-497 1401-473L1401-473Q1429-454 1429-441L1429-441Q1429-439 1421-436L1421-436Q1411-428 1397-401L1397-401L1367-345Q1372-344 1375-343L1375-343Q1390-334 1390-324L1390-324Q1390-318 1378-313L1378-313Q1313-303 1254-292L1254-292Q1253-245 1253-189L1253-189Q1272-196 1291-205L1291-205Q1312-215 1323-219L1323-219Q1317-231 1311-245L1311-245Q1300-268 1300-270L1300-270Q1300-273 1304-273L1304-273Q1315-273 1338-260L1338-260Q1366-241 1380-216L1380-216Q1394-194 1394-173L1394-173Q1394-138 1371-138L1371-138Q1356-138 1338-181L1338-181Q1335-189 1331-199L1331-199Q1325-195 1319-192L1319-192Q1200-126 1159-95L1159-95Q1136-70 1132-70L1132-70Q1113-70 1084-95L1084-95Q1062-116 1062-126L1062-126Q1062-135 1084-137L1084-137Q1122-141 1218-177L1218-177Q1218-235 1217-286L1217-286Q1193-281 1171-277L1171-277Q1167-277 1164-278L1164-278Q1163-259 1152-259L1152-259Q1138-259 1127-287L1127-287Q1086-405 1068-420L1068-420Q1059-429 1058-431L1058-431Q1058-441 1070-441L1070-441Q1096-440 1117-431L1117-431L1118-430Q1122-431 1125-431L1125-431Q1174-441 1214-451L1214-451Q1212-551 1208-592L1208-592Q1204-637 1199-652L1199-652Q1195-667 1195-673L1195-673Q1195-681 1207-681L1207-681Q1229-681 1260-663L1260-663Q1292-643 1292-630L1292-630Q1292-621 1289-605L1289-605Q1268-563 1265-503L1265-503Q1263-486 1261-465L1261-465Q1303-478 1332-489L1332-489Q1344-497 1347-497L1347-497ZM1140-388L1158-308Q1190-314 1217-320L1217-320Q1216-377 1215-421L1215-421Q1180-414 1135-404L1135-404Q1138-396 1140-388L1140-388ZM1259-430Q1256-387 1255-329L1255-329Q1303-340 1325-344L1325-344Q1343-405 1343-415L1343-415Q1343-438 1308-438L1308-438Q1301-438 1259-430L1259-430ZM1445-566Q1471-565 1492-556L1492-556Q1496-553 1499-551L1499-551L1651-576Q1649-578 1648-579L1648-579Q1648-585 1658-598L1658-598Q1685-636 1701-667L1701-667Q1724-715 1726-755L1726-755Q1726-766 1738-766L1738-766Q1755-764 1780-755L1780-755Q1816-742 1816-727L1816-727Q1816-723 1742-646L1742-646Q1682-590 1667-580L1667-580L1706-586Q1738-590 1767-602L1767-602Q1785-609 1792-609L1792-609Q1815-609 1848-593L1848-593Q1886-570 1886-559L1886-559Q1886-552 1870-536L1870-536Q1854-522 1835-449L1835-449Q1793-298 1777-298L1777-298Q1766-298 1759-310L1759-310Q1758-313 1757-315L1757-315Q1712-310 1667-305L1667-305L1667-221Q1756-233 1784-236L1784-236Q1816-239 1846-244L1846-244Q1864-247 1875-247L1875-247Q1895-247 1922-231L1922-231Q1950-216 1953-199L1953-199Q1951-185 1921-184L1921-184Q1900-184 1852-187L1852-187L1812-188Q1746-188 1667-179L1667-179L1667-124Q1667-8 1658 56L1658 56Q1644 105 1632 105L1632 105Q1621 105 1617 62L1617 62L1617-173Q1553-165 1500-152L1500-152Q1472-145 1464-145L1464-145Q1451-145 1433-156L1433-156Q1411-173 1410-177L1410-177Q1410-182 1421-184L1421-184Q1474-189 1568-206L1568-206Q1594-210 1617-213L1617-213L1617-299Q1583-294 1550-290L1550-290Q1541-290 1535-293L1535-293Q1534-270 1523-270L1523-270Q1509-270 1499-316L1499-316Q1460-515 1443-538L1443-538Q1434-553 1433-556L1433-556Q1433-566 1445-566L1445-566ZM1525-408L1533-317Q1581-325 1617-333L1617-333L1617-408Q1571-402 1558-402L1558-402Q1541-402 1525-408L1525-408ZM1667-415L1667-342Q1729-352 1734-352L1734-352Q1746-352 1755-349L1755-349Q1759-362 1765-386L1765-386Q1771-411 1776-431L1776-431Q1712-421 1667-415L1667-415ZM1515-513L1523-428Q1565-433 1616-441L1616-441Q1613-491 1601-522L1601-522Q1598-529 1596-533L1596-533Q1532-519 1514-517L1514-517Q1515-515 1515-513L1515-513ZM1640-543Q1643-542 1644-541L1644-541Q1675-519 1675-509L1675-509Q1667-478 1667-470L1667-470L1667-450Q1690-456 1714-461L1714-461Q1736-466 1753-466L1753-466Q1773-465 1781-460L1781-460Q1789-505 1789-536L1789-536Q1789-559 1765-559L1765-559Q1730-559 1640-543L1640-543ZM1480-716Q1493-716 1549-689L1549-689Q1597-666 1597-638L1597-638Q1597-587 1574-587L1574-587Q1544-587 1494-675L1494-675Q1476-707 1476-712L1476-712Q1476-716 1480-716L1480-716Z" /><path d="M2331-291L2328-95L2470-107L2466-498Q2466-523 2462-545L2462-545Q2458-566 2450-578L2450-578L2442-590L2351-581Q2335-579 2321-579L2321-579L2313-579Q2296-579 2278-584L2278-584Q2261-590 2256-597L2256-597Q2253-601 2253-604L2253-604Q2253-607 2254-609L2254-609Q2257-614 2271-616L2271-616L2292-619L2331-623Q2349-625 2430-638L2430-638Q2511-650 2534-656L2534-656Q2558-660 2591-669L2591-669Q2623-678 2638-683L2638-683Q2653-688 2659-688L2659-688Q2668-688 2691-680L2691-680Q2714-672 2721-665L2721-665Q2727-658 2728-654L2728-654L2728-649Q2728-648 2720-643L2720-643Q2714-637 2696-634L2696-634L2657-625Q2626-619 2558-607L2558-607L2505-600Q2526-592 2536-583L2536-583Q2546-575 2546-570L2546-570Q2546-564 2543-553L2543-553Q2540-543 2536-520L2536-520Q2533-496 2533-482L2533-482L2530-365L2600-383L2640-394Q2676-402 2689-408L2689-408Q2702-413 2708-414L2708-414Q2717-414 2737-407L2737-407Q2759-400 2769-394L2769-394Q2778-386 2778-380L2778-380Q2777-371 2770-368L2770-368Q2761-365 2753-363L2753-363L2730-357Q2724-355 2671-348L2671-348L2626-339Q2598-334 2578-334L2578-334L2572-334Q2558-335 2550-338L2550-338L2530-342L2527-111L2648-121Q2665-123 2685-125L2685-125L2759-135Q2790-139 2813-144L2813-144Q2835-148 2843-148L2843-148Q2854-148 2878-141L2878-141Q2901-133 2920-124L2920-124Q2938-115 2945-107L2945-107Q2952-99 2952-93L2952-93L2952-92Q2951-86 2943-82L2943-82Q2940-81 2933-81L2933-81L2925-81L2886-79L2798-78L2673-76Q2604-76 2573-74L2573-74Q2544-72 2481-67L2481-67Q2421-63 2365-57L2365-57Q2310-51 2271-45L2271-45L2226-36Q2184-28 2163-22L2163-22Q2146-17 2137-17L2137-17L2135-17Q2126-17 2110-21L2110-21Q2096-25 2077-34L2077-34Q2058-44 2053-50L2053-50Q2048-55 2048-59L2048-59Q2049-63 2052-65L2052-65Q2056-68 2073-70L2073-70L2109-72L2200-78L2274-86L2271-297Q2271-307 2269-333L2269-333Q2266-359 2264-369L2264-369Q2262-379 2256-390L2256-390Q2251-400 2250-404L2250-404Q2250-408 2253-413L2253-413Q2256-417 2265-417L2265-417Q2269-417 2273-416L2273-416Q2286-415 2302-412L2302-412Q2317-408 2329-401L2329-401Q2342-395 2343-389L2343-389Q2343-384 2337-367L2337-367Q2335-362 2333-345L2333-345L2332-334Q2331-324 2331-291L2331-291Z" /><path d="M3306-348L3303-212L3301-26Q3300 16 3299 22L3299 22Q3297 29 3295 37L3295 37Q3292 45 3287 55L3287 55Q3281 66 3275 72L3275 72Q3270 78 3266 79L3266 79Q3262 79 3256 72L3256 72Q3251 68 3248 61L3248 61L3240 39Q3234 25 3232 16L3232 16Q3230 6 3230-6L3230-6Q3230-14 3236-35L3236-35Q3241-57 3244-78L3244-78Q3248-100 3250-126L3250-126Q3252-152 3254-171L3254-171L3264-332L3235-284Q3223-262 3198-229L3198-229Q3174-194 3150-172L3150-172Q3127-148 3105-132L3105-132Q3083-115 3075-110L3075-110L3059-102Q3055-100 3052-100L3052-100Q3050-100 3049-101L3049-101Q3047-102 3047-104L3047-104Q3047-106 3051-110L3051-110L3060-120Q3068-129 3086-148L3086-148Q3104-169 3122-191L3122-191Q3139-215 3164-255L3164-255Q3189-295 3207-329L3207-329Q3226-363 3240-400L3240-400L3252-429L3211-422Q3192-418 3171-416L3171-416Q3148-414 3133-414L3133-414Q3112-415 3103-420L3103-420Q3092-424 3087-430L3087-430Q3082-435 3082-438L3082-438L3082-439Q3084-443 3094-445L3094-445L3125-449Q3150-451 3175-457L3175-457L3266-475L3266-547L3264-600Q3264-621 3263-631L3263-631Q3262-641 3258-661L3258-661Q3255-681 3250-691L3250-691Q3245-701 3245-706L3245-706L3245-707Q3246-712 3250-716L3250-716Q3253-718 3259-718L3259-718Q3263-718 3269-717L3269-717L3283-712Q3291-709 3303-701L3303-701Q3314-695 3325-686L3325-686Q3335-677 3336-671L3336-671L3336-669Q3336-663 3332-651L3332-651Q3329-643 3326-627L3326-627Q3322-611 3320-600L3320-600Q3318-587 3316-548L3316-548L3313-485L3330-490Q3354-496 3365-500L3365-500Q3376-504 3379-505L3379-505L3385-505Q3392-505 3400-504L3400-504Q3413-501 3428-494L3428-494Q3439-487 3439-482L3439-482L3439-480Q3438-475 3431-469L3431-469Q3423-463 3402-459L3402-459L3309-438L3305-363L3336-352Q3351-346 3365-338L3365-338Q3381-330 3391-319L3391-319Q3401-309 3404-299L3404-299Q3408-289 3408-276L3408-276L3408-273Q3408-263 3402-255L3402-255Q3395-246 3384-246L3384-246Q3373-246 3359-266L3359-266L3306-348ZM3717-611L3715-574L3776-592Q3813-603 3823-606L3823-606Q3834-611 3838-611L3838-611L3843-611Q3852-611 3865-606L3865-606Q3883-600 3889-594L3889-594Q3893-586 3893-582L3893-582Q3893-574 3880-569L3880-569Q3868-563 3845-560L3845-560L3795-549Q3780-547 3760-543L3760-543Q3739-541 3732-541L3732-541L3714-543L3711-510Q3710-499 3710-489L3710-489Q3710-479 3711-469L3711-469Q3713-451 3719-440L3719-440Q3726-430 3742-421L3742-421Q3759-412 3791-410L3791-410Q3802-409 3813-409L3813-409Q3833-409 3852-414L3852-414Q3879-420 3891-434L3891-434Q3901-447 3906-468L3906-468Q3912-488 3915-506L3915-506L3918-525Q3918-530 3922-530L3922-530L3924-530Q3928-529 3930-521L3930-521L3932-506L3936-475Q3938-464 3943-451L3943-451Q3948-439 3954-431L3954-431Q3959-423 3961-417L3961-417L3961-415Q3961-410 3953-398L3953-398Q3943-385 3922-375L3922-375Q3902-364 3873-357L3873-357Q3844-350 3814-350L3814-350Q3785-350 3758-357L3758-357Q3730-363 3711-375L3711-375Q3691-387 3681-405L3681-405Q3671-423 3668-440L3668-440Q3666-454 3666-475L3666-475L3666-488L3669-607L3669-630L3670-629Q3669-646 3668-651L3668-651Q3668-657 3665-684L3665-684Q3662-709 3658-720L3658-720Q3654-729 3654-734L3654-734Q3654-739 3657-742L3657-742Q3660-744 3669-744L3669-744Q3679-742 3691-736L3691-736Q3705-730 3712-725L3712-725Q3720-721 3728-711L3728-711Q3735-703 3735-696L3735-696Q3734-695 3729-684L3729-684Q3723-672 3721-657L3721-657L3719-640Q3717-622 3717-611L3717-611ZM3504-502L3503-502L3500-434L3500-412Q3500-405 3504-402L3504-402Q3505-401 3508-401L3508-401Q3513-401 3526-408L3526-408L3553-420L3599-443L3613-450Q3616-451 3619-451L3619-451Q3622-451 3625-449L3625-449Q3628-448 3628-446L3628-446Q3628-444 3625-441L3625-441L3614-432L3541-371L3506-340L3486-320Q3477-311 3471-311L3471-311Q3465-311 3458-320L3458-320Q3450-330 3447-337L3447-337Q3443-344 3440-353L3440-353Q3438-357 3438-361L3438-361Q3438-363 3439-365L3439-365L3444-372Q3449-379 3451-391L3451-391Q3453-402 3454-415L3454-415Q3455-428 3457-499L3457-499Q3459-570 3459-586L3459-586Q3458-599 3456-611L3456-611Q3453-624 3448-633L3448-633L3441-644Q3438-648 3438-652L3438-652Q3438-655 3439-657L3439-657Q3441-662 3455-662L3455-662Q3463-662 3472-660L3472-660Q3480-658 3492-653L3492-653Q3504-648 3510-643L3510-643Q3518-637 3518-632L3518-632Q3518-626 3514-616L3514-616Q3511-609 3510-604L3510-604Q3509-600 3506-581L3506-581Q3504-563 3504-558L3504-558L3505-540L3545-553Q3572-561 3580-564L3580-564Q3588-568 3592-568L3592-568Q3596-568 3611-563L3611-563Q3626-559 3634-553L3634-553Q3641-549 3641-544L3641-544L3641-543Q3640-539 3635-535L3635-535Q3629-531 3613-529L3613-529L3582-521L3527-516L3504-513L3504-502ZM3594-258L3575-238L3666-254Q3678-256 3704-261L3704-261Q3730-267 3743-271L3743-271Q3757-275 3762-275L3762-275Q3768-275 3774-273L3774-273Q3781-271 3803-260L3803-260Q3824-248 3832-240L3832-240Q3842-232 3842-228L3842-228Q3842-223 3836-213L3836-213Q3829-199 3826-185L3826-185Q3824-170 3824-141L3824-141L3823-20L3826 25Q3826 39 3822 49L3822 49Q3818 58 3812 68L3812 68Q3805 80 3798 87L3798 87Q3791 93 3786 93L3786 93L3784 93Q3777 92 3772 84L3772 84Q3768 75 3765 61L3765 61Q3762 47 3762 42L3762 42L3760 20L3533 35L3529 53Q3527 62 3523 66L3523 66Q3520 69 3516 70L3516 70Q3512 70 3505 61L3505 61Q3496 49 3489 31L3489 31Q3482 14 3482 3L3482 3Q3482-2 3485-13L3485-13Q3488-23 3490-36L3490-36Q3493-49 3494-68L3494-68L3495-164Q3495-182 3493-196L3493-196Q3492-211 3486-223L3486-223Q3481-232 3481-237L3481-237L3481-239Q3482-243 3486-246L3486-246Q3488-248 3492-248L3492-248Q3498-248 3510-244L3510-244L3537-233Q3551-252 3560-266L3560-266Q3568-278 3577-297L3577-297Q3587-315 3591-330L3591-330Q3595-341 3595-350L3595-350Q3595-354 3594-356L3594-356Q3593-362 3593-365L3593-365Q3593-369 3594-371L3594-371Q3596-375 3603-377L3603-377Q3604-378 3606-378L3606-378Q3612-378 3622-373L3622-373Q3637-367 3645-361L3645-361Q3653-355 3662-347L3662-347Q3668-340 3668-334L3668-334L3668-331Q3666-328 3662-324L3662-324L3646-312Q3639-305 3623-288L3623-288L3594-258ZM3539-90L3535-4L3676-21L3713-25Q3726-24 3736-20L3736-20L3765-6L3765-113L3633-94L3609-90Q3597-87 3586-86L3586-86L3563-86L3539-90ZM3541-206L3539-114L3634-129Q3666-133 3688-139L3688-139Q3709-145 3719-145L3719-145Q3723-145 3742-139L3742-139L3765-133L3763-192Q3762-207 3758-215L3758-215Q3755-223 3751-229L3751-229Q3746-232 3725-232L3725-232Q3691-230 3661-227L3661-227Q3631-222 3600-215L3600-215Q3568-207 3563-207L3563-207L3541-206Z" /><path d="M4618-473L4617-453L4634-435Q4642-426 4646-420L4646-420L4710-345Q4744-305 4776-274L4776-274Q4810-244 4851-221L4851-221Q4892-196 4927-183L4927-183L4966-168Q4971-166 4971-160L4971-160Q4970-154 4964-153L4964-153L4937-146Q4928-145 4880-138L4880-138Q4849-134 4833-134L4833-134Q4823-134 4819-135L4819-135Q4810-139 4798-149L4798-149Q4786-160 4773-178L4773-178Q4761-193 4724-252L4724-252Q4687-311 4671-332L4671-332L4616-408L4612-268L4610-160Q4625-162 4639-165L4639-165Q4653-168 4671-173L4671-173Q4688-178 4694-179L4694-179Q4702-179 4708-177L4708-177L4729-166Q4747-157 4751-152L4751-152Q4754-148 4754-146L4754-146L4754-144Q4753-139 4743-137L4743-137L4728-133Q4720-130 4702-129L4702-129L4660-123Q4640-121 4639-121L4639-121L4609-117L4608-10L4606 23Q4605 37 4604 45L4604 45Q4603 52 4599 62L4599 62Q4594 74 4589 81L4589 81Q4585 88 4579 93L4579 93Q4575 98 4570 98L4570 98Q4565 98 4560 90L4560 90Q4552 82 4544 62L4544 62Q4536 40 4534 31L4534 31Q4533 26 4533 20L4533 20L4533 12Q4533 4 4538-13L4538-13Q4542-29 4546-51L4546-51L4554-94L4556-111L4524-107L4493-105L4468-105Q4456-105 4446-107L4446-107Q4438-109 4429-113L4429-113Q4419-117 4413-123L4413-123Q4409-128 4409-132L4409-132L4409-135Q4409-138 4411-139L4411-139Q4413-141 4424-141L4424-141L4435-142Q4446-143 4470-144L4470-144Q4493-145 4509-146L4509-146Q4523-148 4542-150L4542-150L4561-153Q4562-167 4563-174L4563-174Q4563-180 4563-188L4563-188L4567-394L4538-348Q4522-323 4490-286L4490-286Q4458-249 4423-216L4423-216Q4388-182 4354-161L4354-161Q4320-140 4308-135L4308-135L4284-127Q4282-126 4280-126L4280-126Q4277-126 4276-129L4276-129L4276-131Q4276-135 4284-142L4284-142L4300-155Q4315-169 4342-194L4342-194Q4368-220 4397-252L4397-252L4456-321Q4483-357 4503-391L4503-391L4548-462Q4529-459 4519-457L4519-457Q4509-455 4486-450L4486-450Q4465-445 4450-441L4450-441Q4436-438 4425-433L4425-433Q4415-428 4411-428L4411-428Q4406-428 4394-430L4394-430Q4382-433 4377-435L4377-435Q4372-437 4358-443L4358-443Q4344-451 4340-457L4340-457Q4337-460 4337-463L4337-463Q4337-465 4338-466L4338-466Q4339-470 4345-471L4345-471L4354-472Q4358-472 4382-475L4382-475L4461-485L4500-493Q4514-496 4532-498L4532-498Q4550-500 4553-501L4553-501L4569-504L4571-622Q4571-637 4569-653L4569-653Q4568-670 4566-686L4566-686Q4564-701 4562-709L4562-709Q4560-717 4554-727L4554-727Q4550-735 4549-740L4549-740Q4549-746 4552-750L4552-750Q4556-754 4563-754L4563-754Q4570-754 4584-750L4584-750Q4597-746 4608-741L4608-741Q4619-736 4632-728L4632-728Q4644-719 4644-713L4644-713L4644-711Q4644-706 4640-696L4640-696Q4637-690 4631-664L4631-664L4625-642Q4622-625 4621-602L4621-602L4619-512Q4632-514 4640-516L4640-516Q4648-517 4660-519L4660-519Q4672-521 4703-527L4703-527Q4733-533 4751-539L4751-539Q4767-545 4773-545L4773-545Q4776-546 4780-546L4780-546Q4790-546 4802-541L4802-541Q4817-535 4824-531L4824-531Q4832-527 4844-520L4844-520Q4854-512 4855-507L4855-507Q4855-502 4851-498L4851-498Q4845-494 4804-490L4804-490L4778-488L4722-484L4648-477L4618-473ZM4209-389L4206-406L4185-383Q4175-373 4150-352L4150-352Q4127-329 4105-312L4105-312Q4084-294 4071-287L4071-287L4049-273Q4044-271 4041-271L4041-271Q4037-271 4035-275L4035-275Q4034-277 4034-278L4034-278Q4034-285 4045-296L4045-296L4059-309L4093-344Q4106-357 4132-389L4132-389Q4156-420 4177-450L4177-450Q4198-480 4211-503L4211-503L4248-570Q4271-615 4276-632L4276-632Q4282-648 4284-666L4284-666Q4286-684 4286-693L4286-693Q4286-703 4287-707L4287-707Q4288-713 4292-716L4292-716Q4295-718 4301-718L4301-718L4306-718Q4317-716 4330-705L4330-705L4352-688Q4359-682 4369-670L4369-670Q4379-659 4379-655L4379-655L4379-654Q4378-650 4370-645L4370-645L4358-635Q4354-630 4349-621L4349-621L4331-594L4302-546L4264-484L4238-447L4231-438Q4236-436 4242-432L4242-432Q4247-428 4256-419L4256-419Q4264-410 4265-405L4265-405Q4265-400 4261-383L4261-383Q4259-378 4258-360L4258-360L4255-331Q4253-314 4253-285L4253-285L4247-88L4245-18Q4244-8 4241 1L4241 1Q4239 10 4233 21L4233 21Q4229 31 4224 37L4224 37Q4220 43 4215 44L4215 44L4214 44Q4209 44 4204 35L4204 35Q4197 27 4194 21L4194 21Q4190 13 4186 0L4186 0L4178-21Q4176-26 4176-32L4176-32Q4176-36 4177-40L4177-40Q4177-45 4181-60L4181-60Q4186-74 4190-98L4190-98Q4194-122 4196-137L4196-137Q4198-152 4201-174L4201-174L4206-232Q4210-274 4211-286L4211-286Q4212-299 4212-334L4212-334Q4211-358 4210-371L4210-371Q4210-385 4209-389L4209-389Z" /></svg>