<svg xmlns="http://www.w3.org/2000/svg" viewBox="60 -840.4014282226562 4895.03271484375 920.4014282226562" fill="#000000"><path d="M357-676C332-676 319-658 319-626L319-607L209-607C177-607 159-597 159-579C159-561 177-551 209-551L319-551L319-478L226-478C194-478 176-468 176-451C176-434 194-423 226-423L319-423L319-348L110-348C78-348 60-337 60-318C60-299 78-287 110-287L303-287C251-225 175-170 95-133C83-128 76-120 72-112C60-93 69-67 95-63C105-61 116-63 129-69C229-118 327-198 386-287L607-287C672-206 773-129 872-80C883-74 897-76 908-79C930-86 953-100 940-121C936-129 926-136 911-142C831-178 751-231 694-287L894-287C926-287 944-298 944-318C944-337 926-348 894-348L684-348L684-423L770-423C802-423 820-433 820-451C820-468 802-478 770-478L684-478L684-551L788-551C820-551 838-561 838-579C838-597 820-607 788-607L684-607L684-642C684-664 670-676 646-676C622-676 608-658 608-626L608-607L394-607L394-642C394-664 381-676 357-676ZM113-584C136-584 149-602 149-634L149-702L849-702L849-634C849-602 863-584 887-584C911-584 925-602 925-634L925-716C925-748 907-766 875-766L557-766C551-780 544-795 536-810C522-837 502-845 477-838C454-832 449-809 464-777C466-774 468-770 470-766L126-766C94-766 76-748 76-716L76-634C76-602 90-584 113-584ZM319-27C448-4 590 35 686 72C708 80 725 74 735 54C745 34 733 15 701 4C600-30 458-67 333-88C304-92 286-85 275-66C265-48 283-34 319-27ZM436-180C488-164 542-144 582-125C603-116 619-119 631-137C642-154 630-173 599-186C555-203 501-221 451-234C423-241 405-237 394-220C384-206 401-191 436-180ZM394-348L394-423L608-423L608-348ZM394-478L394-551L608-551L608-478Z" /><path d="M1519-319L1519-438L1647-438L1647-319ZM1046-21C1050 3 1070 12 1102 5C1177-11 1267-29 1354-47C1357-33 1359-20 1362-7C1366 19 1378 31 1396 25C1415 19 1424 1 1418-30C1409-76 1396-131 1381-182C1372-214 1357-227 1340-222C1323-217 1319-198 1327-166C1332-149 1336-131 1340-113L1264-98L1264-288L1348-288C1380-288 1398-306 1398-338L1398-614C1398-646 1380-664 1348-664L1264-664L1264-786C1264-818 1253-836 1233-836C1213-836 1202-818 1202-786L1202-664L1121-664C1089-664 1071-646 1071-614L1071-284C1071-252 1082-234 1101-234C1120-234 1131-252 1131-284L1131-288L1202-288L1202-86C1161-78 1123-71 1088-65C1056-60 1042-44 1046-21ZM1131-352L1131-601L1206-601L1206-352ZM1259-352L1259-601L1337-601L1337-352ZM1414-138C1415-115 1434-103 1465-103L1647-103L1647 30C1647 62 1660 80 1683 80C1706 80 1718 62 1718 30L1718-103L1908-103C1940-103 1958-116 1958-138C1958-160 1940-172 1908-172L1718-172L1718-260L1865-260C1897-260 1915-278 1915-310L1915-620C1915-652 1897-670 1865-670L1796-670C1814-698 1834-732 1853-765C1870-794 1867-816 1845-826C1822-837 1803-825 1790-795C1770-752 1746-705 1724-670L1503-670C1471-670 1453-652 1453-620L1453-310C1453-278 1471-260 1503-260L1647-260L1647-172L1464-172C1431-172 1413-161 1414-138ZM1530-765C1542-751 1553-736 1562-722C1576-698 1592-689 1611-697C1630-704 1633-726 1614-755C1604-771 1591-788 1578-804C1560-828 1540-833 1521-823C1504-814 1508-793 1530-765ZM1519-494L1519-611L1647-611L1647-494ZM1718-319L1718-438L1846-438L1846-319ZM1718-494L1718-611L1846-611L1846-494Z" /><path d="M2869-799L2131-799C2099-799 2081-781 2081-749L2081 9C2081 41 2099 59 2131 59L2869 59C2901 59 2919 41 2919 9L2919-749C2919-781 2901-799 2869-799ZM2154-3L2154-736L2844-736L2844-3ZM2207-76C2218-56 2238-49 2269-58C2507-123 2537-217 2537-291L2537-302C2537-334 2525-352 2504-352C2483-352 2470-334 2470-302L2470-294C2470-241 2456-168 2250-117C2212-107 2196-93 2207-76ZM2280-183C2302-183 2314-201 2314-233L2314-383L2681-383L2681-238C2681-206 2694-188 2716-188C2738-188 2751-206 2751-238L2751-392C2751-424 2733-442 2701-442L2296-442C2264-442 2246-424 2246-392L2246-233C2246-201 2258-183 2280-183ZM2321-502L2677-502C2709-502 2727-520 2727-552L2727-634C2727-666 2709-684 2677-684L2321-684C2289-684 2271-666 2271-634L2271-552C2271-520 2289-502 2321-502ZM2337-555L2337-631L2656-631L2656-555ZM2570-139C2625-114 2685-84 2729-60C2750-49 2767-52 2777-70C2787-87 2777-106 2747-121C2702-143 2645-169 2594-192C2565-204 2546-202 2536-186C2527-171 2539-153 2570-139Z" /><path d="M3227-521L3227-739L3461-739L3461-521ZM3105-157L3896-157C3928-157 3946-169 3946-191C3946-212 3928-224 3896-224L3536-224L3536-314L3811-314C3843-314 3861-325 3861-345C3861-365 3843-376 3811-376L3536-376L3536-458L3791-458C3823-458 3841-476 3841-508L3841-752C3841-784 3823-802 3791-802L3205-802C3173-802 3155-784 3155-752L3155-508C3155-476 3173-458 3205-458L3461-458L3461-376L3188-376C3156-376 3138-365 3138-345C3138-325 3156-314 3188-314L3461-314L3461-224L3105-224C3073-224 3055-212 3055-191C3055-170 3073-157 3105-157ZM3092 68C3115 79 3137 75 3155 52C3179 23 3200-12 3217-47C3233-79 3226-102 3204-106C3180-111 3164-99 3150-72C3135-43 3117-15 3097 9C3075 37 3071 58 3092 68ZM3308-648C3318-627 3327-606 3334-587C3343-561 3356-550 3372-557C3389-564 3395-583 3384-612C3376-632 3366-654 3355-674C3341-701 3323-710 3307-705C3292-700 3293-679 3308-648ZM3349-38C3352-15 3355 9 3356 31C3358 58 3372 73 3395 70C3419 67 3431 48 3428 17C3426-4 3423-27 3419-50C3414-80 3398-95 3375-93C3353-91 3344-72 3349-38ZM3536-521L3536-739L3766-739L3766-521ZM3566-37C3575-13 3583 12 3589 35C3596 60 3613 71 3637 65C3661 59 3670 38 3659 7C3652-15 3643-38 3634-61C3623-89 3604-100 3581-95C3559-91 3554-69 3566-37ZM3605-546C3621-539 3638-549 3653-576C3665-597 3678-621 3690-645C3705-675 3701-696 3683-703C3664-710 3648-698 3636-668C3627-646 3617-623 3606-602C3591-572 3589-553 3605-546ZM3791-43C3816-11 3841 23 3860 51C3873 71 3891 76 3915 67C3937 58 3941 35 3920 6C3899-23 3874-54 3849-83C3831-104 3810-110 3786-103C3765-97 3767-73 3791-43Z" /><path d="M4286-826C4263-833 4246-820 4235-790C4190-671 4127-556 4058-470C4050-460 4048-445 4049-432C4050-409 4057-384 4079-387C4090-388 4102-396 4114-412C4130-433 4145-455 4160-479L4160 28C4160 60 4173 78 4196 78C4219 78 4232 60 4232 28L4232-605C4258-657 4282-712 4303-767C4315-799 4309-819 4286-826ZM4290-111C4306-93 4328-94 4351-119C4442-217 4525-363 4581-518L4581-165L4469-165C4438-165 4419-154 4418-131C4417-108 4435-96 4468-96L4581-96L4581 24C4581 56 4594 74 4618 74C4641 74 4654 56 4654 24L4654-96L4763-96C4796-96 4814-108 4812-131C4810-153 4791-165 4760-165L4654-165L4654-521C4709-368 4789-219 4879-121C4888-111 4900-108 4911-108C4934-109 4956-121 4955-144C4954-154 4948-165 4936-177C4841-270 4754-418 4702-566L4904-566C4936-566 4954-579 4954-602C4954-625 4936-638 4904-638L4654-638L4654-787C4654-819 4641-837 4618-837C4595-837 4581-819 4581-787L4581-638L4348-638C4316-638 4298-625 4298-602C4298-579 4316-566 4348-566L4536-566C4481-415 4395-264 4300-171C4277-148 4274-130 4290-111Z" /></svg>