<svg xmlns="http://www.w3.org/2000/svg" viewBox="66.10958862304688 -840 3888.132843017578 921" fill="#000000"><path d="M319-774L319-774Q351-752 320-709L320-709Q316-703 255.50-646Q195-589 162-567L162-567L139-552Q96-523 76-555L76-555Q57-586 74.50-596.50Q92-607 137-641Q182-675 220-713.50Q258-752 272-774Q286-796 319-774ZM370-377L633-377Q685-377 685-325L685-325L685-143Q685-91 633-91L633-91L392-91Q387-91 387-86L387-86L387-79Q387-27 353-27L353-27Q318-27 318-79L318-79L318-325Q318-377 370-377L370-377ZM610-312L392-312Q387-312 387-307L387-307L387-161Q387-156 392-156L392-156L610-156Q615-156 615-161L615-161L615-307Q615-312 610-312L610-312ZM125 29L125-494Q125-546 177-546L177-546L453-546Q458-546 458-551L458-551L458-788Q458-840 497-840L497-840Q535-840 535-788L535-788L535-551Q535-546 540-546L540-546L858-546Q863-546 860-550L860-550L817-594Q800-613 781-630L781-630L739-668Q721-686 701-701L701-701L687-713Q647-746 669-773L669-773Q690-801 731-769L731-769L767-742Q788-726 808-708L808-708L852-669Q872-652 891-633L891-633Q911-615 923-600.50Q935-586 895-553L895-553L890-548Q879-539 879-525L879-525L879-11Q879 22 870.50 40.50Q862 59 838.50 67.50Q815 76 801 77L801 77Q774 79 747 79L747 79L714 80Q662 81 662 45L662 45Q661 8 714 8L714 8L759 9Q784 9 790.50 8.50Q797 8 801 3.50Q805-1 805-12L805-12L805-471Q805-476 800-476L800-476L204-476Q199-476 199-471L199-471L199 29Q199 81 162 81L162 81Q125 81 125 29L125 29Z" /><path d="M1545-370L1789-370Q1841-370 1841-318L1841-318L1841 25Q1841 77 1801 77L1801 77Q1761 77 1761 33L1761 33Q1761 28 1756 28L1756 28L1244 28Q1239 28 1239 33L1239 33Q1239 81 1201 81L1201 81Q1162 81 1162 29L1162 29L1162-318Q1162-370 1214-370L1214-370L1454-370Q1459-370 1459-375L1459-375L1459-581Q1459-586 1454-586L1454-586L1106-586Q1054-586 1054-623L1054-623Q1054-659 1106-659L1106-659L1454-659Q1459-659 1459-664L1459-664L1459-788Q1459-840 1500-840L1500-840Q1540-840 1540-788L1540-788L1540-664Q1540-659 1545-659L1545-659L1897-659Q1949-659 1949-623L1949-623Q1949-586 1897-586L1897-586L1545-586Q1540-586 1540-581L1540-581L1540-375Q1540-370 1545-370L1545-370ZM1239-293L1239-49Q1239-44 1244-44L1244-44L1756-44Q1761-44 1761-49L1761-49L1761-293Q1761-298 1756-298L1756-298L1244-298Q1239-298 1239-293L1239-293Z" /><path d="M2337-626L2337-560Q2337-555 2342-555L2342-555L2651-555Q2656-555 2656-560L2656-560L2656-626Q2656-631 2651-631L2651-631L2342-631Q2337-631 2337-626L2337-626ZM2323-684L2675-684Q2727-684 2727-632L2727-632L2727-554Q2727-502 2675-502L2675-502L2323-502Q2271-502 2271-554L2271-554L2271-632Q2271-684 2323-684L2323-684ZM2537-300Q2537-262 2527-229Q2517-196 2485-163.50Q2453-131 2390.50-100.50Q2328-70 2261-55L2261-55Q2210-43 2203-74L2203-74Q2197-106 2248-116L2248-116Q2282-122 2340-146Q2398-170 2426-196Q2454-222 2462-247Q2470-272 2470-294L2470-294L2470-300Q2470-352 2504-352L2504-352Q2537-352 2537-300L2537-300ZM2536-186L2536-186Q2548-211 2595-189L2595-189L2743-120Q2790-98 2776-70L2776-70Q2762-41 2716-64L2716-64L2570-137Q2523-160 2536-186ZM2298-442L2699-442Q2751-442 2751-390L2751-390L2751-240Q2751-188 2716-188L2716-188Q2681-188 2681-240L2681-240L2681-378Q2681-383 2676-383L2676-383L2319-383Q2314-383 2314-378L2314-378L2314-235Q2314-183 2280-183L2280-183Q2246-183 2246-235L2246-235L2246-390Q2246-442 2298-442L2298-442ZM2154-731L2154-26Q2154-21 2159-21L2159-21L2839-21Q2844-21 2844-26L2844-26L2844-731Q2844-736 2839-736L2839-736L2159-736Q2154-736 2154-731L2154-731ZM2133-799L2867-799Q2919-799 2919-747L2919-747L2919 27Q2919 79 2882 79L2882 79Q2844 79 2844 46L2844 46Q2844 41 2839 41L2839 41L2159 41Q2154 41 2154 46L2154 46Q2154 79 2118 79L2118 79Q2081 79 2081 27L2081 27L2081-747Q2081-799 2133-799L2133-799Z" /><path d="M3196 78L3196 78Q3160 78 3160 26L3160 26L3160-474Q3160-479 3157-475L3157-475L3134-440Q3119-418 3102-397L3102-397Q3085-375 3053-402L3053-402Q3022-428 3057-467L3057-467Q3075-487 3116-551Q3157-615 3191.50-688Q3226-761 3235-788L3235-788Q3252-838 3286-826L3286-826Q3320-814 3304-765L3304-765Q3284-708 3241-623L3241-623Q3232-605 3232-585L3232-585L3232 26Q3232 78 3196 78ZM3659-175L3763-175Q3815-175 3815-141L3815-141Q3815-106 3763-106L3763-106L3659-106Q3654-106 3654-101L3654-101L3654 22Q3654 74 3618 74L3618 74Q3581 74 3581 22L3581 22L3581-101Q3581-106 3576-106L3576-106L3468-106Q3416-106 3416-141L3416-141Q3416-175 3468-175L3468-175L3576-175Q3581-175 3581-180L3581-180L3581-513Q3581-518 3579-513L3579-513Q3549-431 3506.50-349Q3464-267 3415-198Q3366-129 3352-116L3352-116Q3313-81 3287-110L3287-110Q3262-140 3303-173L3303-173Q3315-182 3366.50-250Q3418-318 3461.50-399.50Q3505-481 3534-561L3534-561Q3536-566 3531-566L3531-566L3350-566Q3298-566 3298-602L3298-602Q3298-638 3350-638L3350-638L3576-638Q3581-638 3581-643L3581-643L3581-785Q3581-837 3618-837L3618-837Q3654-837 3654-785L3654-785L3654-643Q3654-638 3659-638L3659-638L3902-638Q3954-638 3954-602L3954-602Q3954-566 3902-566L3902-566L3707-566Q3702-566 3704-561L3704-561Q3732-482 3774.50-401.50Q3817-321 3868-254Q3919-187 3930-178L3930-178Q3970-145 3944-114L3944-114Q3917-83 3878-119L3878-119Q3864-132 3816-201Q3768-270 3726.50-352Q3685-434 3656-516L3656-516Q3654-521 3654-516L3654-516L3654-180Q3654-175 3659-175L3659-175Z" /></svg>