<svg xmlns="http://www.w3.org/2000/svg" viewBox="23 -1752 8076 1956" fill="#000000"><path d="M1628-1295L1628-1183L459-1188L459-1295L1628-1295ZM946-866Q900-866 875-894L875-894Q840-1051 704-1150L704-1150L747-1182Q1035-1093 1035-961L1035-961Q1035-911 1009-888.50Q983-866 946-866L946-866ZM1398-865L1398-865L1310-865Q1382-1013 1407-1172L1407-1172L1652-1100Q1631-1050 1570-1044L1570-1044Q1533-993 1398-865ZM86 181L86 181L23 145Q303-227 303-1006L303-1006L303-1698L464-1625L1621-1625L1697-1703L1882-1562Q1836-1511 1783-1499L1783-1499L1783-1201Q1783-1160 1741.50-1147Q1700-1134 1668-1134L1668-1134L1628-1134L1628-1518L459-1518L459-1033Q459-184 86 181ZM1375 182L1375 182L1335 182L1335-758L1490-758L1490 125Q1490 144 1456 163Q1422 182 1375 182ZM1788-758L1788-758L558-758L528-866L1591-865L1686-967Q1762-921 1868-820L1868-820Q1850-758 1788-758ZM1879-375L1879-375L478-375L445-482L1675-482L1772-588Q1851-541 1958-437L1958-437Q1940-375 1879-375ZM425 204L425 204L385 149Q831-71 831-543L831-543L831-758L986-758L986-555Q986-28 425 204Z" /><path d="M3555-1307L3555-1200L2581-1200L2581-1307L3555-1307ZM2468-784L2468-784L2424-784L2424-1686L2573-1624L3537-1624L3612-1696L3807-1561Q3761-1508 3709-1498L3709-1498L3709-871Q3709-808 3594-808L3594-808L3555-808L3555-1517L2581-1517L2581-846Q2581-784 2468-784ZM3555-990L3555-885L2581-885L2581-990L3555-990ZM3441-130L3441-130L3384-174Q3590-471 3666-743L3666-743L3911-650Q3875-594 3840-594L3840-594Q3833-594 3827-596L3827-596Q3655-327 3441-130ZM2594-140L2594-140Q2553-140 2535.50-167.50Q2518-195 2511-230Q2504-265 2465.50-371Q2427-477 2273-680L2273-680L2337-708Q2684-478 2684-265L2684-265Q2684-213 2658.50-176.50Q2633-140 2594-140ZM2946-701L2946-21L2792-21L2792-818L3016-792Q3002-708 2946-701L2946-701ZM3339-699L3339-21L3183-21L3183-815L3408-792Q3401-708 3339-699L3339-699ZM3959 86L3959 86L2150 86L2117-21L3727-21L3834-144Q3849-139 3879-114.50Q3909-90 3950.50-54.50Q3992-19 4038 24L4038 24Q4020 86 3959 86Z" /><path d="M4879-1459L4879-1459L4184-1459L4156-1566L4689-1566L4784-1673Q4798-1668 4826-1646.50Q4854-1625 4891-1593Q4928-1561 4963-1522L4963-1522Q4947-1459 4879-1459ZM4280-894L4280-894L4152-1078Q4180-1080 4224.50-1088.50Q4269-1097 4342.50-1228Q4416-1359 4443-1459L4443-1459L4637-1459Q4537-1248 4372-1087L4372-1087Q4401-1089 4734-1105L4734-1105Q4749-1079 4761-1048L4761-1048Q4716-1034 4575.50-1003.50Q4435-973 4344-943L4344-943Q4331-916 4280-894ZM4863-909L4863-909Q4832-909 4796-936L4796-936Q4782-1002 4749-1077L4749-1077Q4712-1157 4595-1276L4595-1276L4648-1317Q4938-1168 4938-1006L4938-1006Q4938-930 4886-913L4886-913Q4875-909 4863-909ZM4243 65L4243 65L4130-125Q4213-142 4468-211L4468-211L4468-544L4200-544L4170-651L4468-651L4468-958L4682-932Q4675-856 4621-847L4621-847L4621-651L4643-651L4730-747Q4744-742 4791.50-697.50Q4839-653 4878-606L4878-606Q4856-544 4792-544L4792-544L4621-544L4621-256L4935-339L4954-276L4311 4Q4302 40 4243 65ZM5405 183L5405 183L5366 183L5366-307Q5195-58 4752 101L4752 101L4722 47Q4899-40 5046.50-166Q5194-292 5271-399L5271-399L4985-399L4937-506L5366-506L5366-647Q5263-631 5178-629L5178-629L5155-688Q5398-749 5565-852L5565-852L5713-713Q5686-681 5644-681L5644-681Q5623-681 5599-689L5599-689Q5558-678 5521-675L5521-675L5521-506L5681-506L5776-606Q5790-601 5816.50-580.50Q5843-560 5879.50-529.50Q5916-499 5956-462L5956-462Q5944-399 5880-399L5880-399L5521-399L5521-346Q6092-176 6092 23L6092 23Q6092 60 6072.50 76Q6053 92 6027 92L6027 92Q6007 92 5982 83L5982 83Q5932 31 5848.50-44.50Q5765-120 5678.50-176Q5592-232 5521-265L5521-265L5521 124Q5516 145 5483 164Q5450 183 5405 183ZM6041-492L6041-492Q5901-569 5791.50-675.50Q5682-782 5599-911L5599-911L5703-911Q5772-844 5894.50-767.50Q6017-691 6146-644L6146-644L6128-595L6125-595Q6068-595 6041-492ZM4828-453L4828-453L4785-513Q5021-683 5148-907L5148-907Q5280-1171 5315-1396L5315-1396Q5344-1579 5358-1743L5358-1743L5614-1699Q5597-1648 5575.50-1633Q5554-1618 5520-1616L5520-1616Q5493-1421 5432-1222L5432-1222Q5391-1085 5353-1014L5353-1014L5296-907Q5130-623 4828-453ZM5923-1400L5923-1400L4987-1400L4959-1506L5724-1506L5819-1612Q5833-1607 5860-1585.50Q5887-1564 5924-1533Q5961-1502 6003-1463L6003-1463Q5986-1400 5923-1400ZM5888-1154L5888-1154L4980-1154L4950-1261L5684-1261L5774-1368Q5798-1363 5825-1341.50Q5852-1320 5889-1288Q5926-1256 5964-1218L5964-1218Q5952-1154 5888-1154ZM6021-911L6021-911L4964-911L4936-1018L5819-1018L5914-1123Q5928-1118 5955.50-1097Q5983-1076 6020.50-1044.50Q6058-1013 6100-974L6100-974Q6083-911 6021-911Z" /><path d="M7230-1441L7230-1441Q7150-1441 7131-1531Q7112-1621 6966-1719L6966-1719L7011-1752Q7316-1658 7316-1535L7316-1535Q7316-1489 7293-1465Q7270-1441 7230-1441ZM6354-1061L6354-1061Q6311-1061 6286.50-1084.50Q6262-1108 6262-1140L6262-1140Q6262-1202 6328-1240Q6394-1278 6429-1349.50Q6464-1421 6464-1544L6464-1544L6544-1544Q6557-1473 6557-1387L6557-1387Q6557-1262 6502.50-1161.50Q6448-1061 6354-1061ZM7190-794Q6850-231 6256-6L6256-6L6220-65Q6719-301 7009-794L7009-794L7190-794ZM7978-21L7978-21Q7496-220 7186-794L7186-794L7269-794Q7580-342 8091-190L8091-190L8091-158Q7987-123 7978-21ZM7135 170L7135 170L7080 170L7080-1226L7311-1199Q7299-1111 7236-1102L7236-1102L7236 96Q7236 170 7135 170ZM7976-794L7976-794L6294-794L6262-900L7758-900L7859-1012Q7940-963 8052-858L8052-858Q8040-794 7976-794ZM6557-1441L7819-1441L7912-1535L8099-1352Q8073-1306 8000-1306L8000-1306Q7928-1226 7749-1088L7749-1088L7704-1125Q7772-1254 7801-1333L7801-1333L6557-1333L6557-1441Z" /></svg>