<svg xmlns="http://www.w3.org/2000/svg" viewBox="48.230770111083984 -836 3923.769229888916 911" fill="#000000"><path d="M183-302L183-778L183-804L183-804L233-778L788-778L788-749L228-749L228-319Q228-317 222.50-312.50Q217-308 209-305Q201-302 191-302L191-302L183-302ZM202-552L202-581L792-581L792-552L202-552ZM202-356L202-385L792-385L792-356L202-356ZM473-372L473-778L517-778L517-372L473-372ZM772-318L772-778L762-778L792-811L860-759Q855-753 843-747.50Q831-742 817-739L817-739L817-337Q817-334 810-329.50Q803-325 794.50-321.50Q786-318 778-318L778-318L772-318ZM410-299L421-309Q476-291 512-269Q548-247 568-224.50Q588-202 595-182Q602-162 599-148.50Q596-135 585.50-130.50Q575-126 560-135L560-135Q552-165 527.50-196Q503-227 471.50-254Q440-281 410-299L410-299ZM302 3L302-259L375-249Q372-230 346-226L346-226L346-4Q346 9 355 12.50Q364 16 401 16L401 16L536 16Q585 16 619.50 15.50Q654 15 667 14L667 14Q678 13 681.50 10Q685 7 688 0L688 0Q693-13 699-47.50Q705-82 712-124L712-124L726-124L728 5Q743 9 748.50 13.50Q754 18 754 25L754 25Q754 37 739 44Q724 51 677.50 53.50Q631 56 538 56L538 56L397 56Q357 56 336.50 51.50Q316 47 309 35Q302 23 302 3L302 3ZM188-238L188-238L207-237Q213-176 199-131Q185-86 162-57Q139-28 119-14L119-14Q102-1 81 4.50Q60 10 52-2L52-2Q45-13 51-24.50Q57-36 69-44L69-44Q95-59 120.50-87.50Q146-116 165-154.50Q184-193 188-238ZM737-243L749-252Q813-220 854.50-186Q896-152 918.50-121Q941-90 948.50-64.50Q956-39 952.50-23Q949-7 937.50-2.50Q926 2 910-9L910-9Q902-48 873.50-91.50Q845-135 808.50-175Q772-215 737-243L737-243Z" /><path d="M1636-729L1718-705Q1715-698 1706.50-692Q1698-686 1683-686L1683-686Q1670-660 1653-634.50Q1636-609 1617-591L1617-591L1601-599Q1611-624 1620-659Q1629-694 1636-729L1636-729ZM1510-580L1510-265Q1510-263 1504.50-259.50Q1499-256 1491-253Q1483-250 1474-250L1474-250L1466-250L1466-610L1466-635L1466-635L1515-610L1859-610L1859-580L1510-580ZM1523-222L1596-188Q1592-181 1584-178Q1576-175 1559-178L1559-178Q1539-147 1507.50-110.50Q1476-74 1437.50-39Q1399-4 1357 23L1357 23L1346 10Q1383-22 1417-62.50Q1451-103 1479-145Q1507-187 1523-222L1523-222ZM1748-203L1760-212Q1820-184 1858.50-154Q1897-124 1918-96.50Q1939-69 1946-46.50Q1953-24 1949-9Q1945 6 1933.50 9.50Q1922 13 1906 3L1906 3Q1896-30 1870-68.50Q1844-107 1811-142.50Q1778-178 1748-203L1748-203ZM1695-326L1695-5Q1695 15 1689.50 31Q1684 47 1667 57Q1650 67 1615 71L1615 71Q1614 62 1609.50 53Q1605 44 1597 40L1597 40Q1587 34 1568 29.50Q1549 25 1519 22L1519 22L1519 6Q1519 6 1533 7Q1547 8 1567 9.50Q1587 11 1604.50 12Q1622 13 1629 13L1629 13Q1643 13 1647 8.50Q1651 4 1651-6L1651-6L1651-326L1695-326ZM1837-610L1827-610L1857-643L1925-590Q1914-578 1881-571L1881-571L1881-276Q1881-273 1874.50-268.50Q1868-264 1859.50-260.50Q1851-257 1843-257L1843-257L1837-257L1837-610ZM1489-326L1858-326L1858-296L1489-296L1489-326ZM1489-465L1858-465L1858-435L1489-435L1489-465ZM1343-758L1343-768L1343-786L1397-758L1387-758L1387-527Q1387-460 1382.50-383Q1378-306 1362-227Q1346-148 1314-72Q1282 4 1226 70L1226 70L1209 58Q1268-29 1296.50-126Q1325-223 1334-324.50Q1343-426 1343-526L1343-526L1343-758ZM1843-758L1883-808Q1883-808 1890.50-802Q1898-796 1910-786.50Q1922-777 1935-766Q1948-755 1959-744L1959-744Q1957-736 1950.50-732Q1944-728 1933-728L1933-728L1361-728L1361-758L1843-758ZM1105-200L1105-200Q1113-200 1117-203Q1121-206 1128-221L1128-221Q1132-231 1136-241Q1140-251 1149-272.50Q1158-294 1175-336.50Q1192-379 1221.50-453Q1251-527 1298-644L1298-644L1317-639Q1305-602 1289.50-555.50Q1274-509 1257.50-460Q1241-411 1226.50-367Q1212-323 1201.50-290.50Q1191-258 1187-244L1187-244Q1180-222 1176-200Q1172-178 1173-160L1173-160Q1173-145 1176.50-127.50Q1180-110 1184.50-89.50Q1189-69 1192-44.50Q1195-20 1193 9L1193 9Q1192 39 1181 56Q1170 73 1148 73L1148 73Q1136 73 1130 59.50Q1124 46 1124 24L1124 24Q1130-26 1130-66Q1130-106 1125-131.50Q1120-157 1109-164L1109-164Q1099-171 1088.50-173.50Q1078-176 1063-177L1063-177L1063-200Q1063-200 1071-200Q1079-200 1089.50-200Q1100-200 1105-200ZM1042-588L1052-598Q1098-592 1128-579.50Q1158-567 1174.50-551.50Q1191-536 1196-520.50Q1201-505 1196.50-494Q1192-483 1181-479Q1170-475 1155-482L1155-482Q1147-501 1128.50-521Q1110-541 1087-559Q1064-577 1042-588L1042-588ZM1106-816L1116-827Q1165-819 1196.50-804.50Q1228-790 1245.50-773Q1263-756 1269-740Q1275-724 1271-712.50Q1267-701 1256.50-697Q1246-693 1231-700L1231-700Q1222-721 1201.50-743.50Q1181-766 1155.50-785Q1130-804 1106-816L1106-816Z" /><path d="M2861-681L2850-681L2887-718L2955-652Q2950-648 2940.50-646.50Q2931-645 2916-644L2916-644Q2897-617 2865-584.50Q2833-552 2806-529L2806-529L2791-537Q2803-557 2816.50-583Q2830-609 2842-635.50Q2854-662 2861-681L2861-681ZM2150-729L2169-730Q2183-676 2177.50-636Q2172-596 2156-570.50Q2140-545 2121-532L2121-532Q2110-524 2097-520Q2084-516 2073.50-518Q2063-520 2057-529L2057-529Q2052-541 2058-553Q2064-565 2077-573L2077-573Q2098-585 2116-608Q2134-631 2143.50-662.50Q2153-694 2150-729L2150-729ZM2156-681L2873-681L2873-651L2156-651L2156-681ZM2436-828L2448-836Q2488-821 2512.50-802.50Q2537-784 2548.50-765.50Q2560-747 2561.50-731.50Q2563-716 2557-706Q2551-696 2540.50-694Q2530-692 2517-701L2517-701Q2511-733 2486.50-769.50Q2462-806 2436-828L2436-828ZM2516-419L2534-428Q2576-339 2642-258Q2708-177 2788-113.50Q2868-50 2951-15L2951-15L2949-4Q2934-3 2921 5Q2908 13 2902 29L2902 29Q2823-14 2750-80.50Q2677-147 2616.50-233Q2556-319 2516-419L2516-419ZM2513-428L2513-412Q2450-267 2333-151Q2216-35 2051 42L2051 42L2040 24Q2140-29 2222.50-99.50Q2305-170 2366.50-253.50Q2428-337 2466-428L2466-428L2513-428ZM2477-613L2558-603Q2556-593 2548-586Q2540-579 2521-576L2521-576L2521 54Q2521 58 2516 62.50Q2511 67 2503 70Q2495 73 2486 73L2486 73L2477 73L2477-613ZM2814-428L2855-479Q2855-479 2863-473Q2871-467 2883-457.50Q2895-448 2908-436.50Q2921-425 2932-414L2932-414Q2929-398 2907-398L2907-398L2083-398L2074-428L2814-428Z" /><path d="M3254-833L3337-808Q3334-800 3325-794Q3316-788 3299-788L3299-788Q3271-699 3233-612.50Q3195-526 3151-451Q3107-376 3059-318L3059-318L3043-328Q3084-390 3123-471.50Q3162-553 3196-645.50Q3230-738 3254-833L3254-833ZM3201-578L3254-557Q3251-550 3243.50-545.50Q3236-541 3223-539L3223-539L3223 57Q3223 59 3217.50 63.50Q3212 68 3203.50 71.50Q3195 75 3186 75L3186 75L3177 75L3177-546L3201-578ZM3626-621L3645-629Q3677-531 3728-438Q3779-345 3842-270.50Q3905-196 3972-152L3972-152L3969-142Q3954-141 3941.50-132.50Q3929-124 3922-108L3922-108Q3859-161 3802.50-238.50Q3746-316 3701-413.50Q3656-511 3626-621L3626-621ZM3597-631L3597-615Q3553-464 3469.50-330.50Q3386-197 3265-96L3265-96L3251-111Q3323-179 3381.50-263Q3440-347 3484-441Q3528-535 3554-631L3554-631L3597-631ZM3583-831L3663-821Q3661-811 3653-804Q3645-797 3627-794L3627-794L3627 57Q3627 60 3622 63.50Q3617 67 3609 69.50Q3601 72 3593 72L3593 72L3583 72L3583-831ZM3825-631L3865-681Q3865-681 3872.50-675Q3880-669 3892-659.50Q3904-650 3917-639Q3930-628 3941-617L3941-617Q3937-601 3916-601L3916-601L3291-601L3283-631L3825-631ZM3721-162L3757-206Q3757-206 3768.50-197Q3780-188 3795.50-174.50Q3811-161 3824-148L3824-148Q3821-132 3799-132L3799-132L3409-132L3401-162L3721-162Z" /></svg>