<svg xmlns="http://www.w3.org/2000/svg" viewBox="48 -828 3881 912" fill="#000000"><path d="M337-341L337-341Q331-342 325-348.50Q319-355 318-360L318-360Q318-489 319-617L319-617Q321-629 322-643L322-643Q324-670 360-670L360-670Q376-663 379-650L379-650Q379-633 375-617L375-617L375-375Q372-367 371-361L371-361Q366-341 337-341ZM433-262L433-262L412-273Q406-281 406-298L406-298L422-318Q540-338 615-408L615-408Q572-455 531-503L531-503L531-518Q536-532 551-538L551-538L566-538Q592-519 612.50-495.50Q633-472 654-451L654-451Q715-512 749-596L749-596Q627-583 495-546L495-546L474-557L466-582Q512-736 551-822L551-822Q560-828 576-828L576-828L596-810L598-787Q569-727 536-615L536-615Q544-615 635-634L635-634Q799-665 893-692L893-692Q907-690 913-673L913-673L913-658Q911-651 905-645.50Q899-640 806-612L806-612L808-589Q789-538 759.50-495Q730-452 696-410L696-410Q806-342 915-318L915-318Q920-313 920-306L920-306L920-290Q917-276 901-271L901-271L881-271Q775-288 658-369L658-369Q564-284 433-262ZM221-246L221-246L204-246L184-266Q182-277 182-449L182-449L187-576Q164-552 142-526L142-526Q111-492 84-473L84-473L68-473Q54-478 48-492L48-492L48-507Q191-654 260-787L260-787L269-801Q277-806 294-806L294-806Q299-805 305.50-799Q312-793 314-787L314-787L314-770Q271-690 230-636L230-636L245-619Q245-556 242.50-521Q240-486 239-449L239-449Q239-287 241-266L241-266Q239-260 232.50-253.50Q226-247 221-246ZM553-93L553-93Q540-96 527-109L527-109Q513-130 452-184L452-184L452-200L472-221L491-221Q547-183 583-130L583-130L583-115Q580-109 574-102.50Q568-96 553-93ZM909-28L909-28L893-28Q839-98 706-211L706-211L706-227Q711-241 725-246L725-246L742-246Q861-166 927-64L927-64L927-46Q924-33 909-28ZM121 57L121 57Q105 55 99 29L99 29Q123-17 144-63.50Q165-110 194-154L194-154Q203-163 216-163L216-163Q227-163 235-156.50Q243-150 243-143L243-143L243-128Q217-84 195.50-37.50Q174 9 146 52L146 52Q134 57 121 57ZM695 71L695 71L635 71Q461 69 367-25L367-25Q318-81 318-180L318-180L329-201Q338-207 355-207L355-207Q369-201 373-188L373-188Q377-153 383-119Q389-85 413-59L413-59Q474-7 549 6L549 6Q603 15 659 15L659 15L702 14Q706-1 706-6L706-6Q702-50 678-87L678-87Q650-125 635-161L635-161Q641-178 654-180L654-180L671-180Q712-146 742-89L742-89Q762-44 762 20L762 20L761 39L751 61Q725 71 695 71Z" /><path d="M1849-573L1849-573L1834-573L1821-580Q1802-621 1769.50-656Q1737-691 1722-731L1722-731Q1723-737 1729-743.50Q1735-750 1741-751L1741-751L1757-751Q1793-720 1828-672L1828-672L1863-625L1869-593Q1867-587 1860.50-580.50Q1854-574 1849-573ZM1229-93L1235-93Q1279-109 1325-118L1325-118Q1372-124 1416-138L1416-138Q1416-143 1438-287L1438-287Q1423-286 1409-283L1409-283Q1292-260 1198-244L1198-244L1229-93ZM1223 14L1223 14L1207 14Q1202 13 1196 7Q1190 1 1189-4L1189-4L1137-271L1148-290Q1370-335 1483-348L1483-348Q1490-347 1496-341Q1502-335 1503-328L1503-328L1503-312Q1488-256 1481.50-197Q1475-138 1457-82L1457-82Q1448-77 1432-77L1432-77L1421-82Q1376-68 1330-60.50Q1284-53 1239-34L1239-34Q1242-28 1242-4L1242-4Q1242 1 1235 7Q1228 13 1223 14ZM1878 75L1878 75L1863 75Q1770 20 1708-103L1708-103L1705-111Q1627-24 1540 14L1540 14Q1480 47 1398 63L1398 63L1376 52Q1369 41 1369 27L1369 27Q1377 12 1393 3L1393 3Q1528-20 1623-109L1623-109L1681-167Q1637-259 1612-426L1612-426Q1590-426 1350-411L1350-411Q1221-403 1093-382L1093-382L1079-393Q1073-401 1073-418L1073-418Q1077-432 1091-438L1091-438Q1251-459 1308-464L1308-464L1307-578Q1270-574 1235-566Q1200-558 1163-556L1163-556L1142-567Q1136-575 1136-593L1136-593Q1137-598 1143.50-604Q1150-610 1156-612L1156-612Q1194-615 1230.50-622Q1267-629 1305-636L1305-636L1307-707L1305-776L1316-797Q1325-803 1341-803L1341-803Q1356-797 1361-784L1361-784L1362-646L1446-659Q1486-664 1524-671L1524-671Q1539-669 1544-651L1544-651L1544-636Q1536-622 1520-613L1520-613Q1401-595 1362-591L1362-591L1362-471L1496-475Q1551-476 1606-480L1606-480L1603-668Q1608-699 1608-731Q1608-763 1621-789L1621-789L1633-795L1646-795Q1661-791 1666-776L1666-776Q1666-751 1660-668L1660-668L1660-485Q1678-485 1886-501L1886-501Q1897-499 1906-481L1906-481L1906-464Q1903-459 1897-453L1897-453Q1887-441 1779-437L1779-437Q1774-437 1772-436L1772-436Q1720-434 1668-430L1668-430Q1668-405 1688-322L1688-322Q1701-273 1720-225L1720-225Q1762-280 1799-387L1799-387Q1810-396 1822-396L1822-396Q1842-393 1847-375L1847-375L1847-359Q1819-262 1745-161L1745-161Q1762-123 1783-85L1783-85Q1808-42 1847-6L1847-6Q1860-61 1867-116Q1874-171 1886-223L1886-223Q1895-229 1912-229L1912-229Q1925-224 1931-209L1931-209L1931-176L1914-53L1892 70Q1886 75 1878 75Z" /><path d="M2116-395L2116-395Q2110-397 2104-402.50Q2098-408 2097-413.50Q2096-419 2094-424L2094-424Q2109-466 2127.50-507.50Q2146-549 2159-594L2159-594L2157-612Q2159-624 2176-632L2176-632L2497-658Q2483-694 2465-725.50Q2447-757 2435-789L2435-789Q2436-793 2438-796L2438-796Q2447-807 2454-808L2454-808L2470-808Q2507-781 2533-719L2533-719Q2536-707 2541-697Q2546-687 2546-677L2546-677L2541-662Q2591-662 2711-681L2711-681Q2792-693 2874-698L2874-698L2879-696L2897-698Q2913-692 2917-679L2917-679L2917-664Q2897-621 2882-577.50Q2867-534 2843-494L2843-494Q2829-487 2818-487L2818-487Q2803-491 2798-507L2798-507L2798-522L2843-635L2824-636Q2670-616 2517.50-604Q2365-592 2213-576L2213-576Q2184-478 2140-401L2140-401Q2130-395 2116-395ZM2497 79L2497 79L2486 78Q2441 59 2392.50 43Q2344 27 2301 1L2301 1L2293-18L2306-40Q2314-44 2330-44L2330-44Q2369-26 2410-10L2410-10Q2453 3 2493 18L2493 18Q2499 13 2506 6.50Q2513 0 2520-5L2520-5Q2561-61 2561-172L2561-172Q2561-197 2555-221L2555-221Q2439-208 2321.50-201.50Q2204-195 2088-178L2088-178Q2078-183 2069-198L2069-198L2069-214L2090-236Q2201-249 2312-257Q2423-265 2533-275L2533-275L2536-282L2519-324Q2505-351 2468-376L2468-376Q2456-383 2450-395L2450-395Q2450-425 2470-430L2470-430L2486-430L2529-403Q2554-422 2577.50-446.50Q2601-471 2629-485L2629-485L2618-487Q2566-479 2274-424L2274-424L2253-436Q2247-442 2247-461L2247-461Q2250-471 2264-478L2264-478Q2275-482 2501-523L2501-523Q2616-546 2734-557L2734-557Q2740-556 2746.50-550Q2753-544 2754-538L2754-538L2754-522Q2709-480 2659.50-441.50Q2610-403 2564-359L2564-359Q2587-313 2597-280L2597-280L2633-280Q2794-302 2904-307L2904-307Q2917-301 2923-287L2923-287L2923-271Q2916-254 2904-252L2904-252Q2815-246 2615-225L2615-225L2616-139Q2612-88 2597-36Q2582 16 2539 53L2539 53Q2538 56 2517 74L2517 74Q2508 79 2497 79Z" /><path d="M3233 78L3233 78L3218 78L3199 63L3193-8Q3193-310 3191-393L3191-393L3185-424Q3169-391 3106-292L3106-292Q3097-287 3081-287L3081-287Q3076-288 3069.50-294Q3063-300 3061-307L3061-307L3061-321Q3135-429 3178.50-548Q3222-667 3257-791L3257-791Q3266-797 3283-797L3283-797Q3287-796 3293-789.50Q3299-783 3301-778L3301-778L3301-753Q3280-691 3264.50-629Q3249-567 3226-505L3226-505Q3232-501 3238.50-496.50Q3245-492 3247-483L3247-483L3247-466Q3243-454 3243-414L3243-414L3247-393Q3248-8 3252 59L3252 59Q3251 65 3245.50 71Q3240 77 3233 78ZM3597 84L3597 84Q3591 82 3586 76L3586 76Q3579 72 3577 65L3577 65L3575 34L3579 18L3579-115Q3540-115 3510.50-109.50Q3481-104 3452-100L3452-100L3431-111Q3425-120 3425-136L3425-136Q3431-152 3444-156L3444-156Q3462-159 3478.50-161Q3495-163 3511-166L3511-166Q3542-171 3577-173L3577-173L3575-277L3579-337Q3579-422 3582-453L3582-453Q3539-364 3481-284Q3423-204 3360-128L3360-128L3328-101L3315-100L3293-111Q3287-120 3287-136L3287-136Q3415-262 3500-424L3500-424L3549-526Q3495-519 3444-508.50Q3393-498 3342-492L3342-492L3321-501Q3313-514 3313-526L3313-526Q3313-532 3321-542L3321-542Q3325-548 3332-550L3332-550Q3396-555 3459-567.50Q3522-580 3586-589L3586-589L3589-594L3588-780L3597-801Q3607-809 3620-809L3620-809Q3638-809 3645-789L3645-789Q3645-736 3643-683L3643-683L3645-594Q3671-594 3781-608L3781-608Q3844-614 3909-615L3909-615Q3920-613 3927-596L3927-596L3927-580Q3922-566 3909-560L3909-560Q3831-556 3663-540L3663-540Q3699-432 3765.50-342Q3832-252 3902-167L3902-167Q3921-159 3929-141L3929-141L3929-124Q3923-110 3911-105L3911-105L3894-105Q3854-129 3801-196L3801-196Q3761-258 3714.50-317.50Q3668-377 3639-445L3639-445Q3636-418 3636-333L3636-333L3632-273L3632-178Q3641-174 3662-174L3662-174Q3677-175 3693-175L3693-175Q3711-180 3743-180L3743-180Q3756-178 3762-161L3762-161L3762-143Q3756-128 3743-124L3743-124Q3703-118 3663-118L3663-118L3636-119L3636 25Q3633 35 3633 53L3633 53Q3633 84 3597 84Z" /></svg>