<svg xmlns="http://www.w3.org/2000/svg" viewBox="32 -870 7103 1018" fill="#000000"><path d="M243-579L175-579Q111-579 47-576L47-576Q49-593 49-610.50Q49-628 47-645L47-645Q111-642 175-642L175-642L496-642Q438-720 372-792L372-792L432-848Q516-757 587-656L587-656L567-642L819-642Q883-642 947-645L947-645Q945-628 945-610.50Q945-593 947-576L947-576Q883-579 819-579L819-579L743-579Q728-405 641-253L641-253Q600-180 547-120L547-120Q616-57 709-13L709-13Q832 45 972 48L972 48Q943 81 941 125L941 125Q799 119 673 55L673 55Q575 5 499-70L499-70Q423 2 326 51L326 51Q199 117 55 129L55 129Q58 83 32 44L32 44Q167 33 273-14.50Q379-62 451-124L451-124Q292-316 243-579L243-579ZM499-171L499-171Q548-225 575.50-286.50Q603-348 626.50-435.50Q650-523 659-579L659-579L312-579Q334-474 379.50-366Q425-258 499-171Z" /><path d="M1559-247L1559 28Q1559 68 1529 95L1529 95Q1513 111 1487 119Q1461 127 1440 129L1440 129L1379 130Q1390 82 1356 46L1356 46Q1387 49 1428 49.50Q1469 50 1479 44.50Q1489 39 1489 5L1489 5L1489-387L1197-387Q1204-474 1204-562.50Q1204-651 1197-738L1197-738L1402-738Q1411-748 1420.50-760.50Q1430-773 1437-783.50Q1444-794 1454.50-808Q1465-822 1471-832L1471-832Q1501-807 1534-789L1534-789Q1527-776 1517.50-763.50Q1508-751 1496-738L1496-738L1849-738Q1836-563 1848-387L1848-387L1562-387Q1581-339 1603-295.50Q1625-252 1651-215L1651-215Q1668-224 1684.50-233.50Q1701-243 1719-254Q1737-265 1750-273Q1763-281 1783.50-295Q1804-309 1814-315.50Q1824-322 1847-338Q1870-354 1878-359L1878-359Q1897-326 1922-297L1922-297Q1848-241 1695-160L1695-160Q1732-120 1779-86.50Q1826-53 1882.50-29Q1939-5 2000 7L2000 7Q1967 33 1959 73L1959 73Q1707 17 1559-247L1559-247ZM1096-227Q1098-241 1098-255Q1098-269 1096-283L1096-283Q1148-281 1200-281L1200-281L1470-281Q1409-164 1315-70Q1221 24 1104 83L1104 83Q1077 51 1040 29L1040 29Q1138-8 1218.50-75.50Q1299-143 1352-230L1352-230L1200-230Q1148-230 1096-227L1096-227ZM1779-539L1267-539L1267-438L1779-438L1779-539ZM1439-688L1267-688L1267-590L1779-590L1779-688L1448-688Q1447-686 1445.50-684.50Q1444-683 1443-682L1443-682L1439-688Z" /><path d="M2737 124Q2717 122 2698 122Q2679 122 2659 124L2659 124Q2663 52 2663-19L2663-19L2663-84L2564-84Q2510-84 2457-81L2457-81Q2458-96 2458-110.50Q2458-125 2457-140L2457-140Q2510-137 2564-137L2564-137L2663-137L2663-275L2612-275Q2559-275 2505-272L2505-272Q2507-287 2507-301.50Q2507-316 2505-331L2505-331Q2559-328 2612-328L2612-328L2663-328Q2662-386 2659-444L2659-444Q2679-442 2698-442Q2717-442 2737-444L2737-444Q2734-386 2733-328L2733-328L2839-328Q2893-328 2947-331L2947-331Q2945-316 2945-301.50Q2945-287 2947-272L2947-272Q2893-275 2839-275L2839-275L2733-275L2733-137L2892-137Q2946-137 3000-140L3000-140Q2998-125 2998-110.50Q2998-96 3000-81L3000-81Q2946-84 2892-84L2892-84L2733-84L2733-19Q2733 52 2737 124L2737 124ZM2469-734Q2470-749 2470-763.50Q2470-778 2469-792L2469-792Q2522-790 2576-790L2576-790L2949-790Q2874-659 2760-559L2760-559Q2810-524 2873.50-501.50Q2937-479 3007-472L3007-472Q2977-442 2973-401L2973-401Q2832-419 2709-517L2709-517Q2600-435 2472-389L2472-389Q2449-425 2415-451L2415-451Q2544-485 2654-565L2654-565Q2577-640 2520-736L2520-736Q2494-735 2469-734L2469-734ZM2056-189L2056-189Q2108-193 2163-207Q2218-221 2247-232.50Q2276-244 2339-270L2339-270L2345-222Q2177-155 2089-107L2089-107Q2084-152 2056-189ZM2365-8L2365-8L2365-333L2114-333L2136-516Q2144-587 2149-658L2149-658Q2187-650 2225-650L2225-650Q2214-579 2206-508L2206-508L2191-386L2283-386L2325-742L2184-742Q2130-742 2076-739L2076-739Q2078-753 2078-768Q2078-783 2076-797L2076-797Q2130-794 2184-794L2184-794L2402-794L2354-386L2435-386L2435 11Q2435 49 2408 74Q2381 99 2346.50 105.50Q2312 112 2259 112L2259 112L2253 112Q2264 63 2230 26L2230 26Q2261 30 2303 30.50Q2345 31 2355 26Q2365 21 2365-8ZM2820-737L2595-737Q2620-699 2641-673.50Q2662-648 2675.50-633Q2689-618 2703-605L2703-605Q2720-619 2736-635Q2752-651 2766.50-667.50Q2781-684 2794.50-701.50Q2808-719 2820-737L2820-737Z" /><path d="M3415-156L3255-156Q3208-156 3161-154L3161-154Q3162-166 3162-179Q3162-192 3161-204L3161-204Q3208-202 3255-202L3255-202L3720-202L3720-304L3218-304Q3171-304 3124-302L3124-302Q3125-314 3125-327Q3125-340 3124-352L3124-352Q3171-350 3218-350L3218-350L3553-350L3553-455L3333-455Q3286-455 3239-452L3239-452Q3241-465 3241-477.50Q3241-490 3239-503L3239-503Q3286-501 3333-501L3333-501L3553-501Q3553-554 3553-608L3553-608L3620-608Q3620-554 3620-501L3620-501L3860-501Q3907-501 3953-503L3953-503Q3952-490 3952-477.50Q3952-465 3953-452L3953-452Q3907-455 3860-455L3860-455L3620-455L3620-350L3960-350Q4007-350 4054-352L4054-352Q4053-340 4053-327Q4053-314 4054-302L4054-302Q4007-304 3960-304L3960-304L3787-304L3787-202L3936-202Q3983-202 4029-204L4029-204Q4028-192 4028-179Q4028-166 4029-154L4029-154Q3983-156 3936-156L3936-156L3787-156L3787 37Q3787 74 3763 95.50Q3739 117 3706 125Q3673 133 3619 133L3619 133L3613 133Q3624 86 3591 51L3591 51Q3621 55 3660.50 55.50Q3700 56 3710 51.50Q3720 47 3720 18L3720 18L3720-156L3418-156L3539-31L3486 21L3364-106L3415-156ZM3749-694L3797-710L3727-710Q3702-674 3669.50-639.50Q3637-605 3601-575L3601-575Q3591-584 3581.50-589Q3572-594 3566.50-596Q3561-598 3555.50-599.50Q3550-601 3545-602L3545-602Q3582-632 3604-656Q3626-680 3637-695.50Q3648-711 3658-727Q3668-743 3681-769Q3694-795 3708-832L3708-832Q3725-827 3738.50-824.50Q3752-822 3761-820.50Q3770-819 3780-818L3780-818Q3768-780 3748-745L3748-745L4052-746Q4051-742 4050.50-737Q4050-732 4050-725Q4050-718 4052-709L4052-709Q4036-709 4020.50-709.50Q4005-710 3989-710L3989-710L3820-710L3878-613L3810-591L3749-694ZM3325-740L3325-740L3531-740Q3578-740 3624-742L3624-742Q3624-737 3623.50-732.50Q3623-728 3623-721Q3623-714 3624-704L3624-704Q3601-705 3578-706L3578-706L3401-706L3450-592L3379-576L3325-703L3340-706L3301-706Q3300-705 3294.50-697.50Q3289-690 3277.50-676Q3266-662 3254.50-648.50Q3243-635 3219.50-608.50Q3196-582 3159-544L3159-544Q3147-553 3132-559.50Q3117-566 3099-568L3099-568Q3140-606 3179-652.50Q3218-699 3248-747.50Q3278-796 3300-835L3300-835Q3308-832 3316.50-829Q3325-826 3338-822Q3351-818 3368-815L3368-815Q3364-806 3359.50-798Q3355-790 3350.50-782Q3346-774 3341-765.50Q3336-757 3332-751Q3328-745 3325-740Z" /><path d="M5009 107L4758 107Q4714 107 4685.50 80.50Q4657 54 4657 6L4657 6L4657-79Q4657-149 4654-218L4654-218Q4672-216 4691-216Q4710-216 4729-218L4729-218Q4726-149 4726-79L4726-79L4726 6Q4726 23 4735.50 35.50Q4745 48 4759 48L4759 48L4959 47Q4967 47 4972.50 43Q4978 39 4981.50 29Q4985 19 4986 13L4986 13L5007-136Q5037-115 5073-116L5073-116L5041 74Q5038 85 5030 96Q5022 107 5009 107L5009 107ZM4554-332L4554-332Q4595-326 4637-328L4637-328Q4622-183 4543.50-69.50Q4465 44 4349 103L4349 103Q4284 136 4211 148L4211 148Q4183 99 4131 76L4131 76Q4244 66 4316 35L4316 35Q4419-9 4486.50-106.50Q4554-204 4554-332ZM4342-237L4342-237L4342-437L4874-436L4874-120L4806-120L4806-387L4410-387Q4410-368 4410-331L4410-331L4410-237Q4410-168 4414-98L4414-98Q4376-102 4338-98L4338-98Q4342-167 4342-237ZM4774-470Q4756-472 4737-472Q4718-472 4699-470L4699-470Q4700-480 4700-490.50Q4700-501 4700.50-511Q4701-521 4701-531L4701-531L4525-531Q4526-502 4527-472L4527-472Q4508-474 4489.50-474Q4471-474 4452-472L4452-472Q4453-502 4454-531L4454-531L4313-531Q4263-531 4213-529L4213-529Q4215-543 4215-556.50Q4215-570 4213-583L4213-583Q4263-581 4313-581L4313-581L4455-581Q4454-620 4452-660L4452-660Q4471-658 4489.50-658Q4508-658 4527-660L4527-660Q4527-647 4526-633.50Q4525-620 4525-607Q4525-594 4524-581L4524-581L4702-581Q4701-618 4699-655L4699-655Q4718-653 4737-653Q4756-653 4774-655L4774-655Q4773-618 4772-581L4772-581L4946-581Q4996-581 5046-583L5046-583Q5044-570 5044-556.50Q5044-543 5046-529L5046-529Q4996-531 4946-531L4946-531L4772-531Q4773-501 4774-470L4774-470ZM4240-722L4240-611L4171-611L4171-772L4552-772L4500-808L4544-870L4660-788L4649-772L5061-772L5061-611L4992-611L4992-722L4240-722Z" /><path d="M5980 58L5980 58L5260 58Q5199 58 5138 61L5138 61Q5140 44 5140 27.50Q5140 11 5138-5L5138-5Q5199-2 5260-2L5260-2L5303-2L5303-343Q5303-417 5300-492L5300-492Q5320-490 5340-490Q5360-490 5380-492L5380-492Q5377-417 5377-343L5377-343L5377-2L5608-2L5608-723L5313-723Q5252-723 5191-720L5191-720Q5193-737 5193-753.50Q5193-770 5191-786L5191-786Q5252-783 5313-783L5313-783L5927-783Q5988-783 6049-786L6049-786Q6047-770 6047-753.50Q6047-737 6049-720L6049-720Q5988-723 5927-723L5927-723L5682-723L5682-382L5877-382Q5938-382 5999-385L5999-385Q5997-369 5997-352Q5997-335 5999-319L5999-319Q5938-322 5877-322L5877-322L5682-322L5682-2L5980-2Q6041-2 6102-5L6102-5Q6100 11 6100 27.50Q6100 44 6102 61L6102 61Q6041 58 5980 58Z" /><path d="M7135 103L7071 140Q7009 31 6917-55L6917-55L6967-109Q7067-16 7135 103L7135 103ZM6867 80L6803 117Q6755 35 6696-39L6696-39L6754-85Q6816-6 6867 80L6867 80ZM6515-72L6606 91L6542 127L6450-36L6515-72ZM6237 141L6175 103Q6228 15 6269-79L6269-79L6336-50Q6293 49 6237 141L6237 141ZM7032-135L7032-135L6257-135Q6210-135 6163-133L6163-133Q6164-146 6164-158.50Q6164-171 6163-184L6163-184Q6210-182 6257-182L6257-182L6620-182L6620-286L6343-286Q6296-286 6249-283L6249-283Q6250-296 6250-309Q6250-322 6249-334L6249-334Q6296-332 6343-332L6343-332L6620-332L6620-428L6265-428Q6271-522 6271-616Q6271-710 6265-804L6265-804L7022-804Q7010-616 7021-428L7021-428L6687-428L6687-332L6946-332Q6993-332 7039-334L7039-334Q7038-322 7038-309Q7038-296 7039-283L7039-283Q6993-286 6946-286L6946-286L6687-286L6687-182L7032-182Q7079-182 7126-184L7126-184Q7124-171 7124-158.50Q7124-146 7126-133L7126-133Q7079-135 7032-135ZM6860-730L6860-730Q6888-707 6921-690L6921-690Q6891-640 6848-582.50Q6805-525 6784-494L6784-494Q6758-519 6723-524L6723-524Q6752-562 6788-620Q6824-678 6860-730ZM6538-533L6474-497Q6418-596 6351-687L6351-687L6410-731Q6480-636 6538-533L6538-533ZM6620-474L6620-757L6332-757L6332-474L6620-474ZM6955-757L6687-757L6687-474L6954-474L6955-757Z" /></svg>