<svg xmlns="http://www.w3.org/2000/svg" viewBox="83 -844.5714111328125 5905.16650390625 960.3540649414062" fill="#000000"><path d="M516-309L516-309Q494-301 406-270L406-270Q390-264 373-259L373-259Q357-254 350-259L350-259Q338-270 343-286L343-286Q348-303 357-303L357-303Q363-304 372-306L372-306Q381-309 390-312L390-312Q398-315 406-318L406-318Q413-320 417-321L417-321Q422-321 428-323L428-323Q435-324 442-329L442-329L441-329L442-329Q447-337 454-345L454-345Q459-349 460-366L460-366Q469-385 462-392L462-392Q455-398 433-392L433-392Q425-389 414-387L414-387Q405-385 397-384L397-384Q388-383 382-385L382-385Q373-392 371-394L371-394L371-394Q367-398 366-402L366-402Q365-406 365-407L365-407Q365-415 372-422L372-422Q379-429 388-429L388-429Q388-429 398-429L398-429Q407-430 414-432L414-432Q423-434 431-436L431-436Q438-439 441-438L441-438Q449-438 457-448L457-448Q466-458 466-473L466-473Q466-495 472-502Q478-509 488-508L488-508Q493-508 499-501Q505-494 507-481L507-481Q509-464 515-459L515-459Q521-453 533-459L533-459Q543-463 554-462L554-462Q564-460 571-450L571-450Q576-443 578-434L578-434Q584-420 576-411L576-411Q575-408 566-406L566-406Q555-404 552-405L552-405L552-405Q544-410 529-411L529-411Q515-411 512-404L512-404Q508-396 507-375L507-375Q506-351 513-350L513-350Q515-350 527.50-354.50Q540-359 555.50-363Q571-367 577.50-365.50Q584-364 587.50-356.50Q591-349 583-340Q575-331 560.50-324Q546-317 536-313L536-313Q531-313 516-309ZM250-654L250-654Q270-659 282-655L282-655Q295-648 313-626L313-626Q324-610 326-604L326-604Q326-598 324-589L324-589Q315-567 310-514L310-514Q304-435 305-406L305-406Q309-357 307-346L307-346Q305-313 305-289L305-289Q305-235 304-211L304-211Q304-179 305-169L305-169L305-161L303-115Q288-110 283-115L283-115Q276-119 270-123L270-123Q255-132 255-145L255-145Q255-149 231-145L231-145Q222-144 216-143L216-143Q198-141 189-141L189-141Q172-140 169-138L169-138Q160-135 156-133L156-133Q154-131 151-127L151-127Q146-121 144-118L144-118Q137-112 137-109L137-109Q136-108 121-107L121-107Q115-106 109-106L109-106Q102-106 100-107L100-107Q95-110 92-121L92-121Q90-143 90-150L90-150Q99-189 99-199L99-199Q102-317 107-326L107-326Q108-330 109-368L109-368Q108-393 109-421L109-421Q109-489 108-517L108-517Q106-542 108-554L108-554Q109-569 104-583L104-583Q98-600 88-609L88-609Q83-613 83-617.50Q83-622 88-631L88-631Q92-639 101-638L101-638Q109-638 129-629L129-629Q141-623 145-623L145-623Q158-623 164-627L164-627Q210-651 236-653L236-653Q245-653 250-654ZM259-597L259-597Q245-604 238-601L238-601L201-592Q190-584 165-572L165-572Q156-567 161-557L161-557Q161-555 161-550L161-550L152-450Q151-425 154-418L154-418Q157-412 175-420L175-420Q185-424 192-424L192-424Q205-422 209-423L209-423Q222-427 227-426L227-426Q239-426 244-429L244-429L254-433L261-435L263-448Q263-537 261-556L261-556Q260-576 259-597ZM245-379L245-379Q240-380 232-379L232-379Q225-377 220-378L220-378Q214-378 209-377Q204-376 202-376L202-376Q189-377 171-371L171-371Q153-366 147-360L147-360Q145-355 146-342L146-342Q148-326 147-308L147-308L142-207Q141-186 144-187L144-187Q149-188 161-187L161-187Q179-186 188-190L188-190Q204-198 217-198L217-198Q228-198 235-197L235-197Q251-194 255-202L255-202Q260-210 264-317L264-317Q266-357 263-367L263-367Q261-373 245-379ZM729-253L730-253Q769-256 805-253L805-253Q834-249 844-244L844-244Q855-236 857-229L857-229Q858-219 854-211L854-211Q854-211 854-210L854-210L854-211Q854-211 854-211Q854-211 854-210L854-210Q852-206 851-201L851-201Q849-200 849-199L849-199L848-199L847-199Q843-198 819-200L819-200Q808-200 801-201L801-201L801-201Q754-201 705-200L705-200Q684-200 679-200L679-200Q668-201 667-184L667-184Q665-152 664-119L664-119Q662-89 664-72L664-72Q664-57 668-44L668-44Q677-18 685-5L685-5Q694 8 713 18L713 18Q730 27 762 36L762 36L763 36L834 40Q843 41 852 37L852 37Q860 35 866 34L866 34L866 34Q872 31 877 30L877 30Q884 28 890 28L890 28Q901 27 909 22L909 22Q919 15 920 3L920 3Q920-7 922-34L922-34Q925-61 925-85L925-85Q925-107 928-118L928-118Q931-128 936-128L936-128Q942-128 946-117L946-117L946-117Q951-104 956-77L956-77Q958-65 961-49L961-49Q965-33 966-25L966-25Q973 8 972 32L972 32Q972 44 970 52Q968 60 966 64L966 64Q960 72 931 78L931 78Q841 93 804 89L804 89Q763 82 717 65L717 65Q679 52 662 35L662 35L662 35Q645 19 634-10L634-10Q620-48 619-63L619-63Q620-87 617-113L617-113Q611-168 611-169L611-169Q608-187 587-188L587-188Q563-189 557-186L557-186Q556-182 553-176.50Q550-171 548-165L548-165Q546-160 536-140L536-140Q526-122 512-86L512-86Q511-82 507-76L507-76Q502-69 501-65L501-65Q492-46 471-24L471-24Q451-2 431 12L431 12Q415 22 415 23L415 23L414 23Q408 28 404 32L404 32Q391 40 389 41L389 41Q379 45 369 52L369 52Q358 60 345 64L345 64L345 64Q333 71 326 74L326 74Q307 84 295 88L295 88Q283 91 272 91L272 91Q266 90 260 83L260 83Q256 78 257 74L257 74Q258 72 266 69L266 69Q279 63 289 58L289 58Q300 51 316 42L316 42L317 42L387-13L388-13Q397-23 403-29L403-29Q441-62 469-106L469-106Q497-152 492-178L492-178Q490-184 482-183L482-183Q455-182 444-179L444-179L444-179Q431-173 405-177L405-177Q379-181 368-197L368-197Q362-205 362-209L362-209Q362-215 366-216L366-216Q370-218 376-219L376-219Q378-220 403-220L403-220L456-222Q480-224 483-225L483-225Q497-228 501-228L501-228L501-228Q507-230 516-231L516-231L516-231Q525-234 535-234L535-234Q545-236 556-236L556-236Q566-235 575-237L575-237Q596-244 623-246L623-246Q651-248 675-248L675-248Q688-249 704-250L704-250Q726-253 729-253L729-253ZM618-339L619-340Q622-343 630-346L630-346L630-346Q643-350 652-350L652-350Q677-352 686-357L686-357Q695-361 698-375L698-375Q704-389 699-397L699-397Q696-406 684-403L684-403Q668-398 651-402L651-402Q636-405 636-414L636-414Q636-415 635-420.50Q634-426 634-430L634-430Q634-439 639-443L639-443Q645-448 669-453L669-453Q677-454 686-454L686-454Q697-453 698-458L698-458L699-458Q701-460 702-468L702-468Q703-474 703-487L703-487Q703-501 706-509L706-509Q708-517 711-518L711-518L711-518L723-525Q725-527 730-527L730-527Q739-526 740-522L740-522Q741-515 748-495L748-495Q751-485 753-474L753-474L755-464L755-463L757-463Q765-459 767-461L767-461Q765-461 767-460L767-460L767-461Q765-461 767-461L767-461Q765-460 767-460L767-460Q772-459 782-459L782-459Q801-459 813-452L813-452Q821-446 828-433L828-433Q830-427 832-423L832-423Q832-420 828-414L828-414Q824-410 813-406L813-406Q800-404 783-407L783-407Q761-413 752-410L752-410Q743-405 742-386L742-386Q743-369 752-365L752-365Q761-361 779-361L779-361Q781-361 799-362L799-362Q814-365 824-365L824-365Q836-364 844-362L844-362Q846-361 865-352L865-352Q875-348 879-342L879-342Q881-338 882-330L882-330Q883-321 883-317L883-317Q882-313 881-311L881-311Q875-304 865-304L865-304Q862-304 835-310L835-310Q825-312 816-312L816-312Q798-311 798-312L798-312Q791-309 776-311L776-311Q765-312 749-310L749-310Q733-308 714-306L714-306Q692-305 686-303L686-303Q659-296 646-296L646-296Q632-296 624-300L624-300Q618-303 614-308L614-308Q610-314 611-319L611-319Q611-331 618-339L618-339ZM573-841L573-841Q577-846 585-844L585-844Q595-842 608-835L608-835Q622-827 625-818L625-818Q629-809 627-790L627-790Q625-781 623.50-769Q622-757 622-748L622-748Q622-731 624-726L624-726Q628-721 636-720L636-720Q641-720 649-720.50Q657-721 666-724L666-724Q681-730 692-728L692-728Q702-724 712-716L712-716Q718-712 721-707L721-707Q723-702 723-693L723-693Q723-683 716-678L716-678Q709-674 689-675L689-675Q665-675 648.50-672Q632-669 624-667L624-667L623-666L622-665Q618-657 618-638L618-638Q618-618 623-613L623-613L623-613Q627-610 634-609L634-609Q641-608 658-610L658-610Q669-611 687.50-611.50Q706-612 724-611L724-611Q749-609 758.50-605.50Q768-602 773-600L773-600Q785-593 787-584L787-584Q790-575 783-564L783-564L779-556L725-561L686-564Q667-566 660-563L660-563Q656-562 648-559.50Q640-557 629-558L629-558Q620-560 609.50-558Q599-556 591-555L591-555Q586-554 577-552L577-552Q569-551 565-551L565-551Q559-551 553-551L553-551Q546-551 543-551L543-551L543-551Q535-550 525-545L525-545Q515-542 503-542L503-542Q491-542 478-538L478-538Q466-535 457-533L457-533Q453-533 443-530L443-530Q434-528 425-529L425-529Q414-530 409-536Q404-542 404-554L404-554Q404-566 417-572L417-572Q433-579 455-576L455-576Q470-575 482-578L482-578Q494-580 500-581L500-581Q503-582 511.50-583.50Q520-585 530-586L530-586Q554-589 561-594L561-594Q567-599 569-618L569-618Q571-627 571-636L571-636L571-648Q571-658 565-660L565-660Q561-663 546-663L546-663Q512-664 494-666L494-666Q477-668 470-677L470-677L462-687L469-692Q475-695 480-697L480-697Q484-700 487.50-699Q491-698 499.50-699Q508-700 517-705L517-705Q527-705 537-707.50Q547-710 553-711L553-711L553-711Q568-713 575-721.50Q582-730 582-763L582-763Q582-780 581-793L581-793Q578-804 576-810L576-810L576-810Q571-824 569-832L569-832Q569-837 573-841L573-841ZM272 90L272 91L272 90Z" /><path d="M1398-454L1399-455Q1408-467 1409-474L1409-474Q1410-478 1422-495L1422-495Q1423-496 1428-530L1428-530Q1429-539 1422-543L1422-543Q1416-547 1393-547L1393-547Q1371-548 1364-545L1364-545Q1356-543 1356-538L1356-538Q1356-533 1352.50-520Q1349-507 1346-500L1346-500Q1342-491 1340-483L1340-483Q1338-475 1339-472L1339-472Q1342-466 1361-466L1361-466Q1377-466 1395-455L1395-455L1398-454ZM1214-687L1214-687Q1198-687 1198-712L1198-712Q1198-724 1202-727L1202-727Q1205-731 1217-721L1217-721Q1231-710 1248-711L1248-711Q1263-711 1299-722L1299-722L1339-735L1340-735L1340-736L1342-768Q1343-794 1342-799L1342-799Q1338-808 1327-813L1327-813Q1317-819 1311-827L1311-827Q1307-834 1312-839L1312-839Q1324-851 1364-828L1364-828Q1402-805 1391-782L1391-782L1391-782Q1389-775 1388-768L1388-768Q1388-762 1386-756L1386-756Q1384-747 1391-747L1391-747Q1395-746 1417-752L1417-752Q1437-757 1444-756L1444-756Q1450-756 1461-744L1461-744Q1473-733 1466-724L1466-724Q1457-715 1433-713L1433-713Q1384-712 1380-690L1380-690L1380-690Q1377-679 1380.50-675.50Q1384-672 1402-672L1402-672Q1419-672 1427-655L1427-655Q1435-640 1428-633L1428-633Q1417-623 1405-624L1405-624Q1393-626 1382-626Q1371-626 1362-623L1362-623Q1353-621 1338.50-618Q1324-615 1321-615L1321-615Q1317-615 1296-605L1296-605Q1274-596 1265-596L1265-596Q1256-596 1248-607L1248-607Q1240-617 1254-627L1254-627Q1271-640 1290-643L1290-643Q1311-646 1317-650L1317-650Q1324-654 1330-671L1330-671Q1334-682 1334-685L1334-685Q1334-690 1329-690L1329-690Q1325-689 1299-681L1299-681Q1251-666 1232-679L1232-679Q1220-687 1214-687ZM1651-809L1652-809Q1656-813 1673-806L1673-806Q1690-800 1694-793L1694-793Q1696-787 1706-781L1706-781Q1715-771 1715-762L1715-762Q1715-747 1697-733L1697-733Q1660-703 1662-679L1662-679L1662-679Q1668-668 1685-668L1685-668Q1716-668 1737-675L1737-675Q1772-682 1791-680L1791-680Q1804-679 1809.50-674Q1815-669 1815-659L1815-659Q1814-649 1810-645L1810-645Q1796-634 1704-629L1704-629L1665-626L1650-646L1650-646Q1637-660 1633-667.50Q1629-675 1631-690L1631-690Q1632-720 1635-724L1635-724Q1638-728 1645-743Q1652-758 1652-764.50Q1652-771 1629-768L1629-768Q1594-764 1591-726L1591-726L1591-726Q1591-703 1570-664L1570-664Q1550-624 1547-616L1547-616Q1542-601 1528-600L1528-600Q1513-599 1512-607L1512-607Q1510-616 1526-657L1526-657Q1543-700 1544-721L1544-721Q1544-744 1529-757L1529-757Q1514-771 1508-783L1508-783Q1503-795 1506-797L1506-797Q1512-800 1535-791L1535-791L1557-780L1558-780L1559-780L1578-791Q1587-793 1600-799L1600-799Q1613-803 1624-804L1624-804Q1635-805 1643-806L1643-806Q1650-809 1651-809L1651-809ZM1485-512L1485-512Q1468-469 1419-425L1419-425Q1410-417 1404-414L1404-414Q1399-412 1396-416L1396-416L1394-421L1394-422L1392-422L1320-417L1320-417Q1265-402 1253-398L1253-398Q1240-393 1241-376L1241-376Q1242-348 1205-299L1205-299Q1200-292 1162-257Q1124-222 1113-215L1113-215Q1102-209 1093-212L1093-212Q1085-214 1085-220L1085-220Q1085-227 1115-255L1115-255Q1133-272 1148-291L1148-291Q1168-317 1181-346L1181-346Q1192-369 1197.50-394Q1203-419 1204-446L1204-446L1204-446Q1204-465 1203-472L1203-472Q1202-478 1193-489L1193-489Q1186-500 1185.50-514.50Q1185-529 1190-534.50Q1195-540 1239-550L1239-550Q1283-560 1314-569L1314-569Q1343-578 1346-578.50Q1349-579 1370-588L1370-588Q1409-608 1438-586L1438-586Q1442-582 1449.50-575.50Q1457-569 1469-560L1469-560Q1482-552 1486.50-538Q1491-524 1485-512ZM1576-494L1576-494Q1604-476 1606-476L1606-476Q1608-476 1619-493L1619-493Q1631-510 1638-530L1638-530Q1646-549 1648-552L1648-552Q1652-556 1652-562L1652-562Q1653-570 1650-570L1650-570Q1642-570 1608-552L1608-552Q1569-531 1562-529L1562-529Q1554-526 1549-523L1549-523L1547-522L1549-520L1566-504Q1573-495 1576-494ZM1654-401L1654-401Q1645-404 1635-412L1635-412Q1624-420 1617-421L1617-421Q1610-421 1595-409L1595-409Q1580-395 1526-364L1526-364Q1474-332 1463-342L1463-342Q1458-346 1458-358L1458-358Q1458-370 1466-370L1466-370Q1479-370 1484-377L1484-377Q1491-388 1494-386L1494-386Q1500-385 1534-408L1534-408Q1569-430 1570-433L1570-433Q1573-438 1556-459L1556-459Q1539-479 1533-485L1533-485Q1495-517 1504-540L1504-540Q1508-553 1501-557L1501-557Q1497-559 1502-569L1502-569Q1507-579 1515-580Q1523-581 1528-576L1528-576Q1538-566 1570-580L1570-580Q1600-594 1615-600L1615-600Q1628-607 1636-607L1636-607Q1650-607 1655-608L1655-608Q1657-609 1675-603L1675-603Q1693-595 1704-584L1704-584Q1715-573 1711-561L1711-561Q1708-547 1683-510L1683-510Q1657-472 1655-469L1655-469L1655-469L1644-447L1643-445L1645-444L1727-409Q1803-370 1812-370L1812-370Q1821-370 1846-361L1846-361Q1870-353 1914-341.50Q1958-330 1970-328L1970-328Q1996-324 1997-316L1997-316Q1998-308 1996-301L1996-301Q1992-295 1989.50-293.50Q1987-292 1978-295L1978-295Q1968-298 1954-299L1954-299Q1833-309 1805-317L1805-317Q1778-325 1768-336L1768-336Q1758-347 1736-360L1736-360Q1712-371 1688-384.50Q1664-398 1654-401ZM1307-526L1305-526Q1297-526 1281-522L1281-522Q1267-516 1255-513.50Q1243-511 1237-509L1237-509L1223-506L1218-506L1222-503L1233-492L1233-492L1233-492Q1260-474 1253-455L1253-455L1253-455Q1251-442 1259-440L1259-440Q1265-438 1280-444L1280-444L1280-445Q1295-453 1296-464L1296-464Q1299-481 1302-502L1302-502Q1307-523 1307-524L1307-524L1307-526ZM1276-305L1276-305Q1292-315 1308-308L1308-308Q1325-301 1348-307L1348-307Q1372-313 1405.50-317Q1439-321 1452.50-323.50Q1466-326 1497-327L1497-327Q1530-328 1539-333L1539-333Q1551-339 1589-339L1589-339Q1627-341 1631-341L1631-341Q1633-341 1643-334L1643-334Q1668-319 1669-304L1669-304Q1669-300 1661-291L1661-291Q1653-281 1642-286L1642-286Q1624-291 1615-291L1615-291Q1606-291 1606-286L1606-286Q1606-276 1615-272L1615-272Q1623-269 1620-207L1620-207Q1615-90 1615-89L1615-89L1615-89Q1616-80 1619.50-76Q1623-72 1628-73L1628-73L1660-74Q1702-74 1708-73L1708-73L1709-73Q1748-76 1762-75Q1776-74 1790-73L1790-73Q1821-72 1832-63L1832-63L1832-62Q1856-46 1844-28L1844-28Q1833-11 1794-20L1794-20Q1785-22 1777-22L1777-22L1768-22Q1760-22 1752-26L1752-26Q1743-29 1689-29L1689-29Q1635-30 1632-27L1632-27Q1624-21 1624 20L1624 20Q1623 104 1613 111L1613 111Q1608 114 1603 115L1603 115Q1592 118 1584 109.50Q1576 101 1571 79L1571 79L1575 45L1575 45Q1577 10 1577 8L1577 8L1577 8L1577-21L1577-24L1575-24L1558-26Q1541-29 1502.50-26.50Q1464-24 1451-20L1451-20Q1440-18 1431-17L1431-17Q1407-16 1363-8L1363-8Q1320 0 1310 0L1310 0Q1216 3 1202 6L1202 6Q1188 8 1180 3L1180 3Q1170 0 1167 1L1167 1Q1165-1 1160-9L1160-9Q1155-21 1152-24L1152-24Q1152-26 1152-33L1152-33Q1152-40 1155-41L1155-41Q1159-44 1178-43L1178-43Q1198-40 1214-44L1214-44Q1230-46 1260-47L1260-47Q1317-48 1332-55L1332-55L1332-55Q1339-59 1336-65L1336-65Q1334-69 1339-90L1339-90Q1346-112 1346-164L1346-164Q1346-246 1335-261L1335-261Q1329-267 1318-267L1318-267Q1293-263 1274-289L1274-289Q1270-296 1270-298L1270-298Q1271-300 1276-305ZM1553-292L1553-292Q1548-297 1540-293L1540-293Q1534-291 1525-291L1525-291Q1515-291 1497-289Q1479-287 1437-285L1437-285Q1393-282 1386-274L1386-274Q1380-267 1383-259L1383-259Q1386-252 1388-248L1388-248Q1389-241 1394-239L1394-239Q1399-237 1438-240L1438-240Q1477-242 1479-243L1479-243Q1483-245 1506-251L1506-251Q1531-257 1539-257L1539-257Q1548-257 1557-250L1557-250Q1567-242 1571-243L1571-243Q1577-244 1575-252L1575-252Q1572-258 1570-270L1570-270Q1567-283 1553-292ZM1400-155L1401-156Q1405-158 1431.50-163Q1458-168 1480-167L1480-167Q1503-166 1516-173L1516-173Q1530-180 1544-179L1544-179Q1561-178 1567-178L1567-178Q1579-180 1575-202L1575-202Q1573-208 1570-208L1570-208L1568-208L1568-208Q1567-207 1564-207L1564-207Q1560-207 1553-207L1553-207Q1548-206 1535-207L1535-207Q1511-209 1459-196L1459-196Q1440-194 1427-193L1427-193Q1412-192 1405-193L1405-193Q1398-194 1394-190L1394-190L1394-190Q1392-187 1391-173L1391-173Q1391-155 1400-155L1400-155ZM1389-62L1389-62Q1411-53 1417-61L1417-61Q1422-66 1465-69L1465-69Q1507-73 1535-71L1535-71Q1564-68 1568.50-72.50Q1573-77 1572.50-102Q1572-127 1569.50-129.50Q1567-132 1547-132L1547-132Q1528-132 1501-127L1501-127Q1475-121 1473-120L1473-120Q1470-120 1455-120L1455-120Q1408-120 1396-113L1396-113Q1385-106 1383-90L1383-90Q1380-64 1389-62Z" /><path d="M2256-733L2256-733Q2251-736 2247.50-740Q2244-744 2239-748L2239-748Q2232-755 2226-766L2226-766Q2223-768 2223-775L2223-775Q2223-780 2226-784Q2229-788 2235-788L2235-788Q2241-788 2254-780L2254-780Q2258-777 2263-773.50Q2268-770 2273-768L2273-768Q2282-764 2288-761L2288-761Q2297-758 2311-744Q2325-730 2331-720L2331-720Q2335-714 2335-705L2335-705Q2335-701 2334.50-693.50Q2334-686 2332-679L2332-679Q2328-664 2320-664L2320-664Q2316-664 2310-668L2310-668Q2297-676 2291-689L2291-689Q2275-712 2256-733ZM2622-340L2622-305L2667-305Q2676-305 2705-307L2705-307Q2734-310 2744-310L2744-310Q2760-310 2768-301L2768-301Q2768-312 2768-358L2768-358L2768-379Q2761-376 2755-376L2755-376Q2752-376 2749-377L2749-377Q2742-379 2741-379L2741-379Q2679-379 2673-381L2673-381Q2671-383 2666-383L2666-383Q2657-383 2642.50-380Q2628-377 2623-370L2623-370L2623-369L2623-367Q2622-365 2622-353L2622-353L2622-340ZM2156-48L2155-47L2154-47Q2153-45 2152.50-44.50Q2152-44 2149.50-43Q2147-42 2145-41Q2143-40 2142-40L2142-40Q2131-32 2112.50-23.50Q2094-15 2079-15L2079-15Q2068-15 2060.50-23Q2053-31 2053-43L2053-43Q2053-57 2061-62L2061-62Q2064-66 2068.50-67Q2073-68 2078-69Q2083-70 2089-70Q2095-70 2099-71L2099-71Q2109-73 2118-76.50Q2127-80 2136-82.50Q2145-85 2154.50-86.50Q2164-88 2173-90L2173-90Q2191-94 2208-104L2208-104Q2218-109 2224-119Q2230-129 2235-141L2235-141Q2238-146 2242-153Q2246-160 2247-166L2247-166Q2254-180 2254-195L2254-195Q2254-204 2249.50-220Q2245-236 2238.50-252.50Q2232-269 2225-283Q2218-297 2211-303L2211-303Q2210-305 2209-305L2209-305L2207-307Q2206-310 2206-311Q2206-312 2204-314L2204-314Q2203-319 2203-325L2203-325L2203-338Q2203-357 2207.50-373.50Q2212-390 2218-407L2218-407Q2220-416 2223-423.50Q2226-431 2228-436L2228-436Q2230-444 2231-450Q2232-456 2232-462Q2232-468 2228-468L2228-468Q2226-468 2216-462L2216-462L2193-450Q2180-443 2166-438Q2152-433 2139-433L2139-433Q2125-433 2116-446Q2107-459 2107-474L2107-474Q2107-483 2111-484L2111-484L2113-484Q2113-486 2118-486L2118-486L2125-486Q2151-486 2175-498L2175-498Q2184-503 2197-510.50Q2210-518 2223-526L2223-526Q2238-535 2251-540Q2264-545 2273-545L2273-545Q2286-545 2298-536Q2310-527 2310-511L2310-511Q2310-507 2305-494.50Q2300-482 2293-468Q2286-454 2279.50-442.50Q2273-431 2269-425L2269-425Q2268-422 2266-415L2266-415Q2265-411 2263-404L2263-404L2257-390Q2255-387 2250-379L2250-379Q2243-367 2243-350L2243-350Q2243-335 2249.50-321Q2256-307 2264-292L2264-292Q2269-284 2273-277.50Q2277-271 2282-264L2282-264Q2286-256 2289.50-249.50Q2293-243 2295-237Q2297-231 2298.50-224.50Q2300-218 2302-213Q2304-208 2304-201.50Q2304-195 2305-190L2305-190Q2305-188 2305.50-186.50Q2306-185 2306-183L2306-183Q2307-181 2307-178L2307-178Q2307-171 2304-164L2304-164Q2302-161 2299-159Q2296-157 2294-154L2294-154Q2293-152 2293-151.50Q2293-151 2292-148L2292-148Q2291-147 2291-146Q2291-145 2290-144L2290-144Q2285-137 2283-135L2283-135Q2282-132 2277-127L2277-127Q2272-122 2269-118L2269-118Q2263-108 2263-99L2263-99Q2263-96 2267-94L2267-94Q2268-92 2272-92L2272-92Q2277-92 2282-93.50Q2287-95 2293-95L2293-95Q2304-95 2312-93Q2320-91 2327-89L2327-89Q2333-87 2340.50-84Q2348-81 2359-79L2359-79Q2388-72 2418.50-69Q2449-66 2479-57L2479-57Q2482-55 2492-51L2492-51Q2501-48 2506-45L2506-45Q2507-44 2512-44L2512-44Q2514-43 2518.50-43Q2523-43 2537-38Q2551-33 2567-27.50Q2583-22 2598.50-16.50Q2614-11 2619-8L2619-8Q2650 5 2682.50 14Q2715 23 2748 33L2748 33Q2759 36 2769 41Q2779 46 2790 49.50Q2801 53 2817 53L2817 53L2847 53Q2852 53 2856.50 54Q2861 55 2865 55L2865 55Q2873 55 2880 54.50Q2887 54 2894 52L2894 52Q2897 51 2900 50Q2903 49 2907 48L2907 48Q2915 45 2919 45L2919 45Q2930 45 2943 49L2943 49Q2951 51 2960 51.50Q2969 52 2978 52L2978 52L2979 52L2981 52Q2983 50 2984 50L2984 50Q2986 50 2993.50 55.50Q3001 61 3001 62L3001 62Q3001 70 2996 73Q2991 76 2985 77L2985 77Q2977 78 2971 78Q2965 78 2958 79L2958 79L2921 85Q2917 86 2912.50 87Q2908 88 2904 89L2904 89Q2894 93 2887 93L2887 93Q2844 97 2803 97L2803 97Q2794 97 2786.50 97Q2779 97 2770 96L2770 96Q2759 93 2748.50 91Q2738 89 2727 83L2727 83Q2722 80 2716 77Q2710 74 2703 72L2703 72Q2692 69 2677 63L2677 63Q2664 57 2651 52L2651 52Q2646 50 2641 49Q2636 48 2631 45.50Q2626 43 2621.50 41Q2617 39 2612 35L2612 35L2611 35Q2603 35 2596 32.50Q2589 30 2583 26L2583 26L2571 20Q2566 17 2556 15L2556 15Q2537 12 2523 5L2523 5Q2515 4 2508 0.50Q2501-3 2491-5L2491-5Q2456-15 2421-24Q2386-33 2351-39L2351-39L2347-39L2344-40Q2342-40 2339-44L2339-44Q2338-47 2331.50-47.50Q2325-48 2318-49L2318-49L2295-49L2198-49Q2188-49 2177-48Q2166-47 2156-48L2156-48ZM2767-421L2767-421Q2766-426 2766-431L2766-431Q2763-452 2760-481L2760-481Q2755-510 2748-516L2748-516Q2741-519 2735-519L2735-519Q2731-519 2714-517Q2697-515 2680-512Q2663-509 2648-506L2648-506Q2632-502 2631-500L2631-500Q2629-497 2629-488L2629-488Q2628-479 2628-475L2628-475L2628-460Q2629-446 2629-445L2629-445Q2626-439 2629-432L2629-432Q2632-425 2639-425L2639-425Q2651-425 2693-427.50Q2735-430 2748-430L2748-430L2753-430Q2760-430 2760-428L2760-428Q2761-425 2767-421ZM2462-405L2462-405Q2468-396 2474-397L2474-397Q2483-398 2526-398L2526-398Q2530-398 2546-400L2546-400Q2562-403 2573-409L2573-409Q2584-416 2584-433L2584-433Q2584-464 2579-481L2579-481Q2571-502 2559-498L2559-498Q2556-497 2554-498L2554-498Q2551-498 2548-497L2548-497Q2546-496 2543-496L2543-496Q2540-495 2538-493L2538-493Q2529-491 2523-491L2523-491Q2516-491 2507-490L2507-490Q2499-489 2492-487L2492-487Q2486-486 2478-480Q2470-474 2467-444L2467-444Q2463-421 2463-415L2463-415Q2464-411 2462-405ZM2460-363L2460-363Q2460-358 2460-353L2460-353Q2453-293 2453-281L2453-281L2453-281Q2454-281 2456-281L2456-281Q2462-281 2492-282L2492-282Q2523-282 2528-282L2528-282Q2547-284 2564-291L2564-291Q2580-297 2580-323L2580-323L2580-341Q2580-348 2577-355L2577-355Q2573-362 2565-362L2565-362Q2557-362 2548.50-360.50Q2540-359 2531-359L2531-359Q2487-359 2479-359L2479-359Q2467-360 2463-362L2463-362Q2462-363 2460-363ZM2451-240L2451-240Q2450-231 2450-222L2450-222L2445-185Q2445-183 2442-163L2442-163Q2439-147 2439-131L2439-131Q2439-127 2439-123Q2439-119 2437-116L2437-116Q2437-113 2436.50-109Q2436-105 2435-103L2435-103Q2427-81 2419-81L2419-81Q2418-81 2418-80.50Q2418-80 2417-80Q2416-80 2416-79.50Q2416-79 2415-79L2415-79Q2406-79 2397-86L2397-86Q2388-94 2389-104L2389-104Q2388-118 2391-134L2391-134Q2394-150 2397-165Q2400-180 2403-197L2403-197Q2407-213 2408-228L2408-228Q2411-254 2413-279L2413-279Q2414-306 2414-332L2414-332Q2415-370 2417-406L2417-406Q2418-442 2419-480L2419-480Q2419-484 2416-491L2416-491Q2414-495 2408-503L2408-503Q2405-510 2402-518L2402-518Q2398-525 2398-530.50Q2398-536 2403-539L2403-539Q2406-543 2412-543L2412-543Q2417-543 2421-537L2421-537Q2426-530 2433-527L2433-527Q2437-525 2440-521L2440-521Q2442-519 2445-517L2445-517Q2452-511 2455-511L2455-511Q2458-512 2464-515L2464-515Q2468-516 2474-518L2474-518Q2481-520 2489-523L2489-523Q2497-526 2505-528L2505-528Q2511-531 2515-533L2515-533Q2531-538 2548-540L2548-540Q2572-545 2582-548L2582-548Q2587-551 2591-552Q2595-553 2599-554L2599-554Q2603-555 2615-555L2615-555Q2623-555 2623-562L2623-562Q2623-565 2613-575L2613-575Q2603-585 2591-594.50Q2579-604 2567.50-612.50Q2556-621 2553-622L2553-622Q2546-624 2537-627.50Q2528-631 2521-637L2521-637Q2514-642 2508-649Q2502-656 2502-664L2502-664Q2502-669 2506.50-674Q2511-679 2518-679L2518-679Q2520-679 2527-676L2527-676Q2528-675 2530-673L2530-673Q2535-670 2537-670L2537-670Q2540-669 2545-669L2545-669L2554-669Q2555-669 2561-666L2561-666Q2565-664 2566-658L2566-658L2567-658L2568-658Q2570-658 2571-658L2571-658Q2571-657 2573-657L2573-657Q2574-657 2583-656L2583-656Q2589-655 2594-654L2594-654Q2600-652 2602-652L2602-652Q2610-652 2613-655L2613-655Q2620-657 2629.50-670Q2639-683 2648-697L2648-697Q2657-712 2665-726L2665-726Q2670-736 2671-748L2671-748Q2673-751 2667-753L2667-753Q2663-755 2660-755L2660-755Q2657-755 2651-754.50Q2645-754 2638-753L2638-753Q2631-752 2626-751L2626-751Q2620-750 2617-749L2617-749Q2593-740 2563-735L2563-735Q2531-731 2507-731L2507-731Q2498-731 2490-731.50Q2482-732 2473-732L2473-732L2472-732L2470-732L2468-734Q2465-735 2465-736L2465-736Q2465-738 2462-740L2462-740Q2459-742 2455-745L2455-745Q2447-755 2449-758L2449-758Q2447-763 2453-766L2453-766Q2455-767 2469.50-767.50Q2484-768 2502-770L2502-770Q2520-772 2537-773.50Q2554-775 2559-776L2559-776Q2566-777 2576-779L2576-779Q2587-780 2599-783Q2611-786 2622-788L2622-788Q2631-790 2636-792L2636-792Q2642-796 2646-797L2646-797Q2650-798 2657-798L2657-798Q2660-798 2665-800L2665-800Q2671-805 2675-807L2675-807Q2680-809 2686-811L2686-811Q2692-815 2699-815L2699-815Q2710-815 2715-810L2715-810Q2720-807 2729-800L2729-800Q2736-794 2745-786.50Q2754-779 2759-771L2759-771Q2764-763 2764-757L2764-757Q2764-743 2754-736L2754-736Q2749-732 2744-727.50Q2739-723 2733-720L2733-720Q2722-714 2711-704L2711-704Q2707-699 2696-688L2696-688Q2685-677 2674-664Q2663-651 2654-639L2654-639Q2646-628 2646-623L2646-623Q2646-619 2648-612L2648-612Q2651-605 2654-602L2654-602L2657-586Q2657-579 2658-577L2658-577Q2658-573 2658-570L2658-570L2658-568L2658-568L2663-568Q2665-567 2668-567L2668-567Q2674-565 2677-565L2677-565Q2687-565 2705-572L2705-572Q2712-574 2725-575.50Q2738-577 2745-577L2745-577Q2754-577 2768-574L2768-574Q2780-570 2792.50-563Q2805-556 2813.50-546.50Q2822-537 2822-527L2822-527L2822-526Q2820-525 2820-524L2820-524Q2818-519 2818-508L2818-508Q2818-496 2818-483L2818-483Q2816-470 2816-458L2816-458Q2815-445 2816-439L2816-439Q2816-409 2814-339L2814-339Q2811-253 2811-239L2811-239Q2813-228 2810-201L2810-201Q2810-174 2808-145L2808-145Q2807-115 2804-89Q2801-63 2798-54L2798-54Q2789-26 2762-26L2762-26Q2760-26 2755.50-28.50Q2751-31 2749-33L2749-33Q2736-41 2730-48L2730-48Q2720-59 2712-62L2712-62Q2707-64 2703-68Q2699-72 2695-76L2695-76Q2692-79 2687-82L2687-82Q2684-86 2680-88L2680-88Q2660-99 2648-110L2648-110Q2643-115 2639.50-119.50Q2636-124 2636-131L2636-131Q2636-134 2641-136L2641-136Q2643-137 2646-137L2646-137Q2648-137 2649-137L2649-137Q2654-137 2671-132L2671-132Q2685-127 2697-120L2697-120Q2704-117 2710-114L2710-114Q2715-110 2721-108L2721-108Q2734-104 2741-104L2741-104Q2751-104 2753-111.50Q2755-119 2755-126L2755-126Q2755-137 2758-148L2758-148Q2760-160 2761-170L2761-170Q2763-197 2763-203L2763-203Q2764-227 2766-251L2766-251Q2758-241 2753-245L2753-245Q2751-247 2742-248.50Q2733-250 2703-250L2703-250Q2673-251 2664-251L2664-251Q2657-251 2650-251L2650-251L2636-251Q2624-251 2622-249Q2620-247 2618-226L2618-226Q2617-216 2617-199L2617-199Q2617-182 2615-170L2615-170Q2614-89 2612-79L2612-79Q2610-68 2605-63L2605-63Q2600-58 2594-58L2594-58Q2581-58 2576-70L2576-70Q2574-76 2572-105L2572-105Q2572-110 2573-138L2573-138Q2574-193 2574-204L2574-204Q2573-213 2571.50-225.50Q2570-238 2556-238L2556-238Q2551-238 2549-237L2549-237Q2545-237 2542-236L2542-236Q2537-235 2534-235L2534-235Q2530-234 2527-234L2527-234Q2465-234 2459-238L2459-238Q2455-240 2451-240Z" /><path d="M3307-721L3307-721Q3316-726 3325.50-732.50Q3335-739 3342-746L3342-746Q3353-756 3369-763L3369-763Q3393-775 3403-772L3403-772Q3411-771 3417-765L3417-765Q3438-758 3437-742L3437-742Q3436-734 3431-725L3431-725Q3425-713 3420-711L3420-711Q3416-710 3411-709L3411-709Q3407-707 3402-706L3402-706Q3378-702 3372-698L3372-698Q3355-691 3343-686L3343-686Q3318-677 3315-676L3315-676Q3313-675 3311-674L3311-674Q3323-667 3329-662L3329-662Q3347-646 3354-631L3354-631Q3361-614 3360-550L3360-550Q3360-544 3362-538Q3364-532 3374-532L3374-532Q3379-532 3383-533L3383-533Q3385-534 3388-535L3388-535Q3391-536 3395-538L3395-538Q3406-546 3430-545L3430-545Q3446-544 3463-539L3463-539Q3479-535 3478-517L3478-517Q3478-505 3470-501L3470-501Q3463-496 3449-494L3449-494Q3438-492 3424.50-493.50Q3411-495 3403-494L3403-494Q3398-492 3392-491L3392-491Q3388-490 3381-488L3381-488Q3376-487 3371-485L3371-485Q3364-482 3358-482L3358-482L3357-482L3357-481L3355-415L3354-398L3354-387L3355-378Q3356-361 3372-358L3372-358Q3384-354 3412-328L3412-328Q3423-320 3432-311L3432-311L3448-298Q3455-285 3427-268L3427-268Q3421-265 3416-265L3416-265Q3409-266 3402-273L3402-273Q3395-282 3389-291L3389-291Q3383-298 3381-302L3381-302Q3379-304 3378-306L3378-306Q3376-309 3374-311L3374-311Q3365-322 3357-322L3357-322Q3355-322 3354-319L3354-319L3351-312L3351-302Q3351-292 3350-289L3350-289Q3348-286 3348-280L3348-280Q3350-277 3343-159L3343-159Q3342-140 3337-44L3337-44Q3337-38 3337-25L3337-25Q3338-2 3338 0L3338 0Q3338 18 3337 30L3337 30Q3335 44 3330 54L3330 54Q3326 65 3322 69L3322 69Q3318 71 3313 68L3313 68Q3310 66 3298 54L3298 54Q3286 44 3286 43L3286 43Q3286 37 3285 2L3285 2Q3285-5 3287-41L3287-41Q3288-54 3289-54L3289-54L3289-70Q3290-78 3289-87L3289-87Q3288-94 3290-100L3290-100L3295-217Q3297-274 3297-285L3297-285Q3299-285 3299-352L3299-352Q3299-360 3299-367L3299-367Q3298-371 3299-379L3299-379L3299-383L3298-385Q3295-390 3292-390L3292-390Q3290-390 3286-386L3286-386Q3281-380 3276.50-373Q3272-366 3269-360L3269-360Q3267-352 3267-351L3267-351L3231-314Q3226-311 3221-300L3221-300Q3218-295 3210-285L3210-285Q3198-272 3187-259L3187-259L3143-216Q3140-211 3130-206L3130-206Q3123-201 3121-198L3121-198Q3120-196 3106-190L3106-190Q3095-186 3089-180L3089-180Q3084-175 3071-169L3071-169Q3061-164 3056-165L3056-165Q3050-166 3046-171L3046-171Q3038-179 3039-181L3039-181Q3039-182 3040-182L3040-182Q3039-183 3043-183L3043-183Q3045-183 3053-187L3053-187Q3056-189 3066-197.50Q3076-206 3087-217L3087-217Q3086-217 3106-236L3106-236Q3113-242 3119-248L3119-248L3184-323Q3206-349 3226-384L3226-384Q3244-415 3250-442L3250-442L3250-443L3249-443Q3248-443 3240-445L3240-445Q3236-446 3215-434L3215-434Q3208-431 3196-426Q3184-421 3169-413L3169-413Q3157-405 3154-404L3154-404Q3130-396 3102-396L3102-396Q3082-397 3068-404L3068-404Q3057-408 3052-416L3052-416Q3046-422 3044-431L3044-431Q3039-448 3086-446L3086-446Q3092-445 3105.50-447Q3119-449 3131-449L3131-449L3199-477Q3242-494 3244-494L3244-494Q3269-492 3289-508L3289-508Q3297-516 3299-519Q3301-522 3304-535L3304-535Q3306-543 3307-551L3307-551Q3309-558 3309-564L3309-564Q3309-621 3302-629L3302-629Q3298-637 3292-644L3292-644L3289-647Q3287-645 3285-650L3285-650L3281-657Q3278-655 3245-642L3245-642Q3226-635 3220-636L3220-636Q3217-636 3211.50-640Q3206-644 3206-649L3206-649Q3207-659 3216-668L3216-668Q3229-682 3239-685L3239-685Q3249-688 3251-691L3251-691Q3260-697 3262-697L3262-697Q3268-700 3272-703L3272-703Q3290-711 3307-721ZM4005 53L4005 53L3986 61L3930 51L3910 46Q3875 40 3871 36L3871 36Q3855 27 3839 12L3839 12Q3823-4 3808-22L3808-22Q3799-32 3777-66L3777-66Q3759-96 3743-130L3743-130Q3727-163 3724.50-166Q3722-169 3720-172L3720-172Q3719-177 3716-179L3716-179Q3714-183 3709-188L3709-188Q3706-194 3701.50-201.50Q3697-209 3694-215Q3691-221 3688-231L3688-231Q3679-254 3669-272L3669-272Q3662-259 3654-233L3654-233Q3643-191 3637-182L3637-182Q3637-171 3631-163L3631-163Q3625-155 3623-145L3623-145L3622-144Q3617-142 3616-137L3616-137Q3615-132 3612-127L3612-127Q3607-123 3603-117.50Q3599-112 3588-99L3588-99Q3586-78 3557-50L3557-50Q3530-20 3506 3L3506 3Q3446 60 3434 60Q3422 60 3422 49Q3422 38 3430 31L3430 31L3430 30L3434 28Q3436 27 3456.50 8Q3477-11 3485-23L3485-23Q3495-37 3507-54L3507-54Q3520-71 3533-91L3533-91Q3562-134 3570-157.50Q3578-181 3588-206L3588-206Q3599-233 3612-270L3612-270Q3640-357 3643-448L3643-448Q3643-462 3649-483L3649-483Q3654-502 3654-509L3654-509Q3654-517 3654-525L3654-525Q3655-533 3655-538L3655-538Q3655-546 3656-564L3656-564Q3659-581 3662-609L3662-609Q3666-637 3666-665L3666-665Q3666-706 3650-770L3650-770Q3649-777 3649-784L3649-784Q3649-791 3660-799L3660-799Q3674-805 3678-804L3678-804Q3681-804 3712-772L3712-772Q3716-768 3717-767L3717-767Q3718-766 3719-762L3719-762L3719-761L3715-673Q3710-591 3709-578L3709-578Q3708-522 3703-496L3703-496Q3698-461 3696-439L3696-439Q3694-417 3692-403Q3690-389 3689-384L3689-384Q3683-369 3684-352L3684-352Q3684-338 3689-329L3689-329Q3702-305 3707-289L3707-289Q3711-270 3727-236L3727-236Q3738-207 3755-179L3755-179Q3762-168 3804-102L3804-102Q3822-77 3824-75L3824-75Q3868-30 3883-25L3883-25Q3910-18 3925.50-10Q3941-2 3951.50 2.50Q3962 7 3971 14.50Q3980 22 3991 27L3991 27Q4006 44 4005 53ZM3830-560L3830-560Q3834-557 3836.50-555.50Q3839-554 3845-552L3845-552Q3862-539 3861-520L3861-520Q3861-504 3851-489L3851-489Q3840-473 3825-456.50Q3810-440 3790.50-423Q3771-406 3753-393L3753-393Q3711-361 3693-361L3693-361L3691-361L3689-364L3688-365L3688-366L3688-367L3688-369L3687-369L3687-370L3687-373Q3687-386 3708-406L3708-406Q3728-425 3733-431L3733-431Q3738-439 3745-444Q3752-449 3755.50-453Q3759-457 3764-461L3764-461Q3773-469 3776-483L3776-483L3777-483L3777-485Q3782-489 3784-496L3784-496Q3812-569 3830-560ZM3551-448L3551-448Q3554-446 3556-444L3556-444Q3557-443 3560-442L3560-442Q3569-441 3578.50-429Q3588-417 3598-348L3598-348Q3599-339 3593-327L3593-327Q3587-317 3580-315L3580-315Q3569-313 3565-322L3565-322L3558-333Q3553-342 3552-349L3552-349Q3544-382 3532-399L3532-399Q3522-416 3520-418L3520-418Q3516-420 3513-427L3513-427Q3511-433 3506-438L3506-438Q3501-442 3501-444L3501-444L3501-446Q3493-454 3501-463L3501-463Q3507-470 3514-471L3514-471Q3518-472 3546-451L3546-451Q3549-449 3551-448Z" /><path d="M4624-808L4624-808Q4627-821 4637-822L4637-822Q4647-822 4665-809L4665-809Q4678-800 4680-800L4680-800Q4688-798 4689-796L4689-796Q4693-794 4698-790Q4703-786 4711-779L4711-779Q4715-775 4719-762L4719-762Q4723-752 4721-744L4721-744Q4719-740 4717.50-724.50Q4716-709 4715-694L4715-694L4712-657L4724-660Q4737-664 4745-664L4745-664Q4787-667 4793-668L4793-668Q4806-671 4814.50-669Q4823-667 4829-658L4829-658Q4838-648 4840-637L4840-637Q4844-620 4835-617L4835-617Q4830-616 4817-612L4817-612Q4784-606 4747-608L4747-608L4698-604L4694-582Q4686-559 4678-538Q4670-517 4661-499L4661-499Q4659-492 4654-482Q4649-472 4647-468L4647-468Q4641-454 4635-450L4635-450Q4632-448 4623-452L4623-452Q4619-454 4618-459L4618-459Q4618-461 4622-479L4622-479Q4627-495 4638-551L4638-551Q4648-597 4647-598Q4646-599 4638-597.50Q4630-596 4622-592L4622-592Q4595-584 4575-588Q4555-592 4554-606L4554-606Q4551-619 4561.50-625Q4572-631 4607-635L4607-635Q4627-637 4642.50-641.50Q4658-646 4660-647L4660-647Q4661-650 4662-666Q4663-682 4663-708L4663-708Q4665-749 4661-758L4661-758Q4660-762 4632-785L4632-785Q4628-788 4623-795L4623-795Q4622-798 4624-808ZM4334-772L4334-772Q4340-779 4347-778L4347-778Q4357-776 4366-767L4366-767Q4375-760 4382-756L4382-756Q4391-751 4397-749L4397-749Q4414-742 4422-724L4422-724L4427-665Q4427-659 4428-654L4428-654Q4428-649 4428-648L4428-648Q4429-648 4434-649Q4439-650 4447-656L4447-656Q4459-660 4462-660L4462-660Q4465-660 4473-654L4473-654Q4495-636 4491-622L4491-622Q4487-611 4454-602L4454-602L4434-597L4431-553Q4431-529 4429-516L4429-516Q4428-506 4424-503L4424-503Q4416-497 4414-499L4414-499Q4407-506 4399-509L4399-509Q4394-513 4391-521Q4388-529 4388-545L4388-545Q4387-569 4382-575L4382-575Q4379-580 4368-572L4368-572Q4359-565 4348-561L4348-561Q4319-551 4289-548L4289-548Q4282-547 4273-550L4273-550Q4257-554 4238-569L4238-569Q4231-574 4223-582L4223-582Q4198-608 4205-617L4205-617Q4215-629 4247-611L4247-611L4269-598L4345-619L4377-629L4376-667Q4375-709 4368-711L4368-711Q4359-714 4344-731L4344-731Q4331-748 4330-757L4330-757Q4330-760 4331-766L4331-766Q4332-770 4334-772ZM4644-276L4644-275Q4640-229 4642-177L4642-177Q4646-75 4655-25L4655-25L4655-22L4657-22Q4693-24 4715-29L4715-29Q4742-33 4760-37L4760-37Q4793-42 4797-48L4797-48Q4802-53 4802-55L4802-55Q4805-60 4810-72L4810-72Q4818-89 4819-108L4819-108Q4819-111 4835-202L4835-202Q4845-261 4843-266L4843-266Q4839-283 4842-299L4842-299L4842-300Q4800-311 4763-304L4763-304Q4744-301 4718-292L4718-292Q4715-291 4681-284L4681-284Q4662-280 4646-276L4646-276L4644-276ZM4651 34L4651 34Q4651 34 4634 48L4634 48Q4632 51 4630 51L4630 51Q4629 51 4624.50 49.50Q4620 48 4619 47L4619 47Q4615 46 4613 44L4613 44Q4611 43 4607 37L4607 37Q4605 34 4604 31L4604 31Q4604 27 4602.50 21Q4601 15 4601 7L4601 7L4601-18Q4601-24 4602-32L4602-32Q4604-48 4597-171L4597-171Q4596-211 4594-237L4594-237Q4592-258 4584-290L4584-290Q4583-291 4581-298L4581-298Q4576-309 4574-311L4574-311Q4575-319 4579-323L4579-323Q4584-330 4593-329L4593-329Q4602-330 4607-324L4607-324Q4613-321 4615-320L4615-320Q4616-319 4619-318L4619-318Q4628-316 4641-316L4641-316Q4655-316 4676-322L4676-322Q4696-328 4709-331L4709-331Q4782-356 4833-358L4833-358Q4839-358 4855-350L4855-350Q4870-342 4885-330L4885-330Q4922-303 4922-294L4922-294Q4922-284 4911-277L4911-277Q4889-180 4854-85L4854-85Q4846-64 4842-50L4842-50L4842-50Q4849-42 4853-41L4853-41Q4857-40 4862-38L4862-38Q4873-36 4873-13L4873-13Q4873 7 4843 6L4843 6L4827 6Q4712 6 4662 24L4662 24Q4657 26 4655 28L4655 28Q4652 31 4651 34ZM4377 23L4377 23L4379 23Q4385 20 4387 16L4387 16Q4390 12 4391 8L4391 8Q4392 4 4394 1L4394 1Q4398-5 4399-8L4399-8Q4401-15 4409-29L4409-29Q4420-48 4445-159L4445-159Q4451-182 4453-202L4453-202Q4455-221 4459-235L4459-235Q4461-248 4462-257L4462-257Q4463-265 4464-275L4464-275Q4469-298 4467-305L4467-305Q4469-313 4463-319L4463-319Q4457-322 4451-327L4451-327Q4437-332 4423-332L4423-332Q4413-332 4403-332L4403-332Q4389-331 4378-329L4378-329Q4368-327 4362-323L4362-323Q4358-321 4354-319L4354-319Q4347-313 4347-310L4347-310Q4344-304 4342-300L4342-300Q4340-298 4338-289L4338-289Q4336-283 4332-268L4332-268Q4329-254 4322-232L4322-232Q4315-209 4307-191L4307-191Q4301-173 4291-156L4291-156Q4282-139 4270-121L4270-121Q4245-78 4229-65L4229-65Q4200-37 4172-20L4172-20Q4146-3 4137 4L4137 4Q4127 10 4118 16L4118 16Q4108 23 4098 28L4098 28Q4071 42 4060 42L4060 42Q4063 31 4079 20L4079 20L4152-48Q4171-66 4176-71Q4181-76 4185-80L4185-80Q4205-102 4220-131L4220-131L4254-195Q4260-207 4269-230L4269-230Q4275-248 4279-267L4279-267Q4283-277 4285-291L4285-291Q4286-298 4287-305L4287-305L4288-308L4285-307Q4275-303 4265-300L4265-300Q4247-294 4230-291L4230-291Q4208-286 4189-288L4189-288Q4176-286 4167-289L4167-289Q4145-293 4145-307L4145-307Q4145-311 4147-313L4147-313Q4151-318 4164-318L4164-318Q4174-318 4193-320L4193-320Q4200-321 4207-322L4207-322Q4219-323 4232-326L4232-326Q4248-329 4259-331L4259-331Q4285-336 4286-339L4286-339Q4293-344 4299-350L4299-350Q4299-350 4301-370L4301-370L4304-403Q4306-422 4302-428L4302-428Q4296-433 4293-436L4293-436Q4289-439 4289-439L4289-439Q4289-439 4287-441L4287-441Q4285-443 4285-450L4285-450Q4285-456 4291-461.50Q4297-467 4310-467L4310-467Q4321-467 4335-459L4335-459Q4353-450 4357-443L4357-443Q4364-429 4357-388L4357-388Q4354-373 4353-368L4353-368Q4352-365 4354-363L4354-363L4354-359L4360-359Q4363-360 4370-361L4370-361Q4381-363 4400-367L4400-367Q4409-368 4416-370L4416-370Q4436-375 4443-375L4443-375Q4452-375 4463-370L4463-370Q4475-366 4480-363L4480-363Q4500-349 4513-342L4513-342Q4527-336 4536-320L4536-320L4537-312Q4537-309 4535-300L4535-300Q4532-294 4529-284L4529-284Q4522-266 4520-262L4520-262Q4519-256 4516-248L4516-248Q4512-239 4510-230L4510-230Q4502-207 4497-173L4497-173Q4491-139 4489-126L4489-126Q4485-111 4481-100L4481-100Q4476-92 4478-83L4478-83Q4476-74 4473-59L4473-59Q4469-43 4462-27L4462-27Q4448 15 4442 27L4442 27Q4429 51 4425 60L4425 60Q4420 68 4419 73L4419 73Q4417 78 4413 81L4413 81Q4401 89 4391 89L4391 89Q4376 89 4369 84L4369 84Q4359 78 4345 64L4345 64Q4332 50 4316 32L4316 32Q4280-12 4280-20L4280-20Q4280-28 4292-28L4292-28Q4304-28 4321-15L4321-15Q4343 1 4344 3L4344 3Q4349 7 4355 12L4355 12Q4370 19 4377 23Z" /><path d="M5428-451L5428-451Q5435-459 5439-468Q5443-477 5443-483L5443-483Q5443-491 5436.50-493.50Q5430-496 5425-496L5425-496Q5410-498 5393.50-497.50Q5377-497 5361-498L5361-498L5359-499Q5356-499 5353.50-497.50Q5351-496 5348-496Q5345-496 5344-494L5344-494L5337-492Q5324-487 5285-475L5285-475Q5258-469 5230-466L5230-466Q5224-465 5219-465Q5214-465 5209-462L5209-462Q5204-461 5197.50-458Q5191-455 5182.50-454Q5174-453 5167-452.50Q5160-452 5158-454L5158-454L5157-454L5151-455L5145-456Q5142-456 5139.50-455Q5137-454 5135-453L5135-453Q5132-450 5131-433L5131-433Q5130-427 5129-421L5129-421Q5129-414 5128-405L5128-405Q5126-388 5121-371L5121-371Q5118-358 5101-342L5101-342Q5099-340 5098-338.50Q5097-337 5094-338L5094-338Q5085-339 5078.50-347.50Q5072-356 5072-365L5072-365Q5072-369 5075-381Q5078-393 5081-406L5081-406Q5085-421 5088-434L5088-434Q5092-453 5093-454L5093-454Q5094-459 5095.50-465.50Q5097-472 5099-480L5099-480Q5100-487 5101.50-493Q5103-499 5103-501L5103-501Q5102-505 5100.50-510Q5099-515 5095-519L5095-519Q5093-521 5092-522.50Q5091-524 5089-526L5089-526Q5088-528 5086.50-529.50Q5085-531 5084-533L5084-533L5084-534Q5082-534 5082-537L5082-537Q5083-537 5084-540L5084-540Q5085-542 5085.50-542Q5086-542 5086-543L5086-543L5088-543Q5091-543 5094-540Q5097-537 5102-534L5102-534Q5107-530 5110.50-525.50Q5114-521 5120-517L5120-517Q5129-507 5139-498.50Q5149-490 5159-489L5159-489Q5172-488 5187-490.50Q5202-493 5202-510L5202-510Q5202-516 5201-517L5201-517L5201-518L5201-519Q5197-521 5196-538.50Q5195-556 5194.50-578Q5194-600 5194-619.50Q5194-639 5194-646L5194-646Q5193-658 5192.50-671Q5192-684 5190-695L5190-695Q5187-704 5180.50-713Q5174-722 5167-730L5167-730Q5158-740 5155-744L5155-744Q5150-753 5150-755L5150-755Q5149-761 5155.50-768.50Q5162-776 5164.50-775Q5167-774 5173-769Q5179-764 5186.50-757.50Q5194-751 5200-745L5200-745Q5206-739 5206-738L5206-738L5206-734L5221-743Q5224-743 5231-745L5231-745Q5239-749 5244-748L5244-748Q5249-748 5252-748L5252-748Q5256-749 5260-750L5260-750Q5267-750 5271-750L5271-750Q5277-751 5279.50-751.50Q5282-752 5285-754L5285-754Q5289-755 5296-759L5296-759Q5300-761 5315-764Q5330-767 5347.50-769.50Q5365-772 5381-775Q5397-778 5400-777L5400-777Q5407-777 5419-769Q5431-761 5442.50-751.50Q5454-742 5462-732Q5470-722 5471-714L5471-714Q5471-710 5462-702L5462-702Q5459-699 5458-698Q5457-697 5456-696L5456-696Q5452-693 5449-690L5449-690Q5445-687 5440.50-680.50Q5436-674 5435-670L5435-670Q5433-664 5431-650Q5429-636 5428-620Q5427-604 5426.50-589.50Q5426-575 5426-568L5426-568Q5426-559 5430-555L5430-555Q5436-549 5442-546L5442-546Q5447-544 5454-542L5454-542Q5464-539 5466-537L5466-537Q5476-529 5478-528L5478-528Q5481-526 5489.50-517Q5498-508 5496.50-495Q5495-482 5494-474Q5493-466 5490-461L5490-461Q5483-451 5475-441L5475-441Q5467-436 5459.50-430Q5452-424 5442-426L5442-426Q5431-430 5428-435L5428-435Q5425-441 5428-451ZM5353-536L5356-535Q5358-536 5358-536L5358-536Q5373-537 5377.50-541.50Q5382-546 5383-552L5383-552Q5383-554 5384.50-555.50Q5386-557 5386-558L5386-558L5386-566Q5386-570 5385-574Q5384-578 5387-584L5387-584Q5390-596 5389-614L5389-614Q5389-621 5386-626L5386-626L5383-626Q5380-627 5380-628L5380-628L5379-628L5372-629Q5353-631 5344-626.50Q5335-622 5336-600L5336-600L5336-596Q5336-595 5336.50-593.50Q5337-592 5337-591L5337-591Q5340-589 5340-583L5340-583Q5340-578 5338.50-575.50Q5337-573 5336-568L5336-568Q5336-566 5336-564.50Q5336-563 5336-561L5336-561Q5335-557 5335-553L5335-553Q5335-538 5353-536L5353-536ZM5238-544L5239-512L5241-512Q5247-505 5251-505L5251-505Q5258-503 5261-508L5261-508L5262-509L5263-510L5266-512Q5267-514 5268.50-514Q5270-514 5272-515L5272-515Q5277-518 5279-519L5279-519Q5289-520 5289-531L5289-531Q5296-539 5299-550Q5302-561 5302-571L5302-571Q5300-589 5297-605.50Q5294-622 5293-641L5293-641Q5293-648 5298.50-656.50Q5304-665 5309-667L5309-667Q5318-668 5325-667L5325-667Q5327-667 5329-668Q5331-669 5333-669Q5335-669 5337.50-669Q5340-669 5341-669L5341-669Q5343-669 5346-670L5346-670Q5347-670 5352-673L5352-673Q5355-673 5357.50-673.50Q5360-674 5363-675L5363-675Q5371-677 5377.50-676.50Q5384-676 5391-677L5391-677L5392-677L5392-679L5391-723L5390-723Q5384-724 5379-726L5379-726Q5375-726 5374-727L5374-727L5368-729Q5346-731 5326-725L5326-725Q5317-723 5307.50-719.50Q5298-716 5288-715L5288-715Q5279-712 5267-713L5267-713Q5261-713 5256-712.50Q5251-712 5246-712L5246-712Q5244-712 5242-710L5242-710L5241-708Q5241-707 5240-708L5240-708L5239-708L5239-707Q5240-698 5238.50-691Q5237-684 5237-676L5237-676Q5238-643 5237.50-610.50Q5237-578 5238-544L5238-544ZM5602-109L5602-109Q5608-106 5611-99L5611-99Q5622-70 5623-61L5623-61Q5625-52 5625-44L5625-44Q5624-38 5625-30L5625-30Q5629-22 5629-16L5629-16Q5632-7 5632-7L5632-7Q5633-6 5633-6L5633-6L5634-5L5635-3L5636-2L5638-2L5645-2Q5648-1 5662-2L5662-2Q5672-3 5678.50-3Q5685-3 5695-6L5695-6Q5706-10 5710-13L5710-13Q5729-26 5741-54Q5753-82 5755-106L5755-106Q5755-117 5745-123.50Q5735-130 5726-130L5726-130Q5707-133 5688-129L5688-129Q5653-125 5649-124L5649-124Q5639-119 5629-117L5629-117Q5620-115 5608-111L5608-111Q5605-110 5602-109ZM5778-402L5778-402L5773-406L5766-406Q5763-408 5755-408L5755-408Q5739-408 5723-405L5723-405Q5706-400 5690-399L5690-399Q5652-397 5620-389L5620-389Q5602-385 5602-384L5602-384Q5593-379 5579-376L5579-376Q5567-372 5558-369L5558-369Q5549-366 5546-366L5546-366Q5531-366 5523-381L5523-381Q5515-397 5514-409L5514-409Q5514-414 5515.50-419Q5517-424 5519-430L5519-430Q5520-433 5520-434L5520-434Q5521-436 5520-438L5520-438Q5522-443 5522-479L5522-479Q5523-515 5521-534L5521-534Q5519-550 5515-561L5515-561Q5514-568 5508-577L5508-577Q5503-585 5498-591L5498-591Q5490-598 5487-600L5487-600Q5483-605 5483-609L5483-609Q5483-613 5485-615L5485-615L5490-620L5491-622Q5491-620 5496-619L5496-619Q5499-618 5500-615L5500-615Q5502-612 5508-606L5508-606Q5511-603 5527-592L5527-592L5528-592L5529-592Q5528-592 5531-595L5531-595Q5532-596 5536-598L5536-598Q5542-602 5543-603L5543-603Q5552-609 5559.50-610Q5567-611 5573.50-612Q5580-613 5588-613.50Q5596-614 5604-617L5604-617L5605-617Q5610-622 5611-633.50Q5612-645 5612-656L5612-656Q5613-668 5612-677L5612-677Q5611-686 5611-692L5611-692Q5611-716 5608-738L5608-738Q5605-761 5594-780L5594-780Q5593-783 5589-789L5589-789Q5586-794 5585-795L5585-795Q5585-795 5586-799L5586-799Q5587-802 5588-805L5588-805Q5593-811 5594-811L5594-811Q5599-811 5608-805L5608-805Q5621-795 5625-789L5625-789Q5633-779 5641-771L5641-771Q5643-769 5649-758L5649-758Q5650-755 5650-750L5650-750L5650-742Q5650-736 5650-733L5650-733Q5649-724 5649-723L5649-723Q5649-718 5646-714L5646-714Q5645-712 5645-705L5645-705Q5645-702 5646-699L5646-699Q5646-697 5646-695L5646-695Q5649-688 5650-686L5650-686Q5651-677 5651-668L5651-668Q5652-659 5652-650L5652-650Q5652-642 5658-638Q5664-634 5672-634L5672-634Q5695-634 5705-645L5705-645Q5718-657 5722-670L5722-670Q5724-678 5723-686L5723-686Q5723-686 5723-704L5723-704L5722-738L5722-763Q5722-769 5722-776L5722-776Q5720-787 5719-788L5719-788Q5717-795 5716-796L5716-796Q5713-800 5710-806L5710-806Q5706-820 5705-824L5705-824Q5705-828 5709-834L5709-834Q5714-839 5717-839L5717-839Q5734-839 5751.50-824Q5769-809 5769-791L5769-791Q5769-782 5767-773L5767-773Q5765-759 5764-757L5764-757Q5762-751 5761-746L5761-746Q5760-743 5758-740L5758-740Q5756-729 5756-722L5756-722Q5756-714 5758.50-704.50Q5761-695 5763-686L5763-686Q5764-684 5764.50-679.50Q5765-675 5766-673L5766-673Q5767-667 5767-666L5767-666Q5767-666 5767-662L5767-662L5767-661L5788-661Q5799-661 5810-664L5810-664Q5820-666 5831-666L5831-666Q5838-666 5851-658.50Q5864-651 5878-642L5878-642Q5892-633 5902-623L5902-623Q5912-613 5912-606L5912-606Q5912-601 5909-595L5909-595Q5905-590 5902-584L5902-584Q5896-578 5892-574L5892-574Q5887-570 5883-566L5883-566Q5872-553 5866-526L5866-526Q5860-500 5859-482L5859-482Q5856-462 5854-442L5854-442Q5846-402 5846-397L5846-397Q5845-394 5836-393L5836-393Q5834-393 5813-396L5813-396Q5784-399 5778-402ZM5844-347L5844-347L5848-340Q5859-328 5859-320L5859-320Q5858-313 5852-305.50Q5846-298 5839-300L5839-300Q5831-300 5826-302L5826-302Q5819-303 5814-305L5814-305Q5804-310 5801-310L5801-310Q5795-312 5788-312L5788-312Q5782-312 5779-312L5779-312Q5771-311 5770-311L5770-311Q5766-309 5762-309L5762-309Q5756-309 5753-309L5753-309Q5734-310 5714-309L5714-309Q5677-306 5674-306L5674-306Q5663-305 5652-303L5652-303Q5641-301 5629-298L5629-298Q5624-298 5617.50-297.50Q5611-297 5607-296L5607-296Q5599-293 5595-292L5595-292Q5589-291 5584-290L5584-290Q5571-287 5561-284L5561-284Q5552-281 5542-282L5542-282L5537-282Q5533-282 5529-283L5529-283Q5524-285 5520-290L5520-290Q5515-294 5511-301L5511-301Q5506-306 5503-313L5503-313Q5500-321 5501-323L5501-323Q5501-334 5509-332L5509-332Q5514-331 5517-330L5517-330Q5524-329 5526-325L5526-325Q5528-322 5532-321L5532-321Q5533-321 5537-320L5537-320Q5538-320 5540-320L5540-320Q5548-320 5554-320L5554-320Q5565-323 5566-323L5566-323Q5571-325 5577-328L5577-328Q5584-329 5590-331L5590-331Q5610-335 5631-339L5631-339Q5651-342 5671-346L5671-346Q5682-347 5700-349L5700-349Q5719-351 5739-353L5739-353Q5760-357 5778-358L5778-358Q5794-360 5810-357L5810-357Q5826-354 5844-347ZM5446 20L5446 20L5475 18Q5478 17 5482 17L5482 17Q5487 16 5489 16L5489 16Q5493 15 5496.50 14.50Q5500 14 5503 14L5503 14Q5511 13 5527 14L5527 14Q5547 16 5551 15L5551 15Q5560 13 5569 13L5569 13Q5577 12 5583 10L5583 10Q5587 8 5592 6L5592 6Q5595 3 5595-4L5595-4Q5596-12 5592-24L5592-24Q5587-35 5581.50-52.50Q5576-70 5575-71L5575-71Q5573-77 5570-85L5570-85Q5567-94 5568-96L5568-96Q5568-101 5571-105L5571-105Q5570-105 5568-105L5568-105Q5560-106 5557.50-115Q5555-124 5555-132L5555-132Q5555-135 5556-137L5556-137Q5557-141 5557-145L5557-145Q5558-148 5559-151L5559-151L5559-160Q5560-169 5559-173L5559-173Q5558-181 5557-190L5557-190Q5555-206 5554-208L5554-208Q5551-216 5550-221L5550-221Q5549-226 5546-229L5546-229Q5545-231 5543-232L5543-232Q5542-234 5541-236L5541-236Q5539-238 5538-241.50Q5537-245 5538-251L5538-251Q5545-255 5549-255L5549-255Q5558-254 5558-251L5558-251Q5559-250 5562-247L5562-247Q5564-245 5566-244L5566-244Q5571-240 5577-236L5577-236Q5583-232 5588-232L5588-232Q5592-232 5592-234L5592-234L5595-236Q5602-242 5604-242L5604-242Q5611-246 5616-250.50Q5621-255 5623-257L5623-257Q5625-257 5653-263L5653-263Q5676-266 5701-270L5701-270Q5727-274 5748-276L5748-276Q5772-278 5778-277L5778-277Q5793-277 5809-264L5809-264Q5826-250 5828-246L5828-246Q5828-241 5829-240L5829-240Q5831-237 5831-234L5831-234Q5831-231 5832.50-226.50Q5834-222 5835-219L5835-219Q5836-216 5836-208L5836-208Q5836-203 5834-199L5834-199Q5830-192 5829-191L5829-191Q5827-186 5823-184L5823-184Q5821-182 5820-181L5820-181Q5818-180 5817-178L5817-178Q5810-170 5803-162L5803-162Q5797-154 5797-144L5797-144L5795-143L5795-139Q5794-138 5794-136L5794-136Q5794-134 5794-133L5794-133Q5783-133 5788-126L5788-126Q5788-126 5780-118L5780-118L5779-117L5782-115Q5784-113 5785-110L5785-110Q5786-107 5790-105L5790-105Q5792-102 5794-99L5794-99Q5797-97 5799-95L5799-95Q5810-85 5810-71L5810-71Q5810-63 5801-54L5801-54Q5792-46 5784-38L5784-38Q5780-33 5774-29L5774-29Q5770-26 5767-23L5767-23Q5765-17 5762-14L5762-14Q5757-10 5758-10L5758-10Q5765-5 5763-3L5763-3Q5764-4 5772-7L5772-7Q5774-7 5795-5L5795-5Q5808-3 5820-3L5820-3Q5832-3 5837-4L5837-4L5879-4Q5894-4 5912-6L5912-6Q5929-8 5946-8L5946-8Q5958-7 5972 5L5972 5Q5987 17 5988 29L5988 29Q5989 38 5984 46L5984 46Q5979 55 5970 57L5970 57Q5962 57 5959 54L5959 54Q5954 52 5948 51L5948 51Q5932 45 5929 45L5929 45Q5911 44 5907 44L5907 44L5887 44Q5869 44 5866 42L5866 42L5865 42Q5864 42 5864 41L5864 41L5863 41Q5801 48 5743 44L5743 44Q5708 42 5673 41L5673 41Q5638 40 5605 44L5605 44Q5589 46 5573.50 48.50Q5558 51 5542 52L5542 52Q5533 52 5526 52L5526 52Q5518 52 5509 52L5509 52Q5504 52 5494 55L5494 55Q5489 58 5481 60L5481 60Q5474 62 5467 63L5467 63Q5461 66 5453 64L5453 64Q5446 64 5440 61L5440 61Q5436 59 5430 42L5430 42Q5424 26 5426 22L5426 22Q5426 21 5446 20ZM5754-573L5755-548L5755-548L5773-548Q5811-548 5814-547L5814-547Q5822-545 5822-546L5822-546Q5822-546 5823-546L5823-546Q5828-559 5831-574L5831-574Q5835-589 5835-601L5835-601Q5835-613 5826-617L5826-617Q5816-621 5808-621L5808-621Q5801-621 5792-620L5792-620Q5783-618 5775-615Q5767-612 5762-605L5762-605Q5755-600 5756-591L5756-591Q5755-585 5755-581L5755-581Q5755-578 5754-577L5754-577Q5754-573 5754-573L5754-573ZM5789-446L5790-445L5794-445Q5794-443 5797-443L5797-443L5799-443Q5807-443 5809-447L5809-447Q5813-454 5813-456L5813-456Q5813-460 5813-462L5813-462Q5814-468 5814-468L5814-468L5813-478Q5814-484 5813-486L5813-486Q5813-490 5812-494L5812-494Q5812-502 5810-502L5810-502Q5809-503 5773-503L5773-503Q5753-503 5751-499L5751-499Q5746-493 5747-478L5747-478Q5747-461 5755-454L5755-454Q5761-447 5769-447L5769-447L5782-447L5783-447Q5784-447 5786-446L5786-446L5789-446ZM5641-527L5641-526Q5641-524 5648-521L5648-521Q5652-520 5654-520L5654-520Q5667-520 5685-529L5685-529Q5708-539 5708-552L5708-552Q5707-553 5709-554L5709-554L5709-555L5711-555L5711-556Q5711-562 5711-564L5711-564Q5711-566 5713-567L5713-567L5713-570L5713-578Q5711-590 5701-593L5701-593Q5689-596 5683-596L5683-596Q5667-596 5658-586L5658-586Q5655-583 5652-575L5652-575Q5649-567 5646-558L5646-558Q5643-548 5642-540L5642-540Q5641-529 5641-527L5641-527ZM5668-482L5666-480Q5655-478 5654-478L5654-478Q5651-473 5651-459L5651-459Q5651-450 5655-442.50Q5659-435 5668-435L5668-435Q5676-435 5686-440L5686-440Q5697-444 5701-449L5701-449Q5706-455 5707-468L5707-468Q5706-472 5702-481L5702-481Q5698-494 5691-489L5691-489Q5689-488 5686-488L5686-488Q5683-488 5681-487L5681-487Q5679-486 5678-486L5678-486Q5677-486 5674-484L5674-484Q5671-484 5670-483L5670-483Q5670-482 5668-482L5668-482ZM5599-211L5595-211L5594-183Q5594-179 5595-174L5595-174Q5597-169 5597-161L5597-161Q5597-156 5601-148L5601-148Q5603-144 5607-144L5607-144Q5613-143 5631-147L5631-147Q5648-151 5669-155L5669-155Q5691-160 5711-164L5711-164Q5732-169 5741-171L5741-171Q5745-172 5752-174L5752-174Q5758-178 5762-180L5762-180Q5770-184 5772-194L5772-194Q5775-206 5775-213L5775-213Q5775-222 5770-230L5770-230Q5765-237 5756-238L5756-238Q5743-238 5741-237L5741-237Q5736-237 5732-235L5732-235Q5728-234 5725-232L5725-232Q5720-231 5702-231L5702-231Q5686-230 5682-229L5682-229Q5671-226 5662-223L5662-223Q5652-220 5641-218L5641-218Q5632-214 5621-212L5621-212Q5601-211 5599-211L5599-211ZM5560-460L5560-460L5560-460Q5560-454 5560-454L5560-454Q5560-452 5560-446L5560-446Q5561-437 5561-436L5561-436Q5560-431 5564-425L5564-425Q5565-424 5567-419.50Q5569-415 5573-415L5573-415Q5575-414 5578-414L5578-414Q5592-414 5604.50-420.50Q5617-427 5617-443L5617-443Q5616-469 5608-469L5608-469Q5607-469 5606-470L5606-470Q5605-470 5604-470L5604-470Q5583-465 5560-460ZM5557-501L5557-501Q5569-507 5588-516L5588-516Q5613-526 5613-542L5613-542Q5612-545 5613-550L5613-550Q5614-556 5614-562L5614-562Q5614-571 5607-575L5607-575Q5601-578 5593-578L5593-578Q5579-578 5562-573L5562-573Q5547-567 5547-548L5547-548Q5547-544 5548-535L5548-535Q5550-525 5552-515L5552-515Q5555-508 5557-501ZM5222-86L5222-86Q5221-70 5220-59L5220-59Q5219-38 5219-36L5219-36Q5211 5 5203 22L5203 22Q5195 39 5177 66L5177 66Q5163 85 5153 91L5153 91Q5139 100 5137 91L5137 91Q5135 81 5144 52L5144 52Q5156 12 5165-12L5165-12Q5169-20 5173-52L5173-52L5177-87Q5177-87 5177-88L5177-88Q5179-94 5179-110L5179-110Q5181-124 5184-151L5184-151Q5190-194 5193-236Q5196-278 5196-320L5196-320Q5196-324 5196-336Q5196-348 5194-351L5194-351Q5193-353 5193-355.50Q5193-358 5192-359.50Q5191-361 5190.50-362Q5190-363 5187-366L5187-366Q5185-370 5184.50-373Q5184-376 5184-381.50Q5184-387 5187-389L5187-389Q5194-394 5196-394L5196-394L5206-394L5216-394Q5223-394 5228-395.50Q5233-397 5239-398L5239-398Q5243-400 5248-403.50Q5253-407 5258-409L5258-409Q5265-413 5269-414L5269-414Q5279-416 5288-421L5288-421Q5306-428 5314-431L5314-431Q5319-432 5324-432L5324-432Q5330-433 5334-433L5334-433Q5340-435 5344.50-436Q5349-437 5354-438L5354-438Q5360-441 5365.50-442Q5371-443 5380-442.50Q5389-442 5396-437L5396-437Q5407-432 5409-426L5409-426Q5422-407 5422-399L5422-399Q5422-397 5425-394L5425-394Q5426-390 5426-387L5426-387Q5426-377 5424-371L5424-371Q5420-365 5417-354L5417-354Q5415-344 5412-334Q5409-324 5409-314Q5409-304 5410.50-294Q5412-284 5412-272L5412-272L5412-269Q5411-268 5411-266L5411-266Q5409-254 5409.50-241Q5410-228 5410-216L5410-216Q5410-153 5412-90L5412-90Q5416 2 5414 34L5414 34Q5410 67 5392 97L5392 97Q5389 102 5374 102L5374 102Q5370 102 5357.50 90Q5345 78 5333 62Q5321 46 5312 31Q5303 16 5303 11L5303 11Q5303 7 5304 4Q5305 1 5309 1L5309 1Q5313 1 5315 1.50Q5317 2 5321 4L5321 4Q5323 6 5325.50 6.50Q5328 7 5331 10L5331 10Q5336 14 5342 17L5342 17Q5353 23 5358 21L5358 21L5360 20Q5362 18 5363 14L5363 14Q5363 13 5364.50 1.50Q5366-10 5368-23Q5370-36 5371.50-48Q5373-60 5373-62L5373-62Q5373-99 5373.50-109Q5374-119 5373-132Q5372-145 5371.50-154.50Q5371-164 5367-168.50Q5363-173 5354-172.50Q5345-172 5339.50-169Q5334-166 5325-159.50Q5316-153 5312-147L5312-147L5297-129L5285-124Q5254-114 5252.50-113.50Q5251-113 5247-113.50Q5243-114 5237.50-116.50Q5232-119 5228-122.50Q5224-126 5222.50-125.50Q5221-125 5221-118L5221-118Q5222-106 5222-86ZM5491-622L5491-622L5492-622Q5492-622 5491-622ZM5223-138L5223-138Q5224-139 5224-139L5224-139Q5232-148 5244-154L5244-154Q5270-166 5272-166L5272-166Q5277-167 5282-170L5282-170Q5286-172 5289-174L5289-174Q5295-176 5298-179L5298-179Q5307-184 5315-188Q5323-192 5333-194L5333-194Q5351-198 5361-193L5361-193Q5365-191 5369-183L5369-183Q5369-197 5369-209L5369-209Q5369-226 5369.50-244Q5370-262 5370-281L5370-281Q5370-286 5369.50-302.50Q5369-319 5367-336.50Q5365-354 5363-369.50Q5361-385 5358-388L5358-388Q5350-395 5342-395L5342-395Q5332-395 5314-389.50Q5296-384 5279-374.50Q5262-365 5249.50-353.50Q5237-342 5234.50-338.50Q5232-335 5231-310L5231-310Q5230-298 5229-283L5229-283Q5237-288 5249-290L5249-290Q5265-288 5268-287L5268-287Q5269-286 5273.50-286Q5278-286 5284-286L5284-286Q5287-286 5293-285L5293-285Q5298-286 5304-286L5304-286Q5314-287 5324-287L5324-287Q5334-287 5341-284L5341-284Q5349-282 5355.50-272Q5362-262 5359-253L5359-253Q5353-238 5337-238L5337-238Q5322-237 5309-241L5309-241Q5303-245 5291-246L5291-246Q5279-246 5269-246L5269-246Q5238-246 5237-246L5237-246Q5233-247 5228-249L5228-249Q5228-240 5228-229L5228-229Q5224-162 5223-138Z" /></svg>