<svg xmlns="http://www.w3.org/2000/svg" viewBox="72 -803 2875 912" fill="#000000"><path d="M692 27L688-682L356-661L354-512L535-526Q558-528 580-535L580-535Q582-536 588-536L588-536Q602-536 614.50-527Q627-518 635.50-507.50Q644-497 644-491L644-491Q644-484 637.50-479.50Q631-475 622-474L622-474L352-457Q351-417 348-375Q345-333 340-300L340-300L532-312Q555-314 577-321L577-321Q583-323 588-323L588-323Q601-323 613.50-314Q626-305 634.50-294.50Q643-284 643-277L643-277Q643-270 636.50-265.50Q630-261 621-260L621-260L619-260L330-245Q312-168 280-110Q248-52 205.50-6.50Q163 39 113 79L113 79Q92 96 79 96L79 96Q72 96 72 89L72 89Q72 79 88 62L88 62Q144 0 182.50-58Q221-116 244-183Q267-250 277.50-337.50Q288-425 288-546L288-546L288-640Q288-663 286.50-684Q285-705 278-725L278-725Q275-733 275-739L275-739Q275-747 284-747L284-747Q300-747 354-720L354-720L705-741Q708-741 711-741.50Q714-742 716-742L716-742Q735-742 747-727.50Q759-713 759-705L759-705Q759-698 756-693Q753-688 753-680L753-680L758 13Q758 23 758.50 31Q759 39 759 47L759 47Q759 70 749 84Q739 98 727 103.50Q715 109 708 109L708 109Q697 109 675.50 97Q654 85 629.50 66Q605 47 582 26.50Q559 6 544.50-11Q530-28 530-36L530-36Q530-42 537-42L537-42Q548-42 570-29L570-29Q598-13 626.50 0.50Q655 14 692 27L692 27Z" /><path d="M1929 20L1139 42Q1132 42 1125.50 42.50Q1119 43 1114 43L1114 43Q1094 43 1088 38L1088 38Q1078 30 1069 14Q1060-2 1060-11L1060-11Q1060-18 1066-18L1066-18Q1069-18 1071-17L1071-17Q1084-14 1095.50-13.50Q1107-13 1118-13L1118-13L1472-23L1473-129L1320-123L1302-123Q1289-123 1272-129Q1255-135 1244-166L1244-166Q1243-168 1243-172L1243-172Q1243-178 1249-178L1249-178Q1250-178 1251-177.50Q1252-177 1253-177L1253-177Q1271-174 1290-174L1290-174L1301-174L1473-180L1473-270L1291-261Q1239-197 1195.50-160.50Q1152-124 1135-124L1135-124Q1129-124 1129-129L1129-129Q1129-137 1144-156L1144-156Q1155-169 1178-198Q1201-227 1225.50-263.50Q1250-300 1267-336Q1284-372 1284-400L1284-400Q1284-404 1286-410L1286-410Q1282-410 1271.50-414.50Q1261-419 1252-427Q1243-435 1243-446L1243-446L1243-449Q1244-456 1244.50-462Q1245-468 1245-474L1245-474Q1245-480 1244.50-486.50Q1244-493 1243-500L1243-500L1226-684Q1225-700 1220.50-711.50Q1216-723 1209-735L1209-735Q1204-742 1204-747L1204-747Q1204-755 1217-755L1217-755Q1227-755 1243.50-751Q1260-747 1287-736L1287-736L1721-761L1728-761Q1745-761 1759-752Q1773-743 1773-732L1773-732Q1773-726 1770.50-720.50Q1768-715 1767-710L1767-710L1743-502Q1767-474 1767-462L1767-462Q1767-455 1759-453.50Q1751-452 1740-451L1740-451L1312-434L1312-427Q1312-416 1303-411L1303-411Q1334-394 1343.50-378.50Q1353-363 1353-355L1353-355Q1353-354 1350-347Q1347-340 1328-311L1328-311L1474-319L1474-370Q1474-387 1471.50-396.50Q1469-406 1462-419L1462-419Q1460-423 1460-425L1460-425Q1460-431 1469-431L1469-431Q1480-431 1507-421L1507-421Q1526-414 1531.50-407.50Q1537-401 1537-387L1537-387L1536-322L1723-332Q1733-333 1741-334.50Q1749-336 1758-338L1758-338Q1761-339 1764-339.50Q1767-340 1770-340L1770-340Q1779-340 1790-332.50Q1801-325 1809.50-315Q1818-305 1818-298L1818-298Q1818-291 1811-288.50Q1804-286 1793-285L1793-285L1536-273L1535-183L1683-188Q1700-188 1719-194L1719-194Q1725-196 1728-196L1728-196Q1737-196 1748.50-188Q1760-180 1768.50-169.50Q1777-159 1777-153L1777-153Q1777-146 1770.50-143Q1764-140 1755-139L1755-139L1535-131L1534-24L1852-33Q1863-33 1873.50-35Q1884-37 1893-40L1893-40Q1899-42 1902-42L1902-42Q1909-42 1921-35Q1933-28 1943-17.50Q1953-7 1953 4L1953 4Q1953 11 1946 15Q1939 19 1929 20L1929 20ZM1695-633L1702-708L1289-686L1296-612L1695-633ZM1683-501L1691-585L1300-565L1307-484L1683-501Z" /><path d="M2657-480L2657-483L2661-755Q2661-773 2653-787L2653-787Q2652-790 2650.50-792.50Q2649-795 2649-796L2649-796Q2649-803 2660-803L2660-803Q2673-803 2691-796L2691-796Q2711-790 2714.50-783.50Q2718-777 2718-769L2718-769L2718-767L2716-613Q2767-641 2791-660.50Q2815-680 2823-694Q2831-708 2834-719L2834-719Q2837-730 2843-730L2843-730Q2851-730 2860.50-717.50Q2870-705 2877-690Q2884-675 2884-667L2884-667Q2884-660 2881-656.50Q2878-653 2875-651L2875-651Q2841-627 2798.50-604Q2756-581 2715-561L2715-561L2714-490Q2714-457 2736-450L2736-450Q2740-448 2743-448L2743-448Q2751-447 2761-446.50Q2771-446 2782-446L2782-446Q2824-446 2848-449.50Q2872-453 2884.50-466.50Q2897-480 2903.50-508Q2910-536 2917-585L2917-585Q2922-620 2933-620L2933-620Q2940-620 2943-605.50Q2946-591 2946.50-570Q2947-549 2947-528L2947-528Q2947-512 2947-497Q2947-482 2945-466L2945-466Q2944-451 2939.50-437.50Q2935-424 2920-413.50Q2905-403 2873.50-397.50Q2842-392 2787-392L2787-392Q2754-392 2724-395.50Q2694-399 2675.50-417.50Q2657-436 2657-480L2657-480ZM2270-361L2265 71Q2265 95 2248 95L2248 95Q2242 95 2230.50 90Q2219 85 2210 75.50Q2201 66 2201 53L2201 53Q2201 50 2203 42L2203 42Q2207 26 2208.50 10.50Q2210-5 2210-18L2210-18Q2210-18 2210.50-45.50Q2211-73 2211.50-116.50Q2212-160 2212.50-208.50Q2213-257 2213-299L2213-299Q2213-309 2214-326.50Q2215-344 2216-358Q2217-372 2217-372L2217-372Q2211-351 2204-331Q2197-311 2190-298L2190-298Q2152-227 2125-186Q2098-145 2081.50-125Q2065-105 2056.50-99.50Q2048-94 2046-94L2046-94Q2040-94 2040-102L2040-102Q2040-112 2049-128L2049-128Q2081-186 2106.50-239.50Q2132-293 2156.50-353.50Q2181-414 2208-490L2208-490L2141-483Q2133-482 2126-481.50Q2119-481 2113-481L2113-481Q2099-481 2091-486L2091-486Q2070-504 2062-524L2062-524Q2061-526 2061-530L2061-530Q2061-537 2069-537L2069-537L2074-537Q2083-536 2091-534.50Q2099-533 2107-533L2107-533Q2110-533 2113.50-533Q2117-533 2120-534L2120-534L2216-543L2218-733Q2218-742 2214-753Q2210-764 2205-772L2205-772Q2201-777 2201-782L2201-782Q2201-790 2213-790L2213-790Q2224-790 2246-782L2246-782Q2266-775 2270.50-768.50Q2275-762 2275-751L2275-751L2273-549L2318-554Q2327-555 2336.50-556.50Q2346-558 2354-561L2354-561Q2356-562 2361-562L2361-562Q2371-562 2382-554Q2393-546 2401.50-536.50Q2410-527 2410-521L2410-521Q2410-515 2404-512Q2398-509 2390-508L2390-508L2272-497L2271-403Q2279-410 2288-410L2288-410Q2290-410 2298.50-405.50Q2307-401 2327.50-377.50Q2348-354 2385-298L2385-298Q2393-289 2393-280L2393-280Q2393-267 2377-258Q2361-249 2353-249L2353-249Q2346-249 2341.50-253.50Q2337-258 2332-266L2332-266Q2318-290 2302.50-316Q2287-342 2270-361L2270-361ZM2610-584L2490-576L2488-443Q2516-451 2545-461Q2574-471 2603-483L2603-483Q2624-491 2632-491L2632-491Q2641-491 2641-485L2641-485Q2641-475 2618.50-459Q2596-443 2561.50-425Q2527-407 2491.50-391Q2456-375 2429-365Q2402-355 2395-355L2395-355Q2384-355 2373-364Q2362-373 2345-398L2345-398Q2344-401 2342.50-403.50Q2341-406 2341-407L2341-407Q2341-414 2356-414L2356-414L2367-414Q2379-414 2393.50-416.50Q2408-419 2433-426L2433-426L2435-728Q2435-738 2433.50-749.50Q2432-761 2425-771L2425-771Q2422-774 2422-777L2422-777Q2422-783 2432-783L2432-783Q2443-783 2465-776L2465-776Q2485-769 2488.50-762Q2492-755 2492-746L2492-746L2491-628L2540-631Q2552-632 2559.50-633.50Q2567-635 2576-638L2576-638Q2579-640 2582-640Q2585-640 2588-640L2588-640Q2596-640 2607-633Q2618-626 2626-616Q2634-606 2634-598L2634-598Q2634-586 2610-584L2610-584ZM2834 36L2517 43L2518 68L2518 70Q2518 85 2502 85L2502 85Q2499 85 2487.50 81Q2476 77 2466 68.50Q2456 60 2456 47L2456 47Q2456 44 2456.50 41.50Q2457 39 2457 36L2457 36Q2458 28 2458.50 19Q2459 10 2459-1L2459-1Q2459-6 2459-11.50Q2459-17 2458-24L2458-24L2444-216Q2443-238 2439.50-252Q2436-266 2431-281L2431-281Q2429-288 2427.50-292.50Q2426-297 2426-301L2426-301Q2426-308 2434-308L2434-308Q2449-308 2502-285L2502-285L2542-286Q2577-327 2592-353Q2607-379 2611.50-393.50Q2616-408 2617-416L2617-416Q2618-427 2627-427L2627-427Q2634-427 2646.50-420.50Q2659-414 2669-404Q2679-394 2679-384L2679-384Q2679-374 2663.50-355Q2648-336 2630-317.50Q2612-299 2602-290L2602-290L2804-300Q2807-301 2813-301L2813-301Q2832-301 2846-285.50Q2860-270 2860-259L2860-259Q2860-252 2858-247Q2856-242 2855-237L2855-237L2830-15Q2858 12 2858 24L2858 24Q2858 36 2834 36L2834 36ZM2788-163L2794-247L2502-235L2507-151L2788-163ZM2778-13L2785-111L2509-102L2514-6L2778-13Z" /></svg>