<svg xmlns="http://www.w3.org/2000/svg" viewBox="71.10344696044922 -838 4183.973701477051 942" fill="#000000"><path d="M551-297L551-297Q582-254 620.50-208.50Q659-163 703.50-120Q748-77 795-39Q842-1 888 27L888 27Q905 37 921 32Q937 27 947 9L947 9Q956-8 951-23.50Q946-39 929-48L929-48Q885-73 838-107.50Q791-142 745.50-182.50Q700-223 661-266.50Q622-310 592-351L592-351L913-351Q931-351 941.50-362Q952-373 952-391L952-391Q952-409 941.50-419.50Q931-430 913-430L913-430L551-430L551-598L843-598Q860-598 871-609Q882-620 882-638L882-638Q882-655 871-666Q860-677 843-677L843-677L551-677L551-797Q551-815 539.50-826.50Q528-838 510-838L510-838Q492-838 480.50-826.50Q469-815 469-797L469-797L469-677L189-677Q171-677 160.50-666Q150-655 150-638L150-638Q150-620 160.50-609Q171-598 189-598L189-598L469-598L469-430L115-430Q96-430 85.50-419.50Q75-409 75-391L75-391Q75-373 85.50-362Q96-351 115-351L115-351L430-351Q401-310 361.50-266Q322-222 277-181.50Q232-141 185-106.50Q138-72 94-47L94-47Q77-38 72.50-22.50Q68-7 78 10L78 10Q87 27 103 32Q119 37 136 27L136 27Q182-1 228.50-38Q275-75 318.50-117.50Q362-160 400.50-205Q439-250 469-293L469-293L469 63Q469 82 480.50 93Q492 104 510 104L510 104Q528 104 539.50 93Q551 82 551 63L551 63L551-297Z" /><path d="M1576-282L1576-282Q1606-239 1645-193Q1684-147 1728.50-103.50Q1773-60 1820.50-22.50Q1868 15 1914 43L1914 43Q1931 53 1947 48Q1963 43 1972 26L1972 26Q1981 8 1976-7Q1971-22 1954-32L1954-32Q1912-55 1866.50-89.50Q1821-124 1778-163Q1735-202 1696-243.50Q1657-285 1628-323L1628-323L1943-323Q1959-323 1969-333Q1979-343 1979-360L1979-360Q1979-377 1969-387Q1959-397 1943-397L1943-397L1576-397L1576-642L1897-642Q1915-642 1925.50-653Q1936-664 1936-681L1936-681Q1936-698 1925.50-709Q1915-720 1897-720L1897-720L1576-720L1576-797Q1576-814 1564.50-825.50Q1553-837 1536-837L1536-837Q1518-837 1506.50-825.50Q1495-814 1495-797L1495-797L1495-720L1182-720Q1164-720 1153.50-709Q1143-698 1143-681L1143-681Q1143-664 1153.50-653Q1164-642 1182-642L1182-642L1495-642L1495-397L1133-397Q1115-397 1105-387Q1095-377 1095-360L1095-360Q1095-343 1105-333Q1115-323 1133-323L1133-323L1445-323Q1416-285 1377-243.50Q1338-202 1295-163Q1252-124 1206.50-90Q1161-56 1119-33L1119-33Q1102-24 1097.50-9.50Q1093 5 1102 23L1102 23Q1111 40 1127 44.50Q1143 49 1159 39L1159 39Q1205 12 1251.50-24.50Q1298-61 1342-103Q1386-145 1425.50-190.50Q1465-236 1495-279L1495-279L1495 62Q1495 80 1506.50 91Q1518 102 1536 102L1536 102Q1553 102 1564.50 91Q1576 80 1576 62L1576 62L1576-282ZM1825-620L1825-620Q1805-626 1789-618Q1773-610 1764-593L1764-593Q1758-582 1752-569.50Q1746-557 1740-544L1740-544L1735-534L1733-528L1727-519Q1719-503 1711.50-487.50Q1704-472 1697-458L1697-458Q1689-443 1694-431.50Q1699-420 1714-415L1714-415Q1729-410 1743-414.50Q1757-419 1765-432L1765-432Q1783-462 1804-498Q1825-534 1845-568L1845-568Q1855-586 1849.50-599.50Q1844-613 1825-620L1825-620ZM1380-472L1380-472Q1369-501 1351.50-533Q1334-565 1317-595L1317-595Q1309-610 1293-615.50Q1277-621 1261-614L1261-614Q1244-607 1240-595Q1236-583 1245-567L1245-567Q1263-538 1279-505Q1295-472 1307-443L1307-443Q1313-426 1326-420Q1339-414 1357-420L1357-420Q1373-426 1380.50-440.50Q1388-455 1380-472L1380-472Z" /><path d="M2919-799L2919-799L2200-799Q2174-799 2158.50-783.50Q2143-768 2143-742L2143-742L2143 15Q2143 41 2158.50 56.50Q2174 72 2200 72L2200 72L2919 72Q2945 72 2960.50 56.50Q2976 41 2976 15L2976 15L2976-742Q2976-768 2960.50-783.50Q2945-799 2919-799L2919-799ZM2897 3L2221 3L2221-728L2897-728L2897 3ZM2726-686L2726-686L2391-686Q2365-686 2350-670.50Q2335-655 2335-630L2335-630L2335-554Q2335-528 2350-513Q2365-498 2391-498L2391-498L2726-498Q2751-498 2766.50-513Q2782-528 2782-554L2782-554L2782-630Q2782-655 2766.50-670.50Q2751-686 2726-686L2726-686ZM2710-557L2404-557L2404-627L2710-627L2710-557ZM2384-380L2384-380L2732-380L2732-217Q2732-200 2742.50-189.50Q2753-179 2770-179L2770-179Q2786-179 2796.50-189.50Q2807-200 2807-217L2807-217L2807-388Q2807-414 2791.50-429Q2776-444 2750-444L2750-444L2367-444Q2342-444 2326.50-429Q2311-414 2311-388L2311-388L2311-211Q2311-194 2321-184Q2331-174 2348-174L2348-174Q2364-174 2374-184Q2384-194 2384-211L2384-211L2384-380ZM2600-288L2600-288L2600-322Q2600-336 2591-345Q2582-354 2567-354L2567-354L2559-354Q2545-354 2536-345.50Q2527-337 2527-323L2527-323L2527-291Q2527-272 2520-247Q2513-222 2488.50-196Q2464-170 2417.50-145.50Q2371-121 2292-102L2292-102Q2276-98 2269.50-87.50Q2263-77 2268-62L2268-62Q2273-47 2285.50-40Q2298-33 2313-37L2313-37Q2405-61 2461.50-93.50Q2518-126 2548.50-161Q2579-196 2589.50-229Q2600-262 2600-288L2600-288ZM2819-103L2819-103Q2781-124 2732-149Q2683-174 2639-195L2639-195Q2626-200 2614-196.50Q2602-193 2594-180L2594-180Q2586-168 2589.50-157Q2593-146 2606-140L2606-140Q2651-120 2699.50-93Q2748-66 2785-45L2785-45Q2799-37 2811.50-40.50Q2824-44 2832-57L2832-57Q2840-71 2836-83.50Q2832-96 2819-103L2819-103Z" /><path d="M3370-743L3370-743Q3318-743 3275-729Q3232-715 3200-689Q3168-663 3150.50-627Q3133-591 3133-548L3133-548Q3133-504 3147-470.50Q3161-437 3189-411.50Q3217-386 3259-366.50Q3301-347 3358-330L3358-330Q3407-314 3439-300Q3471-286 3490-268.50Q3509-251 3517.50-229Q3526-207 3526-177L3526-177Q3526-142 3512.50-115.50Q3499-89 3476-71Q3453-53 3423-44.50Q3393-36 3358-36L3358-36Q3305-36 3264.50-49.50Q3224-63 3188-89L3188-89Q3173-99 3157.50-97.50Q3142-96 3129-83L3129-83Q3117-70 3117.50-54.50Q3118-39 3132-28L3132-28Q3177 6 3233 25Q3289 44 3359 44L3359 44Q3421 44 3471 27.50Q3521 11 3555-18.50Q3589-48 3607-89.50Q3625-131 3625-180L3625-180Q3625-234 3607.50-271Q3590-308 3560-334Q3530-360 3489.50-377.50Q3449-395 3402-410L3402-410Q3351-425 3318-440Q3285-455 3266-470.50Q3247-486 3240-505.50Q3233-525 3233-551L3233-551Q3233-606 3273-635Q3313-664 3374-664L3374-664Q3413-664 3447.50-653.50Q3482-643 3516-621L3516-621Q3531-610 3546.50-611.50Q3562-613 3575-627L3575-627Q3586-640 3585-655.50Q3584-671 3570-682L3570-682Q3530-712 3483-727.50Q3436-743 3370-743L3370-743Z" /><path d="M4052-743L4052-743Q3987-743 3930.50-718Q3874-693 3831-643.50Q3788-594 3763.50-520.50Q3739-447 3739-350L3739-350Q3739-254 3762.50-181Q3786-108 3828-57.50Q3870-7 3927 18.50Q3984 44 4053 44L4053 44Q4114 44 4160 26.50Q4206 9 4239-14L4239-14Q4254-26 4255-41Q4256-56 4244-71L4244-71Q4233-85 4218-87Q4203-89 4189-79L4189-79Q4162-61 4131-49.50Q4100-38 4057-38L4057-38Q4011-38 3971.50-55.50Q3932-73 3903-110.50Q3874-148 3857-207Q3840-266 3840-350L3840-350Q3840-437 3857.50-497Q3875-557 3904.50-594Q3934-631 3973.50-647.50Q4013-664 4058-664L4058-664Q4091-664 4119-656Q4147-648 4175-631L4175-631Q4190-621 4206-623Q4222-625 4233-639L4233-639Q4244-653 4242.50-668Q4241-683 4226-693L4226-693Q4190-718 4150-730.50Q4110-743 4052-743L4052-743Z" /></svg>