<svg xmlns="http://www.w3.org/2000/svg" viewBox="47 -814 3895 945" fill="#000000"><path d="M47 19Q172-38 288-124Q404-210 484-318L484-318Q254-298 159-280L159-280Q127-297 93-325L93-325L97-336Q241-337 494-361L494-361L494-506L391-493L325-483Q307-494 295-505L295-505Q222-429 124-375L124-375L109-395Q172-443 221.50-499Q271-555 300-615L300-615Q316-649 312-687L312-687L324-694Q341-677 358-654Q375-631 385-611L385-611Q365-591 355-577L355-577Q340-556 319-532L319-532Q408-537 494-547L494-547Q493-637 489-698L489-698Q487-725 480.50-745Q474-765 461-792L461-792L473-804Q509-778 567-729L567-729Q555-703 554-656L554-656L550-554Q620-564 661-573L661-573Q689-579 707.50-586Q726-593 747-605L747-605Q783-583 801-566L801-566Q811-556 811-549L811-549Q811-537 793-535L793-535Q656-525 549-513L549-513L546-366Q677-380 736-390L736-390Q764-395 782-401Q800-407 822-418L822-418Q865-390 887-367L887-367Q893-361 893-355L893-355Q893-344 880-344L880-344Q761-340 546-323L546-323L546-306Q647-205 737-137L737-137Q785-100 833-77.50Q881-55 950-36L950-36L950-14Q877-13 786-7L786-7Q773-6 764.50-8.50Q756-11 749-20L749-20Q647-146 545-257L545-257L544-88Q544 7 546 105L546 105L532 112Q496 85 475 60L475 60Q485 9 489-55L489-55Q491-99 493-243L493-243Q407-144 299-74Q191-4 60 44L60 44L47 19Z" /><path d="M1007-224Q1135-271 1274-348L1274-348Q1265-390 1242-427L1242-427L1251-436Q1289-415 1330-380L1330-380Q1415-431 1482-482L1482-482Q1460-501 1446-521L1446-521Q1452-544 1453.50-559Q1455-574 1455-609L1455-609Q1455-663 1451-719L1451-719Q1449-744 1443.50-762.50Q1438-781 1426-807L1426-807L1433-814Q1455-800 1482-779.50Q1509-759 1523-745L1523-745Q1518-729 1516-693L1516-693Q1509-614 1509-503L1509-503Q1567-550 1601-590L1601-590Q1608-598 1612.50-613.50Q1617-629 1616-642L1616-642L1626-646Q1645-629 1661-609Q1677-589 1686-572L1686-572Q1668-563 1647-545L1647-545Q1605-511 1557-476L1557-476Q1596-466 1630-450L1630-450Q1644-444 1644-434L1644-434Q1644-406 1638-386L1638-386Q1687-392 1714-397L1714-397Q1736-401 1749.50-405.50Q1763-410 1778-418L1778-418Q1812-398 1833-379L1833-379Q1839-373 1839-366L1839-366Q1839-361 1834-357.50Q1829-354 1821-354L1821-354Q1757-354 1582-341L1582-341Q1606-331 1625-320L1625-320Q1620-300 1618-264L1618-264L1618-258Q1695-265 1703-267L1703-267Q1723-271 1738-274.50Q1753-278 1766-285L1766-285Q1798-264 1807-252L1807-252Q1813-246 1813-241L1813-241Q1813-233 1796-231L1796-231Q1730-229 1617-220L1617-220L1615-138Q1687-145 1703-148L1703-148Q1740-154 1766-165L1766-165Q1796-145 1807-132L1807-132Q1812-124 1812-120L1812-120Q1812-111 1796-111L1796-111Q1733-110 1615-101L1615-101L1614-11Q1696-17 1766-26L1766-26Q1793-29 1833-45L1833-45Q1853-32 1865.50-23Q1878-14 1887-4L1887-4Q1894 3 1894 10L1894 10Q1894 15 1888.50 18.50Q1883 22 1874 22L1874 22Q1768 22 1580 32.50Q1392 43 1362 48L1362 48L1332 28L1332 125L1322 131Q1285 104 1265 75L1265 75Q1274 39 1277 9L1277 9Q1279-20 1281-84.50Q1283-149 1283-212L1283-212Q1283-265 1281-303L1281-303L1281-307Q1156-245 1016-200L1016-200L1007-224ZM1405-81Q1374-98 1355-115L1355-115L1360-124Q1417-121 1564-134L1564-134L1563-216Q1450-207 1405-201L1405-201Q1371-219 1355-234L1355-234L1359-243Q1393-241 1562-253L1562-253Q1562-276 1561-286L1561-286Q1557-329 1555-339L1555-339Q1429-330 1338-321L1338-321Q1336-299 1336-287L1336-287Q1334-220 1332-38L1332-38L1332 0Q1423 1 1564-7L1564-7L1564-97Q1468-91 1405-81L1405-81ZM1189-448Q1181-441 1171-441L1171-441Q1160-441 1157-451L1157-451Q1147-479 1144-514L1144-514Q1175-522 1212-555.50Q1249-589 1275.50-630.50Q1302-672 1303-700L1303-700L1314-702Q1328-671 1331-643L1331-643L1331-638Q1331-627 1322-612L1322-612Q1296-570 1255-518.50Q1214-467 1189-448L1189-448ZM1874-514Q1778-607 1635-680L1635-680L1643-695Q1787-653 1876-615L1876-615Q1896-607 1901-594L1901-594Q1907-576 1907-550L1907-550Q1907-534 1906-526L1906-526Q1903-506 1890-506L1890-506Q1882-506 1874-514L1874-514ZM1383-362Q1478-368 1603-382L1603-382Q1588-407 1573.50-424Q1559-441 1537-461L1537-461Q1461-407 1383-362L1383-362Z" /><path d="M2247 93L2228 75L2187 39Q2196 18 2199-2.50Q2202-23 2206-66L2206-66Q2216-180 2216-381L2216-381Q2216-440 2210-476L2210-476Q2138-396 2044-334L2044-334L2028-352Q2114-422 2191-523.50Q2268-625 2285-707L2285-707Q2287-721 2287-733L2287-733Q2287-758 2282-776L2282-776L2301-785Q2319-760 2343-723Q2367-686 2373-669L2373-669Q2348-647 2320-612L2320-612Q2255-527 2224-492L2224-492L2242-477Q2255-466 2267-455.50Q2279-445 2283-439L2283-439Q2274-405 2272-371L2272-371Q2265-229 2262-26L2262-26L2259 89L2247 93ZM2359-484L2301-524L2304-538Q2373-536 2451.50-541.50Q2530-547 2642-558L2642-558L2692-563Q2756-569 2795.50-578.50Q2835-588 2865-605L2865-605Q2892-586 2927-554L2927-554Q2934-548 2934-541L2934-541Q2934-536 2928.50-532Q2923-528 2915-528L2915-528Q2730-525 2563-511L2563-511Q2586-493 2613-468L2613-468Q2601-438 2595-399L2595-399L2584-344Q2648-345 2694-356L2694-356Q2731-363 2756-384L2756-384Q2803-358 2824-333L2824-333Q2831-326 2831-321L2831-321Q2831-317 2826-312L2826-312Q2812-298 2805-287.50Q2798-277 2795-265L2795-265Q2786-236 2763-146L2763-146Q2733-29 2714 21L2714 21Q2696 71 2659 106L2659 106Q2652 112 2648 112L2648 112Q2642 112 2635 103L2635 103Q2610 73 2570.50 38Q2531 3 2485-24L2485-24L2493-38L2650 18Q2678-47 2703.50-138.50Q2729-230 2746-317L2746-317Q2671-312 2615-303L2615-303L2580-323Q2546-183 2478.50-94Q2411-5 2285 65L2285 65L2267 42Q2356-18 2410-84Q2464-150 2493.50-230Q2523-310 2537-418L2537-418Q2540-439 2540-458L2540-458Q2540-484 2533-508L2533-508Q2442-499 2359-484L2359-484ZM2622-624Q2596-666 2567.50-697.50Q2539-729 2493-759L2493-759L2503-776Q2603-745 2660-720L2660-720Q2668-716 2670.50-708Q2673-700 2673-685L2673-685Q2673-651 2665-632L2665-632Q2661-623 2654-617Q2647-611 2640-611L2640-611Q2631-611 2622-624L2622-624Z" /><path d="M3724-512Q3738-532 3755.50-558.50Q3773-585 3781-599L3781-599Q3624-588 3520-578.50Q3416-569 3290-553L3290-553L3257-576L3257-575Q3244-532 3221.50-478Q3199-424 3181-404L3181-404Q3174-395 3165-395L3165-395Q3157-395 3148-407L3148-407Q3141-417 3135-432Q3129-447 3123-461L3123-461Q3162-487 3185.50-539.50Q3209-592 3209-641L3209-641Q3209-650 3207-664L3207-664L3220-674Q3251-636 3258-616L3258-616Q3259-613 3261-604L3261-604Q3347-606 3506.50-617.50Q3666-629 3724-641L3724-641Q3761-649 3787-662L3787-662Q3841-624 3898-569L3898-569Q3907-560 3907-554L3907-554Q3907-544 3889-542L3889-542Q3851-539 3815-529Q3779-519 3737-498L3737-498L3724-512ZM3517-655Q3493-691 3465.50-721.50Q3438-752 3399-782L3399-782L3409-798Q3487-775 3554-746L3554-746Q3566-740 3566-714L3566-714Q3566-681 3558-662L3558-662Q3555-654 3548.50-648Q3542-642 3535-642L3535-642Q3526-642 3517-655L3517-655ZM3067 13Q3191-53 3294.50-133Q3398-213 3472-320L3472-320Q3307-306 3223-290L3223-290L3155-329L3162-347Q3213-346 3301.50-349.50Q3390-353 3479-361L3479-361Q3477-433 3475-467L3475-467Q3472-513 3456-541L3456-541L3469-553Q3486-541 3508-525.50Q3530-510 3544-497L3544-497Q3539-480 3537-465.50Q3535-451 3534-426L3534-426L3532-365Q3646-375 3692-384L3692-384Q3720-389 3737-394.50Q3754-400 3776-410L3776-410Q3795-399 3812-385.50Q3829-372 3837-363L3837-363Q3843-357 3843-351L3843-351Q3843-341 3820-340L3820-340Q3683-336 3531-325L3531-325Q3531-319 3530-313L3530-313Q3618-225 3723-146L3723-146Q3770-111 3821-87.50Q3872-64 3942-46L3942-46L3942-25L3901-24L3763-18Q3750-18 3744-24L3744-24L3708-65Q3621-169 3530-269L3530-269Q3529-234 3529-159L3529-159Q3529-38 3533 106L3533 106L3518 114Q3482 85 3462 63L3462 63Q3473 26 3474 0L3474 0Q3476-34 3477.50-101Q3479-168 3479-245L3479-245Q3399-149 3301.50-82Q3204-15 3083 40L3083 40L3067 13Z" /></svg>