<svg xmlns="http://www.w3.org/2000/svg" viewBox="11 -867 5970 975" fill="#000000"><path d="M201 106L201 106L178 106L178-312Q112-202 33-130L33-130L11-148Q126-332 161-561L161-561L46-561L29-622L178-622L178-867L326-853Q318-793 288-792L288-792L288-622L310-622L356-690Q356-679 367.50-669.50Q379-660 396-648L396-648Q423-630 452-602L452-602Q447-576 439.50-568.50Q432-561 424-561L424-561L288-561L288-512Q379-478 412-433L412-433Q439-396 439-363L439-363Q439-356 435-333Q431-310 402-295L402-295Q391-290 380-290L380-290Q361-290 340-306L340-306Q333-391 288-464L288-464L288 55Q288 74 258 90Q228 106 201 106ZM720-220L720-220Q792-347 814-452L814-452L748-452L717-418L605-488Q643-521 660-529L660-529Q681-576 702-637Q723-698 734-733L734-733L578-733L577-687Q577-608 574-529L574-529Q616-355 720-220ZM331 104L331 104L308 79Q423-86 448-277L448-277Q468-434 468-611L468-611L467-733L369-733L349-793L741-793L782-841L899-752Q882-730 869-722.50Q856-715 842-712L842-712Q837-700 832-685L832-685Q784-554 767-512L767-512L817-512L873-568L983-470Q969-446 958.50-439.50Q948-433 932-432L932-432Q884-263 792-145L792-145Q856-85 987-39L987-39L980 2Q916 21 894 98L894 98Q790 46 708-58L708-58Q587 50 419 103L419 103L396 67Q581-28 660-133L660-133Q602-233 566-410L566-410Q553-255 500.50-124.50Q448 6 331 104Z" /><path d="M1572-513L1572-513L1551-546Q1717-679 1816-849L1816-849L1958-760Q1942-735 1933-729L1933-729Q1928-727 1921-727L1921-727Q1915-727 1906-729L1906-729Q1748-589 1572-513ZM1568-240L1568-240L1548-272Q1720-412 1824-594L1824-594L1971-503Q1955-478 1945-473L1945-473Q1940-471 1933-471L1933-471Q1927-471 1918-473L1918-473Q1754-321 1568-240ZM1201-599L1434-599L1434-644L1201-644L1201-599ZM1201-705L1434-705L1434-748L1201-748L1201-705ZM1598-407L1598-407L1043-407L1026-468L1219-468Q1272-449 1281-449L1281-449Q1283-449 1283-450L1283-450Q1283-451 1269-465L1269-465Q1273-481 1273-494L1273-494Q1273-504 1270-518.50Q1267-533 1248-558L1248-558L1218-538L1201-538L1201-526Q1201-508 1172-494Q1143-480 1115-480L1115-480L1100-480L1100-851L1203-809L1429-809L1473-857L1587-772Q1559-736 1534-731L1534-731L1534-536Q1530-520 1501.50-508.50Q1473-497 1451-497L1451-497L1434-497L1434-538L1471-538L1464-539Q1449-539 1437-528Q1425-517 1420-501L1420-501Q1417-492 1417-485L1417-485Q1417-466 1430-466L1430-466L1438-468L1476-468L1525-530Q1525-519 1537-509.50Q1549-500 1568-490L1568-490Q1597-474 1629-448L1629-448Q1621-422 1613.50-414.50Q1606-407 1598-407ZM1198-256L1429-256L1429-320L1198-320L1198-256ZM1251 105L1251 105Q1249 50 1240 35L1240 35Q1230 16 1180 7L1180 7L1180-22Q1180-17 1186-17L1186-17Q1193-17 1202.50-20Q1212-23 1223-26L1223-26Q1242-34 1251-34L1251-34Q1263-34 1265-33L1265-33L1267-33L1267-195L1198-195L1198-189Q1198-178 1191-169L1191-169L1189-165Q1189-164 1190-164L1190-164Q1193-164 1200-166L1200-166L1271-136Q1258-109 1249.50-102.50Q1241-96 1230-96L1230-96L1223-96Q1157 6 1045 68L1045 68L1025 42Q1069-12 1094-63.50Q1119-115 1126-144L1126-144L1099-144L1099-421L1201-381L1425-381L1466-425L1577-343Q1544-310 1528-306L1528-306L1528-195Q1524-179 1495.50-167.50Q1467-156 1445-156L1445-156L1429-156L1429-195L1369-195L1369-33Q1369 5 1360 34.50Q1351 64 1325.50 82.50Q1300 101 1251 105ZM1490 21L1490 21Q1472 21 1452 8L1452 8Q1441-75 1367-160L1367-160L1392-176Q1485-157 1520-118L1520-118Q1551-84 1551-51L1551-51Q1551-46 1547.50-25Q1544-4 1515 14L1515 14Q1503 21 1490 21ZM1482 108L1482 108L1464 71Q1709-66 1842-318L1842-318L1993-236Q1977-210 1966-204L1966-204Q1960-201 1952-201L1952-201Q1945-201 1937-203L1937-203Q1757 18 1482 108Z" /><path d="M2508-407L2508-407L2491-431Q2524-476 2539-520.50Q2554-565 2557.50-608Q2561-651 2561-692L2561-692L2561-831L2670-789L2752-789L2798-837L2903-752Q2884-733 2873.50-726.50Q2863-720 2853-719L2853-719L2853-577Q2853-578 2855.50-579Q2858-580 2877-580Q2896-580 2902-581L2902-581L2931-584L2938-584Q2955-576 2964.50-563.50Q2974-551 2974-528L2974-528Q2974-453 2865-452L2865-452L2829-452Q2782-452 2769.50-476.50Q2757-501 2757-549L2757-549L2757-729L2657-729L2657-692Q2657-653 2647.50-599.50Q2638-546 2606-494.50Q2574-443 2508-407ZM2088-332L2088-332L2072-332L2072-810L2163-785Q2198-834 2214-861L2214-861L2333-785Q2320-761 2311-756L2311-756Q2307-754 2301-754L2301-754Q2295-754 2288-756L2288-756Q2242-734 2175-714L2175-714L2175-606L2196-606L2224-651Q2224-640 2231-633Q2238-626 2249-618L2249-618Q2267-607 2288-584L2288-584Q2281-559 2274-552Q2267-545 2260-545L2260-545L2175-545L2175-460L2387-460L2387-548L2311-548L2293-609L2387-609L2387-707L2301-707L2283-768L2383-768L2426-815L2533-734Q2509-695 2487-693L2487-693L2487-392Q2483-376 2455-363.50Q2427-351 2404-351L2404-351L2387-351L2387-400L2175-400L2175-378Q2173-363 2149.50-347.50Q2126-332 2088-332ZM2113 93L2113 93L2023-72Q2105-84 2221-105L2221-105L2221-259L2060-259L2043-320L2375-320L2421-378Q2421-367 2432-358.50Q2443-350 2461-340L2461-340Q2489-326 2520-300L2520-300Q2513-274 2505.50-266.50Q2498-259 2490-259L2490-259L2329-259L2329-125L2528-163L2538-124Q2409-48 2131 71L2131 71Q2128 76 2124.50 81Q2121 86 2117.50 89.50Q2114 93 2113 93ZM2704-176L2704-176Q2766-273 2784-346L2784-346L2588-346Q2614-265 2704-176ZM2400 103L2400 103L2379 64Q2572-14 2651-109L2651-109Q2596-193 2564-346L2564-346L2516-346L2496-406L2789-406L2844-461L2952-364Q2938-341 2927.50-334.50Q2917-328 2900-328L2900-328Q2852-194 2783-116L2783-116Q2853-69 2989-29L2989-29L2978 12Q2908 26 2884 102L2884 102Q2785 56 2702-37L2702-37Q2577 62 2400 103Z" /><path d="M3606 103L3606 103L3586 103L3586-313L3301-313Q3287-190 3226-79Q3165 32 3039 101L3039 101L3017 79Q3093 1 3131.50-86.50Q3170-174 3183-269Q3196-364 3196-464L3196-464L3196-840L3351-825Q3342-766 3312-765L3312-765L3312-582L3525-582L3525-866L3687-853Q3680-795 3646-792L3646-792L3646-582L3788-582L3849-665Q3849-654 3863-642Q3877-630 3899-616L3899-616Q3933-594 3968-562L3968-562Q3963-536 3955-528.50Q3947-521 3938-521L3938-521L3312-521L3312-464Q3312-414 3308-374L3308-374L3580-374L3632-431L3761-334Q3743-312 3730.50-303.50Q3718-295 3706-292L3706-292L3706 61Q3704 72 3687 81.50Q3670 91 3647 97Q3624 103 3606 103Z" /><path d="M4110-505L4110-505Q4092-505 4072-524L4072-524L4072-546Q4072-662 4035-781L4035-781L4050-785Q4144-703 4158-629L4158-629Q4162-606 4162-587L4162-587Q4162-544 4141-521L4141-521Q4127-505 4110-505ZM4038 100L4038 100L4017 78Q4085-46 4101-173L4101-173Q4114-286 4114-393L4114-393L4114-427L4034-427L4017-488L4178-488L4178-863L4311-851Q4306-821 4298-808.50Q4290-796 4278-795L4278-795L4278-488L4321-488L4368-545Q4368-534 4379-525.50Q4390-517 4407-508L4407-508Q4435-494 4466-468L4466-468Q4459-442 4452-434.50Q4445-427 4437-427L4437-427L4354-427L4354-209Q4362-213 4369-218L4369-218Q4409-240 4432-254L4432-254L4445-231Q4438-221 4432-211.50Q4426-202 4424-198L4424-198L4427-202L4656-202L4656-300L4563-300L4525-259L4412-339Q4448-364 4478-379L4478-379Q4511-448 4543-537L4543-537L4440-537L4423-597L4565-597Q4593-678 4612-744L4612-744L4744-705Q4734-674 4724-665Q4714-656 4699-656L4699-656L4693-656Q4681-624 4672-597L4672-597L4818-597L4865-656Q4865-645 4876.50-636Q4888-627 4906-617L4906-617Q4932-603 4961-579L4961-579Q4956-552 4948.50-544.50Q4941-537 4933-537L4933-537L4649-537L4586-376Q4582-367 4580-360L4580-360L4656-360L4656-511L4795-498Q4788-440 4755-438L4755-438L4755-360L4803-360L4850-422Q4850-411 4861.50-401.50Q4873-392 4891-381L4891-381Q4919-366 4948-341L4948-341Q4941-315 4933.50-307.50Q4926-300 4918-300L4918-300L4755-300L4755-202L4832-202L4881-266Q4881-255 4893-246Q4905-237 4923-226L4923-226Q4953-210 4985-181L4985-181Q4978-156 4970.50-148.50Q4963-141 4955-141L4955-141L4755-141L4755 53Q4755 71 4727.50 84Q4700 97 4674 97L4674 97L4656 97L4656-141L4417-141L4407-177Q4365-117 4318-58L4318-58Q4313-35 4301.50-19Q4290-3 4285 0L4285 0L4208-139L4237-155Q4256-165 4257.50-169Q4259-173 4259-427L4259-427L4213-427Q4212-288 4179.50-147.50Q4147-7 4038 100ZM4304-495L4304-495L4292-500Q4332-680 4344-790L4344-790L4461-745Q4497-773 4505-849L4505-849L4511-848Q4524-814 4527-803L4527-803L4846-803L4892-851L4998-753Q4981-733 4970.50-728.50Q4960-724 4943-724L4943-724Q4890-671 4837-635L4837-635L4821-645Q4836-701 4844-742L4844-742L4539-742Q4543-720 4543-701L4543-701Q4543-665 4524.50-640Q4506-615 4472-615L4472-615Q4443-615 4426-636L4426-636Q4417-647 4417-662L4417-662Q4417-676 4426-694L4426-694L4434-694L4426-694Q4370-585 4304-495Z" /><path d="M5522-670L5522-670Q5497-670 5471-688L5471-688L5471-690Q5471-772 5390-842L5390-842L5415-864Q5526-860 5567-823L5567-823Q5601-792 5601-757L5601-757Q5601-750 5596-724.50Q5591-699 5554-679L5554-679Q5538-670 5522-670ZM5101-476L5101-476Q5091-476 5071.50-482Q5052-488 5036-526L5036-526Q5032-542 5032-555L5032-555Q5032-579 5046.50-603.50Q5061-628 5087.50-641.50Q5114-655 5135-683.50Q5156-712 5156-752L5156-752L5156-756L5166-756Q5182-714 5185-696L5185-696L5804-696L5862-754L5981-641Q5964-622 5953.50-617Q5943-612 5927-612L5927-612Q5897-583 5857.50-554Q5818-525 5784-508L5784-508L5770-519Q5789-577 5802-636L5802-636L5195-636L5196-615Q5196-578 5180-541.50Q5164-505 5134-486L5134-486Q5118-476 5101-476ZM5462 105L5462 105L5440 105L5440-254Q5291-44 5041 62L5041 62L5017 31Q5152-60 5240.50-171.50Q5329-283 5368-387L5368-387L5078-387L5061-448L5440-448L5440-647L5592-633Q5588-578 5558-574L5558-574L5558-448L5773-448L5830-523Q5830-512 5843.50-501Q5857-490 5878-477L5878-477Q5911-458 5946-428L5946-428Q5939-402 5931.50-394.50Q5924-387 5916-387L5916-387L5586-387Q5640-295 5746-213.50Q5852-132 5977-85L5977-85L5967-44Q5896-30 5872 49L5872 49Q5662-78 5558-380L5558-380L5558 52Q5558 72 5525.50 88.50Q5493 105 5462 105Z" /></svg>