<svg xmlns="http://www.w3.org/2000/svg" viewBox="54 -765 3925 839" fill="#000000"><path d="M218-692L218-692Q326-674 326-624L326-624Q326-608 302-592L302-592L298-592Q273-592 170-656L170-656L170-664Q170-676 218-692ZM818-668L818-668L826-668Q863-668 870-616L870-616Q634-588 570-576L570-576Q502-564 502-532L502-532L502-524Q502-492 506-440L506-440Q490-294 490-240L490-240L494-240L490-232L490-204Q496-160 510-160L510-160L522-160L818-184Q946-148 946-88L946-88Q942-76 938-76L938-76Q821-100 710-108L710-108L646-108Q569-108 442-72L442-72L438-72Q386-84 386-112L386-112Q418-284 426-388L426-388L422-396Q426-410 426-412L426-412Q426-501 398-568L398-568Q398-587 530-612L530-612Q741-668 818-668ZM102-500L102-500Q222-462 222-412L222-412L222-400Q222-394 198-376L198-376Q75-436 58-460L58-460L58-464Q58-488 102-500ZM306-376L306-376Q310-368 310-364L310-364Q266-272 162 4L162 4L142 12Q94-19 54-76L54-76L54-80L114-108Q163-162 270-352L270-352Q295-376 306-376Z" /><path d="M1518-748L1518-748L1546-748Q1647-748 1647-693L1647-693L1647-656L1638-642L1638-633Q1638-624 1652-624L1652-624Q1691-624 1823-651L1823-651Q1903-618 1919-591L1919-591Q1919-580 1892-564L1892-564Q1828-582 1790-582L1790-582L1716-582Q1710-582 1703-568L1703-568Q1703-558 1707-550L1707-550Q1698-430 1698-407L1698-407Q1698-385 1804-370L1804-370Q1848-342 1859-305L1859-305Q1859-278 1832-269L1832-269Q1810-279 1749-333L1749-333Q1738-333 1707-356L1707-356Q1698-355 1698-347L1698-347Q1698-325 1693-204L1693-204L1698-204L1693-195L1693-158Q1693-134 1652-103L1652-103Q1635-107 1578-209L1578-209L1592-218Q1597-218 1629-209L1629-209L1634-209Q1640-209 1647-222L1647-222Q1647-227 1638-269L1638-269Q1647-430 1647-541L1647-541L1647-568Q1647-580 1610-582L1610-582Q1523-566 1523-550L1523-550L1541-453Q1541-252 1421-103L1421-103Q1548-42 1740-15L1740-15Q1740-10 1744-10L1744-10Q1790-14 1790-20L1790-20Q1797-14 1836-10L1836-10Q1917-15 1933-15L1933-15Q1940-15 1975-6L1975-6L1975 3Q1975 20 1864 36L1864 36Q1782 68 1763 68L1763 68Q1690 46 1624 13L1624 13Q1315-93 1274-93L1274-93Q1232-93 1108-43L1108-43Q1038-65 1025-89L1025-89Q1026-98 1034-98L1034-98L1094-98Q1237-121 1237-135L1237-135Q1237-203 1186-236L1186-236Q1186-243 1177-278L1177-278L1182-296Q1178-338 1163-365L1163-365L1136-365L1108-361Q1087-369 1076-388L1076-388L1076-402Q1148-429 1214-462L1214-462L1219-462Q1246-433 1260-411L1260-411L1219-296L1219-278Q1222-278 1302-130L1302-130Q1364-112 1394-112L1394-112L1398-112Q1481-248 1481-430L1481-430L1477-439L1481-448Q1481-471 1472-471L1472-471L1477-494L1477-527Q1477-550 1458-554L1458-554Q1404-550 1380-550L1380-550Q1347-564 1343-564L1343-564L1343-582Q1425-596 1592-614L1592-614Q1592-621 1601-633L1601-633L1601-642Q1601-652 1509-734L1509-734L1509-739Q1510-748 1518-748ZM1200-743L1200-743Q1325-711 1325-665L1325-665Q1320-628 1306-628L1306-628L1297-628Q1224-628 1186-730L1186-730L1186-739Q1191-739 1200-743ZM1366-439L1366-439L1380-439Q1397-439 1408-375L1408-375L1408-347Q1408-308 1375-278L1375-278Q1338-290 1338-301L1338-301L1338-305Q1352-347 1352-352L1352-352L1348-352Q1357-369 1357-388L1357-388L1357-430Q1358-439 1366-439Z" /><path d="M2692-679L2692-679Q2789-660 2790-639L2790-639L2791-630Q2792-598 2719-594L2719-594Q2695-596 2691-596L2691-596Q2568-577 2569-566L2569-566L2569-557Q2583-542 2585-512L2585-512L2582-480Q2583-475 2587-475L2587-475L2584-452L2588-387Q2588-378 2602-379L2602-379Q2674-397 2715-418L2715-418Q2763-421 2795-386L2795-386Q2797-345 2734-336L2734-336Q2706-335 2585-341L2585-341L2581-341L2589-198Q2583-131 2583-124L2583-124L2583-119L2634-122Q2663-124 2730-142L2730-142L2740-137L2767-139L2794-145Q2934-141 2938-61L2938-61L2938-56Q2936-47 2916-37L2916-37Q2757-74 2656-68L2656-68Q2632-67 2531-71L2531-71L2522-65Q2514-70 2503-69L2503-69Q2492-68 2467-62L2467-62L2434-65Q2332-37 2197-15L2197-15Q2195-4 2133 6L2133 6Q2090-24 2053-35L2053-35L2047-58L2047-62L2134-77Q2158-73 2180-74L2180-74Q2204-90 2229-91L2229-91Q2270-88 2275-89L2275-89Q2312-95 2311-114L2311-114Q2307-187 2298-187L2298-187L2303-196Q2291-295 2277-311L2277-311L2281-334L2280-352L2270-366L2269-394Q2268-417 2276-417L2276-417Q2334-420 2362-375L2362-375Q2362-371 2358-361L2358-361Q2365-322 2366-297L2366-297L2359-255Q2370-140 2375-140L2375-140Q2367-122 2367-113L2367-113Q2379-104 2382-104L2382-104Q2482-114 2514-116L2514-116Q2523-128 2522-135L2522-135Q2520-174 2519-291L2519-291L2514-291Q2516-337 2521-337L2521-337L2514-383L2510-453Q2504-559 2476-557L2476-557Q2446-556 2376-538L2376-538L2358-537Q2318-535 2301-561L2301-561L2300-580Q2300-589 2308-589L2308-589L2336-587Q2438-592 2692-679Z" /><path d="M3694-764L3694-764L3708-765L3769-715L3769-711Q3748-616 3749-567L3749-567L3758-563Q3776-563 3855-583L3855-583Q3895-567 3897-557L3897-557L3897-543Q3881-520 3847-519L3847-519L3824-518Q3800-518 3745-521L3745-521L3741-512L3742-475Q3744-373 3772-374L3772-374L3776-374Q3810-375 3923-405L3923-405Q3958-406 3979-365L3979-365Q3969-323 3944-323L3944-323Q3717-335 3716-382L3716-382Q3710-382 3702-414L3702-414L3706-437Q3702-455 3696-455L3696-455L3701-465L3699-520L3694-548L3698-557L3693-589Q3701-632 3701-640L3701-640Q3700-695 3671-736L3671-736Q3678-755 3694-764ZM3252-731L3252-731Q3335-704 3336-678L3336-678Q3320-587 3320-567L3320-567Q3328-558 3394-550L3394-550L3395-532Q3395-518 3322-498L3322-498Q3299-472 3300-433L3300-433Q3301-391 3329-392L3329-392Q3407-377 3408-338L3408-338L3408-334Q3391-319 3376-319L3376-319L3372-319Q3338-353 3325-359L3325-359L3302-359Q3294-313 3294-276L3294-276L3295-266Q3295-256 3300-248L3300-248Q3288 15 3269 15L3269 15Q3258 16 3250 20L3250 20Q3229 21 3217-48L3217-48Q3238-91 3248-298L3248-298Q3241-316 3234-316L3234-316Q3079-183 3025-182L3025-182L3015-182L3015-191Q3028-212 3137-300L3137-300Q3206-364 3239-473L3239-473L3239-482L3216-481Q3085-442 3079-441L3079-441L3065-441Q3026-440 2995-476L2995-476Q3000-495 3036-496L3036-496L3114-497Q3266-527 3265-547L3265-547L3263-648Q3263-663 3234-717L3234-717Q3234-724 3252-731ZM3425-629L3425-629Q3499-602 3500-552L3500-552Q3505-544 3505-529L3505-529Q3524-530 3583-545L3583-545Q3590-545 3602-527L3602-527L3603-518Q3603-501 3534-493L3534-493Q3515-497 3502-497L3502-497L3493-478L3504-382L3541-383L3582-407L3591-407Q3671-346 3671-340L3671-340Q3626-310 3604-269L3604-269L3604-246L3673-247Q3689-248 3742-267L3742-267Q3779-268 3808-204L3808-204Q3795-183 3795-167L3795-167L3806-84Q3806 72 3768 73L3768 73L3750 74Q3700 19 3647 21L3647 21L3596 22Q3579 22 3546 41L3546 41Q3509 42 3508-18L3508-18L3507-41Q3506-108 3494-225L3494-225Q3557-226 3597-342L3597-342L3592-375L3573-374L3469-289Q3418-296 3418-325L3418-325L3418-329Q3449-373 3449-390L3449-390L3448-436Q3444-593 3412-592L3412-592L3407-601L3407-615Q3406-622 3425-629ZM3596-213L3596-213L3563-213Q3554-211 3554-203L3554-203Q3556-134 3579-135L3579-135Q3641-150 3662-150L3662-150Q3686-151 3699-128L3699-128Q3684-114 3644-104L3644-104L3612-108L3566-102L3562-70Q3562-59 3567-51L3567-51Q3563-43 3563-33L3563-33Q3571-10 3586-10L3586-10Q3596-10 3669-21L3669-21Q3702-13 3725-13L3725-13Q3742-41 3742-55L3742-55Q3742-60 3737-60L3737-60L3745-120Q3740-150 3739-180L3739-180L3739-198Q3738-230 3697-229L3697-229L3687-229Q3601-213 3596-213Z" /></svg>