<svg xmlns="http://www.w3.org/2000/svg" viewBox="64.95454406738281 -840 3889.557662963867 917" fill="#000000"><path d="M155 49Q139 51 118 34L118 34Q81 4 105-31L105-31Q144-89 173-139L173-139Q216-212 243-264L243-264Q267-311 307-275L307-275Q334-250 319-218L319-218Q259-101 185 24L185 24Q171 47 155 49ZM638 17L369 17Q323 17 323-30L323-30Q323-76 369-76L369-76L580-76L580-657L418-657Q372-657 372-704L372-704Q372-750 418-750L418-750L857-750Q903-750 903-704L903-704Q903-657 857-657L857-657L680-657L680-76L907-76Q953-76 953-30L953-30Q953 17 907 17L907 17L638 17ZM256-419Q230-379 194-404L194-404L192-405Q163-424 147-433L147-433Q144-435 137-439L137-439Q105-458 88-466L88-466Q49-488 76-525L76-525Q97-555 129-541L129-541Q193-511 249-477L249-477Q267-466 268-451L268-451Q269-439 256-419L256-419ZM277-656.50Q262-654 244-669L244-669Q234-676 214-690L214-690Q204-696 199-700L199-700Q193-704 180-712L180-712Q155-729 142-736L142-736Q105-759 134-795L134-795Q157-824 187-808L187-808Q248-774 303-738L303-738Q321-725 322-711L322-711Q322-699 307-679Q292-659 277-656.50Z" /><path d="M1619 52Q1583 77 1555 49L1555 49Q1521 13 1566-17L1566-17Q1649-79 1710-164L1710-164Q1675-327 1663-608L1663-608L1473-608Q1449-608 1449-584L1449-584L1449-486L1565-486Q1597-486 1612-461L1612-461Q1629-432 1628-365L1628-365Q1625-238 1620-186L1620-186Q1615-131 1604-116L1604-116Q1585-91 1551-87L1551-87Q1535-84 1507-84L1507-84Q1465-86 1457-116L1457-116Q1450-142 1463-151L1463-151Q1474-160 1504-158L1504-158Q1508-158 1512-158L1512-158Q1528-158 1536-170L1536-170Q1548-188 1551-363L1551-363Q1551-391 1545-401L1545-401Q1540-410 1527-410L1527-410L1449-410L1449-376Q1449-103 1356 41L1356 41Q1340 62 1326 65L1326 65Q1310 69 1291 53Q1272 37 1272 20L1272 20Q1271 4 1287-17L1287-17Q1326-79 1344-159L1344-159Q1302-142 1218-107L1218-107Q1150-79 1118-66L1118-66Q1075-49 1060-96L1060-96Q1046-141 1088-155L1088-155Q1126-168 1155-179L1155-179L1155-513L1102-513Q1059-513 1059-556Q1059-599 1102-599L1102-599L1155-599L1155-784Q1155-827 1198-827L1198-827Q1241-827 1241-784L1241-784L1241-599L1285-599Q1328-599 1328-556Q1328-513 1285-513L1285-513L1241-513L1241-210L1288-227Q1306-234 1319.50-226.50Q1333-219 1337-200L1337-200L1345-161Q1363-250 1363-377L1363-377L1363-627Q1363-656 1381-674Q1399-692 1428-692L1428-692L1511-692L1660-692Q1659-726 1657-796L1657-796Q1657-840 1701-840L1701-840Q1745-840 1745-795L1745-795Q1745-726 1746-692L1746-692L1829-692Q1853-692 1841-709L1841-709Q1817-740 1787-768L1787-768Q1756-799 1794-822L1794-822Q1820-838 1843-818L1843-818Q1872-792 1897-764L1897-764Q1911-747 1906.50-727Q1902-707 1881-694L1881-694L1879-692L1904-692Q1946-692 1946-650Q1946-608 1904-608L1904-608L1748-608Q1754-432 1775-280L1775-280Q1815-361 1841-461L1841-461Q1850-504 1892-496Q1934-488 1923-443L1923-443Q1879-281 1799-150L1799-150Q1832-18 1870-18L1870-18Q1885-18 1892-75L1892-75Q1895-113 1906-133L1906-133Q1921-159 1943-143Q1965-127 1959-68L1959-68Q1949 9 1926.50 38.50Q1904 68 1858 68L1858 68Q1785 68 1737-63L1737-63Q1687-2 1619 52L1619 52Z" /><path d="M2851 43L2151 43Q2122 43 2104 25Q2086 7 2086-22L2086-22L2086-736Q2086-765 2104-783Q2122-801 2151-801L2151-801L2501-801L2851-801Q2880-801 2898-783Q2916-765 2916-736L2916-736L2916-22Q2916 7 2898 25Q2880 43 2851 43L2851 43ZM2199-32L2199-32L2799-32Q2823-32 2823-56L2823-56L2823-700Q2823-724 2799-724L2799-724L2499-724L2199-724Q2175-724 2175-700L2175-700L2175-56Q2175-32 2199-32ZM2748-59Q2737-54 2721-63L2721-63Q2701-73 2651-96L2651-96Q2647-98 2645-99L2645-99Q2599-121 2556-139L2556-139Q2524-153 2543-186L2543-186Q2558-213 2586-203L2586-203Q2709-152 2758-128L2758-128Q2774-120 2775-109L2775-109Q2777-99 2767.50-81.50Q2758-64 2748-59L2748-59ZM2292-62Q2273-57 2255-60L2255-60Q2234-63 2224-76L2224-76Q2209-97 2244-120L2244-120Q2271-137 2309-146L2309-146Q2403-175 2439-217L2439-217Q2463-245 2463-285L2463-285L2463-302Q2463-342 2504-342L2504-342Q2544-342 2544-302L2544-302L2544-283Q2544-210 2493-160L2493-160Q2432-100 2292-62L2292-62ZM2293-189L2293-189Q2252-189 2252-230L2252-230L2252-375Q2252-404 2270-422Q2288-440 2317-440L2317-440L2499-440L2682-440Q2711-440 2729-422Q2747-404 2747-375L2747-375L2747-239Q2747-196 2704-196L2704-196Q2661-196 2661-239L2661-239L2661-344Q2661-368 2637-368L2637-368L2358-368Q2334-368 2334-344L2334-344L2334-230Q2334-189 2293-189ZM2660-492L2339-492Q2310-492 2292-510Q2274-528 2274-557L2274-557L2274-614Q2274-643 2292-661Q2310-679 2339-679L2339-679L2499-679L2660-679Q2689-679 2707-661Q2725-643 2725-614L2725-614L2725-557Q2725-528 2707-510Q2689-492 2660-492L2660-492ZM2378-554L2378-554L2497-554L2616-554Q2640-554 2640-578L2640-578L2640-593Q2640-617 2616-617L2616-617L2378-617Q2354-617 2354-593L2354-593L2354-578Q2354-554 2378-554Z" /><path d="M3203 77L3203 77Q3158 77 3158 33L3158 33L3158-453Q3150-441 3134-418L3134-418Q3129-412 3127-409L3127-409Q3085-353 3054-411L3054-411Q3043-431 3044.50-447Q3046-463 3061-481L3061-481Q3161-609 3229-790L3229-790Q3243-834 3286-822L3286-822Q3330-808 3315-766L3315-766Q3293-707 3247-607L3247-607L3247-265L3247 33Q3247 77 3203 77ZM3618 73L3618 73Q3573 73 3573 28L3573 28L3573-98L3468-98Q3426-98 3426-140Q3426-182 3468-182L3468-182L3573-182L3573-483Q3487-248 3363-109L3363-109Q3344-89 3330-89L3330-89Q3316-90 3297.50-110Q3279-130 3279-144Q3279-158 3298-177L3298-177Q3365-244 3426-348L3426-348Q3484-447 3525-560L3525-560L3352-560Q3308-560 3308-604Q3308-648 3352-648L3352-648L3573-648L3573-789Q3573-834 3618-834L3618-834Q3663-834 3663-789L3663-789L3663-648L3804-648L3902-648Q3946-648 3946-604Q3946-560 3902-560L3902-560L3715-560Q3752-453 3809-354L3809-354Q3868-254 3933-186L3933-186Q3954-166 3954.50-150.50Q3955-135 3935-114Q3915-93 3901-93L3901-93Q3886-92 3867-113L3867-113Q3749-254 3663-489L3663-489L3663-182L3768-182Q3810-182 3810-140Q3810-98 3768-98L3768-98L3663-98L3663 28Q3663 73 3618 73Z" /></svg>