<svg xmlns="http://www.w3.org/2000/svg" viewBox="24 -856 4949 976" fill="#000000"><path d="M251-633L251-633Q231-631 206-643L206-643Q193-685 165-724Q137-763 108-791L108-791L116-798Q221-798 265-767.50Q309-737 309-702L309-702Q309-701 308.50-682Q308-663 279-644L279-644Q266-635 251-633ZM163-416L163-416Q145-414 122-424L122-424Q110-463 82-500Q54-537 24-561L24-561L32-568Q133-571 176-543.50Q219-516 219-481L219-481Q219-446 191-426L191-426Q178-417 163-416ZM173 112L173 112Q155 113 140 102Q125 91 119 63L119 63Q130-4 130-56L130-56Q130-68 128-102.50Q126-137 108-150L108-150Q87-161 54-161L54-161L54-180L102-184Q113-185 119-188.50Q125-192 132.50-205.50Q140-219 147-231Q154-243 166-266Q178-289 201-335Q224-381 263.50-460.50Q303-540 365-663L365-663L380-660Q342-557 297-428.50Q252-300 238-251L238-251Q220-196 220-154L220-154Q222-122 237-92L237-92Q258-54 260 19L260 19Q258 58 234.50 83Q211 108 173 112ZM960-27L960-27L293 31L285 4L561-20L561-711L338-692L330-719L776-758L841-853L861-838Q881-823 908-802Q935-781 958-762L958-762Q952-746 929-744L929-744L683-722L683-31L800-41L867-139L888-124Q909-109 937-87.50Q965-66 989-46L989-46Q981-29 960-27Z" /><path d="M1759-662L1813-666L1850-717Q1844-718 1838-722L1838-722Q1830-750 1812.50-777Q1795-804 1776-821L1776-821L1760-817Q1759-766 1759-714L1759-714L1759-662ZM1494-171L1494-171Q1505-172 1510-180L1510-180Q1529-202 1532-431L1532-431L1453-424Q1453-274 1420-169L1420-169Q1472-170 1494-171ZM1240-514L1240-243L1342-283Q1346-347 1346-408L1346-408L1346-524L1240-514ZM1201 112L1201 112L1191 103Q1263 19 1296.50-72.50Q1330-164 1339-258L1339-258Q1260-185 1106-66L1106-66Q1099-43 1081-34L1081-34L1020-162Q1053-172 1130-201L1130-201L1130-505L1041-497L1033-524L1130-533L1130-799L1277-798Q1276-787 1268-779.50Q1260-772 1240-767L1240-767L1240-544L1287-626L1296-618Q1305-609 1318.50-595.50Q1332-582 1346-568L1346-568L1346-671L1470-636L1654-652Q1651-748 1651-850L1651-850L1796-848Q1796-839 1789-831L1789-831Q1869-835 1899.50-815Q1930-795 1930-770L1930-770Q1930-767 1928.50-751.50Q1927-736 1901-721L1901-721Q1944-692 1973-667L1973-667Q1967-652 1946-650L1946-650L1760-634Q1763-493 1786-369L1786-369Q1816-454 1839-556L1839-556L1972-522Q1967-504 1937-501L1937-501L1931-501Q1886-354 1822-242L1822-242Q1847-176 1886-127L1886-127Q1893-115 1898-116L1898-116L1902-116Q1905-116 1912-131L1912-131Q1944-197 1963-251L1963-251L1974-249L1952-78Q1977-24 1977 5L1977 5Q1977 24 1966 33L1966 33Q1947 46 1927 48L1927 48Q1905 50 1871 34L1871 34Q1806 3 1747-134L1747-134Q1642-5 1476 81L1476 81L1467 67Q1624-47 1717-215L1717-215Q1663-397 1656-625L1656-625L1453-607L1453-453L1523-459L1575-515L1669-446Q1660-432 1631-424L1631-424Q1629-280 1619.50-205.50Q1610-131 1582-105L1582-105Q1546-77 1493-72L1493-72Q1493-111 1480-127L1480-127Q1462-148 1419-156L1419-156L1419-165Q1366 2 1201 112Z" /><path d="M2036-518L2036-518L2026-528Q2082-594 2132-677.50Q2182-761 2210-825L2210-825L2350-763Q2347-756 2339.50-752Q2332-748 2320-747L2320-747L2312-747Q2206-628 2036-518ZM2649-433L2750-442L2750-566L2649-557L2649-433ZM2649-586L2750-595L2750-715L2649-706L2649-586ZM2176 118L2176 118L2154 120L2154-326Q2099-271 2034-225L2034-225L2025-234Q2094-322 2149.50-431.50Q2205-541 2233-628L2233-628L2376-567L2373-562L2536-576L2536-696L2359-681L2350-708L2536-724L2536-853L2686-851Q2682-827 2649-819L2649-819L2649-734L2740-742L2794-807L2906-731Q2896-717 2866-705L2866-705L2866-605L2870-605L2912-676L2925-664Q2938-651 2954.50-634.50Q2971-618 2985-602L2985-602Q2980-586 2959-584L2959-584L2866-576L2866-417Q2865-413 2849-405.50Q2833-398 2811-390.50Q2789-383 2770-382L2770-382L2750-380L2750-414L2649-405L2649-288L2765-298L2825-379L2843-366Q2861-354 2886-335.50Q2911-317 2932-300L2932-300Q2925-283 2904-281L2904-281L2649-259L2649-137L2798-150L2860-235L2879-221Q2899-208 2925-188.50Q2951-169 2973-152L2973-152Q2967-136 2944-134L2944-134L2649-108L2649 35Q2649 41 2635 52Q2621 63 2600.50 72.50Q2580 82 2558 84L2558 84L2536 86L2536-98L2300-78L2292-106L2536-127L2536-249L2328-231L2320-259L2536-278L2536-395L2353-379L2344-406L2536-423L2536-547L2323-529Q2295-487 2258-441L2258-441L2299-429Q2295-416 2269-408L2269-408L2269 73Q2268 78 2254.50 88Q2241 98 2220 107Q2199 116 2176 118Z" /><path d="M3446-693L3446-693L3076-661L3068-689L3305-710L3365-794L3384-781Q3402-767 3427.50-748.50Q3453-730 3474-712L3474-712Q3469-695 3446-693ZM3091 20L3091 20L3028-125L3043-130Q3061-138 3065-141L3065-141Q3101-189 3138-283.50Q3175-378 3190-452L3190-452L3034-438L3026-467L3359-496L3419-579L3438-566Q3456-552 3481.50-534Q3507-516 3528-497L3528-497Q3522-481 3501-479L3501-479L3207-453L3348-421Q3343-401 3314-399L3314-399Q3276-332 3219-257Q3162-182 3106-126L3106-126Q3205-142 3358-175L3358-175Q3344-261 3315-334L3315-334L3327-339Q3445-269 3465-192L3465-192Q3472-165 3472-142L3472-142Q3472-101 3449-76L3449-76Q3433-58 3415-57L3415-57Q3391-54 3363-79L3363-79L3364-106L3363-133Q3265-77 3118-8L3118-8Q3107 11 3091 20ZM3349 104L3349 104L3339 91Q3490-47 3537.50-210Q3585-373 3585-573L3585-573L3585-581L3461-571L3452-599L3585-610L3585-856L3740-856Q3737-833 3703-824L3703-824Q3702-772 3702-721.50Q3702-671 3701-621L3701-621L3813-630L3874-698L3977-616Q3966-602 3934-593L3934-593Q3928-304 3911.50-170Q3895-36 3855 3L3855 3Q3806 56 3726 63L3726 63Q3726 7 3711-13L3711-13Q3689-38 3632-46L3632-46L3633-60Q3708-60 3736-63L3736-63Q3749-64 3756.50-67Q3764-70 3770-78L3770-78Q3817-120 3824-602L3824-602L3700-591Q3698-444 3671.50-319Q3645-194 3570.50-88.50Q3496 17 3349 104Z" /><path d="M4526-683L4526-683Q4501-681 4471-698L4471-698Q4470-737 4451.50-773.50Q4433-810 4404-834L4404-834L4411-840Q4519-846 4561-816L4561-816Q4596-791 4596-759L4596-759Q4596-754 4592-732.50Q4588-711 4553-692L4553-692Q4540-684 4526-683ZM4101-456L4101-456Q4091-455 4070-459.50Q4049-464 4035-494L4035-494Q4033-504 4033-514L4033-514Q4033-533 4044-552.50Q4055-572 4082-588Q4109-604 4133-637.50Q4157-671 4157-710L4157-710L4170-711Q4182-681 4188-653L4188-653L4799-706L4862-775L4970-681Q4964-674 4955.50-671Q4947-668 4932-666L4932-666Q4903-635 4862.50-602.50Q4822-570 4783-547L4783-547L4775-552Q4796-622 4805-679L4805-679L4193-625Q4195-609 4195-594L4195-594Q4195-558 4181.50-524.50Q4168-491 4140-472L4140-472Q4122-458 4101-456ZM4462 92L4462 92L4440 94L4440-258Q4301-47 4038 89L4038 89L4029 78Q4151-14 4240-138Q4329-262 4376-392L4376-392L4075-366L4067-394L4440-427L4440-626L4591-625L4591-624Q4591-604 4558-595L4558-595L4558-437L4768-455L4830-542L4850-529Q4869-514 4895-495Q4921-476 4943-458L4943-458Q4937-441 4916-439L4916-439L4572-409Q4640-299 4748-222.50Q4856-146 4973-113L4973-113L4970-101Q4901-81 4874 4L4874 4Q4655-110 4558-390L4558-390L4558 47Q4558 53 4543 63Q4528 73 4506 81.50Q4484 90 4462 92Z" /></svg>