<svg xmlns="http://www.w3.org/2000/svg" viewBox="45 -1204.9100341796875 6902 1302.9100341796875" fill="#000000"><path d="M413.58-1122.09L413.58-1122.09Q414.80-1121.68 416.01-1121.68L416.01-1121.68Q417.63-1121.68 418.85-1122.49L418.85-1122.49Q421.28-1123.71 422.49-1126.15L422.49-1126.15Q422.49-1126.96 422.49-1127.77L422.49-1127.77Q422.49-1130.21 420.47-1134.67L420.47-1134.67Q417.63-1140.76 410.34-1152.74Q403.05-1164.72 381.99-1193.14L381.99-1193.14Q381.59-1193.95 379.97-1194.35L379.97-1194.35Q378.35-1195.17 376.32-1195.17L376.32-1195.17Q373.49-1195.17 369.44-1194.35L369.44-1194.35Q362.55-1192.73 356.88-1189.28Q351.21-1185.83 349.99-1182.17L349.99-1182.17Q349.59-1181.36 349.59-1180.55L349.59-1180.55Q349.59-1178.93 351.21-1177.30L351.21-1177.30Q367.82-1163.50 383.61-1150.30Q399.41-1137.11 409.53-1124.93L409.53-1124.93Q411.96-1122.90 413.58-1122.09ZM362.15-917.05L362.15-917.05Q324.88-917.05 324.88-973.08L324.88-973.08Q324.88-1016.52 348.78-1045.15Q372.68-1073.77 397.38-1073.77L397.38-1073.77Q418.85-1073.77 431.81-1052.25L431.81-1052.25Q433.03-1050.63 434.65-1050.63L434.65-1050.63Q437.89-1050.63 441.53-1054.28L441.53-1054.28Q441.13-1044.54 441.13-1034.18Q441.13-1023.83 440.72-1018.15L440.72-1018.15Q439.51-988.10 427.96-965.16Q416.42-942.22 399.00-929.64Q381.59-917.05 362.15-917.05ZM362.55-892.69L362.55-892.69Q385.23-892.69 406.50-906.09Q427.76-919.49 442.75-947.91L442.75-947.91Q443.96-936.95 446.59-924.36Q449.23-911.77 453.88-903.25Q458.54-894.72 464.62-894.72L464.62-894.72Q471.50-894.72 476.97-901.02Q482.44-907.31 482.44-911.77L482.44-911.77L481.63-914.21Q467.45-937.35 467.45-978.36L467.45-978.36Q467.45-991.35 468.67-1024.24L468.67-1024.24Q470.29-1066.87 472.72-1085.54L472.72-1085.54L472.72-1086.36Q472.72-1091.23 465.02-1094.07Q457.33-1096.91 450.44-1096.91L450.44-1096.91Q441.94-1096.91 441.94-1092.85L441.94-1092.85L441.94-1070.52Q428.57-1097.32 397.38-1097.32L397.38-1097.32Q360.53-1097.32 328.93-1060.17Q297.34-1023.02 297.34-971.05L297.34-971.05Q297.34-932.89 315.16-912.79Q332.98-892.69 362.55-892.69ZM605.78-917.46L605.78-917.46Q577.83-917.46 562.64-934.31Q547.45-951.16 547.45-984.45L547.45-984.45Q547.45-1016.12 568.51-1044.54Q589.58-1072.96 621.57-1072.96L621.57-1072.96Q649.11-1072.96 662.28-1053.06Q675.44-1033.17 675.44-999.47L675.44-999.47Q675.44-976.33 666.13-957.65L666.13-957.65Q645.47-917.46 605.78-917.46ZM605.78-892.69L605.78-892.69Q651.14-892.69 677.87-926.80L677.87-926.80Q702.58-960.49 702.58-999.47L702.58-999.47Q702.58-1030.73 692.86-1052.25L692.86-1052.25Q670.18-1097.32 624.00-1097.32L624.00-1097.32Q606.99-1097.32 595.65-1092.24Q584.31-1087.17 576.21-1080.67L576.21-1080.67Q573.78-1084.33 569.32-1084.33L569.32-1084.33Q565.27-1084.33 556.97-1075.39Q548.67-1066.46 540.36-1051.85Q532.06-1037.23 526.19-1019.57Q520.32-1001.91 520.32-984.04L520.32-984.04Q520.32-941.82 542.79-917.26Q565.27-892.69 605.78-892.69ZM530.50-544.50Q543-531 551.50-519Q560-507 560-500.50Q560-494 546.50-485Q533-476 526.50-476Q520-476 506.50-497.50Q493-519 475-536Q457-553 457-557Q457-561 466.50-569.50Q476-578 484-578Q492-578 505-568Q518-558 530.50-544.50ZM694-599L694-599Q709-599 725-581Q741-563 741-556.50Q741-550 718.50-530Q696-510 672-494Q648-478 642-478Q636-478 636-481.50Q636-485 642-494Q648-503 654-513Q660-523 673.50-546.50Q687-570 687-584.50Q687-599 694-599ZM564-616L564-616Q630-616 630-592L630-592L630-472L684-475Q706-476 719.50-480Q733-484 740.50-484Q748-484 766.50-472Q785-460 785-448L785-448Q785-438 762-436L762-436L631-429L631-404Q639-412 648-412Q657-412 704.50-379.50Q752-347 752-335.50Q752-324 740.50-312Q729-300 721.50-300Q714-300 689.50-324Q665-348 631-373L631-373L631-284Q631-268 615.50-268Q600-268 586-276.50Q572-285 572-295L572-295L572-301Q575-322 575-344L575-344L575-359Q575-376 581-391L581-391Q569-365 512-323.50Q455-282 434-282L434-282Q428-282 428-288Q428-294 449-312L449-312Q505-358 555-425L555-425L497-422Q490-421 485-421L485-421L476-421Q451-421 439-435.50Q427-450 427-458.50Q427-467 431-467L431-467Q454-463 470-463L470-463L481-463L574-469L574-568Q574-592 560-607L560-607Q558-609 558-612.50Q558-616 564-616ZM570.50-245.50Q568-251 568-256Q568-261 584-261Q600-261 620.50-248Q641-235 641-226Q641-217 632-190L632-190L836-197Q865-198 878-202.50Q891-207 899-207Q907-207 917.50-196Q928-185 935-173Q942-161 942-158L942-158Q942-149 924-147L924-147L661-138Q769-24 954 35L954 35Q971 40 971 48.50Q971 57 949 74.50Q927 92 923.50 92Q920 92 887.50 79Q855 66 806 39L806 39Q682-29 605-129L605-129Q550-31 442 27L442 27Q361 70 286 86L286 86Q259 91 250.50 91Q242 91 242 84L242 84Q242 75 271 61L271 61Q394 7 466-52L466-52Q509-87 538-133L538-133L355-127L339-127Q311-127 296-138Q281-149 273-177L273-177Q272-179 272-183.50Q272-188 276.50-188Q281-188 294-184Q307-180 333-180L333-180L342-180L564-188Q573-212 573-226Q573-240 570.50-245.50ZM113 38L111 38L96 34Q50 25 50 7L50 7Q50 2 66-8Q82-18 94-39L94-39Q182-179 240-301L240-301Q255-332 267-332L267-332Q275-332 275-318.50Q275-305 261-262L261-262Q226-156 153-9L153-9Q141 14 132.50 26Q124 38 113 38L113 38ZM186-382L186-382Q124-440 59-482L59-482Q45-491 45-500Q45-509 54.50-521Q64-533 70.50-533Q77-533 107.50-516.50Q138-500 189.50-461.50Q241-423 241-410Q241-397 228-382.50Q215-368 208.50-368Q202-368 186-382ZM247.50-671.50Q269-652 283.50-636.50Q298-621 298-614Q298-607 290.50-598Q283-589 274-583.50Q265-578 258.50-578Q252-578 223-611.50Q194-645 123-701L123-701Q109-712 109-720.50Q109-729 120.50-740.50Q132-752 138.50-752Q145-752 162.50-740Q180-728 203-709.50Q226-691 247.50-671.50ZM566-677L814-692L826-693Q846-693 858.50-678.50Q871-664 871-656.50Q871-649 867-642.50Q863-636 863-629L863-629L854-240Q854-219 839-219L839-219Q821-219 806-234Q791-249 791-255L791-255L791-264Q791-267 794.50-285.50Q798-304 798-327L798-327L803-643L408-618L418-230L418-227Q418-210 403.50-210Q389-210 372.50-221.50Q356-233 356-246L356-246L356-251Q356-254 358.50-267.50Q361-281 361-306L361-306L361-317L349-606Q347-646 332-675L332-675Q330-679 330-681L330-681Q330-687 342-687Q354-687 410-667L410-667L502-673Q570-767 570-800L570-800L569-808L569-810Q569-817 577.50-817Q586-817 600-810L600-810Q637-794 637-777L637-777Q637-771 611-735Q585-699 566-677L566-677Z" /><path d="M1127.77-892.69L1127.77-892.69Q1145.77-892.69 1158.88-900.81L1158.88-900.81Q1186.33-919.89 1186.33-951.97L1186.33-951.97Q1186.33-977.14 1175.05-991.15Q1163.76-1005.16 1143.63-1010.84L1143.63-1010.84L1114.35-1020.18Q1102.15-1024.24 1097.88-1029.92Q1093.61-1035.61 1093.61-1043.73L1093.61-1043.73Q1093.61-1056.72 1102.76-1065.85Q1111.91-1074.99 1129.60-1074.99L1129.60-1074.99L1136.92-1074.58L1139.67-1074.18Q1156.14-1071.33 1164.37-1055.09L1164.37-1055.09Q1167.42-1049.82 1169.25-1049.82L1169.25-1049.82Q1172.00-1049.82 1174.44-1053.47Q1176.88-1057.12 1178.10-1061.18Q1179.32-1065.24 1179.32-1067.68L1179.32-1067.68Q1179.32-1070.93 1174.59-1078.03Q1169.86-1085.14 1158.88-1091.23Q1147.90-1097.32 1129.60-1097.32L1129.60-1097.32Q1114.66-1097.32 1101.85-1090.62Q1089.04-1083.92 1081.41-1072.15Q1073.79-1060.37 1073.79-1044.54L1073.79-1044.54Q1073.79-1007.59 1107.95-998.25L1107.95-998.25L1138.45-988.51Q1154.92-983.64 1160.56-974.50Q1166.20-965.37 1166.20-951.16L1166.20-951.16Q1166.20-937.35 1156.29-926.80Q1146.38-916.24 1127.77-916.24L1127.77-916.24Q1111.30-916.24 1102.31-921.52Q1093.31-926.80 1088.73-934.71Q1084.16-942.63 1081.72-951.16L1081.72-951.16Q1081.11-954.00 1078.67-954.00L1078.67-954.00Q1075.31-954.00 1070.89-947.30Q1066.47-940.60 1066.47-934.51L1066.47-934.51Q1066.47-932.89 1069.67-926.19Q1072.87-919.49 1079.74-911.77Q1086.60-904.06 1098.34-898.38Q1110.08-892.69 1127.77-892.69ZM1358.20-895.53L1358.20-895.53Q1363.99-895.53 1363.99-899.19L1363.99-899.19Q1363.99-913.40 1363.38-931.67L1363.38-931.67Q1363.08-940.19 1363.08-1020.58L1363.08-1020.58Q1363.08-1052.25 1355.45-1071.33L1355.45-1071.33Q1345.08-1096.91 1317.94-1096.91L1317.94-1096.91Q1301.16-1096.91 1285.61-1085.54Q1270.05-1074.18 1259.99-1052.66L1259.99-1052.66Q1259.99-1140.36 1260.29-1148.88L1260.29-1148.88L1260.60-1175.68Q1260.60-1180.96 1255.11-1184.00Q1249.62-1187.05 1244.74-1187.05L1244.74-1187.05Q1238.94-1187.05 1238.94-1182.99Q1238.94-1178.93 1239.25-1169.79Q1239.55-1160.66 1239.71-1152.13Q1239.86-1143.60 1239.86-935.73L1239.86-935.73Q1239.25-917.86 1239.25-906.90L1239.25-906.90Q1239.25-901.62 1244.74-898.58Q1250.23-895.53 1255.11-895.53L1255.11-895.53Q1260.90-895.53 1260.90-899.19L1260.90-899.19L1260.60-909.34Q1259.99-922.33 1259.99-939.38L1259.99-939.38L1260.29-954.40Q1260.29-975.92 1261.82-992.98L1261.82-992.98Q1263.34-1026.67 1277.98-1049.00L1277.98-1049.00Q1293.84-1071.74 1317.94-1071.74L1317.94-1071.74Q1333.19-1071.74 1338.07-1057.33Q1342.95-1042.91 1342.95-1018.96L1342.95-1018.96L1342.95-934.10Q1342.64-925.98 1342.64-918.07Q1342.64-910.15 1342.34-906.90L1342.34-906.90Q1342.34-901.62 1347.83-898.58Q1353.32-895.53 1358.20-895.53ZM1440.09-1002.31L1440.09-1002.31L1433.99-1002.31Q1437.95-1025.86 1452.59-1049.00L1452.59-1049.00Q1468.45-1073.77 1489.80-1073.77L1489.80-1073.77Q1520.61-1073.77 1520.61-1038.45L1520.61-1038.45Q1520.61-1027.89 1517.25-1022.61Q1513.90-1017.34 1503.53-1013.28Q1493.16-1009.22 1477.91-1005.76Q1462.66-1002.31 1440.09-1002.31ZM1440.70-1150.51L1510.24-1150.51Q1513.29-1150.51 1514.66-1154.57Q1516.03-1158.63 1516.03-1163.09L1516.03-1163.09Q1516.03-1167.96 1514.66-1171.82Q1513.29-1175.68 1510.54-1175.68L1510.54-1175.68L1441.00-1175.68Q1437.95-1175.68 1436.58-1171.82Q1435.21-1167.96 1435.21-1163.50L1435.21-1163.50Q1435.21-1158.63 1436.58-1154.57Q1437.95-1150.51 1440.70-1150.51L1440.70-1150.51ZM1467.23-892.69L1467.23-892.69Q1486.45-892.69 1500.48-900.41L1500.48-900.41Q1528.23-917.86 1537.38-938.98L1537.38-938.98Q1541.65-948.31 1541.65-951.97L1541.65-951.97Q1541.65-956.84 1538.60-956.84L1538.60-956.84Q1536.47-956.84 1531.59-950.75L1531.59-950.75Q1506.27-916.65 1467.23-916.65L1467.23-916.65Q1451.98-916.65 1441.77-932.89Q1431.55-949.13 1431.55-975.52L1431.55-975.52L1431.55-979.58L1435.51-979.58Q1459.91-979.58 1478.82-983.23L1478.82-983.23Q1517.86-991.35 1531.28-1003.13L1531.28-1003.13Q1537.38-1008.00 1539.06-1016.12Q1540.74-1024.24 1540.74-1038.04L1540.74-1038.04Q1540.74-1052.66 1536.16-1066.46Q1531.59-1080.27 1520.30-1088.79Q1509.02-1097.32 1490.11-1097.32L1490.11-1097.32Q1461.44-1097.32 1439.17-1065.24L1439.17-1065.24Q1418.43-1034.39 1413.86-1003.53L1413.86-1003.53L1411.11-1003.13Q1405.32-1003.13 1405.32-997.85L1405.32-997.85Q1405.32-995.01 1407.15-991.35Q1408.98-987.70 1411.72-984.86L1411.72-984.86L1411.72-979.17Q1411.72-952.37 1419.20-932.89Q1426.67-913.40 1439.17-903.05Q1451.68-892.69 1467.23-892.69ZM1706.59-895.53L1706.59-895.53Q1712.38-895.53 1712.38-899.19L1712.38-899.19Q1712.38-913.40 1711.77-931.67L1711.77-931.67Q1711.47-940.19 1711.47-1020.58L1711.47-1020.58Q1711.47-1052.25 1703.84-1071.33L1703.84-1071.33Q1693.47-1096.91 1666.33-1096.91L1666.33-1096.91Q1649.55-1096.91 1634.00-1085.54Q1618.44-1074.18 1608.38-1052.66L1608.38-1052.66L1608.99-1083.92Q1608.99-1089.20 1603.50-1092.24Q1598.01-1095.29 1593.13-1095.29L1593.13-1095.29Q1587.33-1095.29 1587.33-1091.23Q1587.33-1087.17 1587.64-1078.03Q1587.94-1068.90 1588.10-1060.37Q1588.25-1051.85 1588.25-935.73L1588.25-935.73Q1587.64-917.86 1587.64-906.90L1587.64-906.90Q1587.64-901.62 1593.13-898.58Q1598.62-895.53 1603.50-895.53L1603.50-895.53Q1609.29-895.53 1609.29-899.19L1609.29-899.19L1608.99-909.34Q1608.38-922.33 1608.38-939.38L1608.38-939.38L1608.68-954.40Q1608.68-975.92 1610.21-992.98L1610.21-992.98Q1611.73-1026.67 1626.37-1049.00L1626.37-1049.00Q1642.23-1071.74 1666.33-1071.74L1666.33-1071.74Q1681.58-1071.74 1686.46-1057.33Q1691.34-1042.91 1691.34-1018.96L1691.34-1018.96L1691.34-934.10Q1691.03-925.98 1691.03-918.07Q1691.03-910.15 1690.73-906.90L1690.73-906.90Q1690.73-901.62 1696.22-898.58Q1701.71-895.53 1706.59-895.53ZM1810.74-927.20L1810.74-927.20Q1794.88-927.20 1786.80-940.60Q1778.72-954.00 1778.72-986.07L1778.72-986.07Q1778.72-1017.74 1794.12-1045.55Q1809.52-1073.36 1831.79-1073.36L1831.79-1073.36Q1840.02-1073.36 1847.80-1068.90Q1855.58-1064.43 1860.46-1056.31L1860.46-1056.31Q1862.29-1053.88 1864.42-1053.88L1864.42-1053.88Q1867.78-1053.88 1870.22-1058.34L1870.22-1058.34L1870.22-1031.55Q1870.22-1004.34 1868.69-991.35L1868.69-991.35Q1865.03-970.24 1855.42-956.03Q1845.82-941.82 1833.77-934.51Q1821.72-927.20 1810.74-927.20ZM1814.71-828.95L1814.71-828.95Q1835.45-828.95 1852.37-839.51Q1869.30-850.06 1879.52-870.36Q1889.74-890.66 1889.74-920.30L1889.74-920.30L1889.74-1045.35Q1889.74-1055.91 1890.35-1066.87L1890.35-1066.87L1890.96-1085.95Q1890.96-1090.82 1885.47-1093.87Q1879.98-1096.91 1875.10-1096.91L1875.10-1096.91Q1869.30-1096.91 1869.30-1092.85L1869.30-1092.85Q1869.30-1089.20 1869.76-1084.94Q1870.22-1080.67 1870.22-1071.33L1870.22-1071.33Q1858.93-1097.32 1831.48-1097.32L1831.48-1097.32Q1816.54-1097.32 1803.27-1087.98Q1790.00-1078.64 1779.94-1062.40L1779.94-1062.40Q1757.98-1027.08 1757.98-985.67L1757.98-985.67Q1757.98-945.07 1772.31-923.95Q1786.65-902.84 1810.74-902.84L1810.74-902.84Q1826.91-902.84 1842.62-913.40Q1858.32-923.95 1869.91-947.91L1869.91-947.91L1869.91-920.71Q1869.91-900 1862.59-884.98L1862.59-884.98Q1846.43-853.72 1814.71-853.72L1814.71-853.72Q1799.15-853.72 1790.61-860.82Q1782.07-867.93 1776.89-884.57L1776.89-884.57Q1775.97-888.63 1772.62-888.63L1772.62-888.63Q1768.65-888.63 1763.93-881.93Q1759.20-875.23 1759.20-869.14L1759.20-869.14Q1759.20-867.52 1760.11-865.49L1760.11-865.49Q1768.04-848.03 1780.85-838.49Q1793.66-828.95 1814.71-828.95ZM1467-264L1467-382L1280-372Q1278-308 1272-255L1272-255L1467-264ZM1723-277L1739-396L1531-385L1529-267L1723-277ZM1783-224L1264-202Q1239-64 1148 25L1148 25Q1111 62 1080.50 80Q1050 98 1040.50 98Q1031 98 1031 92L1031 92Q1031 81 1056 56L1056 56Q1214-99 1214-336L1214-336Q1214-408 1208-424Q1202-440 1202-448Q1202-456 1214-456Q1226-456 1283-428L1283-428L1756-453L1764-453Q1779-453 1796-441Q1813-429 1813-420Q1813-411 1809.50-407Q1806-403 1805-398L1805-398L1785-277Q1816-247 1816-236.50Q1816-226 1783-224L1783-224ZM1154-679L1154-679L1468-698L1468-755Q1468-776 1459-791Q1450-806 1450-811L1450-811Q1450-819 1463-819Q1476-819 1494-813L1494-813Q1534-800 1534-779L1534-779L1533-702L1801-718Q1819-720 1828-723.50Q1837-727 1842-727Q1847-727 1858-718L1858-718Q1888-695 1888-681L1888-681Q1888-670 1866-668L1866-668L1532-648L1531-568L1681-576Q1699-578 1707-581Q1715-584 1720.50-584Q1726-584 1738-575.50Q1750-567 1759-556Q1768-545 1768-539L1768-539Q1768-530 1748-527L1748-527L1294-501L1268-500Q1258-500 1243-506.50Q1228-513 1217-548L1217-548Q1216-550 1216-552L1216-552Q1216-558 1222-558L1222-558Q1224-558 1232.50-555.50Q1241-553 1262-553L1262-553L1274-553L1468-564L1468-644L1189-628L1165-627Q1144-627 1136-634L1136-634Q1118-651 1111-679L1111-679Q1111-685 1117-685L1117-685Q1119-685 1130-682Q1141-679 1154-679Z" /><path d="M2130.45-944.66L2130.45-1072.55L2100.48-1072.55Q2091.16-1072.15 2085.90-1071.33L2085.90-1071.33Q2081.85-1071.33 2079.62-1076.61Q2077.39-1081.89 2077.39-1087.17L2077.39-1087.17Q2077.39-1096.91 2083.87-1096.91L2083.87-1096.91Q2097.64-1096.10 2117.08-1096.10L2117.08-1096.10L2130.45-1096.10L2130.45-1126.96Q2129.64-1149.69 2129.64-1157.81L2129.64-1157.81Q2129.64-1161.87 2135.31-1161.87L2135.31-1161.87Q2142.60-1161.87 2150.70-1159.44Q2158.80-1157.00 2158.80-1150.51L2158.80-1150.51L2157.99-1126.15Q2157.99-1123.30 2157.59-1096.10L2157.59-1096.10L2211.05-1096.10Q2222.80-1096.10 2240.21-1097.32L2240.21-1097.32Q2244.67-1097.32 2247.10-1092.04Q2249.53-1086.76 2249.53-1081.08L2249.53-1081.08Q2249.53-1071.74 2243.45-1071.74L2243.45-1071.74Q2234.54-1071.74 2226.04-1072.15Q2217.53-1072.55 2163.66-1072.55L2163.66-1072.55L2157.59-1072.55L2157.59-943.85Q2157.59-928.83 2162.04-923.75Q2166.50-918.68 2181.89-918.68L2181.89-918.68Q2203.36-918.68 2236.57-936.13L2236.57-936.13Q2243.86-940.60 2245.68-940.60Q2247.50-940.60 2247.50-936.13L2247.50-936.13Q2247.50-931.26 2241.02-924.16Q2234.54-917.05 2223.61-909.74Q2212.67-902.44 2200.52-897.56Q2188.37-892.69 2177.03-892.69L2177.03-892.69Q2152.73-892.69 2141.59-905.08Q2130.45-917.46 2130.45-944.66L2130.45-944.66ZM2380.78-917.46L2380.78-917.46Q2352.83-917.46 2337.64-934.31Q2322.45-951.16 2322.45-984.45L2322.45-984.45Q2322.45-1016.12 2343.51-1044.54Q2364.58-1072.96 2396.57-1072.96L2396.57-1072.96Q2424.11-1072.96 2437.28-1053.06Q2450.44-1033.17 2450.44-999.47L2450.44-999.47Q2450.44-976.33 2441.13-957.65L2441.13-957.65Q2420.47-917.46 2380.78-917.46ZM2348.37-1150.51L2440.72-1150.51Q2444.77-1150.51 2446.59-1154.57Q2448.42-1158.63 2448.42-1163.09L2448.42-1163.09Q2448.42-1167.96 2446.59-1171.82Q2444.77-1175.68 2441.13-1175.68L2441.13-1175.68L2348.78-1175.68Q2344.73-1175.68 2342.91-1171.82Q2341.08-1167.96 2341.08-1163.50L2341.08-1163.50Q2341.08-1158.63 2342.91-1154.57Q2344.73-1150.51 2348.37-1150.51L2348.37-1150.51ZM2380.78-892.69L2380.78-892.69Q2426.14-892.69 2452.87-926.80L2452.87-926.80Q2477.58-960.49 2477.58-999.47L2477.58-999.47Q2477.58-1030.73 2467.86-1052.25L2467.86-1052.25Q2445.18-1097.32 2399.00-1097.32L2399.00-1097.32Q2381.99-1097.32 2370.65-1092.24Q2359.31-1087.17 2351.21-1080.67L2351.21-1080.67Q2348.78-1084.33 2344.32-1084.33L2344.32-1084.33Q2340.27-1084.33 2331.97-1075.39Q2323.67-1066.46 2315.36-1051.85Q2307.06-1037.23 2301.19-1019.57Q2295.32-1001.91 2295.32-984.04L2295.32-984.04Q2295.32-941.82 2317.79-917.26Q2340.27-892.69 2380.78-892.69ZM2688.40-895.53L2688.40-895.53Q2696.10-895.53 2696.10-899.19L2696.10-899.19Q2696.10-913.40 2695.29-931.67L2695.29-931.67Q2694.88-940.19 2694.88-1020.58L2694.88-1020.58Q2694.88-1052.25 2684.76-1071.33L2684.76-1071.33Q2670.99-1096.91 2634.94-1096.91L2634.94-1096.91Q2612.66-1096.91 2592.01-1085.54Q2571.35-1074.18 2557.98-1052.66L2557.98-1052.66L2558.79-1083.92Q2558.79-1089.20 2551.50-1092.24Q2544.21-1095.29 2537.73-1095.29L2537.73-1095.29Q2530.04-1095.29 2530.04-1091.23Q2530.04-1087.17 2530.44-1078.03Q2530.85-1068.90 2531.05-1060.37Q2531.25-1051.85 2531.25-935.73L2531.25-935.73Q2530.44-917.86 2530.44-906.90L2530.44-906.90Q2530.44-901.62 2537.73-898.58Q2545.02-895.53 2551.50-895.53L2551.50-895.53Q2559.20-895.53 2559.20-899.19L2559.20-899.19L2558.79-909.34Q2557.98-922.33 2557.98-939.38L2557.98-939.38L2558.39-954.40Q2558.39-975.92 2560.41-992.98L2560.41-992.98Q2562.44-1026.67 2581.88-1049.00L2581.88-1049.00Q2602.94-1071.74 2634.94-1071.74L2634.94-1071.74Q2655.19-1071.74 2661.67-1057.33Q2668.15-1042.91 2668.15-1018.96L2668.15-1018.96L2668.15-934.10Q2667.75-925.98 2667.75-918.07Q2667.75-910.15 2667.34-906.90L2667.34-906.90Q2667.34-901.62 2674.63-898.58Q2681.92-895.53 2688.40-895.53ZM2819.65-927.20L2819.65-927.20Q2798.59-927.20 2787.86-940.60Q2777.12-954.00 2777.12-986.07L2777.12-986.07Q2777.12-1017.74 2797.58-1045.55Q2818.03-1073.36 2847.60-1073.36L2847.60-1073.36Q2858.53-1073.36 2868.86-1068.90Q2879.19-1064.43 2885.67-1056.31L2885.67-1056.31Q2888.10-1053.88 2890.94-1053.88L2890.94-1053.88Q2895.39-1053.88 2898.63-1058.34L2898.63-1058.34L2898.63-1031.55Q2898.63-1004.34 2896.61-991.35L2896.61-991.35Q2891.75-970.24 2878.99-956.03Q2866.23-941.82 2850.23-934.51Q2834.23-927.20 2819.65-927.20ZM2824.92-828.95L2824.92-828.95Q2852.46-828.95 2874.94-839.51Q2897.42-850.06 2910.99-870.36Q2924.55-890.66 2924.55-920.30L2924.55-920.30L2924.55-1045.35Q2924.55-1055.91 2925.36-1066.87L2925.36-1066.87L2926.17-1085.95Q2926.17-1090.82 2918.88-1093.87Q2911.59-1096.91 2905.11-1096.91L2905.11-1096.91Q2897.42-1096.91 2897.42-1092.85L2897.42-1092.85Q2897.42-1089.20 2898.02-1084.94Q2898.63-1080.67 2898.63-1071.33L2898.63-1071.33Q2883.65-1097.32 2847.19-1097.32L2847.19-1097.32Q2827.35-1097.32 2809.73-1087.98Q2792.11-1078.64 2778.74-1062.40L2778.74-1062.40Q2749.58-1027.08 2749.58-985.67L2749.58-985.67Q2749.58-945.07 2768.62-923.95Q2787.65-902.84 2819.65-902.84L2819.65-902.84Q2841.12-902.84 2861.98-913.40Q2882.84-923.95 2898.23-947.91L2898.23-947.91L2898.23-920.71Q2898.23-900 2888.51-884.98L2888.51-884.98Q2867.04-853.72 2824.92-853.72L2824.92-853.72Q2804.26-853.72 2792.92-860.82Q2781.58-867.93 2774.69-884.57L2774.69-884.57Q2773.48-888.63 2769.02-888.63L2769.02-888.63Q2763.76-888.63 2757.48-881.93Q2751.20-875.23 2751.20-869.14L2751.20-869.14Q2751.20-867.52 2752.42-865.49L2752.42-865.49Q2762.95-848.03 2779.96-838.49Q2796.97-828.95 2824.92-828.95ZM2578-310L2578-404L2431-396L2431-304L2578-310ZM2790-319L2790-415L2632-406L2632-313L2790-319ZM2061-480L2061-480Q2085-476 2093-476L2093-476L2105-476Q2109-476 2113-477L2113-477L2262-492L2274-493Q2286-493 2299-481.50Q2312-470 2312-461Q2312-452 2306-446L2306-446L2294-434Q2285-422 2269.50-402Q2254-382 2227.50-347Q2201-312 2201-307Q2201-302 2206-299L2206-299Q2286-251 2300-222L2300-222Q2307-210 2307-200L2307-200Q2307-163 2220-91L2220-91Q2253-89 2335.50-72.50Q2418-56 2609.50-26.50Q2801 3 2931 3L2931 3L2936 3Q2958 3 2958 11L2958 11Q2958 14 2952 28L2952 28Q2935 66 2908 66L2908 66L2902 66Q2777 62 2636 39L2636 39Q2395-2 2311-20Q2227-38 2182-38Q2137-38 2085-20L2085-20Q2075-17 2069-17Q2063-17 2053-23Q2043-29 2043-58L2043-58Q2043-74 2071-80Q2099-86 2142-90L2142-90Q2199-140 2240-193L2240-193Q2242-197 2242-200L2242-200Q2242-208 2206-232L2206-232Q2174-256 2168-259L2168-259Q2142-276 2142-294.50Q2142-313 2164.50-346.50Q2187-380 2224-433L2224-433L2131-421Q2117-419 2112-419Q2107-419 2096.50-421Q2086-423 2074-433Q2062-443 2056-467L2056-467Q2055-469 2055-473L2055-473Q2055-480 2061-480ZM2578-452L2579-534L2431-526L2431-445L2578-452ZM2789-462L2789-546L2632-537L2632-454L2789-462ZM2247-656.50Q2268-634 2282-616Q2296-598 2296-589.50Q2296-581 2281.50-567.50Q2267-554 2256.50-554Q2246-554 2227-581L2227-581Q2188-636 2120-702L2120-702Q2110-711 2110-720.50Q2110-730 2123-740Q2136-750 2141-750Q2146-750 2164-736Q2182-722 2204-700.50Q2226-679 2247-656.50ZM2370-118L2370-118Q2375-153 2375-189L2375-189L2378-523Q2378-551 2371-569Q2364-587 2364-592.50Q2364-598 2374-598Q2384-598 2432-577L2432-577L2572-585Q2549-604 2495-639L2495-639Q2484-646 2484-652L2484-652Q2496-683 2508.50-683Q2521-683 2592-627L2592-627Q2649-663 2717-715L2717-715L2440-695Q2433-694 2427-694L2427-694L2416-694Q2399-694 2385-705.50Q2371-717 2366-732L2366-732L2361-746Q2361-751 2369-751L2369-751Q2371-751 2373-751L2373-751L2407-747L2757-769L2767-769Q2789-769 2800.50-756Q2812-743 2812-733.50Q2812-724 2804.50-718.50Q2797-713 2757-681Q2717-649 2630-597L2630-597L2640-588L2803-597Q2807-598 2815.50-598Q2824-598 2837.50-588.50Q2851-579 2851-566L2851-566L2846-543L2848-134L2849-105Q2849-86 2835-68Q2821-50 2804-50Q2787-50 2728.50-97.50Q2670-145 2670-159L2670-159Q2670-165 2678-165Q2686-165 2715-151.50Q2744-138 2791-124L2791-124L2790-274L2632-267L2632-120Q2632-98 2618-98L2618-98Q2616-98 2604-102L2604-102Q2572-115 2572-139L2572-139Q2577-174 2577-214L2577-214L2577-264L2431-257L2431-107Q2431-97 2428.50-90Q2426-83 2416-83L2416-83L2404-86Q2370-95 2370-118Z" /><path d="M3268.37-916.65L3268.37-916.65Q3258.25-916.65 3248.93-920.50Q3239.61-924.36 3231.51-935.32L3231.51-935.32Q3227.46-941.82 3223.01-941.82L3223.01-941.82Q3222.20-941.82 3221.39-941.41Q3220.58-941.01 3220.17-941.01L3220.17-941.01Q3220.17-985.26 3223.41-1002.72L3223.41-1002.72Q3227.87-1023.43 3238.80-1039.26L3238.80-1039.26Q3263.11-1072.96 3297.13-1072.96L3297.13-1072.96Q3307.66-1072.96 3317.38-1066.46Q3327.10-1059.97 3332.97-1046.57Q3338.85-1033.17 3338.85-1012.06L3338.85-1012.06Q3338.85-968.21 3314.55-941.41L3314.55-941.41Q3290.24-916.65 3268.37-916.65ZM3214.50-830.17L3214.50-830.17Q3222.60-830.17 3222.60-834.23L3222.60-834.23Q3222.60-841.13 3221.59-852.90Q3220.58-864.68 3220.58-877.26L3220.58-877.26L3220.58-915.43Q3227.46-906.50 3241.44-899.80Q3255.41-893.10 3269.59-893.10L3269.59-893.10Q3297.13-893.10 3319.00-908.93L3319.00-908.93Q3366.39-944.66 3366.39-1012.87L3366.39-1012.87Q3366.39-1054.28 3346.95-1075.80Q3327.51-1097.32 3297.13-1097.32L3297.13-1097.32Q3274.85-1097.32 3256.02-1087.17Q3237.18-1077.02 3220.98-1049.82L3220.98-1049.82L3221.79-1062.00Q3221.79-1068.90 3222.20-1075.39Q3222.60-1081.89 3222.60-1084.33L3222.60-1084.33Q3222.60-1089.60 3214.91-1092.65Q3207.21-1095.69 3200.33-1095.69L3200.33-1095.69Q3192.63-1095.69 3192.63-1091.63L3192.63-1091.63Q3193.85-1063.62 3193.85-1049.41L3193.85-1049.41L3193.85-877.67Q3193.85-867.52 3193.44-856.96Q3193.04-846.41 3193.04-841.54L3193.04-841.54Q3193.04-836.26 3200.53-833.21Q3208.02-830.17 3214.50-830.17ZM3485.49-925.58L3466.04-925.58Q3446.20-924.77 3437.90-925.17Q3429.59-925.58 3426.35-925.58L3426.35-925.58Q3421.09-925.58 3421.09-918.27L3421.09-918.27Q3421.09-912.18 3425.14-904.87Q3429.19-897.56 3434.86-897.56L3434.86-897.56L3447.01-899.19Q3451.06-899.19 3455.51-899.59L3455.51-899.59Q3481.03-900.41 3523.96-900.41L3523.96-900.41Q3558.80-900.41 3574.19-897.97L3574.19-897.97Q3578.64-897.97 3578.64-904.87L3578.64-904.87Q3578.64-910.96 3574.80-918.68Q3570.95-926.39 3565.68-926.39L3565.68-926.39Q3560.01-925.98 3531.66-925.98L3531.66-925.98L3515.46-925.98Q3515.05-952.37 3515.05-1068.90L3515.05-1068.90Q3515.05-1073.77 3516.47-1076.41Q3517.89-1079.05 3517.89-1082.30L3517.89-1082.30Q3517.89-1085.14 3515.05-1089.60L3515.05-1089.60Q3508.98-1100.97 3500.47-1100.97L3500.47-1100.97Q3492.78-1098.94 3475.36-1097.93Q3457.94-1096.91 3453.49-1096.91Q3449.03-1096.91 3433.64-1099.35L3433.64-1099.35Q3429.19-1099.35 3429.19-1092.45L3429.19-1092.45Q3429.19-1086.36 3433.04-1078.64Q3436.88-1070.93 3442.15-1070.93L3442.15-1070.93Q3447.82-1071.33 3457.94-1071.33Q3468.07-1071.33 3485.89-1073.36L3485.89-1073.36Q3485.89-944.66 3485.49-925.58L3485.49-925.58ZM3452.68-1150.51L3545.03-1150.51Q3549.08-1150.51 3550.90-1154.57Q3552.72-1158.63 3552.72-1163.09L3552.72-1163.09Q3552.72-1167.96 3550.90-1171.82Q3549.08-1175.68 3545.43-1175.68L3545.43-1175.68L3453.08-1175.68Q3449.03-1175.68 3447.21-1171.82Q3445.39-1167.96 3445.39-1163.50L3445.39-1163.50Q3445.39-1158.63 3447.21-1154.57Q3449.03-1150.51 3452.68-1150.51L3452.68-1150.51ZM3800.40-895.53L3800.40-895.53Q3808.10-895.53 3808.10-899.19L3808.10-899.19Q3808.10-913.40 3807.29-931.67L3807.29-931.67Q3806.88-940.19 3806.88-1020.58L3806.88-1020.58Q3806.88-1052.25 3796.76-1071.33L3796.76-1071.33Q3782.99-1096.91 3746.94-1096.91L3746.94-1096.91Q3724.66-1096.91 3704.01-1085.54Q3683.35-1074.18 3669.98-1052.66L3669.98-1052.66L3670.79-1083.92Q3670.79-1089.20 3663.50-1092.24Q3656.21-1095.29 3649.73-1095.29L3649.73-1095.29Q3642.04-1095.29 3642.04-1091.23Q3642.04-1087.17 3642.44-1078.03Q3642.85-1068.90 3643.05-1060.37Q3643.25-1051.85 3643.25-935.73L3643.25-935.73Q3642.44-917.86 3642.44-906.90L3642.44-906.90Q3642.44-901.62 3649.73-898.58Q3657.02-895.53 3663.50-895.53L3663.50-895.53Q3671.20-895.53 3671.20-899.19L3671.20-899.19L3670.79-909.34Q3669.98-922.33 3669.98-939.38L3669.98-939.38L3670.39-954.40Q3670.39-975.92 3672.41-992.98L3672.41-992.98Q3674.44-1026.67 3693.88-1049.00L3693.88-1049.00Q3714.94-1071.74 3746.94-1071.74L3746.94-1071.74Q3767.19-1071.74 3773.67-1057.33Q3780.15-1042.91 3780.15-1018.96L3780.15-1018.96L3780.15-934.10Q3779.75-925.98 3779.75-918.07Q3779.75-910.15 3779.34-906.90L3779.34-906.90Q3779.34-901.62 3786.63-898.58Q3793.92-895.53 3800.40-895.53ZM3718-335L3719-510L3591-502Q3589-388 3584-328L3584-328L3718-335ZM3597-669.50Q3610-646 3618.50-628.50Q3627-611 3627-604.50Q3627-598 3612-587Q3597-576 3584-576Q3571-576 3560-602L3560-602Q3532-671 3493-724L3493-724Q3486-733 3486-740.50Q3486-748 3499-758Q3512-768 3521-768Q3530-768 3542.50-753Q3555-738 3569.50-715.50Q3584-693 3597-669.50ZM3709 57L3709 57L3710 46Q3717-10 3717-33L3717-33L3718-279L3579-272Q3569-203 3557-160.50Q3545-118 3514-70Q3483-22 3449.50 13Q3416 48 3389 66.50Q3362 85 3354 85Q3346 85 3346 77.50Q3346 70 3357 59L3357 59Q3463-54 3496-164L3496-164Q3511-216 3518-269L3518-269L3465-266Q3435-263 3422.50-263Q3410-263 3394-269Q3378-275 3364-312L3364-312Q3363-314 3363-319Q3363-324 3369-324Q3375-324 3386.50-321.50Q3398-319 3420-319L3420-319L3523-325Q3527-385 3527-455L3527-455L3527-498L3501-496Q3489-495 3478.50-494Q3468-493 3460.50-493Q3453-493 3442-495L3442-495Q3415-500 3403-540L3403-540Q3402-542 3402-547Q3402-552 3408-552Q3414-552 3424-549.50Q3434-547 3457-547L3457-547L3656-560Q3703-643 3722-694.50Q3741-746 3741-766L3741-766L3738-785Q3738-793 3746.50-793Q3755-793 3771-786L3771-786Q3816-766 3816-746L3816-746Q3816-733 3776.50-667.50Q3737-602 3711-564L3711-564L3795-570Q3824-572 3838.50-576Q3853-580 3856.50-580Q3860-580 3874-573L3874-573Q3914-553 3914-535L3914-535Q3914-522 3892-521L3892-521L3781-514L3781-338L3846-342Q3866-344 3885-348.50Q3904-353 3908-353Q3912-353 3926-346L3926-346Q3964-324 3964-305L3964-305Q3964-293 3943-291L3943-291L3781-283L3780 72Q3780 98 3762 98L3762 98Q3739 98 3724 83Q3709 68 3709 57ZM3054-557L3054-557Q3074-553 3084-553L3084-553L3101-553Q3107-553 3114-554L3114-554L3210-561L3211-725Q3211-756 3195-780L3195-780Q3192-785 3192-788L3192-788Q3192-795 3203.50-795Q3215-795 3237-787Q3259-779 3265.50-771Q3272-763 3272-752L3272-752L3271-565L3293-567Q3313-569 3323-574Q3333-579 3339.50-579Q3346-579 3358-570L3358-570Q3390-549 3390-534L3390-534Q3390-522 3367-519L3367-519L3271-512L3270-349Q3335-386 3359-401.50Q3383-417 3391.50-417Q3400-417 3400-410L3400-410Q3400-391 3270-298L3270-298L3268-14L3269 21Q3269 53 3250.50 67Q3232 81 3218.50 81Q3205 81 3182 64.50Q3159 48 3135 24.50Q3111 1 3095-21.50Q3079-44 3079-52Q3079-60 3084-60L3084-60Q3091-60 3121.50-39.50Q3152-19 3207 4L3207 4L3208-254Q3113-189 3089-189L3089-189Q3080-189 3066-197.50Q3052-206 3041.50-217Q3031-228 3031-235Q3031-242 3041-243.50Q3051-245 3076-253Q3101-261 3209-316L3209-316L3210-507L3135-501Q3115-499 3099.50-499Q3084-499 3078-505L3078-505Q3058-524 3050-547L3050-547Q3049-549 3049-553Q3049-557 3054-557Z" /><path d="M4220.98-833.42L4225.03-833.42Q4240.83-833.42 4251.16-841.54Q4261.49-849.66 4269.59-866.71L4269.59-866.71L4358.69-1053.88L4366.39-1068.09Q4368.82-1072.96 4370.44-1076.00Q4372.06-1079.05 4372.06-1081.48L4372.06-1081.48Q4372.06-1087.98 4365.17-1092.45Q4358.29-1096.91 4352.21-1096.91L4352.21-1096.91Q4346.95-1096.91 4345.33-1093.26L4345.33-1093.26Q4339.25-1073.36 4330.75-1055.50L4330.75-1055.50L4280.93-950.34Q4226.65-1076.61 4221.79-1089.60L4221.79-1089.60Q4219.77-1094.88 4206.00-1094.88L4206.00-1094.88Q4199.92-1094.88 4194.86-1093.26Q4189.80-1091.63 4189.80-1088.39L4189.80-1088.39L4190.61-1085.95Q4194.66-1079.05 4199.72-1068.70Q4204.78-1058.34 4266.35-918.68L4266.35-918.68L4248.53-881.32Q4237.99-858.99 4223.82-858.99L4223.82-858.99Q4209.24-858.99 4201.14-866.71L4201.14-866.71Q4199.11-869.55 4195.87-869.55L4195.87-869.55Q4190.61-869.55 4186.56-862.44Q4182.51-855.34 4182.51-849.66L4182.51-849.66Q4182.51-846.81 4184.53-844.38L4184.53-844.38Q4194.25-837.07 4203.77-835.24Q4213.29-833.42 4220.98-833.42L4220.98-833.42ZM4485.49-925.58L4466.04-925.58Q4446.20-924.77 4437.90-925.17Q4429.59-925.58 4426.35-925.58L4426.35-925.58Q4421.09-925.58 4421.09-918.27L4421.09-918.27Q4421.09-912.18 4425.14-904.87Q4429.19-897.56 4434.86-897.56L4434.86-897.56L4447.01-899.19Q4451.06-899.19 4455.51-899.59L4455.51-899.59Q4481.03-900.41 4523.96-900.41L4523.96-900.41Q4558.80-900.41 4574.19-897.97L4574.19-897.97Q4578.64-897.97 4578.64-904.87L4578.64-904.87Q4578.64-910.96 4574.80-918.68Q4570.95-926.39 4565.68-926.39L4565.68-926.39Q4560.01-925.98 4531.66-925.98L4531.66-925.98L4515.46-925.98Q4515.05-952.37 4515.05-1068.90L4515.05-1068.90Q4515.05-1073.77 4516.47-1076.41Q4517.89-1079.05 4517.89-1082.30L4517.89-1082.30Q4517.89-1085.14 4515.05-1089.60L4515.05-1089.60Q4508.98-1100.97 4500.47-1100.97L4500.47-1100.97Q4492.78-1098.94 4475.36-1097.93Q4457.94-1096.91 4453.49-1096.91Q4449.03-1096.91 4433.64-1099.35L4433.64-1099.35Q4429.19-1099.35 4429.19-1092.45L4429.19-1092.45Q4429.19-1086.36 4433.04-1078.64Q4436.88-1070.93 4442.15-1070.93L4442.15-1070.93Q4447.82-1071.33 4457.94-1071.33Q4468.07-1071.33 4485.89-1073.36L4485.89-1073.36Q4485.89-944.66 4485.49-925.58L4485.49-925.58ZM4452.68-1150.51L4545.03-1150.51Q4549.08-1150.51 4550.90-1154.57Q4552.72-1158.63 4552.72-1163.09L4552.72-1163.09Q4552.72-1167.96 4550.90-1171.82Q4549.08-1175.68 4545.43-1175.68L4545.43-1175.68L4453.08-1175.68Q4449.03-1175.68 4447.21-1171.82Q4445.39-1167.96 4445.39-1163.50L4445.39-1163.50Q4445.39-1158.63 4447.21-1154.57Q4449.03-1150.51 4452.68-1150.51L4452.68-1150.51ZM4800.40-895.53L4800.40-895.53Q4808.10-895.53 4808.10-899.19L4808.10-899.19Q4808.10-913.40 4807.29-931.67L4807.29-931.67Q4806.88-940.19 4806.88-1020.58L4806.88-1020.58Q4806.88-1052.25 4796.76-1071.33L4796.76-1071.33Q4782.99-1096.91 4746.94-1096.91L4746.94-1096.91Q4724.66-1096.91 4704.01-1085.54Q4683.35-1074.18 4669.98-1052.66L4669.98-1052.66L4670.79-1083.92Q4670.79-1089.20 4663.50-1092.24Q4656.21-1095.29 4649.73-1095.29L4649.73-1095.29Q4642.04-1095.29 4642.04-1091.23Q4642.04-1087.17 4642.44-1078.03Q4642.85-1068.90 4643.05-1060.37Q4643.25-1051.85 4643.25-935.73L4643.25-935.73Q4642.44-917.86 4642.44-906.90L4642.44-906.90Q4642.44-901.62 4649.73-898.58Q4657.02-895.53 4663.50-895.53L4663.50-895.53Q4671.20-895.53 4671.20-899.19L4671.20-899.19L4670.79-909.34Q4669.98-922.33 4669.98-939.38L4669.98-939.38L4670.39-954.40Q4670.39-975.92 4672.41-992.98L4672.41-992.98Q4674.44-1026.67 4693.88-1049.00L4693.88-1049.00Q4714.94-1071.74 4746.94-1071.74L4746.94-1071.74Q4767.19-1071.74 4773.67-1057.33Q4780.15-1042.91 4780.15-1018.96L4780.15-1018.96L4780.15-934.10Q4779.75-925.98 4779.75-918.07Q4779.75-910.15 4779.34-906.90L4779.34-906.90Q4779.34-901.62 4786.63-898.58Q4793.92-895.53 4800.40-895.53ZM4334-616Q4338-614 4364-585Q4390-556 4412-526.50Q4434-497 4434-485Q4434-473 4416-459L4416-459L4411-455L4406-453L4533-459Q4566-501 4590-542.50Q4614-584 4620-613L4620-613L4621-624L4622-631L4334-616ZM4329-113L4336-18L4669-25L4676-126L4329-113ZM4318-254L4325-166L4680-179L4686-270L4318-254ZM4044-444L4044-444Q4048-444 4051-443L4051-443Q4067-438 4095-438L4095-438L4108-438L4386-452Q4379-456 4370-473L4370-473Q4341-526 4303-572L4303-572Q4293-583 4293-590L4293-590Q4293-600 4316-615L4316-615L4242-611Q4231-610 4214-610L4214-610L4204-610Q4181-613 4166.50-629Q4152-645 4152-663L4152-663Q4152-670 4158-670L4158-670Q4162-670 4165-669L4165-669Q4183-664 4209-664L4209-664L4222-664L4509-680Q4434-738 4401-761L4401-761Q4394-766 4391-770Q4388-774 4388-779L4388-779Q4388-788 4396.50-799.50Q4405-811 4412-813L4412-813Q4414-814 4418-814L4418-814Q4425-814 4434-808L4434-808L4452-797Q4508-762 4542-739Q4576-716 4579-704L4579-704L4580-699Q4580-693 4574-683L4574-683L4731-692Q4754-694 4776-701L4776-701Q4778-702 4783-702L4783-702Q4795-702 4817-683.50Q4839-665 4839-653L4839-653Q4839-643 4814-641L4814-641L4644-632Q4657-624 4673.50-606Q4690-588 4690-575L4690-575Q4690-568 4684-560L4684-560Q4641-505 4596-462L4596-462L4858-475Q4881-477 4903-484L4903-484Q4905-485 4910-485L4910-485Q4921-485 4943.50-466Q4966-447 4966-434L4966-434Q4966-422 4941-420L4941-420L4128-381L4093-380Q4076-380 4070-385L4070-385Q4052-400 4045-415Q4038-430 4038-437Q4038-444 4044-444ZM4341 38L4343 66L4343 70Q4343 92 4328 92L4328 92Q4312 92 4292.50 78.50Q4273 65 4273 51L4273 51L4273 47Q4274 41 4275 30Q4276 19 4276 10L4276 10Q4276-2 4275-9L4275-9L4253-257Q4249-294 4241-308L4241-308Q4236-318 4236-322L4236-322Q4236-330 4247-330L4247-330Q4265-330 4317-309L4317-309L4704-327L4711-327Q4731-327 4746.50-316.50Q4762-306 4762-290L4762-290Q4762-285 4759-278Q4756-271 4755-267L4755-267L4732-25Q4757 8 4757 20L4757 20Q4757 27 4750.50 29Q4744 31 4731 31L4731 31L4341 38Z" /><path d="M5325.89-893.10L5325.89-893.10Q5330.75-893.10 5333.38-895.53Q5336.01-897.97 5338.04-905.28Q5340.06-912.59 5342.90-927.20L5342.90-927.20Q5369.63-1060.37 5372.46-1072.55L5372.46-1072.55L5373.27-1076.61L5375.70-1085.14Q5375.70-1090.82 5368.62-1094.07Q5361.53-1097.32 5354.64-1097.32L5354.64-1097.32Q5346.54-1097.32 5346.54-1092.85L5346.54-1092.85Q5345.73-1079.45 5342.90-1064.84L5342.90-1064.84L5320.22-933.70L5291.46-1081.48Q5290.65-1085.14 5282.35-1087.98Q5274.04-1090.82 5266.35-1090.82L5266.35-1090.82Q5255.82-1090.82 5255.82-1085.95L5255.82-1085.95Q5255.01-1074.58 5252.17-1062.40L5252.17-1062.40L5227.87-934.10Q5208.83-1068.49 5206.40-1087.98L5206.40-1087.98Q5206.00-1091.63 5200.73-1093.46Q5195.47-1095.29 5189.80-1095.29L5189.80-1095.29Q5176.43-1095.29 5176.43-1087.17L5176.43-1087.17Q5178.46-1080.67 5180.28-1073.77Q5182.10-1066.87 5194.66-992.77Q5207.21-918.68 5207.82-915.63Q5208.43-912.59 5208.83-910.15L5208.83-910.15Q5209.64-905.28 5212.48-902.23Q5215.31-899.19 5221.39-896.35Q5227.46-893.50 5233.13-893.50Q5238.80-893.50 5242.04-896.55Q5245.29-899.59 5249.74-927.20L5249.74-927.20L5273.64-1047.79L5300.77-910.15Q5301.58-905.68 5304.62-902.64Q5307.66-899.59 5313.74-896.35Q5319.81-893.10 5325.89-893.10ZM5539.76-1193.54L5539.76-1193.54L5485.49-1129.39Q5483.06-1126.96 5479.01-1126.96L5479.01-1126.96Q5472.12-1126.96 5464.42-1133.05L5464.42-1133.05Q5458.75-1137.51 5458.75-1142.39L5458.75-1142.39Q5458.75-1142.79 5459.16-1144.01L5459.16-1144.01Q5459.16-1145.63 5461.18-1147.26L5461.18-1147.26L5528.01-1202.88Q5530.85-1204.91 5534.09-1204.91Q5537.33-1204.91 5539.36-1202.47Q5541.38-1200.04 5541.38-1197.81Q5541.38-1195.57 5539.76-1193.54ZM5453.89-1002.31L5453.89-1002.31L5445.79-1002.31Q5451.06-1025.86 5470.50-1049.00L5470.50-1049.00Q5491.56-1073.77 5519.91-1073.77L5519.91-1073.77Q5560.82-1073.77 5560.82-1038.45L5560.82-1038.45Q5560.82-1027.89 5556.37-1022.61Q5551.91-1017.34 5538.14-1013.28Q5524.37-1009.22 5504.12-1005.76Q5483.87-1002.31 5453.89-1002.31ZM5489.94-892.69L5489.94-892.69Q5515.46-892.69 5534.09-900.41L5534.09-900.41Q5570.95-917.86 5583.10-938.98L5583.10-938.98Q5588.77-948.31 5588.77-951.97L5588.77-951.97Q5588.77-956.84 5584.72-956.84L5584.72-956.84Q5581.88-956.84 5575.40-950.75L5575.40-950.75Q5541.79-916.65 5489.94-916.65L5489.94-916.65Q5469.69-916.65 5456.12-932.89Q5442.55-949.13 5442.55-975.52L5442.55-975.52L5442.55-979.58L5447.82-979.58Q5480.22-979.58 5505.33-983.23L5505.33-983.23Q5557.18-991.35 5575.00-1003.13L5575.00-1003.13Q5583.10-1008.00 5585.33-1016.12Q5587.55-1024.24 5587.55-1038.04L5587.55-1038.04Q5587.55-1052.66 5581.48-1066.46Q5575.40-1080.27 5560.42-1088.79Q5545.43-1097.32 5520.32-1097.32L5520.32-1097.32Q5482.25-1097.32 5452.68-1065.24L5452.68-1065.24Q5425.14-1034.39 5419.06-1003.53L5419.06-1003.53L5415.42-1003.13Q5407.72-1003.13 5407.72-997.85L5407.72-997.85Q5407.72-995.01 5410.15-991.35Q5412.58-987.70 5416.23-984.86L5416.23-984.86L5416.23-979.17Q5416.23-952.37 5426.15-932.89Q5436.07-913.40 5452.68-903.05Q5469.29-892.69 5489.94-892.69ZM5800.40-895.53L5800.40-895.53Q5808.10-895.53 5808.10-899.19L5808.10-899.19Q5808.10-913.40 5807.29-931.67L5807.29-931.67Q5806.88-940.19 5806.88-1020.58L5806.88-1020.58Q5806.88-1052.25 5796.76-1071.33L5796.76-1071.33Q5782.99-1096.91 5746.94-1096.91L5746.94-1096.91Q5724.66-1096.91 5704.01-1085.54Q5683.35-1074.18 5669.98-1052.66L5669.98-1052.66L5670.79-1083.92Q5670.79-1089.20 5663.50-1092.24Q5656.21-1095.29 5649.73-1095.29L5649.73-1095.29Q5642.04-1095.29 5642.04-1091.23Q5642.04-1087.17 5642.44-1078.03Q5642.85-1068.90 5643.05-1060.37Q5643.25-1051.85 5643.25-935.73L5643.25-935.73Q5642.44-917.86 5642.44-906.90L5642.44-906.90Q5642.44-901.62 5649.73-898.58Q5657.02-895.53 5663.50-895.53L5663.50-895.53Q5671.20-895.53 5671.20-899.19L5671.20-899.19L5670.79-909.34Q5669.98-922.33 5669.98-939.38L5669.98-939.38L5670.39-954.40Q5670.39-975.92 5672.41-992.98L5672.41-992.98Q5674.44-1026.67 5693.88-1049.00L5693.88-1049.00Q5714.94-1071.74 5746.94-1071.74L5746.94-1071.74Q5767.19-1071.74 5773.67-1057.33Q5780.15-1042.91 5780.15-1018.96L5780.15-1018.96L5780.15-934.10Q5779.75-925.98 5779.75-918.07Q5779.75-910.15 5779.34-906.90L5779.34-906.90Q5779.34-901.62 5786.63-898.58Q5793.92-895.53 5800.40-895.53ZM5386-756Q5386-762 5395.50-776Q5405-790 5415-790L5415-790Q5427-790 5472-760Q5517-730 5556-696Q5595-662 5595-651Q5595-640 5581.50-625.50Q5568-611 5559-611L5559-611Q5551-611 5540-623L5540-623Q5510-654 5477-681Q5444-708 5399-739L5399-739Q5386-748 5386-756L5386-756ZM5338-539Q5371-469 5414.50-399Q5458-329 5501-280L5501-280Q5595-404 5649-557L5649-557L5338-539ZM5730-561Q5698-476 5648.50-388.50Q5599-301 5546-234L5546-234Q5728-61 5943 26L5943 26Q5957 31 5957 38L5957 38Q5957 43 5946.50 55.50Q5936 68 5922 78Q5908 88 5897 88L5897 88Q5894 88 5888 86L5888 86Q5680-13 5504-186L5504-186Q5426-105 5333.50-45Q5241 15 5165.50 47.50Q5090 80 5067 80L5067 80Q5055 80 5055 73L5055 73Q5055 64 5074 54L5074 54Q5188-7 5291.50-82.50Q5395-158 5460-231L5460-231Q5410-288 5361-369.50Q5312-451 5271-535L5271-535L5185-530Q5161-528 5150-528L5150-528Q5133-528 5122-534Q5111-540 5099-560L5099-560Q5094-568 5090-579L5090-579Q5089-581 5089-585L5089-585Q5089-592 5097-592L5097-592L5102-591Q5122-587 5149-587L5149-587L5162-587L5814-626Q5841-628 5865-634L5865-634Q5868-635 5873-635L5873-635Q5885-635 5899-626Q5913-617 5922.50-605.50Q5932-594 5932-588L5932-588Q5932-581 5926.50-577Q5921-573 5913-572L5913-572L5730-561Z" /><path d="M6346.14-894.32L6346.14-894.32Q6350.59-894.32 6355.86-896.95Q6361.12-899.59 6364.97-903.05Q6368.82-906.50 6368.82-909.34L6368.82-909.34Q6368.82-911.37 6366.79-912.18L6366.79-912.18Q6353.43-919.08 6343.71-928.01L6343.71-928.01L6314.95-957.65Q6298.75-974.30 6283.16-990.95Q6267.56-1007.59 6255.82-1018.96L6255.82-1018.96Q6320.62-1064.43 6330.75-1070.52L6330.75-1070.52Q6349.38-1081.08 6349.38-1083.51L6349.38-1083.51Q6349.38-1086.76 6345.33-1089.81Q6341.28-1092.85 6335.61-1094.68Q6329.94-1096.51 6325.08-1096.51Q6320.22-1096.51 6318.19-1094.27Q6316.17-1092.04 6311.91-1087.98Q6307.66-1083.92 6302.39-1080.27L6302.39-1080.27L6226.25-1027.49Q6226.25-1146.04 6227.06-1156.19L6227.06-1156.19L6227.87-1175.68Q6227.87-1180.96 6220.38-1184.00Q6212.88-1187.05 6206.40-1187.05L6206.40-1187.05Q6198.71-1187.05 6198.30-1182.99L6198.30-1182.99Q6198.30-1178.93 6198.71-1169.79Q6199.11-1160.66 6199.31-1152.13Q6199.52-1143.60 6199.52-932.89L6199.52-932.89L6198.71-907.31Q6198.71-902.03 6206.20-898.98Q6213.69-895.94 6220.17-895.94L6220.17-895.94Q6228.27-895.94 6228.27-900L6228.27-900Q6228.27-918.68 6226.65-938.16L6226.65-938.16Q6226.25-941.82 6226.25-998.66L6226.25-998.66L6235.97-1004.75Q6254.60-986.07 6279.31-958.87Q6304.01-931.67 6321.03-913.80L6321.03-913.80Q6340.87-894.32 6346.14-894.32ZM6474.15-917.05L6474.15-917.05Q6436.88-917.05 6436.88-973.08L6436.88-973.08Q6436.88-1016.52 6460.78-1045.15Q6484.68-1073.77 6509.38-1073.77L6509.38-1073.77Q6530.85-1073.77 6543.81-1052.25L6543.81-1052.25Q6545.03-1050.63 6546.65-1050.63L6546.65-1050.63Q6549.89-1050.63 6553.53-1054.28L6553.53-1054.28Q6553.13-1044.54 6553.13-1034.18Q6553.13-1023.83 6552.72-1018.15L6552.72-1018.15Q6551.51-988.10 6539.96-965.16Q6528.42-942.22 6511.00-929.64Q6493.59-917.05 6474.15-917.05ZM6474.55-892.69L6474.55-892.69Q6497.23-892.69 6518.50-906.09Q6539.76-919.49 6554.75-947.91L6554.75-947.91Q6555.96-936.95 6558.59-924.36Q6561.23-911.77 6565.88-903.25Q6570.54-894.72 6576.62-894.72L6576.62-894.72Q6583.50-894.72 6588.97-901.02Q6594.44-907.31 6594.44-911.77L6594.44-911.77L6593.63-914.21Q6579.45-937.35 6579.45-978.36L6579.45-978.36Q6579.45-991.35 6580.67-1024.24L6580.67-1024.24Q6582.29-1066.87 6584.72-1085.54L6584.72-1085.54L6584.72-1086.36Q6584.72-1091.23 6577.02-1094.07Q6569.33-1096.91 6562.44-1096.91L6562.44-1096.91Q6553.94-1096.91 6553.94-1092.85L6553.94-1092.85L6553.94-1070.52Q6540.57-1097.32 6509.38-1097.32L6509.38-1097.32Q6472.53-1097.32 6440.93-1060.17Q6409.34-1023.02 6409.34-971.05L6409.34-971.05Q6409.34-932.89 6427.16-912.79Q6444.98-892.69 6474.55-892.69ZM6499.26-1131.02L6499.26-1131.02Q6512.22-1131.02 6517.08-1135.89L6517.08-1135.89L6521.94-1140.76Q6542.60-1159.44 6559.61-1180.14L6559.61-1180.14Q6564.87-1187.05 6564.87-1189.48L6564.87-1189.48Q6564.87-1195.98 6558.39-1195.98L6558.39-1195.98Q6554.75-1195.98 6552.32-1193.95L6552.32-1193.95Q6542.19-1185.42 6528.42-1176.69Q6514.65-1167.96 6500.47-1158.63L6500.47-1158.63Q6496.02-1161.87 6491.36-1164.92Q6486.70-1167.96 6482.04-1171.01Q6477.39-1174.05 6472.53-1176.90L6472.53-1176.90Q6458.75-1185.42 6448.22-1193.95L6448.22-1193.95Q6446.20-1195.98 6442.96-1195.98L6442.96-1195.98Q6435.67-1195.98 6435.67-1189.48L6435.67-1189.48Q6435.67-1187.86 6440.33-1181.57Q6444.98-1175.27 6452.68-1167.15L6452.68-1167.15Q6468.48-1149.29 6483.87-1134.67L6483.87-1134.67Q6489.54-1131.02 6499.26-1131.02ZM6710.49-925.58L6691.04-925.58Q6671.20-924.77 6662.90-925.17Q6654.59-925.58 6651.35-925.58L6651.35-925.58Q6646.09-925.58 6646.09-918.27L6646.09-918.27Q6646.09-912.18 6650.14-904.87Q6654.19-897.56 6659.86-897.56L6659.86-897.56L6672.01-899.19Q6676.06-899.19 6680.51-899.59L6680.51-899.59Q6706.03-900.41 6748.96-900.41L6748.96-900.41Q6783.80-900.41 6799.19-897.97L6799.19-897.97Q6803.64-897.97 6803.64-904.87L6803.64-904.87Q6803.64-910.96 6799.80-918.68Q6795.95-926.39 6790.68-926.39L6790.68-926.39Q6785.01-925.98 6756.66-925.98L6756.66-925.98L6740.46-925.98Q6740.05-952.37 6740.05-1068.90L6740.05-1068.90Q6740.05-1073.77 6741.47-1076.41Q6742.89-1079.05 6742.89-1082.30L6742.89-1082.30Q6742.89-1085.14 6740.05-1089.60L6740.05-1089.60Q6733.98-1100.97 6725.47-1100.97L6725.47-1100.97Q6717.78-1098.94 6700.36-1097.93Q6682.94-1096.91 6678.49-1096.91Q6674.03-1096.91 6658.64-1099.35L6658.64-1099.35Q6654.19-1099.35 6654.19-1092.45L6654.19-1092.45Q6654.19-1086.36 6658.04-1078.64Q6661.88-1070.93 6667.15-1070.93L6667.15-1070.93Q6672.82-1071.33 6682.94-1071.33Q6693.07-1071.33 6710.89-1073.36L6710.89-1073.36Q6710.89-944.66 6710.49-925.58L6710.49-925.58ZM6724.66-1139.54L6724.66-1139.54Q6733.98-1139.54 6739.24-1145.02Q6744.51-1150.51 6744.51-1158.22L6744.51-1158.22Q6744.51-1167.15 6738.23-1175.27Q6731.95-1183.39 6724.66-1183.39L6724.66-1183.39Q6714.54-1183.39 6709.47-1177.71Q6704.41-1172.02 6704.41-1163.90L6704.41-1163.90Q6704.41-1155.38 6710.69-1147.46Q6716.97-1139.54 6724.66-1139.54ZM6406-399Q6410-407 6413-439.50Q6416-472 6416-488L6416-488L6419-728Q6419-757 6409-771L6409-771Q6406-774 6406-777L6406-777Q6406-783 6416-783L6416-783Q6427-783 6449-776L6449-776Q6467-770 6471.50-763.50Q6476-757 6476-746L6476-746L6475-628L6540-631Q6558-632 6576-638L6576-638Q6580-640 6588-640L6588-640Q6600-640 6617-625Q6634-610 6634-598Q6634-586 6610-584L6610-584L6474-576L6472-443Q6500-451 6507-453L6507-453Q6576-472 6603-483L6603-483Q6624-491 6632-491L6632-491Q6641-491 6641-485L6641-485Q6641-474 6613.50-454Q6586-434 6544-413L6544-413Q6516-399 6486-381L6486-381Q6447-360 6438-359L6438-359Q6428-358 6415-374Q6402-390 6406-399L6406-399ZM6778-13L6785-111L6509-102L6514-6L6778-13ZM6788-163L6794-247L6502-235L6507-151L6788-163ZM6456 47L6456 47L6457 36Q6459 20 6459 7L6459 7L6459-12Q6459-17 6458-24L6458-24L6444-216Q6442-255 6434-276Q6426-297 6426-301L6426-301Q6426-308 6437.50-308Q6449-308 6502-285L6502-285L6542-286Q6611-367 6617-416L6617-416Q6618-427 6626-427Q6634-427 6646-420L6646-420Q6679-404 6679-386Q6679-368 6630-317L6630-317Q6612-299 6602-290L6602-290L6804-300Q6807-301 6819.50-301Q6832-301 6846-285.50Q6860-270 6860-261Q6860-252 6858-247Q6856-242 6855-237L6855-237L6830-15Q6858 12 6858 24Q6858 36 6834 36L6834 36L6517 43L6518 68L6518 70Q6518 85 6502 85L6502 85Q6499 85 6487 81L6487 81Q6456 70 6456 47ZM6069-537L6074-537L6107-533L6113-533Q6117-533 6120-534L6120-534L6216-543L6218-733Q6218-751 6209.50-764Q6201-777 6201-783.50Q6201-790 6212.50-790Q6224-790 6245-782.50Q6266-775 6270.50-768.50Q6275-762 6275-751L6275-751L6273-549L6318-554Q6343-557 6349.50-559.50Q6356-562 6363.50-562Q6371-562 6382-554L6382-554Q6410-534 6410-522Q6410-510 6390-508L6390-508L6272-497L6271-403Q6279-410 6284.50-410Q6290-410 6299-405L6299-405Q6323-392 6385-298L6385-298Q6393-289 6393-278Q6393-267 6377-258Q6361-249 6351.50-249Q6342-249 6330-270L6330-270Q6289-340 6270-361L6270-361L6265 71Q6265 95 6248 95L6248 95Q6242 95 6230 90L6230 90Q6201 77 6201 53L6201 53Q6201 50 6205.50 32Q6210 14 6210-18L6210-18L6210-46Q6213-183 6213-249.50Q6213-316 6216-358L6216-358L6217-372Q6203-324 6190-298L6190-298Q6125-178 6090.50-136Q6056-94 6048-94Q6040-94 6040-103Q6040-112 6060-149L6060-149Q6137-287 6208-490L6208-490L6141-483Q6125-481 6112-481Q6099-481 6091-486L6091-486Q6061-511 6061-530L6061-530Q6061-537 6069-537L6069-537ZM6933-620L6933-620Q6947-620 6947-530L6947-530L6947-497Q6947-460 6941-442Q6935-424 6920-413L6920-413Q6889-392 6787-392L6787-392Q6754-392 6724-395.50Q6694-399 6675.50-417.50Q6657-436 6657-480L6657-480L6657-483L6661-755Q6661-774 6655-784.50Q6649-795 6649-796L6649-796Q6649-803 6661-803Q6673-803 6692-796.50Q6711-790 6714.50-783.50Q6718-777 6718-769L6718-769L6718-767L6716-613Q6804-662 6823-694L6823-694Q6831-708 6834-719Q6837-730 6843-730L6843-730Q6859-730 6877-690L6877-690Q6884-675 6884-666Q6884-657 6875-651L6875-651Q6820-612 6715-561L6715-561L6714-490Q6714-457 6736-450L6736-450Q6746-446 6785-446Q6824-446 6848-449.50Q6872-453 6884.50-466.50Q6897-480 6903.50-508Q6910-536 6916-578Q6922-620 6933-620Z" /></svg>