<svg xmlns="http://www.w3.org/2000/svg" viewBox="66 -1723 9627.0986328125 1896" fill="#000000"><path d="M1216-1219L981-1219L942-834Q932-735 930-725L930-725L1743-725L1846-827Q1907-782 1982-698L1982-698L1936-634L915-634Q830-124 503 171L503 171L445 115Q735-214 796-826L796-826L827-1128Q779-1085 677-1008L677-1008L626-1070Q929-1347 1086-1713L1086-1713Q1286-1688 1280-1632L1280-1632Q1276-1592 1184-1574L1184-1574Q1185-1576 1179-1562L1179-1562Q1160-1532 1171-1548L1171-1548L1469-1548L1558-1641Q1689-1519 1685-1485L1685-1485Q1682-1454 1636-1440L1636-1440L1581-1424Q1499-1333 1470-1310L1470-1310L1796-1310L1908-1432Q1983-1357 2039-1280L2039-1280L1997-1219L1616-1219L1605-1115Q1605-1093 1617-1088L1617-1088Q1632-1083 1706-1083L1706-1083Q1791-1083 1812-1111L1812-1111Q1830-1136 1846-1224L1846-1224L1920-1202Q1915-1114 1919-1102L1919-1102Q1924-1089 1968-1086L1968-1086Q1952-981 1881-961L1881-961Q1834-951 1721-951L1721-951Q1539-951 1499-978L1499-978Q1456-1008 1463-1084L1463-1084L1477-1219L1362-1219Q1315-961 968-867L968-867L940-941Q1188-1046 1216-1219L1216-1219ZM1015-1310L1015-1310L1341-1310Q1413-1401 1441-1457L1441-1457L1113-1457Q1058-1378 1007-1317L1007-1317Q1000-1321 1015-1310ZM1088-225L1088-225L1607-225L1691-298Q1811-206 1808-170L1808-170Q1805-145 1781-132L1781-132L1743-109L1715 167L1574 167L1582 83L1037 83L1029 167L888 167L933-286Q1024-253 1088-225ZM1604-134L1059-134L1047-8L1592-8L1604-134ZM121-1174L180-1232Q426-1124 411-975L411-975Q401-877 314-877L314-877Q258-877 250-946L250-946Q233-1065 121-1174L121-1174ZM313-1607L365-1675Q632-1586 617-1432L617-1432Q607-1332 520-1332L520-1332Q466-1332 455-1411L455-1411Q441-1505 313-1607L313-1607ZM1010-890L1578-890L1671-966Q1683-960 1694-952L1694-952Q1697-949 1699-948L1699-948Q1743-920 1806-864L1806-864L1763-799L1040-799L1010-890ZM952-561L1586-561L1681-642Q1742-602 1816-529L1816-529L1773-470L988-470L952-561ZM938-403L1562-403L1663-482Q1730-437 1797-373L1797-373L1749-312L974-312L938-403ZM687-1402L756-1350L395-394Q353-280 348-234L348-234Q346-214 357-78L357-78Q361-18 357 20L357 20Q342 163 237 163L237 163Q147 163 157 69L157 69L175-14Q204-133 210-191L210-191Q219-286 183-321L183-321Q153-348 66-361L66-361L75-454Q154-442 175-442L175-442Q250-442 300-536L300-536Q452-833 687-1402L687-1402Z" /><path d="M2659-826L2402-826Q2384-762 2340-624L2340-624L2203-658Q2313-1000 2387-1372L2387-1372Q2601-1340 2595-1280L2595-1280Q2591-1239 2502-1220L2502-1220Q2472-1066 2428-917L2428-917L2751-917L2805-1451L2307-1451L2282-1542L2962-1542L3070-1681Q3150-1596 3199-1518L3199-1518L3159-1451L2952-1451L2898-917L2918-917L3011-1051Q3040-1011 3041-1010L3041-1010Q3238-1265 3389-1723L3389-1723Q3593-1677 3587-1616L3587-1616Q3583-1572 3491-1558L3491-1558Q3406-1365 3331-1251L3331-1251L3574-1251Q3669-1436 3752-1703L3752-1703Q3957-1643 3951-1585L3951-1585Q3947-1540 3858-1530L3858-1530Q3772-1376 3680-1251L3680-1251L3878-1251L3985-1384Q4056-1306 4105-1223L4105-1223L4068-1160L3694-1160L3665-872L3789-872L3894-999Q3962-924 4008-844L4008-844L3970-781L3656-781L3625-474L3747-474L3854-599Q3922-527 3972-446L3972-446L3931-383L3616-383L3583-53L3783-53L3904-192Q3975-113 4026-27L4026-27L3986 38L3191 38L3178 167L3031 167L3148-1006Q3143-1000 3087-939L3087-939Q3087-937 3111-888L3111-888L3073-826L2889-826L2811-39Q2792 147 2574 147L2574 147Q2577 85 2525 62L2525 62Q2481 44 2339 24L2339 24L2349-69Q2484-53 2614-53L2614-53Q2665-53 2669-90L2669-90L2727-676Q2517-349 2133-72L2133-72L2083-139Q2458-459 2659-826L2659-826ZM3549-1160L3311-1160L3282-872L3520-872L3549-1160ZM3511-781L3273-781L3242-474L3480-474L3511-781ZM3471-383L3233-383L3200-53L3438-53L3471-383Z" /><path d="M4834-224L4848-361L4497-361L4475-146L4326-146L4470-1578Q4544-1546 4620-1501L4620-1501L4955-1501L5045-1602Q5168-1499 5164-1461L5164-1461Q5162-1438 5133-1417L5133-1417L5096-1390L4979-224L4834-224ZM5941-1463L5463-1463L5429-1118L5724-1118L5812-1222Q5876-1151 5918-1083L5918-1083L5881-1027L5419-1027L5393-762Q5388-716 5379-651L5379-651L5677-651L5765-754Q5828-685 5872-616L5872-616L5835-560L5365-560Q5315-306 5188-131L5188-131Q5057 47 4818 173L4818 173L4765 106Q5009-67 5111-266L5111-266Q5207-457 5238-762L5238-762L5325-1632Q5405-1595 5474-1554L5474-1554L5941-1554L6038-1658Q6166-1550 6162-1514L6162-1514Q6160-1490 6135-1470L6135-1470L6091-1437L5952-47Q5933 143 5692 143L5692 143Q5692 81 5652 65L5652 65Q5598 42 5408 18L5408 18L5418-78Q5601-61 5753-61L5753-61Q5801-61 5805-107L5805-107L5941-1463ZM4506-452L4857-452L4901-896L4550-896L4506-452ZM4559-987L4910-987L4953-1410L4602-1410L4559-987Z" /><path d="M7590-988L7590-988L7526-352L7644-352L7751-485Q7811-424 7883-324L7883-324L7837-261L7517-261L7474 167L7325 167L7368-261L7052-261L7025-352L7377-352L7432-905Q7194-460 6790-136L6790-136L6731-198Q7133-578 7388-1127L7388-1127L6925-1127L6899-1218L7464-1218L7513-1712Q7748-1708 7741-1638L7741-1638Q7736-1595 7647-1567L7647-1567L7613-1218L7998-1218L8125-1373Q8206-1289 8270-1190L8270-1190L8226-1127L7635-1127Q7828-679 8242-322L8242-322Q8158-270 8098-189L8098-189Q7720-572 7590-988ZM6805-1116L6798-1105Q6888-1085 6884-1039L6884-1039Q6880-998 6797-970L6797-970L6683 167L6536 167L6638-852Q6506-661 6351-495L6351-495L6290-546Q6666-1026 6907-1713L6907-1713Q7122-1661 7116-1598L7116-1598Q7111-1551 7015-1538L7015-1538Q6928-1333 6805-1116L6805-1116Z" /><path d="M9292-765L9295-794Q9722-720 9691-416L9691-416Q9650 0 9029 0L9029 0L8387 0L8396-97Q8511-104 8558-121L8558-121Q8610-144 8619-237L8619-237L8720-1243Q8729-1328 8700-1349L8700-1349Q8667-1377 8525-1387L8525-1387L8535-1484L9187-1484Q9388-1484 9521-1416L9521-1416Q9700-1324 9680-1118L9680-1118Q9651-830 9292-765L9292-765ZM8889-1243L8848-831L9052-831Q9467-831 9495-1110L9495-1110Q9522-1378 9138-1378L9138-1378L9068-1378Q9013-1378 8983-1370L8983-1370Q8900-1355 8889-1243L8889-1243ZM9036-717L8836-717L8790-250Q8775-106 8940-106L8940-106L9006-106Q9472-106 9502-407L9502-407Q9533-717 9036-717L9036-717Z" /></svg>