<svg xmlns="http://www.w3.org/2000/svg" viewBox="76 -1729 9665 1929" fill="#000000"><path d="M1169-1226L914-1214L914-829Q914-730 913-720L913-720L1743-761L1831-861Q1884-828 1969-746L1969-746L1929-679L907-628Q873-113 585 187L585 187L530 140Q789-205 789-814L789-814L789-1132Q726-1067 642-995L642-995L591-1048Q871-1342 989-1710L989-1710Q1172-1697 1172-1640L1172-1640Q1172-1598 1083-1576L1083-1576Q1083-1575 1077-1562L1077-1562Q1062-1530 1072-1551L1072-1551L1386-1566L1460-1656Q1592-1551 1592-1514L1592-1514Q1592-1481 1551-1466L1551-1466L1495-1446Q1420-1350 1397-1329L1397-1329L1738-1346L1831-1465Q1902-1404 1968-1328L1968-1328L1932-1265L1549-1245L1549-1141Q1551-1122 1566-1116L1566-1116Q1586-1111 1663-1115L1663-1115Q1757-1120 1776-1152L1776-1152Q1792-1178 1799-1260L1799-1260L1855-1246Q1859-1158 1863-1147L1863-1147Q1870-1132 1915-1131L1915-1131Q1909-1022 1845-1002L1845-1002Q1802-990 1691-984L1691-984Q1514-976 1475-998L1475-998Q1430-1025 1430-1104L1430-1104L1430-1239L1295-1233Q1274-972 955-867L955-867L919-938Q1159-1055 1169-1226L1169-1226ZM944-1306L944-1306L1283-1323Q1348-1421 1370-1474L1370-1474L1024-1457Q974-1372 934-1314L934-1314Q924-1319 944-1306ZM1127-230L1127-230L1657-257L1727-328Q1846-250 1846-211L1846-211Q1846-183 1824-169L1824-169L1787-144L1787 129L1666 135L1666 51L1101 79L1101 163L980 169L980-279Q1057-256 1127-230ZM1666-166L1101-138L1101-12L1666-40L1666-166ZM76-1127L126-1184Q369-1093 369-942L369-942Q369-844 292-841L292-841Q246-838 231-904L231-904Q203-1020 76-1127L76-1127ZM225-1565L269-1634Q529-1563 529-1407L529-1407Q529-1307 452-1304L452-1304Q408-1301 389-1377L389-1377Q366-1469 225-1565L225-1565ZM995-889L1560-917L1643-994Q1643-994 1654-987L1654-987Q1658-982 1662-981L1662-981Q1706-956 1777-903L1777-903L1740-835L1035-800L995-889ZM970-558L1601-590L1684-670Q1737-640 1820-570L1820-570L1782-508L1015-470L970-558ZM972-401L1593-432L1681-510Q1742-475 1817-414L1817-414L1775-350L1017-312L972-401ZM619-1373L677-1336L412-364Q380-246 380-202L380-202Q380-183 403-49L403-49Q414 11 414 50L414 50Q414 193 319 198L319 198Q239 202 239 108L239 108L249 23Q266-95 266-153L266-153Q266-245 226-278L226-278Q191-305 105-314L105-314L105-407Q173-400 196-401L196-401Q280-405 323-504L323-504Q445-807 619-1373L619-1373Z" /><path d="M2636-803L2360-789Q2347-722 2318-588L2318-588L2196-612Q2273-960 2310-1331L2310-1331Q2507-1311 2507-1250L2507-1250Q2507-1207 2420-1184L2420-1184Q2406-1030 2377-881L2377-881L2720-898L2720-1432L2221-1407L2187-1496L2866-1530L2954-1666Q3030-1597 3088-1518L3088-1518L3055-1449L2847-1438L2847-904L2886-906L2958-1032Q2979-1009 2990-993L2990-993Q3172-1272 3276-1729L3276-1729Q3466-1697 3466-1634L3466-1634Q3466-1589 3375-1571L3375-1571Q3309-1372 3247-1258L3247-1258L3508-1271Q3586-1463 3641-1727L3641-1727Q3833-1682 3833-1622L3833-1622Q3833-1576 3745-1561L3745-1561Q3674-1401 3596-1276L3596-1276L3811-1287L3899-1416Q3965-1352 4024-1270L4024-1270L3993-1205L3618-1186L3618-898L3760-905L3846-1028Q3909-967 3965-887L3965-887L3933-823L3618-807L3618-500L3758-507L3846-628Q3909-571 3970-490L3970-490L3935-425L3618-409L3618-79L3836-90L3936-226Q4003-162 4066-75L4066-75L4031-9L3235 31L3235 160L3108 167L3108-1033Q3083-995 3035-936L3035-936Q3033-938 3064-886L3064-886L3032-823L2847-813L2847-26Q2847 160 2649 170L2649 170Q2646 111 2588 90L2588 90Q2541 72 2402 60L2402 60L2402-33Q2527-24 2659-31L2659-31Q2720-34 2720-71L2720-71L2720-691Q2521-316 2178-32L2178-32L2126-90Q2473-431 2636-803L2636-803ZM3493-1180L3235-1167L3235-879L3493-892L3493-1180ZM3493-801L3235-788L3235-481L3493-494L3493-801ZM3493-403L3235-390L3235-60L3493-73L3493-403Z" /><path d="M4857-208L4857-345L4486-326L4486-111L4357-105L4357-1531Q4417-1510 4500-1467L4500-1467L4848-1484L4922-1582Q5043-1495 5043-1454L5043-1454Q5043-1428 5017-1406L5017-1406L4982-1377L4982-214L4857-208ZM5840-1496L5342-1471L5342-1126L5655-1142L5726-1241Q5785-1185 5837-1116L5837-1116L5806-1058L5342-1035L5342-770Q5342-724 5339-659L5339-659L5655-675L5726-773Q5784-719 5837-649L5837-649L5806-591L5334-568Q5310-310 5201-132L5201-132Q5087 55 4875 183L4875 183L4818 123Q5049-65 5130-267L5130-267Q5207-460 5207-763L5207-763L5207-1626Q5273-1602 5349-1563L5349-1563L5829-1587L5909-1689Q6036-1596 6036-1557L6036-1557Q6036-1530 6013-1509L6013-1509L5973-1474L5973-87Q5973 103 5752 114L5752 114Q5745 56 5701 40L5701 40Q5642 19 5455 5L5455 5L5455-91Q5630-84 5782-91L5782-91Q5840-94 5840-140L5840-140L5840-1496ZM4486-417L4857-436L4857-880L4486-861L4486-417ZM4486-952L4857-971L4857-1394L4486-1375L4486-952Z" /><path d="M7496-1047L7496-1047L7496-365L7632-372L7720-501Q7774-454 7857-355L7857-355L7817-290L7496-274L7496 154L7367 161L7367-267L7050-251L7015-341L7367-358L7367-955Q7152-452 6792-120L6792-120L6733-173Q7101-574 7300-1130L7300-1130L6837-1107L6802-1196L7367-1224L7367-1718Q7582-1725 7582-1655L7582-1655Q7582-1610 7496-1578L7496-1578L7496-1231L7899-1251L8005-1403Q8081-1335 8157-1236L8157-1236L8121-1171L7529-1141Q7765-708 8219-371L8219-371Q8136-312 8091-239L8091-239Q7688-591 7496-1047ZM6698-1086L6694-1079Q6785-1064 6785-1016L6785-1016Q6785-972 6705-940L6705-940L6705 194L6578 200L6578-851Q6444-617 6315-455L6315-455L6258-496Q6589-996 6760-1686L6760-1686Q6961-1649 6961-1584L6961-1584Q6961-1536 6866-1518L6866-1518Q6800-1308 6698-1086L6698-1086Z" /><path d="M9655-550L9741-525Q9668-244 9503-103L9503-103Q9343 36 9123 47L9123 47Q8834 62 8644-120L8644-120Q8420-328 8420-703L8420-703Q8420-1077 8648-1320L8648-1320Q8842-1525 9125-1539L9125-1539Q9348-1550 9517-1438L9517-1438Q9560-1411 9578-1412L9578-1412Q9605-1414 9609-1498L9609-1498L9681-1501L9681-1049L9613-1046Q9583-1198 9497-1291L9497-1291Q9360-1437 9136-1426L9136-1426Q8837-1411 8694-1151L8694-1151Q8596-966 8596-728L8596-728Q8596-445 8743-273L8743-273Q8900-87 9150-100L9150-100Q9529-119 9655-550L9655-550Z" /></svg>