<svg xmlns="http://www.w3.org/2000/svg" viewBox="62 -1725 9892 1903" fill="#000000"><path d="M1149-1219L934-1219L934-834Q934-736 933-725L933-725L1729-725L1827-832Q1904-779 1985-698L1985-698L1946-634L927-634Q894-127 586 178L586 178L515 114Q769-212 769-826L769-826L769-1111Q747-1089 639-1001L639-1001L577-1069Q849-1343 971-1715L971-1715Q1192-1687 1192-1632L1192-1632Q1192-1593 1102-1576L1102-1576Q1104-1579 1099-1565L1099-1565Q1083-1536 1090-1548L1090-1548L1371-1548L1457-1648Q1612-1516 1612-1485L1612-1485Q1612-1456 1563-1441L1563-1441L1513-1426Q1442-1337 1410-1310L1410-1310L1723-1310L1828-1440Q1924-1353 1984-1280L1984-1280L1949-1219L1569-1219L1569-1115Q1571-1091 1579-1087L1579-1087Q1592-1083 1663-1083L1663-1083Q1740-1083 1755-1107L1755-1107Q1771-1133 1779-1228L1779-1228L1875-1200Q1879-1112 1885-1098L1885-1098Q1889-1089 1935-1085L1935-1085Q1929-983 1854-962L1854-962Q1806-951 1691-951L1691-951Q1504-951 1457-980L1457-980Q1410-1011 1410-1084L1410-1084L1410-1219L1315-1219Q1294-964 940-864L940-864L903-939Q1139-1043 1149-1219L1149-1219ZM955-1310L955-1310L1266-1310Q1327-1398 1351-1457L1351-1457L1042-1457Q996-1382 949-1316L949-1316Q942-1319 955-1310ZM1135-225L1135-225L1643-225L1724-304Q1866-203 1866-170L1866-170Q1866-148 1842-134L1842-134L1807-112L1807 167L1646 167L1646 83L1121 83L1121 167L960 167L960-290Q1071-252 1135-225ZM1646-134L1121-134L1121-8L1646-8L1646-134ZM62-1175L118-1236Q389-1121 389-975L389-975Q389-877 292-877L292-877Q226-877 210-949L210-949Q182-1068 62-1175L62-1175ZM210-1608L257-1678Q549-1583 549-1432L549-1432Q549-1332 452-1332L452-1332Q388-1332 368-1413L368-1413Q345-1509 210-1608L210-1608ZM977-890L1547-890L1638-970Q1661-958 1674-949L1674-949Q1676-947 1676-947L1676-947Q1725-917 1793-862L1793-862L1757-799L1016-799L977-890ZM952-561L1588-561L1680-646Q1757-599 1836-528L1836-528L1799-470L997-470L952-561ZM954-403L1580-403L1679-486Q1762-434 1832-372L1832-372L1792-312L999-312L954-403ZM606-1410L695-1348L431-394Q400-281 400-234L400-234Q400-213 424-77L424-77Q434-17 434 20L434 20Q434 163 319 163L319 163Q219 163 219 70L219 70L229-13Q246-132 246-191L246-191Q246-289 206-324L206-324Q176-349 85-362L85-362L85-456Q176-442 196-442L196-442Q261-442 301-532L301-532Q424-830 606-1410L606-1410Z" /><path d="M2648-826L2409-826Q2398-764 2367-621L2367-621L2208-660Q2283-998 2320-1374L2320-1374Q2557-1339 2557-1280L2557-1280Q2557-1241 2471-1222L2471-1222Q2456-1068 2427-917L2427-917L2730-917L2730-1451L2232-1451L2199-1542L2879-1542L2980-1690Q3082-1592 3136-1518L3136-1518L3103-1451L2897-1451L2897-917L2898-917L2984-1062Q3030-1007 3020-1023L3020-1023Q3181-1261 3287-1725L3287-1725Q3516-1675 3516-1616L3516-1616Q3516-1573 3425-1560L3425-1560Q3361-1369 3295-1251L3295-1251L3520-1251Q3596-1434 3653-1707L3653-1707Q3883-1641 3883-1585L3883-1585Q3883-1541 3794-1531L3794-1531Q3726-1379 3643-1251L3643-1251L3825-1251L3925-1393Q4017-1302 4071-1222L4071-1222L4041-1160L3668-1160L3668-872L3774-872L3873-1008Q3961-920 4012-843L4012-843L3981-781L3668-781L3668-474L3772-474L3873-607Q3961-523 4017-445L4017-445L3982-383L3668-383L3668-53L3850-53L3963-201Q4055-109 4113-26L4113-26L4078 38L3285 38L3285 167L3118 167L3118-980Q3134-1004 3080-939L3080-939Q3085-933 3111-887L3111-887L3080-826L2897-826L2897-39Q2897 147 2659 147L2659 147Q2656 82 2604 61L2604 61Q2561 43 2412 23L2412 23L2412-70Q2560-53 2689-53L2689-53Q2730-53 2730-90L2730-90L2730-641Q2573-353 2204-65L2204-65L2142-138Q2481-455 2648-826L2648-826ZM3503-1160L3285-1160L3285-872L3503-872L3503-1160ZM3503-781L3285-781L3285-474L3503-474L3503-781ZM3503-383L3285-383L3285-53L3503-53L3503-383Z" /><path d="M4898-224L4898-361L4567-361L4567-146L4398-146L4398-1584Q4494-1544 4571-1501L4571-1501L4893-1501L4978-1608Q5124-1496 5124-1461L5124-1461Q5124-1441 5099-1420L5099-1420L5063-1393L5063-224L4898-224ZM5881-1463L5423-1463L5423-1118L5700-1118L5784-1231Q5868-1147 5915-1082L5915-1082L5884-1027L5423-1027L5423-762Q5423-717 5420-651L5420-651L5700-651L5784-763Q5867-681 5915-615L5915-615L5884-560L5415-560Q5392-309 5279-131L5279-131Q5168 43 4929 178L4929 178L4865 107Q5088-64 5170-263L5170-263Q5248-455 5248-762L5248-762L5248-1638Q5350-1593 5420-1554L5420-1554L5875-1554L5966-1665Q6117-1547 6117-1514L6117-1514Q6117-1493 6094-1473L6094-1473L6054-1440L6054-47Q6054 143 5793 143L5793 143Q5785 79 5748 64L5748 64Q5693 41 5496 17L5496 17L5496-79Q5692-61 5843-61L5843-61Q5881-61 5881-107L5881-107L5881-1463ZM4567-452L4898-452L4898-896L4567-896L4567-452ZM4567-987L4898-987L4898-1410L4567-1410L4567-987Z" /><path d="M7617-941L7617-941L7617-352L7717-352L7817-493Q7896-420 7975-323L7975-323L7935-261L7617-261L7617 167L7448 167L7448-261L7133-261L7097-352L7448-352L7448-861Q7275-464 6892-130L6892-130L6820-198Q7180-574 7383-1127L7383-1127L6920-1127L6884-1218L7448-1218L7448-1712Q7703-1708 7703-1638L7703-1638Q7703-1598 7617-1570L7617-1570L7617-1218L7984-1218L8102-1381Q8203-1285 8275-1189L8275-1189L8239-1127L7648-1127Q7887-675 8332-323L8332-323Q8258-273 8197-180L8197-180Q7768-576 7617-941ZM6820-1120L6812-1103Q6906-1083 6906-1039L6906-1039Q6906-1000 6826-972L6826-972L6826 167L6659 167L6659-821Q6567-664 6420-488L6420-488L6344-547Q6669-1023 6843-1715L6843-1715Q7082-1659 7082-1598L7082-1598Q7082-1552 6987-1539L6987-1539Q6922-1336 6820-1120L6820-1120Z" /><path d="M9954-96L9954 0L9368 0L9368-97Q9548-97 9548-149L9548-149Q9548-198 9529-241L9529-241L9420-506L8878-506L8773-232Q8752-173 8752-147L8752-147Q8752-97 8930-97L8930-97L8930 0L8399 0L8399-97L8436-97Q8567-97 8625-245L8625-245L9129-1507L9220-1507L9734-233Q9786-103 9954-96L9954-96ZM8923-624L9377-624L9149-1195L8923-624Z" /></svg>