<svg xmlns="http://www.w3.org/2000/svg" viewBox="77 -825 5773 906" fill="#000000"><path d="M787-45L787-45Q774-45 760-73L760-73L752-83L726-83Q659-88 643-88L643-88Q634-88 578.50-80Q523-72 514-67L514-67Q486-53 472-53L472-53Q464-53 459-60Q454-67 454-75L454-75Q453-96 457-117Q461-138 459-241L459-241Q458-328 445-352L445-352Q438-365 437-378L437-378Q437-394 449-394L449-394Q456-394 462.50-385Q469-376 483-376L483-376Q495-376 507.50-380.50Q520-385 531-387.50Q542-390 555-390L555-390L560-390Q569-390 578-393L578-393Q634-410 691-415L691-415Q716-417 739-424Q762-431 787-431L787-431Q807-431 826-412Q845-393 846-371L846-371Q846-361 843-352L843-352Q835-328 826-205L826-205Q816-68 802-51L802-51Q797-45 787-45ZM307 10L307 10L287 10Q265 10 243-34L243-34Q233-52 214-70L214-70Q203-79 203-93L203-93Q203-101 215-101L215-101Q240-101 240-91L240-91L240-89Q242-82 258-71Q274-60 283-60L283-60Q288-60 293-76L293-76Q295-82 297-87.50Q299-93 299-95L299-95Q311-158 315.50-215.50Q320-273 320-361L320-361Q320-380 315-385L315-385Q302-385 281-350L281-350L274-339Q233-276 215.50-260Q198-244 134-208L134-208Q123-202 112-195.50Q101-189 88-185L88-185Q86-187 81.50-189.50Q77-192 77-195L77-195Q77-202 94-213L94-213Q131-233 194-304L194-304Q216-329 223-342L223-342Q236-369 250.50-389Q265-409 280-431L280-431Q314-482 314-519L314-519Q314-526 311-532L311-532Q311-547 309-555L309-555Q305-568 299-568L299-568Q294-568 288-559L288-559Q267-527 222-488L222-488Q168-440 143-440L143-440Q130-440 123-452L123-452L129-456Q129-461 134.50-461Q140-461 143-462L143-462Q155-464 184.50-493.50Q214-523 243-558Q272-593 278-607L278-607Q278-624 260-633.50Q242-643 221-650L221-650L182-663Q164-669 164-678L164-678Q164-706 179-706L179-706Q188-706 211.50-692.50Q235-679 239-679L239-679Q252-679 270.50-664Q289-649 301-649L301-649Q319-658 332-692L332-692Q342-719 356-719L356-719Q366-719 380-708.50Q394-698 394-687L394-687Q394-672 365.50-643.50Q337-615 337-601L337-601Q337-581 346-565L346-565Q358-540 358-499L358-499Q358-426 363-383.50Q368-341 368-298L368-298L367-248L361-194Q352-121 343-69L343-69L340-54Q338-43 327.50-19.50Q317 4 307 10ZM678-759L685-763L693-763Q748-734 748-715L748-715Q742-676 734-609L734-609L742-608Q782-616 814-616L814-616L837-616Q873-606 873-585L873-585Q873-569 848-564L848-564Q823-566 806-566L806-566L789-566Q728-563 728-556L728-556L728-551Q725-533 725-530L725-530Q722-467 698-463L698-463Q692-462 688-462L688-462Q676-462 672-479L672-479Q677-491 682-553L682-553Q681-558 678-558L678-558Q629-556 578-543L578-543Q573-542 573-537L573-537L574-485Q574-452 553-448L553-448Q535-448 531-506L531-506L531-523Q531-528 527-533L527-533L433-518L422-518Q409-521 405-539Q401-557 441-562L441-562Q528-575 527-583L527-583L527-608Q527-626 503-664L503-664Q499-670 499-675L499-675L499-677Q499-687 513-691L513-691L517-691Q572-640 572-622L572-622L573-600L573-590L584-590Q681-603 687-606L687-606Q697-606 700-712L700-712Q696-728 678-759L678-759ZM527-109L527-109Q553-109 577-117.50Q601-126 618-126L618-126L618-133Q618-141 618.50-151Q619-161 619-172L619-172Q619-181 621-197.50Q623-214 623-223L623-223Q622-232 602-232L602-232Q585-232 569-225Q553-218 536-218L536-218Q528-218 520-226.50Q512-235 512-242L512-242Q512-254 526-260L526-260Q546-267 594-270L594-270Q611-271 620-275L620-275Q625-288 624-300L624-300Q624-339 621.50-350Q619-361 602-361L602-361Q552-361 499-349L499-349Q496-308 498-186L498-186Q499-125 504.50-117Q510-109 527-109ZM764-117L764-117L765-118Q772-141 771.50-164.50Q771-188 775-206L775-206Q786-259 785-346L785-346Q785-360 781-375L781-375Q776-380 766-380L766-380Q749-380 733.50-376.50Q718-373 701-373L701-373Q692-373 683.50-371.50Q675-370 672-360L672-360L669-352Q669-330 670-321L670-321Q674-294 676-291L676-291L682-291Q691-291 701-293Q711-295 723-295L723-295Q731-295 742-288Q753-281 753-272L753-272Q753-260 744-255L744-255Q730-247 693-244L693-244Q679-243 670-239L670-239Q668-225 669-130L669-130Q677-131 686-131L686-131Q694-131 707-129Q720-127 736-127L736-127Q747-127 751.50-122Q756-117 764-117Z" /><path d="M1213-383L1213-383Q1258-383 1275-479L1275-479Q1276-496 1283.50-511.50Q1291-527 1291-545L1291-545L1286-551Q1274-548 1264.50-545Q1255-542 1245.50-539.50Q1236-537 1229-533Q1222-529 1211-526L1211-526Q1210-500 1208.50-475.50Q1207-451 1207-405L1207-405Q1207-388 1213-383ZM1478-180L1478-180L1482-181Q1489-188 1497-188L1497-188Q1508-193 1526-195L1526-195Q1571-200 1609-210L1609-210Q1643-219 1657-219L1657-219Q1673-219 1679-215L1679-215L1689-215Q1689-233 1690.50-248Q1692-263 1692-278L1692-278Q1692-281 1689-290Q1686-299 1680-299L1680-299Q1665-293 1650.50-290.50Q1636-288 1600.50-288Q1565-288 1529-269L1529-269Q1507-257 1490-257L1490-257Q1486-257 1482.50-259.50Q1479-262 1474-262L1474-262L1473-261L1469-261Q1464-222 1464-198L1464-198Q1464-193 1465-192L1465-192Q1465-180 1478-180ZM1476-304L1481-304Q1509-304 1553-323.50Q1597-343 1623-343L1623-343Q1640-343 1657.50-333.50Q1675-324 1692-324L1692-324L1693-336Q1689-346 1685.50-371Q1682-396 1677-403L1677-403Q1656-409 1643-409L1643-409Q1638-408 1629-404L1629-404L1628-402Q1620-399 1602-395L1602-395Q1517-374 1508-366L1508-366Q1504-363 1499-363L1499-363Q1497-361 1492-361L1492-361L1487-363Q1480-357 1478-349.50Q1476-342 1476-304L1476-304ZM1361-447L1361-447Q1350-447 1346-453Q1342-459 1341-467Q1340-475 1340-484Q1340-493 1339-494L1339-494L1357-493Q1380-494 1403.50-503Q1427-512 1449-512L1449-512Q1449-540 1451.50-566.50Q1454-593 1454-619L1454-619Q1454-627 1451.50-634.50Q1449-642 1447-651L1447-651Q1440-658 1440-675L1440-675Q1440-683 1446-683L1446-683Q1463-683 1482-666Q1501-649 1501-635L1501-635Q1501-612 1494.50-590Q1488-568 1488-545L1488-545Q1488-529 1500-529L1500-529Q1512-529 1521-535L1521-535Q1536-543 1544-545L1544-545Q1549-545 1552-547Q1555-549 1561.50-550Q1568-551 1568.50-567.50Q1569-584 1573-621L1573-621L1574-764Q1546-794 1546-808L1546-808L1550-809Q1563-809 1571.50-802.50Q1580-796 1590-786L1590-786Q1625-777 1625-727L1625-727Q1625-718 1622-709.50Q1619-701 1619-690L1619-690Q1619-673 1632-673L1632-673Q1652-674 1660-679Q1668-684 1680-687L1680-687Q1684-691 1689-691L1689-691Q1699-691 1707-681Q1715-671 1715-661L1715-661Q1715-653 1675-641Q1635-629 1626-628L1626-628Q1610-628 1610-587L1610-587Q1610-562 1613-559L1613-559Q1631-559 1648-563L1648-563Q1711-577 1840-577L1840-577Q1877-577 1877-552L1877-552Q1877-545 1871-533L1871-533Q1866-526 1862-526L1862-526Q1861-526 1858-529L1858-529Q1848-529 1842-525Q1836-521 1833-521L1833-521L1828-522Q1823-531 1740-531L1740-531Q1719-531 1626-516.50Q1533-502 1521-491L1521-491Q1504-483 1481-480L1481-480Q1437-475 1426-468L1426-468Q1404-459 1391.50-458Q1379-457 1366-453L1366-453Q1365-450 1364-449.50Q1363-449 1361-447ZM1695 71L1695 71Q1664 71 1615 11L1615 11L1598-9Q1601-21 1609-21L1609-21Q1622-21 1640.50-8Q1659 5 1672 5L1672 5Q1675 5 1677 4Q1679 3 1683 3Q1687 3 1687-17L1687-17Q1691-49 1692-91L1692-91Q1692-116 1692.50-130Q1693-144 1692-155Q1691-166 1678-166L1678-166Q1573-165 1540-154Q1507-143 1461-143L1461-143Q1461-80 1453-70L1453-70Q1451-59 1451-53L1451-53Q1451-50 1453-46Q1455-42 1455-38L1455-38Q1455-33 1450.50-10.50Q1446 12 1442 16L1442 16Q1438 25 1431 25L1431 25Q1406 17 1406-21L1406-21Q1406-52 1415-80Q1424-108 1424-138L1424-138Q1424-188 1429.50-236.50Q1435-285 1435-335L1435-335Q1435-351 1426-367.50Q1417-384 1417-392L1417-392Q1417-396 1421.50-400Q1426-404 1430-404L1430-404Q1437-404 1443-398L1443-398Q1444-394 1450-392L1450-392Q1453-387 1459-387L1459-387Q1466-387 1472.50-392.50Q1479-398 1485-398L1485-398Q1507-410 1624-445L1624-445Q1646-451 1648.50-451.50Q1651-452 1654-454.50Q1657-457 1662-457L1662-457Q1676-457 1691-454L1691-454Q1696-452 1722.50-429.50Q1749-407 1749-404L1749-404L1747-404Q1741-391 1737-316L1737-316Q1732-265 1732-232L1732-232Q1732-208 1738-107L1738-107Q1738-80 1740.50-53Q1743-26 1743 2L1743 2Q1743 20 1726.50 45.50Q1710 71 1695 71ZM1174-251L1174-251Q1168-251 1161-262.50Q1154-274 1154-281L1154-281Q1159-285 1161-302.50Q1163-320 1164-339.50Q1165-359 1165-377L1165-377Q1164-394 1163-515L1163-515L1140-544Q1124-562 1124-574L1124-574Q1124-582 1133-582L1133-582Q1139-582 1144.50-577.50Q1150-573 1166-567.50Q1182-562 1191-562L1191-562Q1203-562 1203-569L1203-569Q1206-571 1258-581L1258-581Q1302-590 1318-590L1318-590Q1337-590 1347.50-574.50Q1358-559 1358-541L1358-541Q1358-531 1343-516Q1328-501 1328-499L1328-499Q1314-495 1302.50-462.50Q1291-430 1291-411L1291-411Q1291-401 1299-395L1299-395Q1299-392 1301.50-390.50Q1304-389 1304-384L1304-384Q1304-373 1295-363.50Q1286-354 1275-354L1275-354L1265-356Q1249-356 1229-346L1229-346Q1202-332 1202-309L1202-309L1202-283Q1200-259 1193-256L1193-256Q1183-256 1174-251Z" /><path d="M2242-256L2242-256Q2246-256 2253-258L2253-258Q2300-269 2317-298L2317-298Q2327-318 2334-382L2334-382Q2338-406 2338-429L2338-429Q2338-441 2331-441L2331-441Q2329-441 2325-438Q2321-435 2304-428L2304-428Q2253-408 2238-398L2238-398L2239-384Q2239-363 2233.50-339Q2228-315 2228-288L2228-288Q2228-256 2242-256ZM2195-141L2195-141Q2177-141 2177-175L2177-175Q2177-235 2183.50-275Q2190-315 2190-356L2190-356Q2190-364 2186-367L2186-367Q2180-367 2176-359L2176-359Q2149-313 2103-286L2103-286Q2103-284 2083-265L2083-265Q2067-251 2058.50-244.50Q2050-238 2030-238L2030-238Q2016-238 2016-249L2016-249Q2031-257 2068-294L2068-294Q2164-390 2164-421L2164-421L2163-432Q2163-440 2168-447.50Q2173-455 2182-455L2182-455Q2196-455 2226-517Q2256-579 2256-597L2256-597Q2256-616 2233-618L2233-618Q2223-618 2212.50-616.50Q2202-615 2195-615L2195-615Q2162-615 2162-638L2162-638Q2162-648 2200-648L2200-648Q2212-648 2222-654Q2232-660 2244-662L2244-662Q2300-671 2324-683L2324-683Q2359-700 2369-700L2369-700Q2378-700 2389-694.50Q2400-689 2400-680L2400-680Q2400-651 2379.50-651Q2359-651 2337-641L2337-641L2315-631Q2310-631 2307.50-632Q2305-633 2302-633L2302-633Q2295-633 2295-627L2295-627Q2295-620 2300-617Q2305-614 2305-607L2305-607Q2305-574 2253-481L2253-481Q2243-462 2243-457L2243-457Q2243-450 2248-450L2248-450Q2266-450 2296-466.50Q2326-483 2347-483L2347-483Q2360-483 2377.50-466.50Q2395-450 2395-441L2395-441Q2395-417 2385-393.50Q2375-370 2371-345L2371-345L2358-290Q2358-280 2365-273L2365-273Q2367-268 2368.50-264Q2370-260 2370-255L2370-255Q2370-248 2358.50-237.50Q2347-227 2333-227L2333-227L2313-228Q2306-228 2294-225.50Q2282-223 2270-219.50Q2258-216 2247.50-211Q2237-206 2230-199.50Q2223-193 2222-182.50Q2221-172 2219.50-163.50Q2218-155 2213.50-148Q2209-141 2195-141ZM2475-357L2475-357Q2482-357 2498-359Q2514-361 2531-364.50Q2548-368 2560.50-374Q2573-380 2573-388Q2573-396 2575.50-400.50Q2578-405 2578-411L2578-411Q2578-443 2566-443L2566-443Q2554-443 2541.50-436Q2529-429 2515-429L2515-429Q2503-429 2503-448L2503-448Q2503-466 2537.50-472.50Q2572-479 2577.50-486Q2583-493 2583-517L2583-517Q2583-544 2571-544L2571-544Q2551-532 2518-529L2518-529Q2492-527 2469-521L2469-521Q2468-521 2465-491L2465-491Q2461-445 2461-385L2461-385Q2461-375 2463-366Q2465-357 2475-357ZM2643-388L2689-388Q2704-388 2713-392L2713-392Q2715-392 2718-404L2718-404Q2730-449 2730-550L2730-550Q2730-576 2699-576L2699-576Q2656-576 2643-569L2643-569Q2623-558 2623-516L2623-516Q2623-499 2635-499L2635-499Q2644-499 2652-505Q2660-511 2672-511L2672-511Q2681-511 2688.50-500Q2696-489 2696-483L2696-483Q2696-468 2683-466Q2670-464 2655.50-463Q2641-462 2629.50-458.50Q2618-455 2618-437L2618-437L2618-416Q2618-388 2643-388L2643-388ZM2955 37L2955 37Q2951 37 2908 30L2908 30L2878 26Q2848 22 2809-5L2809-5Q2785-20 2759-31L2759-31Q2752-33 2746-39L2746-39Q2733-51 2709-65L2709-65Q2694-74 2682-86Q2670-98 2652-106Q2634-114 2620-127L2620-127Q2576-163 2566-163L2566-163Q2564-162 2552-144L2552-144Q2490-44 2434-27L2434-27Q2421-13 2368 5.50Q2315 24 2297 24L2297 24Q2291 24 2278 20.50Q2265 17 2265 12L2265 12Q2273 3 2327-15L2327-15Q2371-29 2422-66L2422-66Q2479-108 2514-164L2514-164Q2526-183 2526-195L2526-195L2500-219Q2496-222 2484-224.50Q2472-227 2471-233L2471-233Q2463-241 2450-243.50Q2437-246 2423.50-248Q2410-250 2400-255Q2390-260 2390-272L2390-272Q2390-281 2399.50-287.50Q2409-294 2418-294L2418-294Q2433-294 2451.50-284.50Q2470-275 2487.50-264Q2505-253 2519-243.50Q2533-234 2539-234L2539-234Q2545-234 2549-242Q2553-250 2559-282Q2565-314 2565-320L2565-320Q2565-327 2561-328L2561-328Q2559-331 2558-331L2558-331Q2516-325 2466-307L2466-307Q2462-305 2454-305L2454-305Q2443-305 2432-319.50Q2421-334 2421-343L2421-343Q2421-359 2424-376Q2427-393 2427-410L2427-410Q2427-520 2417-530L2417-530Q2414-537 2407-540.50Q2400-544 2400-554L2400-554Q2400-572 2413-572L2413-572Q2424-572 2435.50-561.50Q2447-551 2451-548L2451-548Q2464-561 2504-570L2504-570Q2527-575 2555-584L2555-584Q2577-591 2586-591L2586-591Q2586-679 2559-679L2559-679Q2544-679 2527.50-674Q2511-669 2494-669L2494-669Q2484-669 2469.50-675Q2455-681 2455-692L2455-692Q2455-706 2496-706L2496-706Q2509-706 2551-718L2551-718Q2675-751 2700-751L2700-751Q2734-751 2734-724L2734-724Q2734-714 2730.50-708Q2727-702 2711-702L2711-702Q2688-702 2679-700L2679-700Q2652-695 2639.50-695Q2627-695 2616.50-692.50Q2606-690 2606-684L2606-684Q2606-676 2610-673.50Q2614-671 2618.50-667.50Q2623-664 2626.50-658Q2630-652 2630-638L2630-638Q2630-632 2631.50-626Q2633-620 2633-613L2633-613L2643-611Q2666-611 2689.50-612Q2713-613 2737-613L2737-613Q2754-613 2773-595Q2792-577 2792-565L2792-565Q2792-555 2785-535L2785-535Q2775-503 2775-483L2775-483Q2775-471 2773-462L2773-462Q2766-438 2766-414L2766-414Q2766-329 2734-329L2734-329Q2714-329 2698.50-338Q2683-347 2665-347L2665-347Q2622-347 2616-338L2616-338Q2596-256 2596-251L2596-251Q2596-233 2592-225.50Q2588-218 2586-205L2586-205Q2586-198 2588.50-196Q2591-194 2593-193L2593-193Q2618-182 2621-174L2621-174Q2626-171 2627-169Q2628-167 2634-165L2634-165Q2636-162 2659.50-144Q2683-126 2703-109L2703-109Q2714-101 2728-95.50Q2742-90 2753.50-80.50Q2765-71 2776-63.50Q2787-56 2827.50-42Q2868-28 2884-22L2884-22Q2904-13 2909-13L2909-13Q2919-13 2945.50-1.50Q2972 10 2972 18L2972 18Q2972 37 2955 37Z" /><path d="M3437-420L3437-420L3383-410Q3361-408 3341-408L3341-408Q3316-408 3302-408.50Q3288-409 3286-425L3286-425Q3286-437 3302-440L3302-440Q3439-465 3456-468L3456-468Q3511-482 3532-491Q3553-500 3581-515L3581-515Q3602-527 3620-527L3620-527Q3648-527 3648-502L3648-502Q3648-482 3555-452L3555-452Q3502-435 3498-435L3498-435Q3488-433 3480-431L3480-431Q3484-423 3490-420.50Q3496-418 3500-415L3500-415Q3510-408 3510-369L3510-369Q3515-359 3533-359L3533-359Q3558-359 3581-367Q3604-375 3627-375L3627-375Q3644-375 3665-365Q3686-355 3686-338L3686-338Q3686-321 3659-321L3659-321Q3649-321 3638-323L3638-323L3612-325Q3603-325 3591.50-321.50Q3580-318 3567.50-318Q3555-318 3541.50-315Q3528-312 3512-311L3512-311Q3494-245 3494-218L3494-218Q3494-211 3501-211L3501-211Q3508-211 3512-212L3512-212Q3588-236 3697-236L3697-236Q3796-236 3796-203L3796-203Q3796-182 3770-182L3770-182Q3752-182 3734.50-183.50Q3717-185 3699-185L3699-185Q3633-185 3548-175L3548-175Q3502-169 3494.50-161.50Q3487-154 3483.50-130.50Q3480-107 3480-98L3480-98L3482-97Q3482-43 3523-18L3523-18Q3558 5 3617 5L3617 5Q3744 5 3813-9L3813-9Q3861-18 3865.50-33.50Q3870-49 3871.50-67Q3873-85 3877-112L3877-112Q3885-139 3897-139L3897-139Q3910-139 3915-127.50Q3920-116 3921-79.50Q3922-43 3922-29L3922-29Q3922 5 3901 17.50Q3880 30 3867.50 33.50Q3855 37 3824 41L3824 41Q3759 51 3623 51L3623 51Q3549 51 3495 15L3495 15Q3433-25 3433-100L3433-100Q3433-115 3439-156L3439-156Q3436-159 3431-159L3431-159Q3418-159 3409-157L3409-157L3365-145Q3354-142 3347-141L3347-141Q3301-132 3292-126L3292-126Q3277-120 3216.50-103Q3156-86 3142-86L3142-86Q3126-86 3111.50-94Q3097-102 3097-123L3097-123Q3097-134 3104.50-135.50Q3112-137 3120-137L3120-137Q3125-137 3132-134.50Q3139-132 3148-132L3148-132Q3163-132 3232-154L3232-154Q3308-178 3324-180L3324-180Q3347-184 3369-190L3369-190Q3420-203 3432-203L3432-203Q3442-203 3445-234L3445-234Q3446-245 3447.50-256.50Q3449-268 3450-278.50Q3451-289 3452-291L3452-291L3452-293Q3436-293 3384.50-277.50Q3333-262 3310-262L3310-262Q3291-262 3273-271L3273-271Q3250-280 3250-297L3250-297Q3250-315 3258-315L3258-315L3309-306Q3318-306 3336-310.50Q3354-315 3376.50-321.50Q3399-328 3420.50-335.50Q3442-343 3452-347L3452-347Q3456-357 3459-369Q3462-381 3462-392L3462-392Q3462-404 3437-420ZM3482-562L3482-562Q3474-562 3474-575L3474-575Q3474-580 3477-584L3477-584Q3486-597 3486.50-607.50Q3487-618 3502-633L3502-633Q3512-643 3520-665L3520-665Q3523-675 3530-683L3530-683Q3544-700 3556.50-726Q3569-752 3569-774L3569-774Q3569-788 3561-793Q3553-798 3543.50-800Q3534-802 3526-804Q3518-806 3518-814L3518-814Q3518-825 3536-825L3536-825Q3560-825 3589-815L3589-815Q3623-803 3623-780L3623-780Q3623-767 3608.50-736Q3594-705 3589-697L3589-697L3589-693L3621-706Q3675-706 3703-713L3703-713Q3718-718 3729-718L3729-718Q3737-718 3746.50-708Q3756-698 3756-690L3756-690Q3756-679 3711-672L3711-672Q3682-668 3622-662L3622-662Q3574-658 3562-651Q3550-644 3525-601L3525-601Q3503-562 3482-562ZM3408-494L3408-494Q3390-501 3383-509.50Q3376-518 3371-535.50Q3366-553 3357.50-564Q3349-575 3342-589L3342-589Q3342-593 3352-593L3352-593Q3402-593 3426-534L3426-534Q3426-512 3408-494ZM3209-500L3209-500Q3203-500 3203-511L3203-511Q3203-544 3286-633L3286-633Q3304-653 3313-666L3313-666Q3328-685 3342-721L3342-721Q3349-739 3349-745L3349-745Q3349-751 3341-759Q3333-767 3333-781L3333-781Q3333-794 3341-794L3341-794Q3350-794 3360.50-786.50Q3371-779 3380-774Q3389-769 3396.50-762.50Q3404-756 3404-745L3404-745Q3404-727 3387.50-700.50Q3371-674 3371-670L3371-670L3374-667Q3387-667 3409-680.50Q3431-694 3445-694L3445-694Q3453-694 3466.50-686.50Q3480-679 3480-669L3480-669Q3480-660 3470-654L3470-654Q3449-640 3421-632.50Q3393-625 3375-625L3375-625L3361-625Q3350-625 3333-623L3333-623Q3331-618 3321-608L3321-608Q3304-593 3289.50-577.50Q3275-562 3259-546L3259-546Q3253-540 3248-532L3248-532Q3240-519 3224-508L3224-508Q3212-500 3209-500ZM3675-536L3675-536Q3670-536 3658-542L3658-542Q3650-546 3643-558L3643-558Q3639-564 3618.50-588.50Q3598-613 3598-618L3598-618Q3598-624 3601-629L3601-629L3602-631Q3608-635 3613-635L3613-635Q3622-635 3630-632.50Q3638-630 3646-625L3646-625Q3646-619 3655-610Q3664-601 3674-591.50Q3684-582 3692.50-574Q3701-566 3701-561L3701-561Q3701-551 3693-543.50Q3685-536 3675-536Z" /><path d="M4514 25L4514 25Q4506 25 4499.50 19Q4493 13 4493 6L4493 6L4494-8Q4502-109 4502-258L4502-258Q4502-271 4499.50-279.50Q4497-288 4493.50-293Q4490-298 4487.50-301.50Q4485-305 4485-308L4485-308Q4485-313 4489.50-317.50Q4494-322 4500-322L4500-322Q4511-322 4522-319.50Q4533-317 4543-315L4543-315Q4586-361 4597-378L4597-378Q4609-402 4617-406L4617-406Q4620-411 4635-411L4635-411Q4647-411 4653.50-403Q4660-395 4660-385L4660-385Q4660-377 4638-353.50Q4616-330 4616-324L4616-324L4617-323Q4625-323 4637-325Q4649-327 4662-329Q4675-331 4688-333.50Q4701-336 4709-336.50Q4717-337 4739.50-340.50Q4762-344 4767-344L4767-344Q4788-344 4804-323.50Q4820-303 4820-285L4820-285Q4820-271 4818-256.50Q4816-242 4816-228L4816-228Q4816-98 4821-5L4821-5Q4815 19 4799 19L4799 19Q4783 19 4779.50 13Q4776 7 4771.50 0Q4767-7 4754.50-13Q4742-19 4708-19L4708-19Q4682-19 4656.50-15.50Q4631-12 4605-10L4605-10Q4543-10 4535 5L4535 5L4527 17Q4523 25 4514 25ZM4327 46L4327 46Q4316 46 4310 28L4310 28Q4306 18 4306 2L4306 2Q4306-21 4309.50-44Q4313-67 4314-90L4314-90Q4316-132 4316-174L4316-174Q4315-215 4315-257L4315-257Q4315-281 4314-305Q4313-329 4313-354L4313-354Q4312-359 4312-376L4312-376Q4310-378 4310-380L4310-380Q4298-368 4259-291L4259-291Q4240-259 4197-213L4197-213Q4145-157 4121-157L4121-157Q4107-157 4107-168L4107-168Q4107-179 4149-219L4149-219L4161-230Q4175-244 4209-301L4209-301Q4245-363 4265-404L4265-404Q4291-460 4291-474L4291-474Q4291-480 4285-480L4285-480Q4280-480 4273-477L4273-477Q4230-458 4208-458L4208-458Q4194-458 4181-461.50Q4168-465 4168-484L4168-484Q4168-500 4181-500L4181-500Q4186-500 4191-498Q4196-496 4201-496L4201-496Q4224-496 4249.50-508.50Q4275-521 4298-529L4298-529Q4308-533 4310-540L4310-540Q4318-583 4318-630L4318-630L4317-720Q4317-748 4308.50-763Q4300-778 4300-784L4300-784Q4300-788 4303.50-794Q4307-800 4313-800L4313-800L4333-791Q4348-783 4352-779L4352-779Q4359-772 4359-753L4359-753Q4358-715 4356-676Q4354-637 4354-599L4354-599Q4354-569 4356-558L4356-558Q4359-555 4365-555L4365-555Q4374-555 4382.50-557Q4391-559 4400-559L4400-559Q4430-559 4430-532L4430-532Q4430-521 4421.50-517.50Q4413-514 4381-511L4381-511Q4365-509 4362-498Q4359-487 4359-471L4359-471Q4359-441 4361-426.50Q4363-412 4383-404L4383-404Q4395-399 4418.50-380.50Q4442-362 4442-355L4442-355Q4442-343 4419-329L4419-329Q4405-329 4375-359L4375-359Q4368-366 4363-369L4363-369Q4357-364 4357-288L4357-288Q4360-99 4360-40L4360-40L4361-16Q4361-1 4358.50 12.50Q4356 26 4349.50 36Q4343 46 4327 46ZM4837-405L4837-405Q4807-405 4780-409L4780-409Q4702-424 4690-452L4690-452L4679-479Q4671-501 4671-524L4671-524Q4671-529 4672-545Q4673-561 4673-588L4673-588Q4673-594 4671.50-598Q4670-602 4670-606L4670-606L4670-609Q4676-619 4678-666L4678-666L4678-721Q4678-752 4668-783L4668-783Q4664-788 4664-797L4664-797Q4664-801 4666-807L4666-807L4674-809Q4706-809 4725-777L4725-777Q4720-680 4720-650L4720-650Q4726-650 4739-652L4739-652Q4745-653 4750-653.50Q4755-654 4757-656L4757-656Q4775-660 4797-660L4797-660Q4827-660 4833-658L4833-658Q4845-653 4849-628L4849-628Q4846-609 4818-609L4818-609Q4809-609 4801-611.50Q4793-614 4786-614L4786-614L4716-596Q4714-556 4714-550L4714-550Q4714-483 4744-465L4744-465Q4767-451 4808-451L4808-451Q4838-451 4859.50-460Q4881-469 4881-505L4881-505Q4881-517 4879.50-528.50Q4878-540 4878-550L4878-550Q4878-554 4889-566L4889-566Q4924-535 4924-449L4924-449Q4924-419 4859-411L4859-411Q4848-405 4837-405ZM4487-397L4487-397Q4481-397 4471.50-404Q4462-411 4457-413L4457-413Q4464-513 4469-712L4469-712Q4451-734 4451-743L4451-743Q4451-755 4461-755L4461-755Q4466-755 4472-751.50Q4478-748 4482-746L4482-746Q4496-739 4503-732L4503-732Q4510-722 4510-707L4510-707Q4510-703 4509-695Q4508-687 4508-641L4508-641Q4508-627 4528-627L4528-627Q4542-627 4553-633.50Q4564-640 4578-640L4578-640Q4618-640 4625-621L4625-621Q4620-608 4615-599L4615-599Q4612-597 4605-597L4605-597Q4563-597 4527-585L4527-585Q4513-580 4510-523L4510-523Q4508-512 4508-482L4508-482Q4508-461 4514-461L4514-461Q4520-461 4528-467L4528-467Q4561-488 4580-488L4580-488Q4591-488 4602-492Q4613-496 4624-496L4624-496Q4644-496 4644-485L4644-485Q4644-468 4613-458L4613-458Q4574-446 4567-439L4567-439Q4561-437 4550-430L4550-430Q4497-397 4487-397ZM4545-47L4550-47Q4613-47 4644-58L4644-58Q4650-60 4653-60L4653-60Q4677-60 4694-62Q4711-64 4728-64L4728-64Q4742-64 4758-57L4758-57Q4770-57 4772-80L4772-80L4771-112Q4771-157 4768-163L4768-163Q4761-167 4739-167Q4717-167 4703-168L4703-168Q4688-168 4676-166L4676-166Q4670-164 4649-161L4649-161Q4550-144 4545.50-139.50Q4541-135 4541-102L4541-102L4541-74Q4541-53 4545-47L4545-47ZM4554-185L4554-185Q4558-185 4609.50-194.50Q4661-204 4666-207L4666-207Q4680-207 4704-209L4704-209Q4735-212 4736-213L4736-213Q4744-213 4750.50-211.50Q4757-210 4764-210L4764-210Q4767-210 4768.50-212.50Q4770-215 4770.50-225.50Q4771-236 4771-241L4771-241Q4771-263 4770-274L4770-274Q4767-293 4746-293L4746-293L4714-293Q4664-293 4642-282L4642-282Q4625-282 4608-278L4608-278Q4570-268 4557-263L4557-263Q4548-259 4548-248Q4548-237 4541-229L4541-229L4538-218Q4540-209 4541-197Q4542-185 4554-185Z" /><path d="M5438-819L5438-819L5443-819Q5494-785 5494-771L5494-771Q5498-757 5498-747L5498-747L5501-625Q5501-621 5508-617L5508-617L5515-617Q5601-637 5621-637L5621-637L5629-637Q5685-626 5686-585L5686-585Q5686-575 5628-455L5628-455Q5653-449 5762-439L5762-439Q5800-439 5843-385L5843-385Q5847-385 5850-369L5850-369L5850-366Q5843-344 5799-262L5799-262Q5750-127 5723-127L5723-127L5707-127Q5693-127 5626-207L5626-207Q5602-226 5602-235L5602-235Q5606-246 5610-247L5610-247L5614-247Q5618-247 5654-220L5654-220Q5692-190 5702-190L5702-190L5705-190Q5742-243 5768-316L5768-316Q5774-335 5789-365L5789-365Q5789-389 5723-393L5723-393Q5676-399 5650-399L5650-399Q5521-399 5502-377L5502-377Q5497-354 5494-227L5494-227L5493-226Q5499 81 5471 81L5471 81Q5447 81 5437 36L5437 36L5437 28Q5447-42 5446-100L5446-100L5446-146Q5449-180 5449-184L5449-184L5448-225Q5454-328 5453-367L5453-367L5447-370L5433-370Q5326-350 5287-332L5287-332L5227-320Q5189-327 5188-354L5188-354Q5190-359 5258-370L5258-370Q5313-393 5396-409L5396-409Q5398-413 5449-423L5449-423Q5456-434 5455-451L5455-451L5453-548Q5453-552 5445-556L5445-556Q5408-552 5360-540L5360-540Q5321-553 5310-569L5310-569Q5312-589 5324-589L5324-589Q5345-585 5363-585L5363-585Q5452-599 5452-605L5452-605Q5456-613 5455-631L5455-631L5455-664Q5454-678 5456-688L5456-688Q5454-699 5454-712L5454-712L5453-739Q5453-763 5428-794L5428-794L5428-799Q5433-819 5438-819ZM5647-759L5647-759Q5677-752 5721-722L5721-722Q5802-682 5803-656L5803-656Q5803-623 5768-641L5768-641Q5752-641 5676-705L5676-705Q5637-728 5637-749L5637-749Q5637-751 5647-759ZM5499-542L5499-542L5501-447Q5501-443 5508-439L5508-439L5527-439Q5579-439 5591-464L5591-464Q5608-499 5624-575L5624-575Q5626-580 5618-583L5618-583Q5605-589 5591-589L5591-589L5583-589Q5574-589 5511-565L5511-565Q5498-557 5499-542Z" /></svg>