<svg xmlns="http://www.w3.org/2000/svg" viewBox="31 -825 6563 1114" fill="#000000"><path d="M679-284L678-281Q661-219 628.50-164Q596-109 557-64Q518-19 480 13Q442 45 413 62.50Q384 80 372 80L372 80Q366 80 366 76L366 76Q366 67 388 46L388 46Q465-26 514.50-95Q564-164 592.50-233.50Q621-303 634-375.50Q647-448 650-527.50Q653-607 653-696L653-696L653-738Q653-748 650-760Q647-772 639-783L639-783Q633-791 633-796L633-796Q633-803 644-803L644-803Q653-803 671-798.50Q689-794 704.50-785Q720-776 720-762L720-762Q720-662 715-563.50Q710-465 699-383L699-383Q749-243 821-141.50Q893-40 980 24L980 24Q995 36 995 41L995 41Q995 46 984 55.50Q973 65 959 72.50Q945 80 937 80L937 80Q932 80 904.50 55.50Q877 31 838-15.50Q799-62 756.50-129.50Q714-197 679-284L679-284ZM451-475L306-462L306-403Q317-412 325-412L325-412Q332-412 349.50-399Q367-386 388-366Q409-346 428.50-324.50Q448-303 460.50-286Q473-269 473-263L473-263Q473-250 458-237Q443-224 435-224L435-224Q424-224 412-241L412-241Q387-275 358.50-306.50Q330-338 306-361L306-361L306 65Q306 93 288 93L288 93Q283 93 270.50 87Q258 81 248 71Q238 61 238 50L238 50Q238 48 238.50 46Q239 44 239 43L239 43Q242 28 243.50 5.50Q245-17 245-37L245-37Q245-37 245-64.50Q245-92 245-133.50Q245-175 245.50-219Q246-263 246-296L246-296Q246-310 247-326Q248-342 249-354Q250-366 250-366L250-366Q230-314 199-263Q168-212 134.50-170.50Q101-129 74-104.50Q47-80 36-80L36-80Q31-80 31-86L31-86Q31-96 46-117L46-117Q96-184 143-270Q190-356 231-455L231-455L143-447Q131-446 121.50-444.50Q112-443 104-443L104-443Q88-443 77-455Q66-467 60.50-479.50Q55-492 54-494L54-494Q53-496 53-499L53-499Q53-505 59-505L59-505Q62-505 64-504L64-504Q72-502 81.50-501Q91-500 101-500L101-500Q106-500 111-500Q116-500 121-501L121-501L247-513L248-643Q226-636 192.50-625.50Q159-615 129-607.50Q99-600 87-600L87-600Q72-600 72-609L72-609Q72-619 92-626L92-626Q163-654 224-684Q285-714 326.50-741Q368-768 377-786L377-786Q382-795 388-795L388-795Q395-795 407-783Q419-771 429-756Q439-741 439-732L439-732Q439-725 429-719L429-719Q368-689 306-665L306-665L306-518L371-524Q391-526 409-534L409-534Q413-536 417-536L417-536Q425-536 438.50-527.50Q452-519 462.50-507.50Q473-496 473-488L473-488Q473-482 466.50-479Q460-476 451-475L451-475ZM762-345L762-345Q749-335 743-335L743-335Q737-335 737-341L737-341Q737-350 747-364L747-364Q774-405 794.50-448Q815-491 826.50-526.50Q838-562 838-580L838-580Q838-585 837.50-589.50Q837-594 836-598L836-598Q836-600 835.50-601.50Q835-603 835-604L835-604Q835-616 845-616L845-616Q850-616 866.50-608Q883-600 898-587.50Q913-575 913-562L913-562Q913-555 902-531.50Q891-508 871-477Q851-446 824.50-412.50Q798-379 767-350L767-350Q766-349 764.50-348Q763-347 762-345ZM596-374L596-374Q596-363 585.50-356.50Q575-350 563.50-347.50Q552-345 550-345L550-345Q537-345 529-369L529-369Q516-418 498-467Q480-516 463-553L463-553Q462-557 460.50-560.50Q459-564 459-567L459-567Q459-577 467-582.50Q475-588 484-590Q493-592 496-592L496-592Q508-592 518-573L518-573Q524-560 537-531Q550-502 563.50-468.50Q577-435 586.50-408.50Q596-382 596-374Z" /><path d="M1477-4L1477-731Q1477-747 1472-759Q1467-771 1459-782L1459-782Q1455-787 1455-793L1455-793Q1455-800 1467-800L1467-800Q1478-800 1497-795Q1516-790 1531.50-781Q1547-772 1547-760L1547-760L1546-544Q1580-491 1613-445L1613-445Q1654-476 1694.50-512.50Q1735-549 1763-583Q1791-617 1794-640L1794-640Q1795-654 1805-654L1805-654Q1814-654 1826.50-642.50Q1839-631 1849-616.50Q1859-602 1859-593L1859-593Q1859-586 1836.50-562Q1814-538 1780-507.50Q1746-477 1710-447.50Q1674-418 1646-398L1646-398Q1716-304 1797.50-227Q1879-150 1974-95L1974-95Q1991-87 1991-79L1991-79Q1991-73 1979-62.50Q1967-52 1952.50-44Q1938-36 1930-36L1930-36Q1924-36 1916-41L1916-41Q1700-199 1546-438L1546-438L1545-12Q1545-2 1545.50 7.50Q1546 17 1546 26L1546 26Q1546 39 1542.50 49.50Q1539 60 1527 70L1527 70Q1513 81 1498 81L1498 81Q1484 81 1457.50 69.50Q1431 58 1400.50 40.50Q1370 23 1342.50 3.50Q1315-16 1297-32.50Q1279-49 1279-57L1279-57Q1279-66 1290-66L1290-66Q1299-66 1309-61L1309-61Q1354-40 1394-26Q1434-12 1477-4L1477-4ZM1327-484L1178-474Q1169-473 1161.50-472.50Q1154-472 1147-472L1147-472Q1137-472 1123-479Q1109-486 1092-521L1092-521Q1089-527 1089-530L1089-530Q1089-535 1097-535L1097-535Q1099-535 1101-534.50Q1103-534 1105-534L1105-534Q1126-531 1144-531L1144-531L1157-531L1352-545L1364-545Q1382-545 1397.50-533.50Q1413-522 1413-508L1413-508Q1413-498 1407-491Q1401-484 1400-481L1400-481Q1354-339 1276-229Q1198-119 1078-36L1078-36Q1065-27 1057-27L1057-27Q1046-27 1046-37L1046-37Q1046-48 1059-60L1059-60Q1159-156 1226-260.50Q1293-365 1327-484L1327-484Z" /><path d="M2931-272L2127-237L2112-237Q2090-237 2075-243.50Q2060-250 2050-282L2050-282Q2049-284 2049-288L2049-288Q2049-293 2055-293L2055-293Q2059-293 2061-292L2061-292Q2071-290 2085-288Q2099-286 2110-286L2110-286L2115-286L2464-303L2465-358L2288-349L2271-349Q2260-349 2250-350.50Q2240-352 2235-356L2235-356Q2222-367 2215-382.50Q2208-398 2208-400L2208-400Q2208-405 2213-405L2213-405Q2215-405 2221-403L2221-403Q2239-398 2265-398L2265-398L2274-398L2465-407L2466-459L2315-451Q2310-451 2305-450.50Q2300-450 2295-450L2295-450Q2271-450 2263-455L2263-455Q2247-466 2241-482Q2235-498 2235-499L2235-499Q2235-504 2240-504L2240-504Q2242-504 2244-503.50Q2246-503 2249-502L2249-502Q2254-501 2264-500Q2274-499 2283-499L2283-499L2294-499L2466-508L2467-569L2195-555Q2188-555 2182-554.50Q2176-554 2170-554L2170-554Q2150-554 2138-563.50Q2126-573 2121-584Q2116-595 2116-600L2116-600Q2116-607 2123-607L2123-607Q2126-607 2128-606L2128-606Q2136-604 2150-602Q2164-600 2176-600L2176-600L2182-600L2468-616L2468-675L2314-666L2302-666Q2280-666 2267-673Q2254-680 2240-708L2240-708Q2238-714 2238-715L2238-715Q2238-720 2244-720L2244-720Q2248-720 2251-719L2251-719Q2259-717 2272-715.50Q2285-714 2294-714L2294-714L2301-714L2469-724L2469-752Q2469-771 2465.50-787.50Q2462-804 2457-811L2457-811Q2452-818 2452-821L2452-821Q2452-825 2461-825L2461-825Q2473-825 2494-819L2494-819Q2515-814 2522-808Q2529-802 2529-789L2529-789L2528-728L2707-739Q2711-740 2718-740L2718-740Q2735-740 2749-725.50Q2763-711 2763-702L2763-702Q2763-695 2759-689.50Q2755-684 2754-676L2754-676L2748-632L2792-634Q2805-635 2820-638.50Q2835-642 2844-646L2844-646Q2848-648 2855-648L2855-648Q2861-648 2874-641Q2887-634 2898-624.50Q2909-615 2909-605L2909-605Q2909-598 2901-595Q2893-592 2880-591L2880-591L2741-584L2733-522Q2747-508 2753-499Q2759-490 2759-485L2759-485Q2759-478 2750-476.50Q2741-475 2730-474L2730-474L2526-463L2525-410L2670-417Q2685-418 2696-420.50Q2707-423 2716-427L2716-427Q2719-428 2721.50-428.50Q2724-429 2726-429L2726-429Q2736-429 2748.50-421Q2761-413 2771-403Q2781-393 2781-386L2781-386Q2781-380 2773.50-377Q2766-374 2755-373L2755-373L2525-361L2524-306L2841-321Q2858-322 2871-325.50Q2884-329 2896-333L2896-333Q2902-336 2907-336L2907-336Q2913-336 2926-327.50Q2939-319 2949.50-308Q2960-297 2960-288L2960-288Q2960-281 2952-277Q2944-273 2931-272L2931-272ZM2687-628L2693-688L2528-678L2527-619L2687-628ZM2676-519L2682-581L2527-572L2526-511L2676-519ZM2733 59L2346 68L2348 90L2348 93Q2348 110 2332 110L2332 110Q2320 110 2300.50 99.50Q2281 89 2281 68L2281 68Q2281 66 2281.50 64Q2282 62 2282 60L2282 60Q2283 52 2283.50 44Q2284 36 2284 28L2284 28Q2284 23 2284 17Q2284 11 2283 4L2283 4L2267-147Q2266-160 2261-171Q2256-182 2252-188L2252-188Q2245-199 2245-203L2245-203Q2245-211 2258-211L2258-211Q2274-211 2326-196L2326-196L2711-214Q2714-214 2716.50-214.50Q2719-215 2721-215L2721-215Q2744-215 2756-199.50Q2768-184 2768-178L2768-178Q2768-171 2764.50-165Q2761-159 2760-152L2760-152L2736 4Q2752 20 2758.50 30.50Q2765 41 2765 47L2765 47Q2765 55 2755.50 56.50Q2746 58 2733 59L2733 59ZM2691-105L2698-163L2324-147L2330-92L2691-105ZM2678 9L2685-53L2335-41L2341 16L2678 9Z" /><path d="M3792-122L3790-122L3642-114L3641 66Q3641 94 3623 94L3623 94Q3615 94 3603 87.50Q3591 81 3581.50 71.50Q3572 62 3572 53L3572 53Q3572 51 3572.50 49Q3573 47 3573 45L3573 45Q3576 22 3578 2Q3580-18 3580-36L3580-36L3580-111L3525-108Q3515-107 3507-107Q3499-107 3492-107L3492-107Q3468-107 3457-115L3457-115Q3444-125 3436.50-140.50Q3429-156 3429-161L3429-161Q3429-166 3435-166L3435-166Q3440-166 3443-165L3443-165Q3454-163 3464-161.50Q3474-160 3483-160L3483-160Q3487-160 3490.50-160.50Q3494-161 3497-161L3497-161L3581-165Q3581-165 3581-185.50Q3581-206 3581.50-238.50Q3582-271 3582-307Q3582-343 3582-374L3582-374Q3582-394 3583-419Q3584-444 3585-462.50Q3586-481 3586-481L3586-481Q3570-423 3539.50-363Q3509-303 3472-248.50Q3435-194 3399.50-151Q3364-108 3337-83Q3310-58 3299-58L3299-58Q3293-58 3293-65L3293-65Q3293-76 3308-95L3308-95Q3373-178 3433.50-284.50Q3494-391 3541-518L3541-518L3417-511Q3405-510 3395.50-509.50Q3386-509 3378-509L3378-509Q3358-509 3345-520.50Q3332-532 3326-545Q3320-558 3320-561L3320-561Q3320-567 3327-567L3327-567Q3332-567 3335-566L3335-566Q3346-564 3355.50-563Q3365-562 3375-562L3375-562L3388-562L3583-573L3584-743Q3584-754 3582-764Q3580-774 3572-784L3572-784Q3566-793 3566-798L3566-798Q3566-806 3579-806L3579-806Q3588-806 3603.50-802Q3619-798 3631.50-790.50Q3644-783 3644-771L3644-771L3643-576L3794-585Q3810-586 3821.50-588Q3833-590 3843-594L3843-594Q3845-595 3851-595L3851-595Q3860-595 3874-587Q3888-579 3898.50-568Q3909-557 3909-549L3909-549Q3909-540 3891-538L3891-538L3657-525Q3732-401 3809-309Q3886-217 3974-141L3974-141Q3987-131 3987-123L3987-123Q3987-120 3979.50-111Q3972-102 3960.50-94Q3949-86 3938-86L3938-86Q3929-86 3921-93L3921-93Q3855-158 3797.50-229Q3740-300 3682-385L3682-385Q3673-398 3660.50-424.50Q3648-451 3640-470L3640-470Q3640-470 3640.50-455Q3641-440 3642-419Q3643-398 3643-381L3643-381Q3643-350 3642.50-313Q3642-276 3642-243Q3642-210 3642-189Q3642-168 3642-168L3642-168L3693-171Q3718-172 3742-181L3742-181Q3744-182 3749-182L3749-182Q3759-182 3772.50-174Q3786-166 3797-155.50Q3808-145 3808-135L3808-135Q3808-124 3792-122L3792-122ZM3193-23L3197-453Q3162-406 3129-369.50Q3096-333 3072-312.50Q3048-292 3039-292L3039-292Q3033-292 3033-299L3033-299Q3033-309 3046-326L3046-326Q3102-401 3145-472Q3188-543 3217.50-602.50Q3247-662 3262.50-702.50Q3278-743 3278-756L3278-756Q3278-767 3275-777L3275-777Q3274-779 3274-782L3274-782Q3274-791 3286-791L3286-791Q3297-791 3312-784.50Q3327-778 3338.50-767.50Q3350-757 3350-746L3350-746Q3350-737 3336.50-703.50Q3323-670 3301-625.50Q3279-581 3253-538L3253-538L3253 65Q3253 84 3236 84L3236 84Q3231 84 3219 80.50Q3207 77 3197 68Q3187 59 3187 45L3187 45Q3187 42 3187 39Q3187 36 3188 33L3188 33Q3190 19 3191.50 6Q3193-7 3193-23L3193-23Z" /><path d="M4299-369Q4354-369 4388.50-401.50Q4423-434 4423-487L4423-487Q4423-541 4388-572.50Q4353-604 4280-604L4280-604L4179-604L4179-369L4299-369ZM4109 0L4109-658L4292-658Q4384-658 4437.50-615.50Q4491-573 4491-500L4491-500Q4491-453 4467-413.50Q4443-374 4402-350L4402-350Q4464-331 4499-288Q4534-245 4534-186L4534-186Q4534-131 4505-89Q4476-47 4422-23.50Q4368 0 4296 0L4296 0L4109 0ZM4179-54L4307-54Q4379-54 4420-90Q4461-126 4461-186L4461-186Q4461-247 4416.50-282Q4372-317 4287-317L4287-317L4179-317L4179-54Z" /><path d="M4662 0L4662-409L4718-420L4728-330Q4789-419 4871-419L4871-419Q4916-419 4944-397L4944-397L4915-340Q4904-349 4886.50-354Q4869-359 4851-359L4851-359Q4817-359 4787.50-339Q4758-319 4730-279L4730-279L4730 0L4662 0Z" /><path d="M5053 0L5053-409L5121-420L5121 0L5053 0ZM5039-583Q5039-604 5052-617Q5065-630 5087-630L5087-630Q5108-630 5121.50-617Q5135-604 5135-583L5135-583Q5135-562 5121.50-549Q5108-536 5087-536L5087-536Q5065-536 5052-549Q5039-562 5039-583L5039-583Z" /><path d="M5428 289Q5352 289 5303 255.50Q5254 222 5254 167L5254 167Q5254 128 5281 89.50Q5308 51 5361 20L5361 20Q5284 2 5284-52L5284-52Q5284-79 5299.50-101.50Q5315-124 5346-144L5346-144Q5314-164 5296.50-195.50Q5279-227 5279-266L5279-266Q5279-310 5302.50-346Q5326-382 5366.50-402Q5407-422 5456-422L5456-422Q5509-422 5549-399L5549-399L5681-407L5681-363L5591-363Q5619-327 5619-277L5619-277Q5619-232 5596.50-196Q5574-160 5533.50-139.50Q5493-119 5443-119L5443-119Q5412-119 5383-128L5383-128Q5343-102 5343-74L5343-74Q5343-55 5358-45Q5373-35 5402-29.50Q5431-24 5486-18L5486-18Q5552-11 5589.50-1.50Q5627 8 5649.50 30.50Q5672 53 5672 95L5672 95Q5672 149 5639 193.50Q5606 238 5550 263.50Q5494 289 5428 289L5428 289ZM5324 153Q5324 195 5357 219.50Q5390 244 5445 244L5445 244Q5489 244 5526 227Q5563 210 5584.50 180.50Q5606 151 5606 116L5606 116Q5606 85 5590.50 70Q5575 55 5544.50 48Q5514 41 5450 34L5450 34L5411 30Q5324 83 5324 153L5324 153ZM5344-273Q5344-226 5374.50-195.50Q5405-165 5453-165L5453-165Q5499-165 5527.50-193.50Q5556-222 5556-267L5556-267Q5556-315 5525-345.50Q5494-376 5445-376L5445-376Q5400-376 5372-347.50Q5344-319 5344-273L5344-273Z" /><path d="M6086-240Q6086-301 6059-334.50Q6032-368 5982-368L5982-368Q5947-368 5912-351Q5877-334 5851-300L5851-300L5851 0L5784 0L5784-704L5851-717L5851-352Q5884-386 5926-403Q5968-420 6010-420L6010-420Q6075-420 6114.50-378Q6154-336 6154-263L6154-263L6154 0L6086 0L6086-240Z" /><path d="M6469 7Q6413 7 6378-27Q6343-61 6343-120L6343-120L6343-358L6259-358L6264-403L6345-404L6366-502L6412-511L6412-405L6575-407L6572-357L6412-358L6412-131Q6412-89 6431.50-66.50Q6451-44 6487-44L6487-44Q6532-44 6574-77L6574-77L6594-44Q6540 7 6469 7L6469 7Z" /></svg>