<svg xmlns="http://www.w3.org/2000/svg" viewBox="109 -1692 8016 1839" fill="#000000"><path d="M1201-992L1201-992Q1118-844 1010-709L1010-709L967-738Q1208-1123 1309-1690L1309-1690Q1500-1650 1500-1610L1500-1610Q1500-1585 1422-1569L1422-1569Q1378-1395 1326-1262L1326-1262L1672-1262L1749-1371Q1837-1302 1861-1277L1861-1277Q1882-1256 1882-1242L1882-1242Q1882-1230 1861-1213L1861-1213L1807-1173Q1742-701 1528-382L1528-382Q1686-172 1962-15L1962-15Q1898 40 1860 104L1860 104Q1619-66 1461-289L1461-289Q1230 4 867 143L867 143L838 98Q1196-74 1399-382L1399-382Q1343-481 1289-634L1289-634Q1227-815 1201-992ZM1248-1084L1248-1084Q1302-757 1461-482L1461-482Q1633-783 1684-1211L1684-1211L1305-1211Q1285-1159 1248-1084ZM826-985L826-985Q517-906 240-864L240-864Q222-797 201-797L201-797Q164-797 134-965L134-965Q201-969 336-981L336-981Q418-1232 451-1448L451-1448L127-1448L109-1499L820-1499L918-1630Q995-1559 1047-1489L1047-1489L1020-1448L605-1448Q582-1380 510-1214L510-1214Q447-1072 402-987L402-987Q566-1000 803-1036L803-1036Q748-1147 648-1247L648-1247L678-1282Q979-1095 979-924L979-924Q979-846 912-846L912-846Q865-846 850-916L850-916Q840-955 826-985ZM496-156L496-156L496-500L178-500L160-551L496-551L496-848Q693-842 693-799L693-799Q693-777 613-750L613-750L613-551L773-551L863-670Q932-606 984-539L984-539L959-500L613-500L613-178Q820-221 1031-281L1031-281L1041-228Q640-80 240 12L240 12Q224 90 201 90L201 90Q161 90 109-97L109-97Q289-120 496-156Z" /><path d="M2204-827L3652-827L3777-979Q3872-896 3941-813L3941-813L3916-772L2222-772L2204-827Z" /><path d="M4287-862L5051-862L5051-1235Q5258-1228 5258-1181L5258-1181Q5258-1156 5172-1122L5172-1122L5172-862L5706-862L5813-997Q5883-940 5958-850L5958-850L5932-811L5196-811Q5522-386 6030-183L6030-183Q5962-127 5921-58L5921-58Q5434-315 5172-756L5172-756L5172 147L5051 147L5051-682Q4761-258 4238-2L4238-2L4203-52Q4706-337 4983-811L4983-811L4307-811L4287-862ZM4457-1362L5051-1362L5051-1690Q5256-1684 5256-1641L5256-1641Q5256-1615 5172-1581L5172-1581L5172-1362L5799-1362L5885-1464Q6040-1321 6040-1280L6040-1280Q6040-1262 6009-1256L6009-1256L5936-1241Q5859-1149 5727-1043L5727-1043L5686-1078Q5769-1210 5809-1311L5809-1311L4461-1311L4461-1305Q4461-1155 4420-1063L4420-1063Q4374-961 4308-961L4308-961Q4232-961 4232-1033L4232-1033Q4232-1064 4281-1117L4281-1117Q4385-1230 4391-1446L4391-1446L4445-1442Q4454-1396 4457-1362L4457-1362Z" /><path d="M7422-1065L7422-1065L7422-332L7561-332L7651-459Q7706-408 7776-322L7776-322L7750-281L7422-281L7422 147L7303 147L7303-281L6981-281L6961-332L7303-332L7303-979Q7083-474 6723-160L6723-160L6682-199Q7033-565 7246-1147L7246-1147L6768-1147L6748-1198L7303-1198L7303-1692Q7508-1688 7508-1638L7508-1638Q7508-1611 7422-1583L7422-1583L7422-1198L7828-1198L7936-1347Q8013-1274 8077-1188L8077-1188L8053-1147L7440-1147Q7696-664 8125-324L8125-324Q8068-286 8022-215L8022-215Q7620-586 7422-1065ZM6627-1127L6608-1090Q6711-1068 6711-1039L6711-1039Q6711-1013 6631-985L6631-985L6631 147L6514 147L6514-910Q6375-674 6246-519L6246-519L6205-551Q6523-1016 6692-1690L6692-1690Q6887-1644 6887-1598L6887-1598Q6887-1569 6797-1557L6797-1557Q6728-1342 6627-1127L6627-1127Z" /></svg>