<svg xmlns="http://www.w3.org/2000/svg" viewBox="125.27957153320312 -1686.8701171875 7924.635467529297 1853.8701171875" fill="#000000"><path d="M236-591L539-591L539-756Q539-820 603-820L603-820Q667-820 667-756L667-756L667-591L961-591Q1018-591 1018-534L1018-534Q1018-476 961-476L961-476L667-476L667-161Q779-187 872.50-210.50Q966-234 1043-256L1043-256Q1095-271 1098-217L1098-217Q1101-162 1049-147L1049-147Q637-16 226 63L226 63Q157 77 132 11L132 11Q107-53 175-65L175-65Q259-79 349-96Q439-113 539-133L539-133L539-476L236-476Q178-476 178-534L178-534Q178-591 236-591L236-591ZM1018-1452L604-1452Q518-1198 433-1012L433-1012L479-1018Q561-1026 650-1038.50Q739-1051 837-1067L837-1067Q814-1109 788-1153.50Q762-1198 732-1245L732-1245Q701-1292 752-1318L752-1318Q803-1344 836-1297L836-1297Q937-1150 1013-995L1013-995Q1042-935 986-900L986-900L983-898Q931-865 907-922L907-922Q899-939 893-953.50Q887-968 881-979L881-979Q748-946 587-920.50Q426-895 233-876L233-876Q172-870 152-930L152-930Q131-988 194-993L194-993Q231-994 285-999L285-999L301-1003Q406-1230 469-1452L469-1452L188-1452Q128-1452 128-1512L128-1512Q128-1571 188-1571L188-1571L1018-1571Q1077-1571 1077-1512L1077-1512Q1077-1452 1018-1452L1018-1452ZM1477-494L1477-494Q1595-770 1635-1222L1635-1222L1309-1222Q1303-1194 1292.50-1155Q1282-1116 1267-1065L1267-1065Q1324-744 1477-494ZM1412-371L1412-371Q1280-571 1205-859L1205-859L1193-859Q1179-825 1163.50-793Q1148-761 1132-730L1132-730Q1097-664 1050-722L1050-722Q1004-778 1037-845L1037-845Q1185-1148 1255-1632L1255-1632Q1264-1697 1329-1685L1329-1685Q1393-1672 1384-1607L1384-1607Q1373-1530 1361-1464.50Q1349-1399 1337-1343L1337-1343L1854-1343Q1914-1343 1914-1283L1914-1283Q1914-1222 1854-1222L1854-1222L1763-1222Q1746-977 1694-768Q1642-559 1555-380L1555-380Q1708-188 1898-57L1898-57Q1965-12 1920 54L1920 54Q1897 88 1869 92Q1841 96 1810 69L1810 69Q1636-76 1487-262L1487-262Q1348-49 1126 109L1126 109Q1067 151 1023 93L1023 93Q980 38 1039 1L1039 1Q1275-148 1412-371Z" /><path d="M3859-754L3859-754L2284-754Q2207-754 2207-831L2207-831Q2207-907 2284-907L2284-907L3859-907Q3935-907 3935-831L3935-831Q3935-754 3859-754Z" /><path d="M4398-51L5840-51L5840-1507L4398-1507L4398-51ZM5902 167L5902 167L5892 167Q5840 167 5840 116L5840 116L5840 64L4398 64L4398 116Q4398 167 4347 167L4347 167L4335 167Q4272 167 4272 104L4272 104L4272-1490Q4272-1621 4403-1621L4403-1621L5832-1621Q5963-1621 5963-1490L5963-1490L5963 106Q5963 167 5902 167ZM5590-171L5590-171Q5503-210 5410-246.50Q5317-283 5215-317L5215-317Q5165-334 5202-371L5202-371Q5239-410 5289-395L5289-395Q5397-364 5494.50-331Q5592-298 5682-261L5682-261Q5744-237 5697-190L5697-190Q5651-144 5590-171ZM5541-404L5541-404Q5485-404 5485-460L5485-460L5485-789L4752-789L4752-450Q4752-394 4697-394L4697-394Q4641-394 4641-450L4641-450L4641-760Q4641-891 4772-891L4772-891L5465-891Q5596-891 5596-760L5596-760L5596-460Q5596-404 5541-404ZM4824-1112L5414-1112L5414-1269L4824-1269L4824-1112ZM5393-1013L5393-1013L4845-1013Q4714-1013 4714-1144L4714-1144L4714-1238Q4714-1369 4845-1369L4845-1369L5393-1369Q5524-1369 5524-1238L5524-1238L5524-1144Q5524-1013 5393-1013ZM4531-168L4531-168Q4488-211 4549-220L4549-220Q4619-231 4692-250L4692-250Q4796-277 4879-325L4879-325Q4959-372 5010-444L5010-444Q5059-514 5059-612L5059-612L5059-655Q5059-698 5102-698L5102-698L5128-698Q5174-698 5174-652L5174-652L5174-606Q5174-502 5127-419L5127-419Q5081-338 4997-278L4997-278Q4913-217 4805-180L4805-180Q4725-152 4633-134L4633-134Q4603-128 4577.50-137Q4552-146 4531-168Z" /><path d="M7377 148L7377 148Q7309 148 7309 80L7309 80L7309-268L7096-268Q7039-268 7039-325L7039-325Q7039-381 7096-381L7096-381L7314-381L7314-1000L7299-1003Q7174-580 6851-236L6851-236Q6799-181 6746-237L6746-237Q6719-264 6720.50-289.50Q6722-315 6750-341L6750-341Q7072-635 7256-1129L7256-1129L6835-1129Q6775-1129 6775-1189L6775-1189Q6775-1248 6835-1248L6835-1248L7309-1248L7309-1606Q7309-1674 7377-1674L7377-1674Q7445-1674 7445-1606L7445-1606L7445-1248L7968-1248Q8027-1248 8027-1189L8027-1189Q8027-1129 7968-1129L7968-1129L7496-1129Q7684-699 8015-410L8015-410Q8046-383 8049.50-354.50Q8053-326 8027-294L8027-294Q7974-229 7918-289L7918-289Q7596-628 7455-1011L7455-1011L7441-1008L7441-381L7663-381Q7719-381 7719-325L7719-325Q7719-268 7663-268L7663-268L7445-268L7445 80Q7445 148 7377 148ZM6565 145L6565 145Q6499 145 6499 80L6499 80L6499-897L6485-900Q6454-844 6419.50-789Q6385-734 6345-679L6345-679Q6306-625 6271-682L6271-682Q6236-738 6273-792L6273-792Q6398-976 6488-1180.50Q6578-1385 6635-1617L6635-1617Q6650-1683 6716-1666L6716-1666Q6782-1649 6764-1584L6764-1584Q6735-1481 6701.50-1384Q6668-1287 6630-1194L6630-1194L6630 80Q6630 145 6565 145Z" /></svg>