<svg xmlns="http://www.w3.org/2000/svg" viewBox="95 -855 4829 934" fill="#000000"><path d="M150 76C258-25 300-216 309-346L692-346L692-37C692-22 688-15 672-14C643-14 601-15 561-16L566 64C644 64 702 61 727 50C753 38 764 6 764-37L764-346L901-346L901-422L764-422L764-736L499-736C515-760 535-802 549-837L459-851C449-818 442-771 429-736L241-736L241-422L105-422L105-346L239-346C231-235 195-74 95 20C109 28 140 62 150 76ZM692-422L314-422L314-661L692-661ZM548-444L603-492C575-533 500-597 449-637L400-597C451-555 521-484 548-444ZM552-103L607-153C568-196 497-270 442-308L393-262C449-223 524-145 552-103Z" /><path d="M1149 77C1311-18 1385-214 1412-380L1719-380C1705-172 1687-51 1662-27C1652-19 1645-16 1626-16C1603-16 1531-17 1484-22L1486 57C1531 60 1576 61 1610 61L1650 60C1683 57 1709 46 1729 23C1762-13 1784-157 1800-418C1802-428 1803-456 1803-456L1428-456C1431-478 1432-501 1432-524L1432-550L1434-605L1887-605L1887-680L1512-680L1580-706C1567-744 1539-811 1515-855L1444-823C1465-780 1496-713 1506-680L1118-680L1118-605L1363-605C1353-393 1314-108 1105 7Z" /><path d="M2798 8L2798-785L2214-785L2214 8ZM2718-445L2290-445L2290-704L2718-704ZM2718-71L2290-71L2290-369L2718-369Z" /><path d="M3388 79C3479-10 3533-148 3551-259L3807-259L3807-34C3807-10 3803-10 3787-9L3738-9C3715-9 3688-9 3666-10L3672 69C3753 69 3813 65 3839 55C3866 43 3880 9 3880-34L3880-809L3495-809L3495-456C3495-312 3477-96 3336 22ZM3429-175L3429-791L3129-791L3129-175ZM3807-573L3568-573L3568-731L3807-731ZM3355-540L3198-540L3198-719L3355-719ZM3807-330L3566-330C3568-349 3569-370 3569-390L3568-501L3807-501ZM3355-249L3198-249L3198-469L3355-469Z" /><path d="M4638 66L4638-122L4775-122L4775-194L4638-194L4638-540C4683-379 4777-187 4864-99L4924-162C4834-242 4726-417 4677-578L4903-578L4903-655L4638-655L4638-846L4568-846L4568-655L4318-655L4318-578L4532-578C4481-421 4373-238 4282-157L4340-96C4427-185 4520-373 4568-533L4568-194L4429-194L4429-122L4568-122L4568 66ZM4274 70L4274-618C4302-681 4331-755 4351-821L4280-846C4238-705 4158-547 4077-447L4139-392C4155-417 4185-456 4204-495L4204 70Z" /></svg>