<svg xmlns="http://www.w3.org/2000/svg" viewBox="90 -2358.4599609375 10099 2520.4599609375" fill="#000000"><path d="M445.76-1914L383.70-1914L383.70-2216.12L438.80-2216.12L439.96-2176.61L441.12-2176.61Q450.40-2197.52 464.90-2209.73Q479.40-2221.93 494.48-2221.93L494.48-2221.93Q511.30-2221.93 522.03-2211.76Q532.76-2201.59 540.88-2176.61L540.88-2176.61L542.04-2176.61Q566.41-2221.93 601.21-2221.93L601.21-2221.93Q630.79-2221.93 643.55-2201.88Q656.31-2181.84 656.31-2128.97L656.31-2128.97L656.31-1914L596.57-1914L596.57-2117.35Q595.99-2140.59 591.35-2148.72Q586.71-2156.86 575.69-2156.86L575.69-2156.86Q550.75-2156.86 550.75-2076.68L550.75-2076.68L550.75-1914L491.00-1914L491.00-2117.35Q490.42-2140.01 486.07-2148.43Q481.72-2156.86 471.86-2156.86L471.86-2156.86Q445.76-2156.86 445.76-2059.25L445.76-2059.25L445.76-1914ZM788.72-2256.79L850.20-2358.46L937.21-2358.46L846.72-2256.79L788.72-2256.79ZM969.11-2041.82L803.22-2041.82Q806.70-1996.50 823.81-1977.91Q840.92-1959.32 875.72-1959.32L875.72-1959.32Q907.63-1959.32 954.61-1977.91L954.61-1977.91L954.61-1922.71Q908.79-1908.19 868.76-1908.19L868.76-1908.19Q805.54-1908.19 771.90-1947.12Q738.26-1986.04 738.26-2065.06L738.26-2065.06Q738.26-2221.93 860.06-2221.93L860.06-2221.93Q914.59-2221.93 942.43-2184.45Q970.27-2146.98 970.27-2066.22L970.27-2066.22Q970.27-2060.41 969.11-2041.82L969.11-2041.82ZM803.22-2091.20L803.22-2091.20L907.63-2091.20Q907.05-2170.80 860.06-2170.80L860.06-2170.80Q832.22-2170.80 818.88-2153.66Q805.54-2136.52 803.22-2091.20ZM1201.44-2167.31L1201.44-2167.31Q1177.08-2167.31 1160.26-2138.26Q1143.44-2109.21 1143.44-2055.76L1143.44-2055.76L1143.44-1914L1080.80-1914L1080.80-2216.12L1140.54-2216.12L1141.70-2174.29L1142.86-2174.29Q1155.04-2196.36 1175.92-2209.14Q1196.80-2221.93 1221.17-2221.93L1221.17-2221.93Q1266.99-2221.93 1287.00-2194.91Q1307.01-2167.89 1307.01-2099.92L1307.01-2099.92L1307.01-1914L1245.53-1914L1245.53-2088.88Q1245.53-2136.52 1236.25-2151.92Q1226.97-2167.31 1201.44-2167.31ZM1429.56-1794.90L1429.56-1851.25Q1472.48-1831.50 1512.50-1831.50L1512.50-1831.50Q1546.14-1831.50 1563.26-1853.00Q1580.37-1874.49 1580.37-1922.71L1580.37-1922.71L1580.37-1960.48L1579.21-1960.48Q1553.69-1914 1506.70-1914L1506.70-1914Q1460.88-1914 1433.04-1952.64Q1405.20-1991.27 1405.20-2065.06L1405.20-2065.06Q1405.20-2221.93 1506.70-2221.93L1506.70-2221.93Q1550.78-2221.93 1580.95-2174.29L1580.95-2174.29L1582.11-2174.29L1583.27-2216.12L1643.01-2216.12L1643.01-1919.81Q1643.01-1847.77 1611.11-1814.07Q1579.21-1780.37 1514.24-1780.37L1514.24-1780.37Q1468.42-1780.37 1429.56-1794.90L1429.56-1794.90ZM1467.84-2065.06L1467.84-2065.06Q1467.84-2018.00 1483.21-1994.47Q1498.58-1970.94 1524.10-1970.94L1524.10-1970.94Q1550.20-1970.94 1565.58-1993.31Q1580.95-2015.67 1580.95-2062.15L1580.95-2062.15L1580.95-2067.96Q1580.95-2115.60 1565.29-2140.30Q1549.62-2164.99 1524.10-2164.99L1524.10-2164.99Q1496.26-2164.99 1482.05-2141.46Q1467.84-2117.93 1467.84-2065.06ZM713-772L713-1071L356-1071L356-772L713-772ZM356-715L356-410L713-410L713-715L356-715ZM713-223L713-348L356-348L356-141Q356-134 326.50-116Q297-98 250-98L250-98L229-98L229-1196L381-1128L694-1128L766-1206L920-1087Q910-1077 888.50-1066Q867-1055 840-1051L840-1051L840-266Q838-259 800.50-241Q763-223 731-223L731-223L713-223ZM1184-459L1184-459L1675-459L1675-752L1206-752L1206-721Q1206-656 1202-590.50Q1198-525 1184-459ZM1675-811L1675-1087L1206-1087L1206-811L1675-811ZM1233-1147L1655-1147L1722-1231L1894-1104Q1884-1092 1860.50-1079.50Q1837-1067 1806-1061L1806-1061L1806-37Q1806 16 1792 56.50Q1778 97 1729 123.50Q1680 150 1577 160L1577 160Q1572 127 1560.50 102Q1549 77 1526 63L1526 63Q1498 45 1451 31Q1404 17 1323 6L1323 6L1323-27Q1323-27 1361.50-23.50Q1400-20 1453.50-16Q1507-12 1554.50-9Q1602-6 1620-6L1620-6Q1652-6 1663.50-17.50Q1675-29 1675-55L1675-55L1675-401L1169-401Q1140-295 1075.50-194Q1011-93 897-3.50Q783 86 606 158L606 158L588 129Q792 16 897.50-117.50Q1003-251 1041-402Q1079-553 1079-719L1079-719L1079-1214L1233-1147ZM1376-1477L1688-1477L1784-1602Q1784-1602 1814-1576.50Q1844-1551 1885-1516Q1926-1481 1958-1450L1958-1450Q1952-1419 1907-1419L1907-1419L1376-1419L1376-1251Q1376-1242 1344.50-1227Q1313-1212 1266-1212L1266-1212L1243-1212L1243-1419L795-1419L795-1243Q795-1231 759.50-1218.50Q724-1206 684-1206L684-1206L664-1206L664-1419L100-1419L90-1477L664-1477L664-1718L868-1696Q865-1676 849-1661.50Q833-1647 795-1642L795-1642L795-1477L1243-1477L1243-1718L1448-1698Q1446-1676 1430.50-1661.50Q1415-1647 1376-1642L1376-1642L1376-1477Z" /><path d="M2573.80-2169.64L2573.80-2169.64Q2524.50-2169.64 2524.50-2135.94L2524.50-2135.94Q2524.50-2119.67 2534.65-2110.09Q2544.80-2100.50 2570.32-2094.11L2570.32-2094.11Q2632.39-2079.58 2654.43-2058.38Q2676.47-2037.17 2676.47-1995.34L2676.47-1995.34Q2676.47-1954.09 2648.34-1931.14Q2620.21-1908.19 2568.00-1908.19L2568.00-1908.19Q2511.16-1908.19 2464.76-1930.27L2464.76-1930.27L2464.76-1988.37Q2513.48-1960.48 2557.56-1960.48L2557.56-1960.48Q2587.72-1960.48 2600.78-1968.90Q2613.83-1977.33 2613.83-1996.50L2613.83-1996.50Q2613.83-2013.93 2603.39-2023.52Q2592.95-2033.10 2563.36-2040.66L2563.36-2040.66Q2507.68-2054.60 2484.77-2076.97Q2461.86-2099.34 2461.86-2137.68L2461.86-2137.68Q2461.86-2177.77 2488.83-2199.85Q2515.80-2221.93 2568.00-2221.93L2568.00-2221.93Q2621.95-2221.93 2666.61-2203.33L2666.61-2203.33L2666.61-2147.56Q2617.31-2169.64 2573.80-2169.64ZM2793.80-2349.75L2856.44-2349.75L2856.44-2175.45L2857.60-2175.45Q2883.12-2221.93 2934.17-2221.93L2934.17-2221.93Q2979.99-2221.93 3000.00-2194.91Q3020.01-2167.89 3020.01-2099.92L3020.01-2099.92L3020.01-1914L2958.53-1914L2958.53-2088.88Q2958.53-2136.52 2949.25-2151.92Q2939.97-2167.31 2914.44-2167.31L2914.44-2167.31Q2890.08-2167.31 2873.26-2138.26Q2856.44-2109.21 2856.44-2055.76L2856.44-2055.76L2856.44-1914L2793.80-1914L2793.80-2349.75ZM3171.72-2256.79L3233.20-2358.46L3320.21-2358.46L3229.72-2256.79L3171.72-2256.79ZM3352.11-2041.82L3186.22-2041.82Q3189.70-1996.50 3206.81-1977.91Q3223.92-1959.32 3258.72-1959.32L3258.72-1959.32Q3290.63-1959.32 3337.61-1977.91L3337.61-1977.91L3337.61-1922.71Q3291.79-1908.19 3251.76-1908.19L3251.76-1908.19Q3188.54-1908.19 3154.90-1947.12Q3121.26-1986.04 3121.26-2065.06L3121.26-2065.06Q3121.26-2221.93 3243.06-2221.93L3243.06-2221.93Q3297.59-2221.93 3325.43-2184.45Q3353.27-2146.98 3353.27-2066.22L3353.27-2066.22Q3353.27-2060.41 3352.11-2041.82L3352.11-2041.82ZM3186.22-2091.20L3186.22-2091.20L3290.63-2091.20Q3290.05-2170.80 3243.06-2170.80L3243.06-2170.80Q3215.22-2170.80 3201.88-2153.66Q3188.54-2136.52 3186.22-2091.20ZM3585.44-2167.31L3585.44-2167.31Q3561.08-2167.31 3544.26-2138.26Q3527.44-2109.21 3527.44-2055.76L3527.44-2055.76L3527.44-1914L3464.80-1914L3464.80-2216.12L3524.54-2216.12L3525.70-2174.29L3526.86-2174.29Q3539.04-2196.36 3559.92-2209.14Q3580.80-2221.93 3605.17-2221.93L3605.17-2221.93Q3650.99-2221.93 3671.00-2194.91Q3691.01-2167.89 3691.01-2099.92L3691.01-2099.92L3691.01-1914L3629.53-1914L3629.53-2088.88Q3629.53-2136.52 3620.25-2151.92Q3610.97-2167.31 3585.44-2167.31ZM2365-1696L2365-1696L2388-1712Q2509-1670 2572.50-1618Q2636-1566 2655-1516Q2674-1466 2661.50-1430.50Q2649-1395 2616.50-1385Q2584-1375 2546-1405L2546-1405Q2535-1453 2506-1507Q2477-1561 2439-1610.50Q2401-1660 2365-1696ZM2675-1286L2763-1370L2912-1225Q2898-1212 2877.50-1208.50Q2857-1205 2822-1202L2822-1202Q2744-1037 2613-862L2613-862L2613-809Q2731-766 2795.50-715.50Q2860-665 2882.50-617.50Q2905-570 2896.50-536.50Q2888-503 2860-492.50Q2832-482 2796-506L2796-506Q2774-567 2721.50-637Q2669-707 2613-762L2613-762L2613 96Q2613 105 2582 125Q2551 145 2505 145L2505 145L2482 145L2482-707Q2405-624 2320.50-549Q2236-474 2150-414L2150-414L2124-436Q2236-537 2343.50-671Q2451-805 2538-949.50Q2625-1094 2677-1225L2677-1225L2159-1225L2140-1286L2675-1286ZM3502-874L3502-541L3795-541L3795-874L3502-874ZM3080-874L3080-541L3373-541L3373-874L3080-874ZM3373-936L3373-1249L3080-1249L3080-936L3373-936ZM3795-936L3795-1249L3502-1249L3502-936L3795-936ZM3774-1311L3848-1393L4008-1266Q3987-1238 3922-1225L3922-1225L3922-391Q3920-379 3883-360.50Q3846-342 3813-342L3813-342L3795-342L3795-481L3502-481L3502 109Q3502 122 3467.50 141Q3433 160 3398 160L3398 160L3373 160L3373-481L3080-481L3080-367Q3080-356 3047-339Q3014-322 2974-322L2974-322L2951-322L2951-1376L3090-1311L3373-1311L3373-1718L3574-1696Q3571-1674 3555.50-1659.50Q3540-1645 3502-1638L3502-1638L3502-1311L3774-1311Z" /><path d="M4541.76-1914L4479.70-1914L4479.70-2216.12L4534.80-2216.12L4535.96-2176.61L4537.12-2176.61Q4546.40-2197.52 4560.90-2209.73Q4575.40-2221.93 4590.48-2221.93L4590.48-2221.93Q4607.30-2221.93 4618.03-2211.76Q4628.76-2201.59 4636.88-2176.61L4636.88-2176.61L4638.04-2176.61Q4662.41-2221.93 4697.21-2221.93L4697.21-2221.93Q4726.79-2221.93 4739.55-2201.88Q4752.31-2181.84 4752.31-2128.97L4752.31-2128.97L4752.31-1914L4692.57-1914L4692.57-2117.35Q4691.99-2140.59 4687.35-2148.72Q4682.71-2156.86 4671.69-2156.86L4671.69-2156.86Q4646.75-2156.86 4646.75-2076.68L4646.75-2076.68L4646.75-1914L4587.00-1914L4587.00-2117.35Q4586.42-2140.01 4582.07-2148.43Q4577.72-2156.86 4567.86-2156.86L4567.86-2156.86Q4541.76-2156.86 4541.76-2059.25L4541.76-2059.25L4541.76-1914ZM4874.86-2164.99L4874.86-2216.12L4999.57-2216.12L4999.57-1965.13L5060.47-1965.13L5060.47-1914L4857.46-1914L4857.46-1965.13L4935.76-1965.13L4935.76-2164.99L4874.86-2164.99ZM4884.72-2256.79L4946.20-2358.46L5033.21-2358.46L4942.72-2256.79L4884.72-2256.79ZM5297.44-2167.31L5297.44-2167.31Q5273.08-2167.31 5256.26-2138.26Q5239.44-2109.21 5239.44-2055.76L5239.44-2055.76L5239.44-1914L5176.80-1914L5176.80-2216.12L5236.54-2216.12L5237.70-2174.29L5238.86-2174.29Q5251.04-2196.36 5271.92-2209.14Q5292.80-2221.93 5317.17-2221.93L5317.17-2221.93Q5362.99-2221.93 5383.00-2194.91Q5403.01-2167.89 5403.01-2099.92L5403.01-2099.92L5403.01-1914L5341.53-1914L5341.53-2088.88Q5341.53-2136.52 5332.25-2151.92Q5322.97-2167.31 5297.44-2167.31ZM5525.56-1794.90L5525.56-1851.25Q5568.48-1831.50 5608.50-1831.50L5608.50-1831.50Q5642.14-1831.50 5659.26-1853.00Q5676.37-1874.49 5676.37-1922.71L5676.37-1922.71L5676.37-1960.48L5675.21-1960.48Q5649.69-1914 5602.70-1914L5602.70-1914Q5556.88-1914 5529.04-1952.64Q5501.20-1991.27 5501.20-2065.06L5501.20-2065.06Q5501.20-2221.93 5602.70-2221.93L5602.70-2221.93Q5646.78-2221.93 5676.95-2174.29L5676.95-2174.29L5678.11-2174.29L5679.27-2216.12L5739.01-2216.12L5739.01-1919.81Q5739.01-1847.77 5707.11-1814.07Q5675.21-1780.37 5610.24-1780.37L5610.24-1780.37Q5564.42-1780.37 5525.56-1794.90L5525.56-1794.90ZM5563.84-2065.06L5563.84-2065.06Q5563.84-2018.00 5579.21-1994.47Q5594.58-1970.94 5620.10-1970.94L5620.10-1970.94Q5646.20-1970.94 5661.58-1993.31Q5676.95-2015.67 5676.95-2062.15L5676.95-2062.15L5676.95-2067.96Q5676.95-2115.60 5661.29-2140.30Q5645.62-2164.99 5620.10-2164.99L5620.10-2164.99Q5592.26-2164.99 5578.05-2141.46Q5563.84-2117.93 5563.84-2065.06ZM4774-1034L4774-1491L4389-1491L4389-1034L4774-1034ZM4389-973L4389-496L4774-496L4774-973L4389-973ZM4774-270L4774-436L4389-436L4389-240Q4389-230 4360-210Q4331-190 4280-190L4280-190L4260-190L4260-1616L4413-1552L4753-1552L4829-1634L4991-1507Q4972-1481 4903-1464L4903-1464L4903-322Q4901-311 4864.50-290.50Q4828-270 4794-270L4794-270L4774-270ZM5265-635L5265-635L5812-635L5812-1057L5282-1057L5282-934Q5282-859 5278.50-784Q5275-709 5265-635ZM5812-1116L5812-1526L5282-1526L5282-1116L5812-1116ZM5792-1585L5859-1671L6031-1540Q6021-1528 5996.50-1516Q5972-1504 5941-1499L5941-1499L5941-43Q5941 12 5926.50 53.50Q5912 95 5863 121.50Q5814 148 5712 160L5712 160Q5706 126 5693.50 100.50Q5681 75 5657 61L5657 61Q5629 43 5580 30Q5531 17 5450 6L5450 6L5450-27Q5450-27 5489.50-24Q5529-21 5584-17.50Q5639-14 5687.50-11Q5736-8 5755-8L5755-8Q5789-8 5800.50-19Q5812-30 5812-57L5812-57L5812-578L5257-578Q5234-436 5177-302.50Q5120-169 5015-51Q4910 67 4741 162L4741 162L4712 137Q4898-3 4992.50-169.50Q5087-336 5120-527Q5153-718 5153-932L5153-932L5153-1653L5306-1585L5792-1585Z" /><path d="M6594.11-1947.41Q6559.60-1986.62 6559.60-2065.06Q6559.60-2143.49 6592.95-2182.71Q6626.30-2221.93 6688.36-2221.93L6688.36-2221.93Q6726.65-2221.93 6763.77-2207.40L6763.77-2207.40L6763.77-2152.21Q6728.39-2169.06 6695.91-2169.06L6695.91-2169.06Q6623.98-2169.06 6623.98-2065.06L6623.98-2065.06Q6623.98-2011.61 6643.99-1985.46Q6664.00-1959.32 6698.81-1959.32Q6733.61-1959.32 6768.41-1977.91L6768.41-1977.91L6768.41-1922.71Q6728.97-1908.19 6691.85-1908.19L6691.85-1908.19Q6628.62-1908.19 6594.11-1947.41ZM6889.80-2349.75L6952.44-2349.75L6952.44-2175.45L6953.60-2175.45Q6979.12-2221.93 7030.17-2221.93L7030.17-2221.93Q7075.99-2221.93 7096.00-2194.91Q7116.01-2167.89 7116.01-2099.92L7116.01-2099.92L7116.01-1914L7054.53-1914L7054.53-2088.88Q7054.53-2136.52 7045.25-2151.92Q7035.97-2167.31 7010.44-2167.31L7010.44-2167.31Q6986.08-2167.31 6969.26-2138.26Q6952.44-2109.21 6952.44-2055.76L6952.44-2055.76L6952.44-1914L6889.80-1914L6889.80-2349.75ZM7233.50-2147.56L7233.50-2201.59Q7254.96-2209.73 7285.41-2215.83Q7315.86-2221.93 7336.16-2221.93L7336.16-2221.93Q7397.65-2221.93 7421.43-2197.23Q7445.21-2172.54 7445.21-2106.89L7445.21-2106.89L7445.21-1914L7387.21-1914L7386.05-1954.67L7384.89-1954.67Q7357.62-1908.19 7303.10-1908.19L7303.10-1908.19Q7264.82-1908.19 7241.91-1932.30Q7219.00-1956.41 7219.00-1999.99L7219.00-1999.99Q7219.00-2051.70 7255.25-2080.16Q7291.50-2108.63 7362.85-2108.63L7362.85-2108.63L7383.73-2108.63L7383.73-2118.51Q7383.73-2146.98 7373.00-2158.31Q7362.27-2169.64 7335.00-2169.64L7335.00-2169.64Q7315.86-2169.64 7285.41-2162.96Q7254.96-2156.27 7233.50-2147.56L7233.50-2147.56ZM7268.30-2256.79L7329.20-2358.46L7416.21-2358.46L7326.30-2256.79L7268.30-2256.79ZM7383.73-2048.79L7383.73-2065.06L7362.85-2065.06Q7320.50-2065.06 7299.33-2049.08Q7278.16-2033.10 7278.16-2004.05L7278.16-2004.05Q7278.16-1981.98 7289.18-1970.07Q7300.20-1958.16 7318.76-1958.16L7318.76-1958.16Q7348.92-1958.16 7366.33-1980.81Q7383.73-2003.47 7383.73-2048.79L7383.73-2048.79ZM7549.20-2065.06Q7549.20-2221.93 7671.00-2221.93Q7792.81-2221.93 7792.81-2065.06Q7792.81-1908.19 7671.00-1908.19Q7549.20-1908.19 7549.20-2065.06ZM7627.21-1982.27Q7640.84-1959.32 7671.00-1959.32Q7701.17-1959.32 7714.80-1982.27Q7728.43-2005.22 7728.43-2065.06Q7728.43-2124.90 7714.80-2147.85Q7701.17-2170.80 7671.00-2170.80Q7640.84-2170.80 7627.21-2147.85Q7613.58-2124.90 7613.58-2065.06Q7613.58-2005.22 7627.21-1982.27ZM6971-850L6482-850L6482-631L6971-631L6971-850ZM6971-909L6971-1126L6482-1126L6482-909L6971-909ZM7191-279L7191-279L6791-279L6791 117Q6790 124 6760 143Q6730 162 6681 162L6681 162L6660 162L6660-279L6248-279L6234-340L6660-340L6660-571L6482-571L6482-516Q6482-505 6448-488Q6414-471 6377-471L6377-471L6355-471L6355-1249L6492-1188L6660-1188L6660-1393L6248-1393L6234-1452L6660-1452L6660-1714L6859-1694Q6856-1674 6841-1660.50Q6826-1647 6791-1640L6791-1640L6791-1452L6994-1452L7084-1571Q7084-1571 7113-1547Q7142-1523 7181.50-1489Q7221-1455 7252-1425L7252-1425Q7246-1393 7201-1393L7201-1393L6791-1393L6791-1188L6951-1188L7027-1268L7188-1143Q7179-1130 7155.50-1118.50Q7132-1107 7102-1104L7102-1104L7102-541Q7101-530 7063.50-512Q7026-494 6992-494L6992-494L6971-494L6971-571L6791-571L6791-340L6998-340L7084-446Q7084-446 7111-425Q7138-404 7175.50-372.50Q7213-341 7244-311L7244-311Q7235-279 7191-279ZM7451-674L7451-674L7875-674L7875-1065L7459-1065L7459-893Q7459-839 7457-784Q7455-729 7451-674ZM7875-1124L7875-1491L7459-1491L7459-1124L7875-1124ZM7854-1552L7924-1640L8102-1505Q8091-1490 8064-1478Q8037-1466 8004-1460L8004-1460L8004-35Q8004 17 7990 56.50Q7976 96 7931 121.50Q7886 147 7791 158L7791 158Q7788 127 7777.50 102Q7767 77 7746 63L7746 63Q7722 47 7680.50 34.50Q7639 22 7569 12L7569 12L7569-20Q7569-20 7602-18Q7635-16 7680.50-12.50Q7726-9 7766.50-6.50Q7807-4 7823-4L7823-4Q7854-4 7864.50-14.50Q7875-25 7875-51L7875-51L7875-614L7447-614Q7430-468 7384.50-328Q7339-188 7246.50-63.50Q7154 61 6996 162L6996 162L6967 137Q7123 1 7201-160.50Q7279-322 7305.50-505Q7332-688 7332-889L7332-889L7332-1618L7485-1552L7854-1552Z" /><path d="M9057.28-2204.50L9155.31-2204.50L9155.31-2152.79L9057.28-2152.79L9057.28-2012.77Q9057.28-1978.49 9064.82-1969.48Q9072.36-1960.48 9100.21-1960.48Q9128.05-1960.48 9149.51-1970.36L9149.51-1970.36L9149.51-1916.90Q9118.77-1908.19 9088.61-1908.19L9088.61-1908.19Q9035.82-1908.19 9015.23-1927.94Q8994.64-1947.70 8994.64-2001.15L8994.64-2001.15L8994.64-2152.79L8934.90-2152.79L8934.90-2204.50L8994.64-2204.50L8994.64-2314.89L9057.28-2314.89L9057.28-2204.50ZM9382.42-2284.67L9383.58-2284.67L9424.19-2358.46L9499.01-2358.46L9426.51-2256.79L9339.50-2256.79L9267.00-2358.46L9341.82-2358.46L9382.42-2284.67ZM9306.44-2164.99L9306.44-2216.12L9431.15-2216.12L9431.15-1965.13L9492.05-1965.13L9492.05-1914L9289.04-1914L9289.04-1965.13L9366.76-1965.13L9366.76-2164.99L9306.44-2164.99ZM8643-1171L8643-1171L8731-1141Q8718-1113 8665-1104L8665-1104L8665 117Q8664 124 8629.50 143Q8595 162 8557 162L8557 162L8532 162L8532-969Q8477-880 8418-799.50Q8359-719 8296-653L8296-653L8268-674Q8349-801 8427.50-969.50Q8506-1138 8572-1329.50Q8638-1521 8684-1716L8684-1716L8901-1651Q8894-1632 8875-1620Q8856-1608 8821-1608L8821-1608Q8782-1494 8738.50-1385Q8695-1276 8643-1171ZM10074-1231L10074-1231L9550-1231Q9616-1042 9716.50-870.50Q9817-699 9938.50-562Q10060-425 10189-342L10189-342L10183-322Q10141-317 10108-289.50Q10075-262 10058-213L10058-213Q9873-374 9731.50-637.50Q9590-901 9507-1231L9507-1231L9501-1231L9501-322L9648-322L9732-432Q9732-432 9758-410Q9784-388 9820-356.50Q9856-325 9886-295L9886-295Q9877-262 9832-262L9832-262L9501-262L9501 113Q9501 126 9466 143Q9431 160 9394 160L9394 160L9368 160L9368-262L9030-262L9013-322L9368-322L9368-1067Q9271-810 9113.50-587Q8956-364 8741-190L8741-190L8712-219Q8913-419 9058-685Q9203-951 9279-1231L9279-1231L8794-1231L8778-1292L9368-1292L9368-1712L9574-1690Q9570-1667 9554-1651.50Q9538-1636 9501-1630L9501-1630L9501-1292L9857-1292L9951-1413Q9951-1413 9981-1389Q10011-1365 10052-1330Q10093-1295 10125-1264L10125-1264Q10116-1231 10074-1231Z" /></svg>