<svg xmlns="http://www.w3.org/2000/svg" viewBox="116 -829 4766 905" fill="#000000"><path d="M500-457L500-457L493-457Q473-457 473-477L473-477L473-661L212-661Q211-606 196-570L196-570Q177-522 148-522L148-522Q116-522 116-558L116-558Q116-574 136-592L136-592Q177-627 185-714L185-714Q186-724 196-724L196-724Q208-724 209-712L209-712L212-686L473-686L473-752L241-752Q228-752 224-765L224-765Q219-777 232-777L232-777L679-777L708-818Q716-829 724-829L724-829Q731-829 739-821L739-821Q749-810 757.50-800Q766-790 774-781L774-781Q782-771 777-762L777-762Q771-752 760-752L760-752L520-752L520-686L789-686L809-713Q817-724 825-724L825-724Q832-724 840-714L840-714Q884-664 884-650L884-650Q884-644 876-642L876-642L847-633Q837-621 826-609Q815-597 801-585L801-585Q798-582 794-582L794-582Q791-582 787-584L787-584Q779-589 782-599L782-599Q791-625 797-661L797-661L520-661L520-477Q520-457 500-457ZM743-569L743-569L576-569Q564-569 564-582L564-582Q564-594 576-594L576-594L743-594Q755-594 755-582L755-582Q755-569 743-569ZM417-569L417-569L249-569Q236-569 236-582L236-582Q236-594 249-594L249-594L417-594Q429-594 429-582L429-582Q429-569 417-569ZM417-479L417-479L243-479Q230-479 230-492L230-492Q230-504 243-504L243-504L417-504Q429-504 429-492L429-492Q429-479 417-479ZM751-479L751-479L576-479Q564-479 564-492L564-492Q564-504 576-504L576-504L751-504Q763-504 763-492L763-492Q763-479 751-479ZM200 72L200 72L192 72Q172 72 172 52L172 52L172-404Q172-425 185-425L185-425Q192-425 199-421L199-421Q205-418 212-414Q219-410 226-406L226-406L402-406L416-427Q424-437 432-437L432-437Q437-437 444.50-431Q452-425 459.50-417Q467-409 472-401.50Q477-394 477-391L477-391Q477-386 470-379L470-379L452-364L452-249Q452-229 432-229L432-229L422-229Q407-229 407-245L407-245L407-260L220-260L220-169L389-169L414-199Q422-208 429-208L429-208Q436-208 443-201L443-201Q451-193 459.50-185Q468-177 477-167L477-167Q484-161 479-152L479-152Q473-144 463-144L463-144L220-144L220-62L397-62L423-95Q430-104 438-104L438-104Q444-104 452-97L452-97Q461-88 469.50-79Q478-70 485-62L485-62Q492-55 486-46L486-46Q480-37 470-37L470-37L220-37L220 52Q220 72 200 72ZM785-245L785-245L771-245Q760-245 760-257L760-257L760-268L527-268Q513-268 510-281L510-281Q505-293 518-293L518-293L760-293L760-381L528-381Q514-381 511-394L511-394Q507-406 520-406L520-406L754-406L769-427Q776-437 784-437L784-437Q789-437 796.50-431Q804-425 811-417.50Q818-410 823-402.50Q828-395 828-391L828-391Q828-385 823-381L823-381L805-367L805-265Q805-245 785-245ZM220-285L407-285L407-381L220-381L220-285ZM446 59L446 59Q441 47 453 43L453 43Q562 10 640-54L640-54Q597-95 552-179L552-179L514-179Q501-179 497-192L497-192Q492-204 506-204L506-204L751-204L767-221Q774-229 781-229L781-229Q786-229 795-222.50Q804-216 812-207.50Q820-199 826-191Q832-183 832-179L832-179Q832-173 826-170L826-170L798-157Q760-101 707-55L707-55Q737-38 774.50-25Q812-12 859-2L859-2Q875 1 878 8.50Q881 16 871 30L871 30Q869 34 867.50 37Q866 40 864 43L864 43Q857 56 846 56L846 56Q841 56 839 55L839 55Q734 25 673-23L673-23Q631 9 579 31Q527 53 463 67L463 67Q451 69 446 59ZM669-80L669-80Q720-128 749-179L749-179L577-179Q582-173 584-169L584-169Q618-120 669-80Z" /><path d="M1835-417L1835-417Q1752-455 1695-512L1695-512Q1636-452 1521-420L1521-420Q1511-417 1507-427L1507-427Q1503-437 1513-441L1513-441Q1610-482 1664-545L1664-545Q1621-598 1592-664L1592-664Q1561-611 1524-568L1524-568Q1521-565 1518-565L1518-565Q1515-565 1511-568L1511-568Q1504-575 1509-584L1509-584Q1569-687 1594-810L1594-810Q1597-826 1611-826L1611-826Q1615-826 1625.50-823.50Q1636-821 1646-817Q1656-813 1664-808Q1672-803 1672-799L1672-799Q1672-789 1641-778L1641-778Q1638-768 1634-756Q1630-744 1624-730L1624-730L1786-730L1811-771Q1819-783 1827-783L1827-783Q1834-783 1842-773L1842-773Q1860-751 1873-730L1873-730Q1879-722 1875-714L1875-714Q1872-705 1862-705L1862-705L1799-705Q1773-613 1723-548L1723-548Q1755-524 1788.50-507Q1822-490 1859-478L1859-478Q1873-474 1875.50-466Q1878-458 1872-446L1872-446Q1867-437 1863-428L1863-428Q1857-414 1846-414L1846-414Q1841-414 1835-417ZM1294-446L1294-446Q1284-464 1254-472L1254-472Q1243-475 1243-485L1243-485Q1243-496 1254-496L1254-496Q1281-494 1299-494L1299-494Q1321-494 1321-522L1321-522L1321-629Q1255-518 1131-446L1131-446Q1128-444 1124-444L1124-444Q1120-444 1116-450L1116-450Q1109-459 1118-466L1118-466Q1164-501 1201-542Q1238-583 1269-629L1269-629L1146-629Q1133-629 1128-642L1128-642Q1123-654 1136-654L1136-654L1340-654Q1329-655 1319-664L1319-664Q1286-695 1214-715L1214-715Q1204-718 1207-728L1207-728Q1210-737 1219-737L1219-737L1220-737Q1285-729 1321-717L1321-717Q1368-745 1397-773L1397-773L1179-773Q1166-773 1161-786L1161-786Q1156-798 1169-798L1169-798L1407-798L1427-818Q1434-825 1441-825L1441-825Q1448-825 1454-819L1454-819Q1492-786 1492-774L1492-774Q1492-767 1480-765L1480-765L1456-761Q1413-735 1346-705L1346-705Q1368-691 1368-677L1368-677Q1368-658 1351-654L1351-654L1440-654L1456-673Q1463-682 1471-682L1471-682Q1477-682 1485-674L1485-674Q1517-641 1517-631L1517-631Q1517-625 1506-620L1506-620L1487-611Q1467-571 1440-527L1440-527Q1437-522 1432-522L1432-522Q1428-522 1426-524L1426-524Q1417-528 1420-538L1420-538Q1428-562 1433-584.50Q1438-607 1441-629L1441-629L1364-629L1364-483Q1364-437 1318-430L1318-430Q1308-428 1303-433Q1298-438 1294-446ZM1689-578L1689-578Q1723-630 1745-705L1745-705L1613-705L1605-688Q1641-624 1689-578ZM1723 59L1723 59Q1717 46 1701 39L1701 39Q1692 35 1675 30Q1658 25 1632 20L1632 20Q1619 18 1619 4L1619 4Q1619-10 1632-7L1632-7Q1665-2 1689.50 0Q1714 2 1729 2L1729 2Q1765 2 1776-34L1776-34Q1789-74 1790-155L1790-155L1310-155L1296-137Q1289-127 1281-127L1281-127Q1276-127 1268-133.50Q1260-140 1252.50-148Q1245-156 1239-164Q1233-172 1233-175L1233-175Q1233-183 1241-188L1241-188L1258-202L1258-397Q1258-418 1271-418L1271-418Q1276-418 1284-416L1284-416Q1296-410 1309-403L1309-403L1317-400L1394-400Q1410-438 1417-475L1417-475Q1420-492 1435-492L1435-492Q1439-492 1449.50-490Q1460-488 1470.50-484.50Q1481-481 1489-476.50Q1497-472 1497-466L1497-466Q1497-456 1465-448L1465-448Q1450-428 1421-400L1421-400L1667-400L1683-420Q1689-430 1697-430L1697-430Q1702-430 1709.50-424.50Q1717-419 1724.50-411.50Q1732-404 1737-397Q1742-390 1742-386L1742-386Q1742-381 1737-377L1737-377L1720-363L1720-262Q1720-210 1663-204L1663-204L1660-204Q1652-204 1647.50-208Q1643-212 1639-218L1639-218Q1633-228 1619-233L1619-233Q1611-237 1600.50-240Q1590-243 1579-245L1579-245Q1566-248 1566-260L1566-260Q1566-272 1579-271L1579-271Q1595-269 1611.50-268.50Q1628-268 1643-268L1643-268Q1672-268 1672-300L1672-300L1672-375L1306-375L1306-180L1784-180L1801-201Q1808-209 1816-209L1816-209Q1821-209 1828.50-204Q1836-199 1844-191.50Q1852-184 1857-176.50Q1862-169 1862-165L1862-165Q1862-158 1854-152L1854-152L1836-138Q1834-4 1803 38L1803 38Q1798 45 1791.50 51.50Q1785 58 1776.50 63.50Q1768 69 1759.50 72.50Q1751 76 1743 76L1743 76Q1735 76 1731 71Q1727 66 1723 59ZM1517-226L1517-226Q1506-226 1492-244L1492-244Q1448-295 1384-326L1384-326Q1374-331 1379-341L1379-341Q1384-351 1395-349L1395-349Q1404-347 1418.50-342.50Q1433-338 1449.50-332Q1466-326 1482.50-318Q1499-310 1512.50-300.50Q1526-291 1534.50-280.50Q1543-270 1543-258L1543-258Q1543-226 1517-226ZM1689-49L1689-49L1164-49Q1151-49 1146-62L1146-62Q1142-74 1155-74L1155-74L1603-74L1638-118Q1644-126 1652-126L1652-126Q1658-126 1665.50-120Q1673-114 1680.50-106Q1688-98 1695-89.50Q1702-81 1705-77L1705-77Q1711-69 1706-59L1706-59Q1701-49 1689-49Z" /><path d="M2263 52L2263 52Q2256 52 2228-7L2228-7Q2221-21 2233-30L2233-30L2251-45L2251-286L2138-286Q2125-286 2121-299L2121-299Q2118-311 2131-311L2131-311L2251-311L2251-477L2161-477Q2154-466 2147.50-455.50Q2141-445 2134-435L2134-435Q2131-429 2126-429L2126-429Q2123-429 2118-432L2118-432Q2109-438 2114-449L2114-449Q2197-609 2228-803L2228-803Q2231-821 2244-821L2244-821Q2250-821 2260-817.50Q2270-814 2280.50-809Q2291-804 2298.50-798Q2306-792 2306-786L2306-786Q2306-772 2273-766L2273-766Q2268-739 2261-713.50Q2254-688 2246-663L2246-663L2381-663L2401-694Q2409-707 2417-707L2417-707Q2424-707 2432-697L2432-697Q2446-681 2459-663L2459-663Q2465-654 2460-646L2460-646Q2456-638 2446-638L2446-638L2238-638Q2225-603 2209.50-569Q2194-535 2175-502L2175-502L2345-502L2367-534Q2375-544 2383-544L2383-544Q2390-544 2396-536L2396-536Q2402-529 2408.50-521.50Q2415-514 2422-504L2422-504Q2429-497 2424-487L2424-487Q2419-477 2408-477L2408-477L2299-477L2299-311L2368-311L2389-344Q2396-356 2404-356L2404-356Q2412-356 2420-346L2420-346Q2425-339 2431-332Q2437-325 2444-316L2444-316Q2451-307 2446-297L2446-297Q2441-286 2428-286L2428-286L2299-286L2299-66Q2338-86 2372-105Q2406-124 2435-142L2435-142Q2439-145 2443-145L2443-145Q2448-145 2450-136L2450-136L2451-134Q2454-122 2444-114L2444-114Q2399-77 2360-47Q2321-17 2288 8L2288 8L2275 39Q2269 52 2263 52ZM2584-18L2793-18L2793-279L2584-279L2584-18ZM2821 72L2821 72L2813 72Q2793 72 2793 52L2793 52L2793 7L2584 7L2584 52Q2584 72 2564 72L2564 72L2556 72Q2536 72 2536 52L2536 52L2536-260Q2533-257 2523.50-250Q2514-243 2502-234Q2490-225 2476.50-215.50Q2463-206 2451.50-197.50Q2440-189 2431.50-184Q2423-179 2420-179L2420-179Q2414-179 2410-185L2410-185Q2404-195 2413-203L2413-203Q2577-333 2664-468L2664-468Q2691-509 2715.50-559.50Q2740-610 2764-669L2764-669L2603-669Q2592-644 2578-619Q2564-594 2548-568L2548-568Q2646-520 2646-463L2646-463Q2646-427 2617-427L2617-427Q2599-427 2592-454L2592-454Q2580-504 2536-548L2536-548Q2514-518 2491.50-490.50Q2469-463 2444-438L2444-438Q2441-434 2436-434L2436-434Q2432-434 2428-438L2428-438Q2421-447 2428-457L2428-457Q2543-607 2598-807L2598-807Q2603-822 2615-822L2615-822Q2620-822 2631-818.50Q2642-815 2653-809.50Q2664-804 2672-797.50Q2680-791 2680-785L2680-785Q2680-772 2643-766L2643-766Q2633-739 2626-721.50Q2619-704 2614-694L2614-694L2761-694L2782-721Q2789-731 2797-731L2797-731Q2804-731 2812-723L2812-723Q2847-688 2847-675L2847-675Q2847-667 2837-661L2837-661L2814-647Q2726-434 2589-306L2589-306L2592-304L2787-304L2805-328Q2812-338 2820-338L2820-338Q2825-338 2833.50-331.50Q2842-325 2850-316Q2858-307 2863.50-298.50Q2869-290 2869-286L2869-286Q2869-281 2863-274L2863-274L2841-257L2841 52Q2841 72 2821 72Z" /><path d="M3543 26L3543 26Q3401 26 3382 8L3382 8Q3364-9 3364-53L3364-53L3364-565Q3364-584 3381-584L3381-584Q3387-584 3398.50-583Q3410-582 3422-579Q3434-576 3443-571Q3452-566 3452-558L3452-558Q3452-545 3415-531L3415-531L3415-70Q3415-40 3430-34L3430-34Q3443-27 3530-27L3530-27Q3618-27 3632-35L3632-35Q3660-52 3672-224L3672-224Q3673-233 3679-233L3679-233Q3686-233 3691-227Q3696-221 3696-214L3696-214L3696-162Q3696-82 3705-59L3705-59Q3708-50 3715-45L3715-45Q3722-42 3725.50-38Q3729-34 3728-26L3728-26Q3722 7 3694 17L3694 17Q3667 26 3543 26ZM3845-145L3845-145Q3823-145 3811-192L3811-192Q3779-331 3677-471L3677-471Q3670-481 3677-491L3677-491Q3681-496 3684-496L3684-496Q3688-496 3692-492L3692-492Q3784-402 3836-309L3836-309Q3877-238 3877-191L3877-191Q3877-145 3845-145ZM3149-91L3149-91Q3118-91 3118-125L3118-125Q3118-144 3144-172L3144-172Q3219-252 3241-466L3241-466Q3242-475 3248-475L3248-475Q3255-475 3259.50-470.50Q3264-466 3264-459L3264-459L3264-446Q3264-270 3219-167L3219-167Q3186-91 3149-91ZM3573-558L3573-558Q3558-558 3538-591L3538-591Q3488-685 3371-769L3371-769Q3362-775 3367-785L3367-785Q3370-792 3376-792L3376-792Q3379-792 3382-791L3382-791Q3398-783 3420.50-771.50Q3443-760 3467.50-745Q3492-730 3516-712.50Q3540-695 3559-675.50Q3578-656 3589.50-635Q3601-614 3601-593L3601-593Q3601-558 3573-558Z" /><path d="M4520-671L4520-671Q4495-671 4489-708L4489-708Q4481-751 4433-804L4433-804Q4426-812 4432-822L4432-822Q4435-828 4441-828L4441-828Q4442-828 4443.50-827.50Q4445-827 4447-826L4447-826Q4552-767 4552-711L4552-711Q4552-671 4520-671ZM4163-469L4163-469Q4132-469 4132-504L4132-504Q4132-520 4152-545L4152-545Q4193-598 4197-695L4197-695Q4198-705 4207-705L4207-705Q4220-705 4222-693L4222-693Q4223-685 4223.50-678Q4224-671 4225-665L4225-665L4782-665L4804-695Q4811-705 4819-705L4819-705Q4827-705 4834-696L4834-696Q4882-643 4882-625L4882-625Q4882-616 4869-613L4869-613L4839-606Q4824-585 4805-563Q4786-541 4761-518L4761-518Q4756-513 4752-513L4752-513Q4748-513 4744-518L4744-518Q4736-526 4741-537L4741-537Q4771-595 4786-640L4786-640L4226-640Q4226-564 4209-519L4209-519Q4190-469 4163-469ZM4502 72L4502 72L4492 72Q4472 72 4472 52L4472 52L4472-333Q4355-132 4146-8L4146-8Q4142-5 4138-5L4138-5Q4131-5 4127-13L4127-13Q4119-25 4131-33L4131-33Q4332-171 4443-396L4443-396L4176-396Q4162-396 4159-409L4159-409Q4154-421 4167-421L4167-421L4472-421L4472-582Q4472-602 4490-602L4490-602Q4495-602 4506-601Q4517-600 4528.50-597Q4540-594 4548.50-589Q4557-584 4557-577L4557-577Q4557-564 4522-548L4522-548L4522-421L4744-421L4775-467Q4783-478 4790-478L4790-478Q4797-478 4805-470L4805-470Q4823-450 4842-424L4842-424Q4848-416 4843-406L4843-406Q4838-396 4827-396L4827-396L4532-396Q4658-202 4852-102L4852-102Q4865-95 4866.50-87Q4868-79 4858-68L4858-68Q4850-58 4843-47L4843-47Q4836-36 4827-36L4827-36Q4821-36 4814-40L4814-40Q4625-164 4522-369L4522-369L4522 52Q4522 72 4502 72Z" /></svg>