<svg xmlns="http://www.w3.org/2000/svg" viewBox="51 -832 5672 901.5714721679688" fill="#000000"><path d="M293-341L293-341Q369-341 417-396L417-396Q424-405 424-415L424-415Q415-622 285-622L285-622Q229-622 195-585L195-585Q161-548 161-482L161-482Q161-416 197-378L197-378Q233-341 293-341L293-341ZM213 14L213 14Q155 14 105-1L105-1Q85-8 85-29L85-29L85-67Q85-88 97-95.50Q109-103 129-97L129-97Q168-86 206-86L206-86Q356-86 402-222L402-222Q414-257 402-264.50Q390-272 359-261L359-261Q321-248 267-248L267-248Q209-248 160-276L160-276Q110-305 81-356L81-356Q51-409 51-481L51-481Q51-547 78-602L78-602Q105-656 157-689L157-689Q210-721 282-721L282-721Q368-721 424-677L424-677Q479-634 506-560L506-560Q532-485 532-397L532-397Q532-206 451-96L451-96Q370 14 213 14L213 14Z" /><path d="M812 6L812 6L763 6Q742 6 734.50-5.50Q727-17 736-37L736-37L988-575Q997-595 989.50-606.50Q982-618 961-618L961-618L681-618Q667-618 659-626Q651-634 651-648L651-648L651-683Q651-697 659-705Q667-713 681-713L681-713L1093-713Q1107-713 1115-705Q1123-697 1123-683L1123-683L1123-627Q1123-620 1120-614L1120-614L839-11Q831 6 812 6L812 6Z" /><path d="M1445 13L1445 13Q1349 13 1274-16L1274-16Q1257-25 1257-43L1257-43L1257-81Q1257-104 1269-111Q1281-118 1302-110L1302-110Q1365-87 1428-87L1428-87Q1600-87 1600-225L1600-225Q1600-284 1561-314L1561-314Q1521-343 1457-343L1457-343Q1396-343 1334-321L1334-321Q1314-314 1302.50-322Q1291-330 1291-351L1291-351L1291-683Q1291-697 1299-705Q1307-713 1321-713L1321-713L1633-713Q1647-713 1655-705Q1663-697 1663-683L1663-683L1663-648Q1663-634 1655-626Q1647-618 1633-618L1633-618L1428-618Q1414-618 1406-610Q1398-602 1398-588L1398-588L1398-469Q1398-452 1407.50-444Q1417-436 1434-438L1434-438Q1443-439 1452.50-439.50Q1462-440 1471-440L1471-440Q1582-440 1646-382L1646-382Q1710-324 1710-224L1710-224Q1710-117 1641-52L1641-52Q1570 13 1445 13L1445 13Z" /><path d="M1849 50L1849 50Q1846 48 1843.50 47Q1841 46 1838 45L1838 45Q1813 32 1821 6L1821 6Q1849-91 1857-206L1857-206Q1861-272 1863-330Q1865-388 1865-441L1865-441L1865-765Q1865-779 1873-787Q1881-795 1895-795L1895-795L2066-795Q2080-795 2088-787Q2096-779 2096-765L2096-765L2096-77Q2096-60 2106-52Q2116-44 2133-49L2133-49Q2163-58 2193-70.50Q2223-83 2255-98L2255-98Q2291-115 2321-133.50Q2351-152 2377-172L2377-172Q2384-177 2386-184.50Q2388-192 2384-199L2384-199L2384-199Q2380-207 2373.50-208.50Q2367-210 2360-206L2360-206Q2272-152 2173-116L2173-116Q2148-106 2135-131L2135-131Q2133-133 2132.50-135Q2132-137 2130-139L2130-139Q2122-153 2125.50-163.50Q2129-174 2146-179L2146-179Q2168-185 2190-193Q2212-201 2235-210L2235-210Q2261-221 2283.50-232Q2306-243 2326-254L2326-254Q2333-259 2333.50-265.50Q2334-272 2329-277L2329-277L2329-277Q2316-290 2299-281L2299-281Q2242-255 2180-233L2180-233Q2170-230 2160.50-233.50Q2151-237 2145-245L2145-245Q2143-248 2141.50-251Q2140-254 2138-256L2138-256Q2117-285 2150-294L2150-294Q2168-299 2185-304.50Q2202-310 2219-316L2219-316Q2256-329 2253.50-339Q2251-349 2212-349L2212-349L2154-349Q2140-349 2132-357Q2124-365 2124-379L2124-379L2124-387Q2124-401 2132-409Q2140-417 2154-417L2154-417L2674-417Q2688-417 2696-409Q2704-401 2704-387L2704-387L2704-379Q2704-365 2696-357Q2688-349 2674-349L2674-349L2422-349Q2411-349 2401-341L2401-341Q2397-339 2396-337L2396-337Q2381-327 2394-314L2394-314Q2420-289 2437-262L2437-262Q2445-251 2456-247Q2467-243 2479-249L2479-249Q2514-267 2546.50-285Q2579-303 2608-322L2608-322Q2618-328 2628.50-326.50Q2639-325 2647-316L2647-316L2661-300Q2672-288 2669.50-275.50Q2667-263 2653-255L2653-255Q2642-248 2630-242Q2618-236 2606-229L2606-229Q2596-224 2591.50-214.50Q2587-205 2591-194L2591-194Q2623-104 2689-54L2689-54Q2719-30 2695 1L2695 1Q2693 4 2690 7Q2687 10 2685 13L2685 13Q2677 24 2665.50 27Q2654 30 2643 22L2643 22Q2559-41 2520-167L2520-167Q2515-185 2498-178L2498-178Q2482-170 2485-152L2485-152Q2492-121 2492-90L2492-90Q2492-68 2486-29L2486-29Q2478 11 2445 36L2445 36Q2407 68 2360 68L2360 68L2318 67Q2305 67 2296.50 59Q2288 51 2286 39L2286 39Q2285 34 2284 29.50Q2283 25 2281 20L2281 20Q2270-13 2303-10L2303-10Q2314-9 2323.50-9Q2333-9 2340-9L2340-9L2363-11Q2367-11 2369-12L2369-12Q2408-26 2408-91L2408-91L2408-102Q2406-113 2398-106L2398-106Q2344-67 2283.50-35Q2223-3 2155 21L2155 21Q2144 26 2134 21.50Q2124 17 2118 6L2118 6Q2112-4 2106.50-12Q2101-20 2096-26L2096-26L2096-31Q2096 30 2067 48L2067 48Q2055 55 2035.50 59Q2016 63 1987 64L1987 64Q1960 65 1955 37L1955 37Q1953 31 1951.50 24.50Q1950 18 1948 12L1948 12Q1938-20 1971-20L1971-20L2007-20Q2016-20 2016-29L2016-29L2016-223Q2016-237 2008-245Q2000-253 1986-253L1986-253L1967-253Q1954-253 1946-245Q1938-237 1937-224L1937-224Q1928-85 1894 34L1894 34Q1889 51 1877 55Q1865 59 1849 50L1849 50ZM2016-602L2016-602L2016-677Q2016-691 2008-699Q2000-707 1986-707L1986-707L1973-707Q1959-707 1951-699Q1943-691 1943-677L1943-677L1943-602Q1943-588 1951-580Q1959-572 1973-572L1973-572L1986-572Q2000-572 2008-580Q2016-588 2016-602L2016-602ZM2016-373L2016-373L2016-453Q2016-467 2008-475Q2000-483 1986-483L1986-483L1973-483Q1959-483 1951-475Q1943-467 1943-453L1943-453Q1943-430 1943-410.50Q1943-391 1942-374L1942-374Q1942-343 1973-343L1973-343L1986-343Q2000-343 2008-351Q2016-359 2016-373L2016-373ZM2547-456L2547-456L2279-456Q2265-456 2257-464Q2249-472 2249-486L2249-486L2249-488Q2249-502 2257-510Q2265-518 2279-518L2279-518L2547-518Q2561-518 2569-510Q2577-502 2577-488L2577-488L2577-486Q2577-472 2569-464Q2561-456 2547-456L2547-456ZM2665-469L2665-469L2645-469Q2631-469 2623-477Q2615-485 2615-499L2615-499L2615-525Q2615-539 2607-547Q2599-555 2585-555L2585-555L2245-555Q2231-555 2223-547Q2215-539 2215-525L2215-525L2215-499Q2215-485 2207-477Q2199-469 2185-469L2185-469L2168-469Q2154-469 2146-477Q2138-485 2138-499L2138-499L2138-593Q2138-607 2146-615Q2154-623 2168-623L2168-623L2665-623Q2679-623 2687-615Q2695-607 2695-593L2695-593L2695-499Q2695-485 2687-477Q2679-469 2665-469L2665-469ZM2552-634L2552-634L2521-634Q2493-634 2493-662L2493-662Q2493-674 2485.50-681.50Q2478-689 2466-689L2466-689L2377-689Q2365-689 2357.50-681.50Q2350-674 2350-662L2350-662Q2350-650 2342.50-642.50Q2335-635 2323-635L2323-635L2292-635Q2280-635 2272.50-642.50Q2265-650 2265-662L2265-662Q2265-674 2257.50-681.50Q2250-689 2238-689L2238-689L2162-689Q2148-689 2140-697Q2132-705 2132-719L2132-719L2132-732Q2132-746 2140-754Q2148-762 2162-762L2162-762L2235-762Q2249-762 2257-770Q2265-778 2265-792L2265-792L2265-802Q2265-816 2273-824Q2281-832 2295-832L2295-832L2320-832Q2334-832 2342-824Q2350-816 2350-802L2350-802L2350-792Q2350-778 2358-770Q2366-762 2380-762L2380-762L2463-762Q2477-762 2485-770Q2493-778 2493-792L2493-792L2493-800Q2493-814 2501-822Q2509-830 2523-830L2523-830L2549-830Q2563-830 2571-822Q2579-814 2579-800L2579-800L2579-792Q2579-778 2587-770Q2595-762 2609-762L2609-762L2683-762Q2697-762 2705-754Q2713-746 2713-732L2713-732L2713-719Q2713-705 2705-697Q2697-689 2683-689L2683-689L2607-689Q2594-689 2586.50-681.50Q2579-674 2579-662L2579-662Q2579-649 2571.50-641.50Q2564-634 2552-634L2552-634Z" /><path d="M3178 42L3178 42Q3170 33 3161 25L3161 25Q3146 11 3133 31L3133 31Q3125 40 3113 48L3113 48Q3091 62 3022 65L3022 65Q3010 65 3001.50 57.50Q2993 50 2991 38L2991 38Q2989 29 2986 20Q2983 11 2980 1L2980 1Q2970-23 2996-23L2996-23L3022-22Q3058-22 3059-25L3059-25Q3061-27 3061-225L3061-225Q3061-239 3053-247Q3045-255 3031-255L3031-255L2979-255Q2951-255 2949-227L2949-227Q2942-147 2930-81.50Q2918-16 2900 35L2900 35Q2894 52 2881.50 55Q2869 58 2854 50L2854 50Q2851 48 2847.50 46.50Q2844 45 2840 43L2840 43Q2814 30 2823 2L2823 2Q2864-116 2872-287L2872-287Q2875-367 2875-758L2875-758Q2875-772 2883-780Q2891-788 2905-788L2905-788L3116-788Q3130-788 3138-780Q3146-772 3146-758L3146-758L3146-97Q3146-60 3160-54.50Q3174-49 3192-81L3192-81Q3230-149 3249-237L3249-237Q3263-299 3271.50-367.50Q3280-436 3284-511L3284-511Q3285-525 3276.50-533.50Q3268-542 3254-542L3254-542L3198-542Q3184-542 3176-550Q3168-558 3168-572L3168-572L3168-600Q3168-614 3176-622Q3184-630 3198-630L3198-630L3257-630Q3271-630 3279-638Q3287-646 3287-660L3287-660L3287-797Q3287-811 3295-819Q3303-827 3317-827L3317-827L3348-827Q3362-827 3370-819Q3378-811 3378-797L3378-797Q3378-762 3377.50-728Q3377-694 3377-661L3377-661Q3376-647 3384.50-638.50Q3393-630 3407-630L3407-630L3686-630Q3700-630 3708-622Q3716-614 3716-600L3716-600L3716-572Q3716-558 3708-550Q3700-542 3686-542L3686-542L3559-542Q3545-542 3537-534Q3529-526 3529-512L3529-512L3529-392Q3529-348 3543-344Q3557-340 3577-379L3577-379Q3585-394 3592-409.50Q3599-425 3606-441L3606-441Q3611-453 3621.50-458Q3632-463 3644-459L3644-459L3672-449Q3686-444 3690.50-433.50Q3695-423 3689-410L3689-410Q3628-272 3536-155L3536-155Q3529-146 3529-137L3529-137L3529-52Q3529-27 3533-23L3533-23Q3538-17 3552-17L3552-17L3619-17Q3634-17 3639-40L3639-40Q3641-48 3641.50-62Q3642-76 3643-96L3643-96Q3646-134 3682-117L3682-117Q3687-115 3691-113.50Q3695-112 3700-110L3700-110Q3711-106 3717-97.50Q3723-89 3722-78L3722-78Q3715-3 3698 30L3698 30Q3679 67 3627 67L3627 67L3539 67Q3481 67 3462 42L3462 42Q3442 16 3442-52L3442-52L3442-47Q3425-32 3407.50-16.50Q3390-1 3370 15L3370 15Q3359 24 3348 22.50Q3337 21 3327 11L3327 11Q3324 8 3321 5Q3318 2 3315-2L3315-2Q3285-30 3316-55L3316-55Q3348-79 3377.50-107Q3407-135 3435-167L3435-167Q3442-176 3442-186L3442-186L3442-512Q3442-526 3434-534Q3426-542 3412-542L3412-542L3403-542Q3390-542 3382-534Q3374-526 3373-513L3373-513Q3369-425 3359-345.50Q3349-266 3333-194L3333-194Q3302-58 3226 42L3226 42Q3215 56 3202.50 55Q3190 54 3178 42L3178 42ZM3061-598L3061-598L3061-670Q3061-684 3053-692Q3045-700 3031-700L3031-700L2987-700Q2973-700 2965-692Q2957-684 2957-670L2957-670L2957-598Q2957-584 2965-576Q2973-568 2987-568L2987-568L3031-568Q3045-568 3053-576Q3061-584 3061-598L3061-598ZM3061-373L3061-373L3061-449Q3061-463 3053-471Q3045-479 3031-479L3031-479L2987-479Q2973-479 2965-471Q2957-463 2957-449L2957-449Q2957-428 2956.50-409.50Q2956-391 2956-374L2956-374Q2955-360 2963.50-351.50Q2972-343 2986-343L2986-343L3031-343Q3045-343 3053-351Q3061-359 3061-373L3061-373ZM3579-655L3579-655Q3531-695 3455-737L3455-737Q3438-746 3436-759Q3434-772 3448-785L3448-785L3462-800Q3469-806 3478.50-808Q3488-810 3496-805L3496-805Q3583-764 3640-717L3640-717Q3651-709 3651.50-697Q3652-685 3642-675L3642-675L3622-655Q3613-646 3601.50-646Q3590-646 3579-655L3579-655Z" /><path d="M4607 51L4607 51Q4592 23 4572-6.50Q4552-36 4526-68L4526-68Q4513-84 4516.50-97Q4520-110 4539-116L4539-116L4568-126Q4587-132 4600-117L4600-117Q4630-83 4654-51.50Q4678-20 4697 9L4697 9Q4705 23 4701 34.50Q4697 46 4682 51L4682 51L4646 65Q4634 70 4623.50 66Q4613 62 4607 51L4607 51ZM4348 36L4348 36Q4343 13 4335-12Q4327-37 4317-64L4317-64Q4311-80 4317-91Q4323-102 4339-105L4339-105L4372-111Q4397-116 4405-94L4405-94Q4418-64 4427-37Q4436-10 4443 16L4443 16Q4447 29 4441 38.50Q4435 48 4422 51L4422 51L4385 60Q4356 66 4348 36L4348 36ZM4123 31L4123 31Q4122 6 4120-18.50Q4118-43 4113-68L4113-68Q4111-84 4118.50-93.50Q4126-103 4141-104L4141-104L4172-106Q4198-108 4203-83L4203-83Q4210-53 4213-25.50Q4216 2 4218 27L4218 27Q4219 39 4211.50 47Q4204 55 4192 57L4192 57L4157 61Q4125 64 4123 31L4123 31ZM3907 66L3907 66L3875 52Q3856 44 3853.50 30.50Q3851 17 3865 1L3865 1Q3904-46 3933-108L3933-108Q3943-133 3969-126L3969-126L4005-116Q4019-112 4024.50-102Q4030-92 4024-78L4024-78Q3993-2 3940 59L3940 59Q3934 67 3924.50 69Q3915 71 3907 66L3907 66ZM4676-152L4676-152L3869-152Q3855-152 3847-160Q3839-168 3839-182L3839-182L3839-208Q3839-222 3847-230Q3855-238 3869-238L3869-238L4192-238Q4206-238 4214-246Q4222-254 4222-268L4222-268L4222-273Q4222-287 4214-295Q4206-303 4192-303L4192-303L3947-303Q3933-303 3925-311Q3917-319 3917-333L3917-333L3917-351Q3917-365 3925-373Q3933-381 3947-381L3947-381L4192-381Q4206-381 4214-389Q4222-397 4222-411L4222-411Q4222-425 4214-433Q4206-441 4192-441L4192-441L3963-441Q3949-441 3941-449Q3933-457 3933-471L3933-471L3933-765Q3933-779 3941-787Q3949-795 3963-795L3963-795L4580-795Q4594-795 4602-787Q4610-779 4610-765L4610-765L4610-471Q4610-457 4602-449Q4594-441 4580-441L4580-441L4349-441Q4335-441 4327-433Q4319-425 4319-411L4319-411Q4319-397 4327-389Q4335-381 4349-381L4349-381L4597-381Q4611-381 4619-373Q4627-365 4627-351L4627-351L4627-333Q4627-319 4619-311Q4611-303 4597-303L4597-303L4349-303Q4335-303 4327-295Q4319-287 4319-273L4319-273L4319-268Q4319-254 4327-246Q4335-238 4349-238L4349-238L4676-238Q4690-238 4698-230Q4706-222 4706-208L4706-208L4706-182Q4706-168 4698-160Q4690-152 4676-152L4676-152ZM4513-552L4513-552L4513-685Q4513-699 4505-707Q4497-715 4483-715L4483-715L4349-715Q4335-715 4327-707Q4319-699 4319-685L4319-685L4319-552Q4319-538 4327-530Q4335-522 4349-522L4349-522L4483-522Q4497-522 4505-530Q4513-538 4513-552L4513-552ZM4222-552L4222-552L4222-685Q4222-699 4214-707Q4206-715 4192-715L4192-715L4054-715Q4040-715 4032-707Q4024-699 4024-685L4024-685L4024-552Q4024-538 4032-530Q4040-522 4054-522L4054-522L4192-522Q4206-522 4214-530Q4222-538 4222-552L4222-552ZM4107-567L4107-567Q4095-609 4074-650L4074-650Q4060-679 4090-690L4090-690L4098-693Q4121-701 4133-680L4133-680Q4148-654 4159-629.50Q4170-605 4176-582L4176-582Q4179-571 4174.50-562Q4170-553 4159-549L4159-549L4149-545Q4134-540 4123-546Q4112-552 4107-567L4107-567ZM4384-535L4384-535L4376-538Q4362-543 4358-554.50Q4354-566 4360-579L4360-579Q4372-602 4382-625.50Q4392-649 4402-674L4402-674Q4407-687 4417-692.50Q4427-698 4441-693L4441-693L4456-687Q4470-682 4475-671Q4480-660 4473-646L4473-646Q4459-619 4446.50-594.50Q4434-570 4420-547L4420-547Q4407-527 4384-535L4384-535Z" /><path d="M5405 65L5405 65L5370 65Q5356 65 5348 57Q5340 49 5340 35L5340 35L5340-72Q5340-86 5332-94Q5324-102 5310-102L5310-102L5225-102Q5211-102 5203-110Q5195-118 5195-132L5195-132L5195-144Q5195-163 5188-165Q5181-167 5170-153L5170-153Q5160-140 5150-128.50Q5140-117 5129-105L5129-105Q5105-80 5079-109L5079-109Q5075-114 5071-118Q5067-122 5062-127L5062-127Q5036-151 5061-176L5061-176Q5127-237 5182-327L5182-327Q5239-419 5277-513L5277-513Q5284-531 5276.50-542Q5269-553 5249-553L5249-553L5109-553Q5095-553 5087-561Q5079-569 5079-583L5079-583L5079-614Q5079-628 5087-636Q5095-644 5109-644L5109-644L5310-644Q5324-644 5332-652Q5340-660 5340-674L5340-674L5340-796Q5340-810 5348-818Q5356-826 5370-826L5370-826L5405-826Q5419-826 5427-818Q5435-810 5435-796L5435-796L5435-674Q5435-660 5443-652Q5451-644 5465-644L5465-644L5684-644Q5698-644 5706-636Q5714-628 5714-614L5714-614L5714-583Q5714-569 5706-561Q5698-553 5684-553L5684-553L5529-553Q5510-553 5502.50-542Q5495-531 5502-513L5502-513Q5539-419 5594-331L5594-331Q5649-243 5711-182L5711-182Q5723-171 5723-157.50Q5723-144 5710-133L5710-133Q5704-127 5698.50-121Q5693-115 5687-109L5687-109Q5676-96 5663.50-95Q5651-94 5640-107L5640-107Q5631-118 5621.50-129Q5612-140 5604-152L5604-152Q5579-182 5579-144L5579-144L5579-132Q5579-118 5571-110Q5563-102 5549-102L5549-102L5465-102Q5451-102 5443-94Q5435-86 5435-72L5435-72L5435 35Q5435 49 5427 57Q5419 65 5405 65L5405 65ZM4994 69L4994 69L4962 69Q4948 69 4940 61Q4932 53 4932 39L4932 39L4932-384Q4932-410 4923-412.50Q4914-415 4898-395L4898-395Q4896-393 4895-391.50Q4894-390 4892-388L4892-388Q4878-371 4864.50-372.50Q4851-374 4841-394L4841-394Q4836-403 4831-411Q4826-419 4821-427L4821-427Q4816-436 4816-446.50Q4816-457 4824-465L4824-465Q4937-602 5008-799L5008-799Q5012-812 5022-817.50Q5032-823 5045-819L5045-819L5077-809Q5091-805 5096.50-794.50Q5102-784 5097-771L5097-771Q5082-729 5064.50-688Q5047-647 5027-606L5027-606Q5025-604 5024.50-600Q5024-596 5024-593L5024-593L5024 39Q5024 53 5016 61Q5008 69 4994 69L4994 69ZM5545-238L5545-238Q5530-263 5516-288.50Q5502-314 5489-341L5489-341Q5461-398 5448-395.50Q5435-393 5435-330L5435-330L5435-220Q5435-206 5443-198Q5451-190 5465-190L5465-190L5519-190Q5545-190 5552-203Q5559-216 5545-238L5545-238ZM5257-190L5257-190L5310-190Q5324-190 5332-198Q5340-206 5340-220L5340-220L5340-327Q5340-389 5327-391.50Q5314-394 5287-338L5287-338Q5273-312 5259.50-287Q5246-262 5231-238L5231-238Q5217-216 5223.50-203Q5230-190 5257-190L5257-190Z" /></svg>