<svg xmlns="http://www.w3.org/2000/svg" viewBox="93 -812 3854 919" fill="#000000"><path d="M247-784L247-784Q274-779 290-779L290-779L299-779L679-804Q696-805 708-808.50Q720-812 725-812Q730-812 741-806L741-806Q770-788 770-773Q770-758 753-756L753-756L751-756L520-740L519-694L867-715L879-716Q896-716 909.50-704.50Q923-693 923-684.50Q923-676 904.50-648.50Q886-621 842.50-575.50Q799-530 784-530L784-530Q777-530 777-540Q777-550 799-577Q821-604 848-662L848-662L518-643L514-465Q514-448 497-448L497-448L485-451Q452-460 452-483L452-483Q452-488 454.50-497Q457-506 459-542L459-542L462-640L200-625Q164-507 146-483L146-483Q143-479 137.50-479Q132-479 121-482L121-482Q93-490 93-507L93-507Q93-514 97-521L97-521Q140-605 164-711L164-711Q167-729 185-729L185-729Q220-729 220-708L220-708L212-675L463-690L464-736L316-725Q300-723 284-723Q268-723 254.50-743.50Q241-764 241-774Q241-784 247-784ZM577-622L577-622L680-610Q739-603 745-593L745-593Q748-588 748-583Q748-578 744.50-564Q741-550 731-550L731-550Q727-550 688-559.50Q649-569 579-576L579-576Q568-578 563-580.50Q558-583 558-590L558-590Q558-622 577-622ZM253-610L259-610Q333-604 396-590L396-590Q413-587 413-571L413-571Q413-568 413-565Q413-562 412-559L412-559Q409-538 397-538L397-538Q394-538 355-548.50Q316-559 253-567L253-567Q234-571 234-578Q234-585 238.50-597.50Q243-610 253-610L253-610ZM560-536L560-536L645-527Q685-522 720-514L720-514Q739-511 739-496L739-496Q739-490 735-475.50Q731-461 720-461L720-461Q714-461 670-472Q626-483 564-489L564-489Q545-491 545-507L545-507Q545-536 560-536ZM238-524L244-524Q313-520 387-504L387-504Q406-501 406-486L406-486Q406-480 405-477L405-477Q401-451 387-451L387-451Q383-451 353-460.50Q323-470 239-480L239-480Q219-483 219-494.50Q219-506 222-515Q225-524 238-524L238-524ZM507-312L507-312L547-308L557-308L740-319L753-384L566-372L550-372Q516-372 502-403L502-403Q496-418 496-423Q496-428 501.50-428Q507-428 518.50-425Q530-422 545-422L545-422L552-422L775-435L784-435Q798-435 809-426.50Q820-418 820-409.50Q820-401 815-389L815-389L797-319Q816-296 816-287.50Q816-279 808-276.50Q800-274 789-273L789-273L571-260L556-260Q536-260 529-264L529-264Q501-286 501-306L501-306Q501-312 507-312ZM167 57L167 57Q172 21 172-9L172-9L175-358Q175-390 169-403Q163-416 163-424Q163-432 175-432Q187-432 234-411L234-411L406-420L414-420Q426-420 441.50-410Q457-400 457-392Q457-384 454.50-380.50Q452-377 451-372L451-372L436-294Q454-270 454-261.50Q454-253 446.50-251Q439-249 428-248L428-248L232-239L232-185L365-190Q394-192 402.50-195Q411-198 416.50-198Q422-198 432-192L432-192Q458-176 458-159L458-159Q458-146 438-144L438-144L231-135L231-79L377-84Q404-86 413-89.50Q422-93 430.50-93Q439-93 455.50-78.50Q472-64 472-55L472-55Q472-41 450-38L450-38L231-29L230 75Q230 97 213 97L213 97Q201 97 184 87.50Q167 78 167 57ZM381-294L392-370L233-362L232-287L381-294ZM751-176L564-164L548-164Q514-164 500-195L500-195Q494-210 494-215Q494-220 499.50-220Q505-220 516.50-217Q528-214 543-214L543-214L550-214L781-227L792-227Q820-227 831-203L831-203Q834-195 834-191Q834-187 829-182.50Q824-178 822-176L822-176Q778-104 716-48L716-48Q806 2 939 39L939 39Q955 43 955 51L955 51Q955 53 948 63L948 63Q930 91 910 91L910 91Q905 91 869 79L869 79Q775 47 673-15L673-15Q568 61 444 89L444 89Q419 94 409 94Q399 94 399 87L399 87Q399 77 426 65L426 65Q547 12 625-44L625-44Q589-67 562.50-91.50Q536-116 536-121Q536-126 545-140Q554-154 562.50-154Q571-154 583-144L583-144Q627-102 666-77L666-77Q719-124 751-176L751-176Z" /><path d="M1616-789L1616-789L1614-801Q1614-811 1629-811Q1644-811 1663-794Q1682-777 1682-772Q1682-767 1677-757Q1672-747 1665-731.50Q1658-716 1647-698L1647-698L1819-709Q1841-712 1850-715.50Q1859-719 1866-719Q1873-719 1883.50-710Q1894-701 1900.50-691Q1907-681 1907-677L1907-677Q1907-669 1885-667L1885-667L1834-664Q1792-589 1739-534L1739-534Q1829-470 1936-430L1936-430Q1948-425 1948-422.50Q1948-420 1943-410L1943-410Q1927-380 1910-380L1910-380Q1905-380 1897-384L1897-384Q1785-435 1702-500L1702-500Q1643-453 1571-425L1571-425Q1541-413 1526-413Q1511-413 1511-417L1511-417Q1511-425 1534-437L1534-437Q1604-475 1666-528L1666-528Q1610-580 1588-604L1588-604Q1571-578 1545.50-551Q1520-524 1513.50-524Q1507-524 1507-531Q1507-538 1523.50-566Q1540-594 1578-679Q1616-764 1616-789ZM1256-469L1256-469L1329-460L1328-576Q1265-508 1205.50-466Q1146-424 1109-406Q1072-388 1063.50-388Q1055-388 1055-392L1055-392Q1055-399 1072-413L1072-413Q1181-492 1263-579L1263-579L1158-571L1133-570Q1116-570 1101.50-584Q1087-598 1087-613L1087-613Q1087-616 1093-616L1093-616L1131-611L1138-611L1302-622Q1283-639 1261.50-651Q1240-663 1240-670Q1240-677 1248.50-688.50Q1257-700 1266.50-700Q1276-700 1294-687.50Q1312-675 1324-663L1324-663Q1369-697 1406-739L1406-739L1236-722Q1211-720 1204-720L1204-720Q1183-720 1170.50-737.50Q1158-755 1158-762Q1158-769 1165-769L1165-769Q1185-765 1200-765L1200-765L1429-784L1441-784Q1461-784 1474.50-772.50Q1488-761 1488-750.50Q1488-740 1471-727L1471-727Q1419-676 1361-631L1361-631L1367-626L1486-635Q1500-635 1512.50-623.50Q1525-612 1525-604.50Q1525-597 1520-593Q1515-589 1507.50-578Q1500-567 1480-547L1480-547Q1434-497 1414-497L1414-497Q1406-497 1406-502L1406-502Q1406-511 1417-527Q1428-543 1440-560Q1452-577 1459-592L1459-592L1379-587L1381-467L1383-439Q1383-424 1369.50-414.50Q1356-405 1345-405Q1334-405 1317-412.50Q1300-420 1283-430.50Q1266-441 1255-450.50Q1244-460 1244-464.50Q1244-469 1256-469ZM1621-652L1615-645Q1653-603 1700-564L1700-564Q1738-604 1768-660L1768-660L1621-652ZM1247-133L1247-133Q1253-163 1253-186L1253-186L1257-325Q1257-345 1250-362Q1243-379 1243-385.50Q1243-392 1257-392Q1271-392 1311-374L1311-374L1390-379Q1452-444 1454-475L1454-475Q1456-491 1464-491Q1472-491 1483-483L1483-483Q1513-464 1513-448L1513-448Q1513-441 1496.50-425Q1480-409 1453-383L1453-383L1675-397L1684-397Q1698-397 1711.50-388Q1725-379 1725-371Q1725-363 1721.50-358.50Q1718-354 1717-348L1717-348L1700-245Q1699-230 1689-224L1689-224Q1672-211 1659-211Q1646-211 1606-244Q1566-277 1566-291L1566-291Q1566-294 1572-294Q1578-294 1594-285Q1610-276 1649-262L1649-262L1660-355L1311-335L1309-164L1824-184L1834-184Q1849-184 1861.50-173Q1874-162 1874-155.50Q1874-149 1871-145.50Q1868-142 1864-116L1864-116Q1842 46 1811 83L1811 83Q1791 107 1774 107Q1757 107 1710 83L1710 83Q1623 39 1623 21L1623 21Q1623 15 1634 15Q1645 15 1674 25Q1703 35 1755 46L1755 46L1758 46Q1765 46 1767 40L1767 40Q1790-11 1809-140L1809-140L1309-123L1309-120Q1309-100 1292-100L1292-100Q1278-100 1262.50-110.50Q1247-121 1247-133ZM1536-239L1536-239Q1536-231 1528-218.50Q1520-206 1513.50-206Q1507-206 1504.50-207.50Q1502-209 1476-228Q1450-247 1418.50-263.50Q1387-280 1383.50-283.50Q1380-287 1380-292.50Q1380-298 1387.50-308Q1395-318 1400-318Q1405-318 1433.50-306.50Q1462-295 1499-272.50Q1536-250 1536-239ZM1104-58L1107-58Q1123-53 1142-53L1142-53L1152-53L1597-71Q1606-73 1614.50-74.50Q1623-76 1630-78.50Q1637-81 1641.50-81Q1646-81 1656-74L1656-74Q1685-56 1685-41L1685-41Q1685-29 1664-27L1664-27L1167-6Q1160-5 1155-5L1155-5L1138-5Q1127-5 1117-15.50Q1107-26 1103-37.50Q1099-49 1099-53.50Q1099-58 1104-58L1104-58Z" /><path d="M2097-592L2097-592Q2122-587 2149-587L2149-587L2162-587L2463-605L2462-730Q2462-753 2454-764.50Q2446-776 2446-783Q2446-790 2464.50-790Q2483-790 2506.50-782Q2530-774 2530-761L2530-761L2529-609L2814-626Q2847-629 2857.50-632Q2868-635 2877-635Q2886-635 2899.50-625.50Q2913-616 2922.50-605Q2932-594 2932-588L2932-588Q2932-574 2913-572L2913-572L2730-561Q2698-476 2648.50-388.50Q2599-301 2546-234L2546-234Q2729-60 2943 26L2943 26Q2957 31 2957 36.50Q2957 42 2947 55L2947 55Q2920 88 2897 88L2897 88Q2892 88 2888 86L2888 86Q2679-13 2504-186L2504-186Q2388-65 2235 14L2235 14Q2171 47 2126 63.50Q2081 80 2068 80Q2055 80 2055 73L2055 73Q2055 64 2074 54L2074 54Q2230-30 2354-130L2354-130Q2416-181 2460-231L2460-231Q2365-341 2271-535L2271-535L2185-530Q2167-528 2151-528Q2135-528 2123-533L2123-533Q2107-541 2094-570L2094-570Q2092-575 2090.50-578Q2089-581 2089-585L2089-585Q2089-592 2097-592ZM2649-557L2338-539Q2416-377 2501-280L2501-280Q2597-405 2649-557L2649-557Z" /><path d="M3933-620L3933-620Q3947-620 3947-530L3947-530L3947-497Q3947-460 3941-442Q3935-424 3920-413L3920-413Q3889-392 3787-392L3787-392Q3754-392 3724-395.50Q3694-399 3675.50-417.50Q3657-436 3657-480L3657-480L3657-483L3661-755Q3661-774 3655-784.50Q3649-795 3649-796L3649-796Q3649-803 3661-803Q3673-803 3692-796.50Q3711-790 3714.50-783.50Q3718-777 3718-769L3718-769L3718-767L3716-613Q3804-662 3823-694L3823-694Q3831-708 3834-719Q3837-730 3843-730L3843-730Q3859-730 3877-690L3877-690Q3884-675 3884-666Q3884-657 3875-651L3875-651Q3820-612 3715-561L3715-561L3714-490Q3714-457 3736-450L3736-450Q3746-446 3785-446Q3824-446 3848-449.50Q3872-453 3884.50-466.50Q3897-480 3903.50-508Q3910-536 3916-578Q3922-620 3933-620ZM3069-537L3074-537L3107-533L3113-533Q3117-533 3120-534L3120-534L3216-543L3218-733Q3218-751 3209.50-764Q3201-777 3201-783.50Q3201-790 3212.50-790Q3224-790 3245-782.50Q3266-775 3270.50-768.50Q3275-762 3275-751L3275-751L3273-549L3318-554Q3343-557 3349.50-559.50Q3356-562 3363.50-562Q3371-562 3382-554L3382-554Q3410-534 3410-522Q3410-510 3390-508L3390-508L3272-497L3271-403Q3279-410 3284.50-410Q3290-410 3299-405L3299-405Q3323-392 3385-298L3385-298Q3393-289 3393-278Q3393-267 3377-258Q3361-249 3351.50-249Q3342-249 3330-270L3330-270Q3289-340 3270-361L3270-361L3265 71Q3265 95 3248 95L3248 95Q3242 95 3230 90L3230 90Q3201 77 3201 53L3201 53Q3201 50 3205.50 32Q3210 14 3210-18L3210-18L3210-46Q3213-183 3213-249.50Q3213-316 3216-358L3216-358L3217-372Q3203-324 3190-298L3190-298Q3125-178 3090.50-136Q3056-94 3048-94Q3040-94 3040-103Q3040-112 3060-149L3060-149Q3137-287 3208-490L3208-490L3141-483Q3125-481 3112-481Q3099-481 3091-486L3091-486Q3061-511 3061-530L3061-530Q3061-537 3069-537L3069-537ZM3610-584L3490-576L3488-443Q3548-460 3586-475.50Q3624-491 3632.50-491Q3641-491 3641-485L3641-485Q3641-459 3491-391L3491-391Q3412-355 3398-355L3398-355Q3374-355 3353-387L3353-387Q3341-406 3341-407L3341-407Q3341-414 3356-414L3356-414L3367-414Q3391-414 3433-426L3433-426L3435-728Q3435-757 3428.50-765.50Q3422-774 3422-778.50Q3422-783 3432.50-783Q3443-783 3464-776Q3485-769 3488.50-762Q3492-755 3492-746L3492-746L3491-628L3540-631Q3561-633 3570-636.50Q3579-640 3582-640L3582-640L3590-640Q3596-640 3607-633L3607-633Q3634-616 3634-598L3634-598Q3634-586 3610-584L3610-584ZM3456 47L3456 47L3457 36Q3459 20 3459 7L3459 7L3459-12Q3459-17 3458-24L3458-24L3444-216Q3442-255 3434-276Q3426-297 3426-301L3426-301Q3426-308 3437.50-308Q3449-308 3502-285L3502-285L3542-286Q3611-367 3617-416L3617-416Q3618-427 3626-427Q3634-427 3646-420L3646-420Q3679-404 3679-386Q3679-368 3630-317L3630-317Q3612-299 3602-290L3602-290L3804-300Q3807-301 3819.50-301Q3832-301 3846-285.50Q3860-270 3860-261Q3860-252 3858-247Q3856-242 3855-237L3855-237L3830-15Q3858 12 3858 24Q3858 36 3834 36L3834 36L3517 43L3518 68L3518 70Q3518 85 3502 85L3502 85Q3499 85 3487 81L3487 81Q3456 70 3456 47ZM3788-163L3794-247L3502-235L3507-151L3788-163ZM3778-13L3785-111L3509-102L3514-6L3778-13Z" /></svg>