<svg xmlns="http://www.w3.org/2000/svg" viewBox="90 -822 3863 936" fill="#000000"><path d="M500-435L500-435Q466-437 446-464L446-464Q443-471 443-478L443-478L444-486Q452-516 452-626L452-626Q377-624 301-618L301-618Q258-618 215-613L215-613Q208-609 208-603L208-603Q194-550 173-500L173-500Q167-477 147-466L147-466Q120-466 102-478L102-478Q90-489 90-502L90-502Q90-509 94-517L94-517Q139-606 159-704L159-704Q162-718 173-728L173-728Q183-731 193-731L193-731Q209-731 224-721L224-721Q231-713 231-703L231-703L228-678Q340-684 452-692L452-692Q454-703 454-722L454-722Q372-714 289-711L289-711Q259-713 245-742L245-742Q237-754 237-767L237-767L238-779Q244-785 253-785L253-785Q275-782 296-782L296-782L322-783Q358-786 645-804L645-804Q677-805 707-811L707-811Q714-813 720-813L720-813Q742-813 765-786L765-786Q775-776 775-764L775-764L774-757Q766-748 754-744L754-744Q642-737 529-726L529-726L528-697Q678-705 828-716L828-716L859-717L889-716Q910-708 921-690L921-690Q924-683 924-677L924-677Q924-658 876-602L876-602Q841-558 797-524L797-524Q786-516 774-516L774-516Q764-524 764-534L764-534Q764-552 778-567L778-567Q808-604 828-649L828-649Q812-649 795.50-647Q779-645 762-645L762-645Q577-636 526-629L526-629L524-466Q524-442 500-435ZM734-540L734-540Q721-540 706-542L706-542Q652-559 594-563L594-563Q573-563 559-573L559-573Q557-580 557-586L557-586Q557-617 582-620L582-620Q624-619 664-614L664-614Q684-612 704-608.50Q724-605 741-594L741-594Q748-585 748-575L748-575Q748-557 734-540ZM405-529L405-529L397-529Q380-529 363-536L363-536Q308-549 252-558L252-558Q241-565 241-575L241-575Q241-591 255-603L255-603Q268-608 281-608L281-608Q286-608 326-603.50Q366-599 405-591L405-591Q423-580 422.50-559.50Q422-539 405-529ZM718-454L718-454L713-454Q683-454 653-465L653-465Q607-475 560-478L560-478Q549-482 542-491L542-491Q542-514 551-533L551-533Q562-537 574-537L574-537Q584-537 594-534L594-534Q659-530 722-513L722-513L731-502L732-489Q732-469 718-454ZM391-439L391-439Q367-441 345-451L345-451Q304-462 262-465L262-465Q239-465 221-476L221-476Q215-482 215-490L215-490Q215-499 221-513L221-513Q231-526 246-526L246-526L254-525Q396-515 414-492L414-492Q416-485 416-478L416-478Q416-445 391-439ZM229 101L217 102Q200 102 184 94L184 94Q162 82 162 57L162 57L167-20Q167-167 169-313L169-313L169-364Q169-384 162-404L162-404Q158-411 158-417L158-417Q158-424 164-431L164-431Q172-435 180-435L180-435Q190-435 238-416L238-416Q277-416 317-420L317-420Q334-420 351.50-421.50Q369-423 387-423L387-423L416-423Q452-423 466-392L466-392Q465-370 457-349L457-349Q451-322 447-295L447-295Q450-285 456.50-276Q463-267 463-256L463-256Q463-241 445-239L445-239Q414-236 258-229L258-229Q251-229 244-226L244-226L244-192L252-191L278-193Q329-193 379-197L379-197Q391-199 399.50-201.50Q408-204 414-204L414-204Q440-204 462-174L462-174Q466-166 466-159L466-159Q466-146 452-138L452-138Q427-133 402-133L402-133L387-133L244-124L244-88Q320-93 395-96L395-96Q407-98 415.50-100.50Q424-103 429-103L429-103Q437-103 445-99L445-99Q459-91 470-79.50Q481-68 481-52L481-52L481-49Q471-36 456-33.50Q441-31 426-31L426-31Q253-23 243-22L243-22L244 27L243 77Q243 84 238.50 90Q234 96 229 101L229 101ZM244-311L245-291L375-299Q381-328 382-358L382-358L247-351Q244-331 244-311L244-311ZM551-249L551-249Q509-251 493-292L493-292L492-302Q492-315 504-315L504-315Q530-314 555-312L555-312L725-323L729-327Q732-350 737-371L737-371Q656-368 574-361L574-361L542-361Q530-361 519-367L519-367Q488-385 488-414L488-414Q488-425 495-433L495-433L532-425Q593-425 629-427L629-427Q705-436 781-436L781-436Q805-435 821-414L821-414Q821-384 812-361L812-361L802-318L819-289Q819-272 805-267L805-267Q744-258 551-249ZM413 98L413 98L398 97Q393 90 393 83L393 83Q393 75 401 68L401 68Q430 48 462 36L462 36Q537 0 606-44L606-44Q591-58 573-70Q555-82 542-99L542-99L542-106Q542-133 574-148L574-148Q585-148 593-141L593-141Q657-92 662-92L662-92Q665-92 668-94L668-94Q703-126 729-164L729-164Q699-164 681-162L681-162Q622-157 529-157L529-157Q497-172 487-204L487-204Q490-211 492-220L492-220Q501-224 510-224L510-224Q518-224 527-221L527-221L553-220L578-221Q604-224 629-224L629-224Q643-224 656.50-226Q670-228 683-228L683-228Q713-228 736-230.50Q759-233 777-233L777-233L801-232Q825-226 836-203L836-203L837-191Q837-185 833-180L833-180Q772-94 727-52L727-52Q828 2 939 30L939 30Q952 34 958 49L958 49Q950 65 939 79Q928 93 910 97L910 97Q894 97 878.50 91.50Q863 86 848 80L848 80Q761 47 681-2L681-2Q675-5 667-5L667-5Q572 64 459 91L459 91Q437 98 413 98Z" /><path d="M1765 114L1765 114Q1750 114 1720 100L1720 100Q1665 76 1620 40L1620 40Q1609 30 1609 18L1609 18Q1609 11 1613 3L1613 3Q1621 1 1630 1L1630 1Q1648 1 1666 9L1666 9Q1706 20 1748 29L1748 29Q1754 26 1756 18L1756 18Q1778-52 1789-125L1789-125Q1771-125 1753.50-123.50Q1736-122 1719-122L1719-122Q1688-122 1656.50-120Q1625-118 1594-118L1594-118Q1552-118 1512-114L1512-114Q1406-112 1301-104L1301-104Q1239-104 1239-144L1239-144Q1246-187 1246-232L1246-232Q1250-279 1250-325L1250-325Q1250-337 1246.50-347.50Q1243-358 1240-369L1240-369Q1241-396 1265-396L1265-396Q1278-396 1308-381L1308-381L1369-381Q1385-381 1395-392L1395-392Q1411-410 1426.50-429.50Q1442-449 1445-474L1445-474Q1445-486 1454-494L1454-494Q1499-494 1521-447L1521-447L1513-426Q1555-455 1597-482L1597-482Q1624-501 1647-522L1647-522L1590-580L1583-580Q1559-547 1528-519L1528-519Q1521-513 1513-513L1513-513Q1498-513 1498-526L1498-526Q1498-531 1500-536L1500-536Q1515-563 1527-592L1527-592Q1541-616 1551-641L1551-641Q1601-747 1601-801L1601-801L1610-810L1621-811Q1647-811 1677-779L1677-779Q1685-771 1685-761L1685-761Q1685-749 1659-701L1659-701Q1679-701 1699-703Q1719-705 1739-705L1739-705L1816-712Q1841-719 1866-720L1866-720Q1882-711 1894.50-697Q1907-683 1907-665L1907-665L1907-662Q1893-652 1876.50-650.50Q1860-649 1845.50-648.50Q1831-648 1826-636L1826-636Q1793-579 1747-531L1747-531L1758-521Q1839-469 1929-435L1929-435Q1938-432 1945-426L1945-426L1949-415Q1941-392 1923-375L1923-375Q1912-367 1901-367L1901-367Q1892-367 1883-372L1883-372Q1807-406 1738-454L1738-454Q1719-469 1699-482L1699-482L1678-469Q1629-435 1573-415L1573-415Q1554-407 1531-406L1531-406L1506-415Q1491-403 1478-389L1478-389Q1522-389 1565.50-394.50Q1609-400 1653-401L1653-401Q1663-403 1672-403L1672-403Q1703-403 1726-380L1726-380Q1731-372 1731-364L1731-364L1730-355Q1720-328 1718-300L1718-300Q1712-265 1705-232L1705-232Q1694-202 1661-196L1661-196Q1645-196 1634-203L1634-203L1609-219Q1591-233 1574-248Q1557-263 1550-285L1550-285Q1555-300 1567-300L1567-300L1574-299Q1603-282 1635-274L1635-274Q1639-306 1644-336L1644-336Q1617-336 1450-325L1450-325Q1422-325 1395-322L1395-322L1326-320Q1323-317 1322-174L1322-174L1374-175Q1400-177 1425-177Q1450-177 1762-190L1762-190Q1784-193 1806-193L1806-193L1833-192Q1861-187 1876-162L1876-162Q1878-157 1878-151L1878-151Q1878-146 1876-141L1876-141Q1872-130 1870-119L1870-119Q1861-48 1842 20L1842 20Q1836 46 1823 70.50Q1810 95 1786 109L1786 109Q1776 114 1765 114ZM1695-572L1695-572Q1697-572 1700-574L1700-574Q1726-606 1745-643L1745-643Q1715-643 1685.50-640.50Q1656-638 1626-637L1626-637Q1638-622 1688-575L1688-575Q1691-572 1695-572ZM1066-378L1066-378Q1055-380 1050-391L1050-391Q1068-416 1094-434L1094-434Q1163-486 1225-545L1225-545Q1236-555 1242-566L1242-566Q1211-564 1188.50-561Q1166-558 1150-558L1150-558Q1135-558 1119-560L1119-560Q1104-567 1092.50-580Q1081-593 1081-610L1081-610Q1089-618 1102-618L1102-618Q1115-615 1139-615L1139-615Q1167-615 1196-618L1196-618Q1231-621 1266-621L1266-621L1281-624Q1270-633 1256.50-640Q1243-647 1236-661L1236-661Q1247-690 1273-697L1273-697Q1302-690 1325-668L1325-668Q1357-691 1383-719L1383-719L1246-708Q1232-704 1219-704L1219-704Q1165-704 1152-750L1152-750Q1152-766 1164-768L1164-768Q1245-768 1300-775L1300-775Q1415-785 1439-785L1439-785Q1474-785 1493-756L1493-756Q1496-749 1496-743L1496-743Q1496-734 1490-726L1490-726Q1440-674 1382-631L1382-631Q1413-631 1446-635L1446-635Q1458-638 1469-638L1469-638Q1483-638 1496-634L1496-634Q1522-619 1522-593L1522-593L1521-581Q1502-557 1482-533Q1462-509 1435-492L1435-492Q1425-487 1414-484L1414-484L1400-492Q1402-517 1418-536.50Q1434-556 1444-578L1444-578Q1417-578 1389-574L1389-574Q1391-503 1391-431L1391-431Q1391-422 1385.50-415.50Q1380-409 1373-405L1373-405Q1359-395 1342-395L1342-395L1333-396Q1289-411 1253-442L1253-442Q1248-447 1248-455L1248-455Q1248-471 1262-471L1262-471L1321-465L1321-551Q1233-459 1119-397L1119-397Q1094-383 1066-378ZM1505-195L1505-195Q1496-195 1486-202L1486-202Q1449-231 1408-252L1408-252Q1392-259 1381-271L1381-271Q1381-300 1407-313L1407-313L1416-314Q1423-314 1430-310L1430-310Q1484-291 1530-258L1530-258Q1541-249 1541-237L1541-237L1540-230Q1536-213 1525.50-204Q1515-195 1505-195ZM1136 2L1136 2Q1116-3 1104.50-22Q1093-41 1093-60L1093-60Q1100-67 1114-67L1114-67Q1127-64 1161-64L1161-64Q1203-64 1590-80L1590-80Q1607-83 1618-86Q1629-89 1635-89L1635-89Q1645-89 1655-83L1655-83Q1682-70 1690-44L1690-44Q1689-27 1672-21L1672-21Q1604-16 1535-14L1535-14Q1169 2 1136 2Z" /><path d="M2671 90L2671 90Q2632 90 2613 57L2613 57Q2610 48 2610 39L2610 39Q2610 29 2614 19L2614 19Q2617-7 2617-32L2617-32Q2617-73 2616-112L2616-112Q2573-56 2515-17L2515-17Q2466 20 2408 44L2408 44Q2399 47 2390 47L2390 47L2379 46Q2375 40 2375 28L2375 28Q2386 10 2402-2L2402-2Q2478-58 2542-127L2542-127Q2559-143 2572-164L2572-164Q2535-161 2498-161L2498-161Q2456-161 2437-192L2437-192Q2434-198 2434-204L2434-204Q2434-211 2437-217L2437-217Q2441-219 2445-221.50Q2449-224 2453-224L2453-224Q2478-221 2503-221L2503-221L2533-222Q2573-225 2613-225L2613-225L2613-274L2530-266Q2516-266 2503-273L2503-273Q2500-281 2495-281L2495-281Q2492-281 2488-279L2488-279Q2464-254 2435-233L2435-233L2383-196Q2371-195 2357-195L2357-195L2356-203Q2356-213 2376-238L2376-238Q2365-237 2354-234Q2343-231 2332-231L2332-231Q2304-231 2274-226L2274-226L2273-112L2406-151L2415-152Q2436-152 2436-136L2436-136Q2436-120 2392-97L2392-97Q2315-59 2233-31L2233-31Q2128 11 2100 11L2100 11Q2076 11 2059-9.50Q2042-30 2037-55L2037-55Q2037-68 2053-68L2053-68Q2108-68 2184-87L2184-87Q2193-87 2198-94L2198-94Q2198-157 2200-218L2200-218Q2189-220 2178-220L2178-220Q2167-220 2156-218L2156-218L2139-217Q2125-217 2111-221L2111-221Q2082-240 2076-274L2076-274Q2076-285 2083-286Q2090-287 2094-287L2094-287Q2118-284 2125-284L2125-284L2184-287Q2196-287 2201-291L2201-291L2201-333Q2200-356 2189-378L2189-378Q2200-388 2214-388L2214-388Q2260-388 2273-363L2273-363Q2275-350 2275-337L2275-337L2274-316Q2274-304 2277-293L2277-293Q2309-296 2340-304L2340-304Q2371-300 2385-273L2385-273Q2389-264 2396-264L2396-264L2400-265Q2464-329 2508-402L2508-402L2469-401Q2450-401 2437-415L2437-415Q2417-439 2417-471L2417-471Q2430-471 2443-468.50Q2456-466 2469-466L2469-466Q2512-466 2545-471L2545-471L2566-520Q2546-519 2533.50-517.50Q2521-516 2516-516L2516-516Q2500-516 2486-525L2486-525Q2460-546 2460-583L2460-583L2472-587Q2505-581 2538-581L2538-581Q2562-581 2585-584L2585-584Q2593-609 2597-636L2597-636Q2557-634 2516-630L2516-630L2479-631Q2460-633 2448-648L2448-648Q2440-659 2436-668.50Q2432-678 2432-684L2432-684Q2432-691 2436-698L2436-698L2447-699Q2460-699 2473-694L2473-694L2494-693Q2514-693 2535-696L2535-696Q2573-697 2609-701L2609-701Q2617-745 2617-762L2617-762Q2617-776 2612-790L2612-790Q2608-798 2608-805L2608-805Q2608-814 2615-822L2615-822Q2645-822 2669-811L2669-811Q2681-807 2691.50-798Q2702-789 2702-775L2702-775L2693-705Q2710-705 2727.50-707Q2745-709 2762-709L2762-709Q2778-711 2789-715Q2800-719 2807-719L2807-719Q2834-719 2863-683L2863-683Q2866-678 2866-673L2866-673Q2866-668 2863-662L2863-662Q2847-652 2827-652L2827-652L2681-641Q2676-617 2669-594L2669-594Q2671-592 2671-589L2671-589Q2722-591 2771-600L2771-600Q2778-602 2785-602L2785-602Q2801-602 2814-588L2814-588Q2832-572 2837-549L2837-549Q2828-538 2812-535L2812-535Q2731-531 2650-523L2650-523Q2638-500 2628-474L2628-474Q2653-474 2677.50-476.50Q2702-479 2727-479L2727-479Q2759-482 2791.50-482.50Q2824-483 2854-495L2854-495Q2861-498 2867-498L2867-498Q2876-498 2885-492L2885-492Q2910-476 2920-449L2920-449Q2920-434 2909-427L2909-427Q2887-423 2865-423L2865-423Q2829-423 2802-420L2802-420Q2864-341 2947-285L2947-285Q2967-273 2984-257L2984-257Q2985-250 2985-241L2985-241Q2971-218 2948-206L2948-206Q2925-206 2909-219L2909-219Q2801-300 2751-377L2751-377Q2736-391 2725-410L2725-410Q2719-414 2709-414L2709-414Q2703-413 2596-406L2596-406Q2580-389 2566-368L2566-368Q2539-332 2507-299L2507-299Q2555-316 2597-326L2597-326Q2647-338 2690-363L2690-363Q2701-374 2715-381L2715-381Q2764-349 2764-324L2764-324L2763-318Q2753-304 2685-286L2685-286L2686-232Q2691-228 2698-228L2698-228Q2737-228 2779-233L2779-233Q2792-237 2801-239Q2810-241 2814-241L2814-241Q2822-241 2830-238L2830-238Q2855-225 2867-199L2867-199Q2867-182 2851-179L2851-179Q2770-173 2688-169L2688-169L2688 76Q2682 86 2671 90ZM2372-361L2372-361L2365-361Q2348-372 2341.50-390.50Q2335-409 2325-425L2325-425Q2280-413 2234-404L2234-404Q2208-399 2184.50-391.50Q2161-384 2140-384L2140-384L2129-384Q2102-399 2086-424L2086-424L2085-433Q2085-445 2093-455L2093-455Q2136-482 2184-621L2184-621L2175-621Q2162-621 2151-619.50Q2140-618 2131-618L2131-618L2114-619Q2073-634 2063-677L2063-677Q2063-692 2077-692L2077-692L2085-690L2119-689Q2171-689 2340-706L2340-706Q2351-709 2361-709L2361-709Q2399-709 2419-668L2419-668Q2421-663 2421-658L2421-658Q2421-645 2405-638L2405-638Q2357-633 2309-630L2309-630Q2297-630 2284.50-630Q2272-630 2264-621L2264-621Q2233-543 2194-468L2194-468L2195-464Q2243-473 2292-479L2292-479L2293-486Q2278-510 2261-531L2261-531Q2256-539 2256-547L2256-547Q2256-557 2264-565Q2272-573 2280.50-577.50Q2289-582 2295-582L2295-582Q2313-582 2325-560L2325-560L2390-461Q2419-418 2419-397L2419-397Q2419-385 2406-375L2406-375Q2392-361 2372-361ZM2880 45L2880 45Q2868 45 2858 35L2858 35Q2799-23 2733-74L2733-74Q2720-82 2720-94L2720-94Q2723-118 2748-132L2748-132Q2753-134 2758-134L2758-134Q2764-134 2770-131L2770-131Q2831-96 2886-51L2886-51Q2898-41 2910-30.50Q2922-20 2926-5L2926-5Q2920 28 2892 43L2892 43Q2886 45 2880 45Z" /><path d="M3791-378L3791-378Q3752-378 3714-383L3714-383Q3700-385 3690-394Q3680-403 3668-410L3668-410Q3649-436 3648-470L3648-470L3649-751Q3648-763 3644-771.50Q3640-780 3640-786L3640-786Q3640-792 3642-797L3642-797Q3651-803 3662-803L3662-803Q3669-803 3676-801L3676-801Q3692-798 3708-789.50Q3724-781 3727-763L3727-763Q3727-676 3725-623L3725-623Q3773-647 3807-687L3807-687Q3815-699 3820-713.50Q3825-728 3840-733L3840-733Q3860-725 3871-707Q3882-689 3888-670L3888-670Q3890-664 3890-659L3890-659Q3890-635 3778-575L3778-575Q3753-562 3727-551L3727-551Q3724-539 3722-497L3722-497Q3722-480 3728-464L3728-464Q3738-452 3754-452L3754-452L3785-451Q3818-451 3851-456L3851-456Q3877-464 3885.50-493.50Q3894-523 3897.50-556Q3901-589 3915-618L3915-618Q3921-621 3926-621L3926-621Q3933-621 3939-616L3939-616Q3951-594 3951-564L3951-564Q3953-540 3953-515L3953-515Q3953-481 3949-447L3949-447Q3943-415 3916-398L3916-398Q3871-378 3791-378ZM3254 101L3254 101Q3233 99 3215.50 86Q3198 73 3196 50L3196 50Q3208 3 3208-263L3208-263L3209-281L3208-299L3165-220Q3128-150 3071-94L3071-94Q3063-86 3054-86L3054-86Q3039-86 3039-97L3039-97L3039-113L3096-226Q3154-346 3198-472L3198-472Q3176-472 3155.50-469Q3135-466 3118-466L3118-466Q3091-466 3073-491L3073-491Q3058-507 3058-531L3058-531L3068-540L3081-541Q3097-541 3113-537L3113-537L3210-546Q3213-637 3213-727L3213-727Q3212-742 3205-753.50Q3198-765 3198-775L3198-775L3199-785Q3209-790 3219-790L3219-790Q3256-790 3283-764L3283-764Q3289-756 3289-745Q3289-734 3289-724L3289-724L3289-556Q3324-559 3355-564L3355-564Q3393-564 3408-533L3408-533Q3410-564 3410-595L3410-595Q3410-649 3412-704L3412-704Q3412-718 3410.50-731.50Q3409-745 3403-757L3403-757Q3400-763 3400-769L3400-769Q3400-773 3402-778L3402-778Q3413-783 3425-783L3425-783Q3439-783 3454-776L3454-776Q3479-771 3488-748L3488-748L3490-632Q3532-633 3574-641L3574-641L3584-642Q3597-642 3623-621L3623-621Q3633-614 3636-603.50Q3639-593 3639-582L3639-582Q3631-569 3617-567L3617-567Q3553-564 3488-559L3488-559Q3486-506 3486-453L3486-453Q3544-468 3601-486L3601-486Q3621-486 3630-476L3630-476L3631-467Q3631-456 3623-448L3623-448Q3596-423 3563.50-405.50Q3531-388 3498-370L3498-370Q3472-353 3441-345L3441-345Q3411-352 3401-382L3401-382Q3401-407 3405-422L3405-422Q3409-455 3409-499L3409-499Q3390-489 3363-489L3363-489L3287-480L3287-417Q3310-412 3325.50-396Q3341-380 3355-363L3355-363Q3406-293 3406-278L3406-278L3405-268Q3390-243 3357-238L3357-238Q3341-238 3331-254L3331-254Q3292-321 3284-321L3284-321L3285-271L3280 69Q3279 81 3273 91Q3267 101 3254 101ZM3506 90L3506 90Q3490 90 3475 82L3475 82Q3456 72 3450 52L3450 52L3451-13Q3436-236 3430-257.50Q3424-279 3419-302L3419-302Q3425-317 3439-317L3439-317L3446-316Q3467-311 3485.50-302.50Q3504-294 3524-294L3524-294Q3550-294 3586-360L3586-360Q3593-375 3596.50-392Q3600-409 3612-421L3612-421Q3630-421 3643.50-411Q3657-401 3669-389L3669-389Q3678-380 3680-366L3680-366Q3675-346 3660.50-331Q3646-316 3632-301L3632-301Q3678-302 3723-306L3723-306Q3749-306 3768.50-308Q3788-310 3801-310L3801-310L3827-309Q3864-293 3867-255L3867-255Q3844-123 3840-19L3840-19Q3860-3 3865 22L3865 22Q3865 32 3855 37Q3845 42 3836 42L3836 42Q3767 42 3699 46L3699 46Q3615 46 3531 50L3531 50Q3531 90 3506 90ZM3521-162L3521-162Q3543-162 3565-164Q3587-166 3609-166L3609-166Q3744-171 3762-173L3762-173Q3772-173 3776-178L3776-178L3779-236Q3529-226 3516-224L3516-224Q3516-208 3518-193Q3520-178 3521-162ZM3526-26L3530-19Q3547-21 3563-21L3563-21Q3610-21 3657-23Q3704-25 3750-25L3750-25Q3754-25 3759.50-25.50Q3765-26 3765-32L3765-32Q3770-67 3770-101L3770-101L3715-99Q3598-97 3524-92L3524-92Q3524-59 3526-26L3526-26Z" /></svg>