<svg xmlns="http://www.w3.org/2000/svg" viewBox="69 -782 4910 978" fill="#000000"><path d="M485-247L486-261Q495-261 505-261L505-261Q529-261 564-263Q599-265 642-269L642-269L642-344Q605-341 579-338L579-338Q577-338 575-338L575-338Q567-338 560.50-341.50Q554-345 546-350L546-350Q539-355 526.50-366.50Q514-378 508-382L508-382L511-394Q541-395 574-397Q607-399 642-402L642-402L642-473Q625-471 609.50-470Q594-469 581-467L581-467Q577-466 574-466L574-466Q568-466 562-469.50Q556-473 548-478L548-478Q540-483 527.50-494Q515-505 508-509L508-509L512-521Q541-523 574-525Q607-527 642-530L642-530Q642-590 641.50-629Q641-668 640-676L640-676Q640-695 637-708Q634-721 630-730Q626-739 622-744Q618-749 616-752L616-752L626-762Q636-760 649.50-756.50Q663-753 675.50-748Q688-743 696.50-736.50Q705-730 706-721L706-721Q706-705 706-690Q706-675 705-645L705-645Q704-631 704-602.50Q704-574 704-535L704-535Q742-539 777-542.50Q812-546 841-550L841-550Q843-550 844-550L844-550Q855-550 866-544.50Q877-539 878-522L878-522Q878-514 872.50-502.50Q867-491 848-490L848-490Q811-488 774.50-485Q738-482 704-479L704-479Q704-462 704-444Q704-426 703-407L703-407Q736-410 766.50-413.50Q797-417 823-420L823-420Q825-420 826-420L826-420Q837-420 848-414.50Q859-409 859-392L859-392Q859-391 859-389L859-389Q859-382 853.50-372Q848-362 828-359L828-359Q802-357 769.50-354Q737-351 703-349L703-349L703-275Q738-278 768-281.50Q798-285 815-287L815-287Q830-289 839.50-291.50Q849-294 854-296L854-296Q859-299 862-302L862-302Q866-302 876.50-298Q887-294 898.50-288.50Q910-283 920-277Q930-271 933-266L933-266Q933-266 933-265L933-265Q933-260 923.50-247Q914-234 907-203L907-203Q895-158 884-114.50Q873-71 853-19L853-19Q850-13 847-5.50Q844 2 839.50 8.50Q835 15 829.50 20Q824 25 818 25L818 25Q812 25 805 19Q798 13 786-1Q774-15 756.50-37.50Q739-60 713-93L713-93L735-115L797-67Q802-62 804-61.50Q806-61 806-61L806-61Q809-61 814-70L814-70Q819-81 825.50-103.50Q832-126 837.50-151Q843-176 847.50-198.50Q852-221 853-233L853-233Q845-232 829.50-230.50Q814-229 794-227Q774-225 750.50-222.50Q727-220 703-218L703-218Q703-156 703-96.50Q703-37 702.50 15Q702 67 701.50 107.50Q701 148 700 171L700 171Q700 184 692.50 190Q685 196 676 196L676 196L641 196L641 42Q641-13 641.50-78.50Q642-144 642-212L642-212Q605-208 579-206Q553-204 547-204L547-204Q537-204 530.50-207Q524-210 516-218L516-218L485-247ZM292 179L292-56Q242-52 202.50-48.50Q163-45 137-43L137-43Q134-43 132-43L132-43Q127-43 122-44.50Q117-46 106-54L106-54L69-82L75-94Q110-95 169-99.50Q228-104 292-109L292-109L292-187Q281-186 270-185.50Q259-185 247-183L247-183L247-181Q247-166 239.50-160.50Q232-155 218-154L218-154L192-153Q192-168 191.50-198Q191-228 190.50-261.50Q190-295 189-325Q188-355 187-369L187-369Q182-423 163-454L163-454L172-465Q207-456 227-447L227-447Q241-439 245-431L245-431L284-434Q286-453 287-469.50Q288-486 289-501L289-501L158-488Q156-488 153-488L153-488Q150-488 146-488.50Q142-489 134-494L134-494Q131-496 124.50-501Q118-506 111.50-511Q105-516 99.50-521Q94-526 91-529L91-529L96-540Q110-540 126.50-541Q143-542 166-544Q189-546 220-549Q251-552 293-556L293-556Q296-599 297-624Q298-649 299-661L299-661Q300-673 300-683L300-683Q300-688 299.50-696.50Q299-705 297-714L297-714Q295-723 291.50-731Q288-739 284-747L284-747L294-758Q314-750 328.50-743.50Q343-737 354-732L354-732Q372-723 372-709L372-709Q372-707 372-706L372-706Q371-700 369.50-686Q368-672 366.50-652.50Q365-633 363-610Q361-587 359-563L359-563Q385-565 413.50-568Q442-571 475-575L475-575Q478-575 480-575L480-575Q490-575 500-568Q510-561 510-547L510-547Q510-535 504-527.50Q498-520 485-519L485-519Q453-517 354-507L354-507Q352-487 351-470Q350-453 349-439L349-439L384-442Q411-444 425-459L425-459Q430-459 440.50-456.50Q451-454 463-450Q475-446 485-441Q495-436 499-431L499-431Q499-431 499-431L499-431Q499-428 490-417.50Q481-407 477-387L477-387Q475-377 473-360.50Q471-344 469.50-325.50Q468-307 467-288Q466-269 465-254L465-254Q473-251 478-245Q483-239 483-229L483-229Q483-204 458-201L458-201Q456-200 431.50-198Q407-196 356-192L356-192L356-114Q404-119 444-122.50Q484-126 508-129L508-129Q511-129 514-129L514-129Q527-129 536-121.50Q545-114 545-101L545-101Q545-91 539.50-82.50Q534-74 519-73L519-73L356-61Q356 8 355.50 61.50Q355 115 354 152L354 152Q354 179 325 179L325 179L292 179ZM247-377L247-339Q327-344 412-351L412-351L414-391Q402-389 358-386L358-386L247-377ZM247-295L247-238Q294-242 336-246Q378-250 407-253L407-253L409-296Q361-293 327.50-290.50Q294-288 274-286L274-286Q271-285 268-285L268-285Q263-285 257.50-287.50Q252-290 247-295L247-295Z" /><path d="M1135-319L1138-327L1321-360L1321-428Q1298-426 1281.50-425Q1265-424 1260-423L1260-423Q1257-422 1254-422L1254-422Q1246-422 1239.50-426.50Q1233-431 1224-439L1224-439L1190-470L1195-482Q1255-484 1321-488L1321-488L1321-552Q1306-551 1291.50-550Q1277-549 1264.50-548.50Q1252-548 1243-547Q1234-546 1230-546L1230-546Q1228-546 1226-546L1226-546Q1215-546 1208.50-550.50Q1202-555 1191-564L1191-564Q1183-570 1173.50-578.50Q1164-587 1157-593L1157-593L1162-605Q1196-605 1237-607Q1278-609 1320-612L1320-612Q1319-627 1319-638.50Q1319-650 1319-658L1319-658Q1319-677 1317-690.50Q1315-704 1312-714L1312-714Q1306-732 1297-747L1297-747L1306-759Q1345-747 1367-738L1367-738Q1388-730 1388-711L1388-711Q1388-697 1387.50-686.50Q1387-676 1387-668L1387-668L1386-623L1386-617Q1417-619 1444.50-622Q1472-625 1487-627L1487-627Q1489-627 1491-627L1491-627Q1502-627 1512-616Q1522-605 1522-590L1522-590Q1522-580 1516-572.50Q1510-565 1496-564L1496-564L1385-557L1385-494Q1406-496 1424-498Q1442-500 1456-502L1456-502Q1458-502 1460-502L1460-502Q1472-502 1481.50-491.50Q1491-481 1491-466L1491-466Q1491-440 1466-439L1466-439L1385-433L1385-371L1533-398L1538-360Q1518-354 1475.50-341Q1433-328 1385-313L1385-313Q1384-275 1384-247Q1384-219 1383-199L1383-199Q1382-171 1354-171L1354-171L1320-171L1321-294Q1282-282 1252.50-273.50Q1223-265 1215-262L1215-262Q1208-260 1203-260L1203-260Q1196-260 1189-264Q1182-268 1175-275L1175-275Q1167-283 1156.50-294.50Q1146-306 1135-319L1135-319ZM1149 191L1131 154Q1189 131 1229.50 109Q1270 87 1303 61L1303 61Q1336 35 1365.50 2.50Q1395-30 1411-59L1411-59Q1416-68 1420.50-77.50Q1425-87 1430-97L1430-97Q1379-93 1327-88Q1275-83 1221-77L1221-77Q1217-76 1214-76L1214-76Q1207-76 1200-79.50Q1193-83 1187-90L1187-90L1148-129L1151-142Q1164-141 1176-141L1176-141Q1182-141 1192.50-141.50Q1203-142 1215-142L1215-142Q1246-142 1453-160L1453-160L1462-194Q1470-228 1471.50-244Q1473-260 1473-268L1473-268Q1473-284 1470-301L1470-301L1488-310Q1495-305 1500.50-300Q1506-295 1511-290L1511-290Q1550-338 1570.50-377Q1591-416 1603-454L1603-454Q1614-486 1622.50-523Q1631-560 1637-597L1637-597L1576-589Q1575-589 1574-589L1574-589Q1564-589 1552-601L1552-601Q1548-605 1538.50-615Q1529-625 1513-643L1513-643L1518-653Q1534-653 1560-654.50Q1586-656 1623-660L1623-660L1698-668Q1716-670 1731.50-672Q1747-674 1756-676L1756-676Q1770-679 1781.50-689Q1793-699 1798-705L1798-705Q1803-704 1814-703Q1825-702 1839-697L1839-697Q1871-684 1872-676L1872-676Q1872-675 1872-673L1872-673Q1872-664 1864-641Q1856-618 1849-578L1849-578Q1844-553 1834.50-505Q1825-457 1813-394L1813-394Q1808-367 1804-349Q1800-331 1796-317.50Q1792-304 1788.50-294Q1785-284 1781-274L1781-274Q1775-259 1767-252.50Q1759-246 1752-246L1752-246Q1747-246 1738.50-253Q1730-260 1723-271L1723-271L1645-384L1669-406Q1677-398 1693.50-385Q1710-372 1720-364L1720-364Q1727-357 1731-357L1731-357Q1732-357 1734-357.50Q1736-358 1741-373L1741-373Q1744-382 1747.50-397Q1751-412 1755.50-431Q1760-450 1764-470.50Q1768-491 1771-511L1771-511Q1776-546 1779.50-573.50Q1783-601 1785-621L1785-621L1704-608Q1699-570 1690.50-531.50Q1682-493 1670-455L1670-455Q1655-409 1625-361.50Q1595-314 1542-258L1542-258Q1550-247 1553.50-242Q1557-237 1557-229L1557-229Q1557-221 1554.50-212.50Q1552-204 1544-182L1544-182Q1543-179 1542-176L1542-176L1541-173Q1541-170 1539-167L1539-167L1573-170Q1596-172 1630-174.50Q1664-177 1699.50-179.50Q1735-182 1769-185Q1803-188 1826-189L1826-189Q1827-189 1828-189L1828-189Q1841-189 1852-179Q1863-169 1863-152L1863-152Q1863-144 1857-133.50Q1851-123 1836-121L1836-121Q1833-121 1810.50-119.50Q1788-118 1754-116.50Q1720-115 1679-112.50Q1638-110 1599-108L1599-108Q1614-93 1629.50-76.50Q1645-60 1660-44.50Q1675-29 1687.50-16.50Q1700-4 1707 2L1707 2Q1737 28 1769.50 48Q1802 68 1841 76L1841 76Q1860 80 1876 80.50Q1892 81 1901 81L1901 81Q1918 81 1937 80L1937 80L1946 120Q1931 122 1908.50 126Q1886 130 1861 134Q1836 138 1813 142Q1790 146 1775 149L1775 149Q1770 150 1766 150L1766 150Q1754 150 1743 143Q1732 136 1716 119L1716 119Q1705 106 1679 75.50Q1653 45 1618 5L1618 5Q1589-27 1566-54Q1543-81 1523-104L1523-104Q1520-104 1517.50-103.50Q1515-103 1513-103L1513-103Q1505-87 1497-70.50Q1489-54 1479-37L1479-37Q1462-8 1435.50 22Q1409 52 1370 83L1370 83Q1292 144 1149 191L1149 191Z" /><path d="M2110-40L2082-84Q2144-135 2197-185Q2250-235 2292-286L2292-286L2292-308Q2290-348 2285-364L2285-364Q2279-383 2269-397L2269-397L2279-409Q2299-403 2314-398Q2329-393 2340-388L2340-388Q2354-382 2358-373L2358-373Q2369-390 2379.50-407Q2390-424 2400-441L2400-441Q2343-436 2296.50-432Q2250-428 2213-425L2213-425Q2211-425 2208-425L2208-425Q2201-425 2195-427L2195-427Q2188-430 2179-437L2179-437Q2165-447 2154.50-455.50Q2144-464 2137-471L2137-471L2141-482Q2176-484 2248.50-489Q2321-494 2434-504L2434-504Q2474-586 2499-663L2499-663Q2518-724 2518-758L2518-758Q2518-765 2517-770L2517-770L2528-782Q2543-769 2557-755.50Q2571-742 2581-728.50Q2591-715 2595-705.50Q2599-696 2599-690L2599-690Q2599-686 2598-683L2598-683Q2593-674 2578.50-646.50Q2564-619 2547-585L2547-585Q2538-565 2528.50-547Q2519-529 2510-511L2510-511Q2512-511 2513-511L2513-511L2520-512Q2522-512 2523-512L2523-512Q2599-518 2652.50-523Q2706-528 2743.50-532Q2781-536 2807-539Q2833-542 2853-545L2853-545Q2856-545 2858-545L2858-545Q2870-545 2878-537L2878-537Q2888-529 2890-512L2890-512Q2890-500 2884-491L2884-491Q2877-482 2864-481L2864-481Q2823-478 2787.50-475Q2752-472 2715-469Q2678-466 2636-462Q2594-458 2541-453L2541-453Q2524-451 2508-450Q2492-449 2476-448L2476-448Q2468-434 2460.50-420.50Q2453-407 2445-394L2445-394Q2411-339 2359-275L2359-275L2359-274Q2357-199 2356-118Q2355-37 2355 68L2355 68L2394 68Q2438 65 2586 53L2586 53Q2587 26 2587-24Q2587-74 2587-149L2587-149Q2575-148 2562.50-147Q2550-146 2536-144L2536-144Q2530-143 2461-135L2461-135L2453-134Q2439-134 2426-147L2426-147L2390-191L2393-200Q2411-199 2427-199L2427-199Q2442-199 2455-200L2455-200Q2470-200 2587-212L2587-212Q2587-273 2587-306Q2587-339 2586-345L2586-345Q2584-385 2579-401L2579-401Q2576-410 2572-418.50Q2568-427 2563-435L2563-435L2573-446Q2576-446 2603-438L2603-438Q2627-432 2643-421L2643-421Q2659-411 2659-399L2659-399Q2659-385 2658.50-374.50Q2658-364 2658-356L2658-356L2657-311Q2656-291 2656-268Q2656-245 2656-219L2656-219L2807-234Q2819-234 2832-223L2832-223Q2843-214 2843-198L2843-198Q2843-186 2837-177L2837-177Q2831-169 2818-167L2818-167Q2817-167 2803-166Q2789-165 2769.50-163.50Q2750-162 2729.50-160.50Q2709-159 2694-158L2694-158L2655-155L2655 47Q2717 43 2763 38L2763 38Q2775 37 2792.50 36Q2810 35 2827.50 33.50Q2845 32 2859 30.50Q2873 29 2878 29L2878 29Q2891 29 2904 38L2904 38Q2916 49 2916 65L2916 65Q2916 77 2910 86L2910 86Q2904 94 2890 96L2890 96L2783 104Q2705 109 2622.50 114Q2540 119 2441 129L2441 129L2401 132L2397 132Q2383 132 2371 119L2371 119L2355 100L2355 162Q2355 190 2327 190L2327 190L2293 190L2294-17Q2294-73 2294-118.50Q2294-164 2293-200L2293-200Q2255-158 2209-118Q2163-78 2110-40L2110-40Z" /><path d="M3835 177L3835 177Q3831 177 3821.50 175Q3812 173 3800 169.50Q3788 166 3775 160.50Q3762 155 3750 148L3750 148Q3701 119 3659 77L3659 77Q3637 56 3620 35Q3603 14 3589-6L3589-6Q3569-37 3547.50-76Q3526-115 3503-163L3503-163Q3493-184 3484.50-203Q3476-222 3468-242L3468-242Q3432-236 3393-229Q3354-222 3312-213L3312-213Q3310-212 3304-212L3304-212Q3296-212 3291-216L3291-216Q3287-218 3279-224L3279-224L3258-238Q3258-239 3257-239L3257-239L3255-240Q3255-241 3254-241L3254-241L3254 22Q3326-27 3373.50-61Q3421-95 3447-115L3447-115L3467-86Q3456-75 3430.50-51Q3405-27 3365 12L3365 12Q3319 57 3291.50 83.50Q3264 110 3254 118L3254 118Q3250 132 3239 139L3239 139Q3224 148 3210 148L3210 148Q3195 148 3181 139L3181 139Q3177 137 3172 134Q3167 131 3160 126L3160 126L3138 112L3135 104Q3140 102 3144 99.50Q3148 97 3152 95L3152 95L3169 82Q3175 77 3178 73.50Q3181 70 3183 65L3183 65Q3185 60 3185.50 54Q3186 48 3186 42L3186 42L3186-608Q3185-627 3181.50-641Q3178-655 3174-664L3174-664Q3168-684 3158-698L3158-698L3168-710Q3186-705 3205.50-699Q3225-693 3234-688L3234-688Q3251-680 3254-667L3254-667L3514-693Q3564-701 3589-721L3589-721Q3611-721 3632-714L3632-714Q3655-708 3662-695L3662-695Q3662-694 3662-693L3662-693Q3662-687 3655-663L3655-663Q3650-649 3648-630.50Q3646-612 3642-588L3642-588Q3642-585 3641-576.50Q3640-568 3639-556Q3638-544 3637-530.50Q3636-517 3634-503L3634-503L3641-504Q3642-504 3643-504L3643-504Q3654-504 3667-496L3667-496Q3679-487 3679-470L3679-470Q3679-459 3673-450L3673-450Q3667-440 3654-439L3654-439L3584-432L3465-420Q3470-403 3476.50-383.50Q3483-364 3492-338L3492-338Q3495-328 3498.50-319Q3502-310 3505-301L3505-301Q3571-311 3622-319Q3673-327 3711-334L3711-334Q3714-334 3716-334L3716-334Q3726-334 3736-328L3736-328Q3747-319 3751-305L3751-305Q3751-291 3746-282L3746-282Q3740-272 3725-271L3725-271Q3664-265 3614-260Q3564-255 3525-250L3525-250Q3537-218 3549-190Q3561-162 3574-136L3574-136Q3607-68 3657-12L3657-12Q3683 17 3709.50 38Q3736 59 3765 74L3765 74Q3771 77 3774 77L3774 77Q3776 77 3778 75Q3780 73 3781 68L3781 68Q3783 57 3788.50 13.50Q3794-30 3804-120L3804-120L3835-120Q3841-57 3846-1L3846-1Q3850 47 3853.50 93.50Q3857 140 3859 163L3859 163Q3859 164 3859 165L3859 165Q3859 173 3851 175Q3843 177 3835 177ZM3422-620L3425-618Q3443-607 3443-599L3443-599Q3443-597 3442-596L3442-596Q3436-577 3436-565L3436-565Q3436-557 3438.50-538.50Q3441-520 3446-491L3446-491Q3447-488 3447.50-485.50Q3448-483 3448-480L3448-480L3565-494L3572-640Q3566-635 3422-620L3422-620ZM3254-456L3398-474Q3382-533 3374.50-563Q3367-593 3367-594L3367-594Q3364-605 3360-614L3360-614Q3349-612 3337-611.50Q3325-611 3312-609L3312-609Q3277-606 3254-603L3254-603L3254-456ZM3254-395L3254-269Q3323-277 3449-293L3449-293Q3439-323 3428-359L3428-359L3414-411Q3414-412 3413.50-412.50Q3413-413 3413-414L3413-414L3403-413Q3353-407 3316-403Q3279-399 3254-395L3254-395Z" /><path d="M4213 176L4213-409Q4196-385 4180.50-364Q4165-343 4149.50-322.50Q4134-302 4116.50-282Q4099-262 4078-241L4078-241L4044-267Q4055-280 4069.50-297Q4084-314 4103-338.50Q4122-363 4145.50-396.50Q4169-430 4198-476L4198-476Q4258-573 4280.50-635.50Q4303-698 4303-734L4303-734Q4303-748 4300-760L4300-760L4309-766Q4323-755 4329-752L4329-752Q4333-749 4340-742.50Q4347-736 4358-725L4358-725Q4367-719 4370-703L4370-703Q4371-699 4371-688L4371-688Q4369-663 4333-600L4333-600Q4324-583 4310-559Q4296-535 4281-511L4281-511L4281-479Q4297-478 4310-478L4310-478Q4324-478 4334-479L4334-479Q4345-479 4355.50-480Q4366-481 4388.50-483.50Q4411-486 4450.50-490Q4490-494 4557-500L4557-500L4557-634Q4557-686 4543-708L4543-708Q4531-725 4525-730L4525-730Q4519-736 4505-742L4505-742L4510-761Q4524-760 4542-757.50Q4560-755 4583-751L4583-751Q4628-742 4628-716L4628-716L4628-507L4750-519Q4786-522 4812.50-524Q4839-526 4856-528L4856-528Q4857-528 4858-528L4858-528Q4870-528 4882-518L4882-518Q4893-507 4893-491L4893-491Q4893-480 4887-471L4887-471Q4880-462 4866-460L4866-460Q4862-459 4800-457L4800-457Q4786-456 4779-455.50Q4772-455 4760-454Q4748-453 4723.50-451Q4699-449 4651-445L4651-445Q4668-409 4693-361L4693-361Q4723-304 4747-265L4747-265Q4800-178 4831-141L4831-141Q4847-124 4857-116.50Q4867-109 4886-100L4886-100Q4905-90 4933-83Q4961-76 4978-74L4978-74L4979-37Q4973-37 4955-36Q4937-35 4916-33.50Q4895-32 4874.50-30Q4854-28 4843-27L4843-27Q4836-26 4832-26L4832-26Q4830-26 4827-26.50Q4824-27 4819-30L4819-30Q4812-35 4809.50-38.50Q4807-42 4802-49L4802-49Q4798-57 4792.50-66.50Q4787-76 4779-89L4779-89L4779-86Q4779-77 4772-66L4772-66Q4766-55 4752-55L4752-55Q4751-55 4739-54Q4727-53 4708.50-51.50Q4690-50 4669-48.50Q4648-47 4629-45L4629-45L4629 165Q4629 193 4599 193L4599 193L4558 193L4558-39Q4524-36 4493.50-33Q4463-30 4431-28L4431-28L4424-28Q4411-28 4400-38L4400-38L4364-74L4348-56Q4327-32 4310-12.50Q4293 7 4279 21L4279 21L4278 149Q4278 176 4249 176L4249 176L4213 176ZM4281-452L4279-45Q4299-66 4318-93L4318-93Q4366-153 4411-224L4411-224Q4489-352 4511-432L4511-432Q4455-426 4412.50-422Q4370-418 4339-414L4339-414L4333-414Q4320-414 4309-424L4309-424L4281-452ZM4379-92L4379-92Q4389-92 4396-92Q4403-92 4412-93L4412-93Q4430-94 4462-97Q4494-100 4558-105L4558-105L4557-374Q4552-362 4546.50-350.50Q4541-339 4535-328L4535-328Q4519-296 4494.50-256Q4470-216 4436-168L4436-168Q4425-152 4411-133.50Q4397-115 4379-92ZM4628-368L4629-111Q4652-113 4673-115.50Q4694-118 4710-119.50Q4726-121 4735-122Q4744-123 4744-123L4744-123Q4744-123 4744-123L4744-123Q4755-123 4762-117L4762-117Q4746-145 4726.50-180Q4707-215 4684-257L4684-257Q4659-298 4628-368L4628-368Z" /></svg>