<svg xmlns="http://www.w3.org/2000/svg" viewBox="52 -859 4894.1220703125 954.9474487304688" fill="#000000"><path d="M232 91Q246 99 280 85Q314 71 314 54Q314 37 323 31L323 31Q328 27 500 27L500 27Q513 27 537 27L537 27Q619 27 641 28L641 28Q676 30 683 37L683 37Q684 38 683 44L683 44Q682 50 682 55L682 55Q681 87 702 89Q723 91 758 74L758 74L763 71Q776 65 779 54Q782 43 780 6L780 6Q778-41 777-148L777-148Q776-253 777-256L777-256Q780-266 791-271L791-271Q810-281 810-299L810-299Q810-311 778-342.50Q746-374 740-375L740-375Q735-376 724-379L724-379Q720-382 703-360L703-360Q701-357 697-353L697-353Q686-337 665.50-334.50Q645-332 544-331L544-331Q514-331 497-331L497-331Q478-331 447-331L447-331Q349-331 328-332.50Q307-334 282-345L282-345Q278-348 275-348L275-348Q240-364 239.50-364.50Q239-365 271-384L271-384Q345-431 406-487L406-487Q431-511 443-508L443-508Q453-507 454-486L454-486Q455-460 450-390L450-390Q449-359 456-349.50Q463-340 476-340L476-340Q506-342 527-356Q548-370 547-399L547-399Q537-520 544.50-550Q552-580 586-530L586-530Q633-458 706-401L706-401Q718-392 742-371L742-371Q760-356 815-330L815-330Q818-328 824-327L824-327Q866-307 871.50-306Q877-305 882-319L882-319Q899-364 933-378L933-378Q961-390 951-403.50Q941-417 919-422L919-422Q842-439 757-477L757-477Q678-512 631-547L631-547Q596-571 598-573L598-573Q601-577 627-578L627-578Q648-578 759-579L759-579Q762-579 764-579L764-579Q857-580 882-580L882-580Q916-581 925-583L925-583Q931-585 934-597L934-597Q944-624 874-676L874-676Q850-695 845-694L845-694Q841-694 823-672L823-672Q822-669 819-664L819-664Q799-638 782.50-633.50Q766-629 694-629L694-629Q675-629 665-629L665-629Q656-629 640-629L640-629Q585-629 570-631L570-631Q547-633 544-641L544-641Q542-643 542-659L542-659Q542-666 542-669L542-669Q541-707 548-713.50Q555-720 611-726L611-726Q613-726 614-726L614-726Q679-734 704-738L704-738Q765-747 786-742L786-742Q819-733 818-751.50Q817-770 777-812L777-812Q775-813 764-824L764-824Q742-849 736.50-851.50Q731-854 718-849L718-849Q712-847 707-846L707-846Q600-814 443-784L443-784Q283-753 165-741L165-741Q147-739 139-735.50Q131-732 135-716Q139-700 223-701L223-701Q307-701 400-707L400-707Q441-710 447-704.50Q453-699 453-670L453-670Q453-643 451.50-639Q450-635 439-632L439-632Q425-628 274-629L274-629Q124-630 79-635L79-635Q65-637 61.50-628.50Q58-620 73-589L73-589Q74-588 75-588L75-588Q84-571 88-569Q92-567 117-571L117-571Q122-572 124-572L124-572Q178-579 263-579L263-579Q351-580 352.50-578Q354-576 351.50-571.50Q349-567 327-538L327-538Q281-483 211.50-425.50Q142-368 76-330L76-330Q62-322 54.50-311.50Q47-301 62-287L62-287Q61-288 62-284L62-284Q62-284 68-287L68-287Q107-299 159-324L159-324Q201-342 209-336Q217-330 220-287L220-287Q223-257 223-133Q223-9 220 28L220 28Q218 60 219.50 73Q221 86 232 91L232 91ZM499-23L499-23Q334-23 328-26L328-26Q312-34 312-77.50Q312-121 324-126L324-126Q333-132 499-132L499-132Q665-132 674-126L674-126Q686-121 686-77.50Q686-34 670-26L670-26Q664-23 499-23ZM676-185Q667-180 499-180L499-180Q329-181 322-186L322-186Q311-192 312-231.50Q313-271 324-276L324-276Q333-282 499-282L499-282Q665-282 674-276L674-276Q685-271 686-231.50Q687-192 676-185L676-185Z" /><path d="M1462 95Q1474 98 1499.50 91.50Q1525 85 1538 75L1538 75Q1546 69 1546 57.50Q1546 46 1544 6L1544 6Q1539-113 1543-120L1543-120L1545-121Q1548-130 1570-131.50Q1592-133 1712-133L1712-133Q1735-133 1748-133L1748-133Q1895-133 1919-134.50Q1943-136 1949-152Q1955-168 1932-191.50Q1909-215 1875-239L1875-239L1874-240Q1858-253 1853-250.50Q1848-248 1822-210L1822-210Q1821-209 1819-206L1819-206Q1808-189 1791.50-186Q1775-183 1698-183L1698-183Q1682-183 1674-183L1674-183Q1556-183 1550-187L1550-187Q1540-193 1541.50-208Q1543-223 1554-231L1554-231Q1566-238 1572.50-255.50Q1579-273 1567-269L1567-269Q1566-269 1567-270.50Q1568-272 1587-287L1587-287Q1609-305 1631-328L1631-328Q1645-341 1651.50-346Q1658-351 1669-351L1669-351Q1686-351 1715-318Q1744-285 1761-252L1761-252Q1774-227 1792-223L1792-223Q1806-220 1821.50-236.50Q1837-253 1836-286L1836-286Q1830-361 1722-394L1722-394Q1694-402 1693-404.50Q1692-407 1698-418L1698-418Q1708-440 1721-446L1721-446Q1754-455 1737.50-471Q1721-487 1686-502L1686-502Q1659-513 1659-513Q1659-513 1762-513L1762-513Q1839-513 1862-517L1862-517Q1900-525 1879-560L1879-560Q1868-575 1819-615L1819-615Q1797-631 1792.50-630Q1788-629 1768-602L1768-602L1766-600Q1764-597 1760-592L1760-592Q1745-572 1731.50-568Q1718-564 1663-563L1663-563Q1651-563 1644-563L1644-563Q1574-563 1560-564.50Q1546-566 1543-573L1543-573Q1540-579 1542.50-589.50Q1545-600 1550-603L1550-603Q1586-624 1556.50-638.50Q1527-653 1470-669L1470-669Q1454-674 1450-672Q1446-670 1448-643L1448-643Q1458-574 1441-567L1441-567Q1429-562 1308-563L1308-563Q1189-564 1139-569L1139-569Q1125-571 1121.50-562.50Q1118-554 1133-524L1133-524Q1133-524 1133-524L1133-524Q1143-505 1146-503Q1149-501 1168-504L1168-504Q1174-505 1177-505L1177-505Q1223-511 1245.50-510Q1268-509 1284-526L1284-526Q1274-520 1269-495L1269-495Q1258-434 1226.50-373Q1195-312 1149-263L1149-263Q1122-236 1129-219L1129-219Q1134-208 1176-236Q1218-264 1263-309L1263-309Q1287-334 1297.50-340.50Q1308-347 1319-341L1319-341Q1331-336 1346.50-310Q1362-284 1370-261L1370-261Q1375-240 1389.50-235Q1404-230 1418-236L1418-236Q1440-245 1444-240Q1448-235 1450-214L1450-214Q1451-197 1450-193.50Q1449-190 1438-185L1438-185Q1434-183 1268-184L1268-184Q1104-184 1072-187L1072-187Q1054-189 1047.50-183Q1041-177 1058-147L1058-147Q1058-146 1059-143L1059-143Q1070-123 1073-121Q1076-119 1091-122L1091-122Q1094-123 1097-123L1097-123Q1138-129 1170-131L1170-131Q1202-132 1299-132L1299-132Q1317-132 1347-133L1347-133Q1410-134 1428-129L1428-129Q1448-123 1451-102L1451-102Q1454-85 1450-13L1450-13Q1448 25 1447 47L1447 47Q1446 71 1449 82Q1452 93 1462 95L1462 95ZM1516-291Q1499-277 1467-285L1467-285Q1452-287 1449-291.50Q1446-296 1442-309L1442-309Q1428-361 1361-389L1361-389Q1337-398 1337-400L1337-400Q1338-405 1348-421.50Q1358-438 1369-440L1369-440Q1398-448 1384.50-464Q1371-480 1339-496L1339-496Q1303-515 1303-514.50Q1303-514 1311-514L1311-514Q1311-514 1461-513L1461-513Q1610-513 1653-492L1653-492Q1616-514 1620-517L1620-517Q1621-518 1618-499L1618-499Q1611-444 1579-378Q1547-312 1516-291L1516-291ZM1303-595Q1316-592 1340-598Q1364-604 1373-611L1373-611Q1380-618 1381-626Q1382-634 1381-655L1381-655Q1381-657 1381-661L1381-661Q1380-679 1381-680L1381-680Q1384-687 1408-690L1408-690Q1424-691 1481-691L1481-691Q1490-691 1495-691L1495-691Q1501-691 1513-691L1513-691Q1569-691 1583-689L1583-689Q1606-687 1609-681L1609-681Q1610-678 1609-659L1609-659Q1609-653 1609-650L1609-650Q1608-613 1613.50-605.50Q1619-598 1638-599L1638-599Q1654-600 1671-605Q1688-610 1698-621L1698-621Q1703-626 1702-659L1702-659Q1702-661 1702-665L1702-665Q1701-679 1702-680L1702-680Q1706-688 1732-690L1732-690Q1749-691 1808-691L1808-691Q1819-691 1824-691L1824-691Q1926-691 1940.50-713Q1955-735 1870-797L1870-797Q1855-808 1851-807Q1847-806 1829-780L1829-780L1825-776Q1809-752 1800-747Q1791-742 1758-741L1758-741Q1756-741 1755-741L1755-741Q1717-741 1708-746L1708-746Q1700-751 1701-765Q1702-779 1711-784L1711-784Q1750-805 1722-820Q1694-835 1633-852L1633-852Q1613-858 1608.50-856Q1604-854 1606-828L1606-828Q1616-756 1604-747L1604-747Q1598-741 1498-740Q1398-739 1388-745L1388-745Q1379-750 1380-763.50Q1381-777 1401-793Q1421-809 1396.50-822.50Q1372-836 1318-851L1318-851Q1315-851 1311-852L1311-852Q1293-857 1289-854.50Q1285-852 1288-824L1288-824L1288-821Q1294-752 1282-745L1282-745Q1272-740 1194.50-741Q1117-742 1066-746L1066-746Q1055-747 1052.50-737Q1050-727 1061-704L1061-704Q1064-697 1066-694L1066-694Q1074-681 1076.50-679Q1079-677 1091-680L1091-680Q1131-687 1196.50-690Q1262-693 1276-689L1276-689Q1287-685 1289.50-678.50Q1292-672 1290-645L1290-645Q1288-620 1291-608.50Q1294-597 1303-595L1303-595Z" /><path d="M2583 89Q2588 97 2617.50 91Q2647 85 2664 78L2664 78Q2698 61 2707 31Q2716 1 2716-97L2716-97Q2716-110 2716-131L2716-131Q2715-173 2718-184L2718-184Q2720-192 2735-196L2735-196Q2748-199 2791-199L2791-199Q2810-199 2822-199L2822-199Q2893-200 2906-201.50Q2919-203 2923.50-217.50Q2928-232 2906.50-256.50Q2885-281 2860-300L2860-300Q2842-314 2838.50-313.50Q2835-313 2819-292L2819-292Q2797-261 2787.50-254.50Q2778-248 2752-249L2752-249Q2723-250 2718-263.50Q2713-277 2727-286L2727-286Q2747-299 2739-312.50Q2731-326 2713-334L2713-334Q2681-349 2680-349L2680-349Q2688-338 2707-339L2707-339Q2730-340 2812-341L2812-341Q2883-342 2902-342L2902-342Q2927-343 2932-345L2932-345Q2940-348 2942-364Q2944-380 2920-404.50Q2896-429 2871-446L2871-446Q2858-455 2855-454Q2852-453 2831-426L2831-426Q2827-419 2825-417L2825-417Q2812-397 2797-394Q2782-391 2711-391L2711-391Q2689-391 2676-391L2676-391Q2664-391 2644-391L2644-391Q2587-391 2571-392L2571-392Q2546-394 2543-402L2543-402Q2541-404 2542-421L2542-421Q2542-429 2542-434Q2542-439 2542-447L2542-447Q2541-465 2543-467L2543-467Q2548-476 2579-478L2579-478Q2599-479 2671-479L2671-479Q2696-479 2710-479L2710-479Q2827-479 2845.50-480.50Q2864-482 2870-490L2870-490Q2883-515 2837-555Q2791-595 2785-591L2785-591Q2764-578 2766-594L2766-594Q2771-636 2738-675L2738-675Q2727-689 2727-684L2727-684Q2727-684 2751-686L2751-686Q2770-687 2836-687L2836-687Q2930-687 2941-709Q2952-731 2870-791L2870-791Q2855-802 2851.50-800.50Q2848-799 2826-772L2826-772Q2825-769 2822-764L2822-764Q2808-745 2795-741Q2782-737 2730-737L2730-737Q2717-737 2710-737L2710-737Q2641-737 2630.50-739Q2620-741 2620-742L2620-742Q2620-747 2630-760Q2640-773 2651-777L2651-777Q2692-788 2663.50-808.50Q2635-829 2578-850L2578-850Q2575-851 2573-852L2573-852Q2554-860 2550.50-858.50Q2547-857 2543-833L2543-833Q2542-826 2542-824L2542-824Q2529-761 2516.50-746.50Q2504-732 2473-762L2473-762Q2438-795 2431.50-796Q2425-797 2406-770L2406-770L2405-769Q2388-746 2377.50-741.50Q2367-737 2324-737L2324-737Q2321-737 2319-737L2319-737Q2318-737 2315-737L2315-737Q2266-738 2262-743L2262-743Q2262-743 2268-757Q2274-771 2290-776L2290-776Q2329-789 2303.50-807.50Q2278-826 2222-848L2222-848L2220-849Q2196-859 2193-859L2193-859Q2189-859 2186-839L2186-839Q2176-777 2145-710Q2114-643 2073-589L2073-589Q2060-574 2056-562.50Q2052-551 2065-543L2065-543Q2072-539 2118-576.50Q2164-614 2206-664L2206-664Q2242-707 2266-666L2266-666Q2274-652 2282-625.50Q2290-599 2290-588L2290-588Q2290-556 2314.50-551Q2339-546 2351-563L2351-563Q2389-615 2334-678L2334-678Q2326-688 2326-685.50Q2326-683 2346-685L2346-685Q2362-687 2414-687L2414-687Q2474-686 2483-684Q2492-682 2492-681L2492-681Q2492-679 2482-658.50Q2472-638 2466-628L2466-628Q2435-591 2445.50-580Q2456-569 2453-552Q2450-535 2442-531L2442-531Q2432-526 2307.50-527.50Q2183-529 2155-534L2155-534Q2149-535 2147.50-524Q2146-513 2157-493L2157-493Q2158-490 2160-487L2160-487Q2170-470 2173-467.50Q2176-465 2192-468L2192-468Q2196-469 2197-469L2197-469Q2252-477 2350-478L2350-478Q2354-478 2362-478L2362-478Q2412-479 2427-478L2427-478Q2448-476 2451-468L2451-468Q2453-466 2454-448L2454-448Q2454-443 2454-441L2454-441Q2455-403 2448-397L2448-397Q2441-390 2285-390L2285-390Q2135-391 2068-396L2068-396Q2057-397 2054.50-387.50Q2052-378 2066-352L2066-352Q2067-348 2069-345L2069-345Q2078-331 2081-330Q2084-329 2103-332L2103-332Q2108-333 2111-333L2111-333Q2155-338 2199-340L2199-340Q2246-341 2400-341L2400-341Q2419-341 2451-341L2451-341Q2573-341 2596-340Q2619-339 2622-332L2622-332Q2629-322 2626.50-289Q2624-256 2614-251L2614-251Q2610-249 2374-250L2374-250Q2140-250 2108-253L2108-253Q2090-255 2084.50-248Q2079-241 2096-209L2096-209Q2097-208 2098-208L2098-208Q2106-191 2110.50-189Q2115-187 2140-191L2140-191Q2145-192 2147-192L2147-192Q2206-199 2419-198L2419-198Q2446-198 2490-198L2490-198Q2569-199 2591-197L2591-197Q2623-193 2627-182L2627-182Q2630-177 2629-145L2629-145Q2628-123 2628-111L2628-111Q2628-107 2628-101L2628-101Q2627-57 2625-46L2625-46Q2623-37 2610-33L2610-33Q2599-31 2561-33L2561-33Q2555-33 2552-33L2552-33Q2546-33 2538-34L2538-34Q2479-37 2469-37L2469-37Q2460-37 2458-30L2458-30Q2449-5 2483 1L2483 1Q2531 10 2551.50 27Q2572 44 2580 73L2580 73Q2583 84 2583 89L2583 89ZM2383 5Q2404 11 2422-12.50Q2440-36 2434-75L2434-75Q2426-120 2381.50-154Q2337-188 2280-201L2280-201Q2264-204 2258-194.50Q2252-185 2275-160L2275-160Q2332-97 2354-27L2354-27Q2360-9 2366-3.50Q2372 2 2383 5L2383 5ZM2642-527L2642-527Q2562-527 2553-531L2553-531Q2544-534 2543.50-542Q2543-550 2551-556L2551-556Q2570-574 2560.50-585Q2551-596 2534-604L2534-604Q2513-615 2513-615Q2513-615 2544-647L2544-647Q2574-677 2593.50-685.50Q2613-694 2637-682L2637-682Q2652-676 2666.50-647Q2681-618 2687-581.50Q2693-545 2727-550L2727-550Q2747-552 2751-551.50Q2755-551 2755-558L2755-558Q2755-554 2747.50-544.50Q2740-535 2731-531L2731-531Q2722-527 2642-527Z" /><path d="M3212 92Q3222 98 3251.50 90Q3281 82 3292 67L3292 67Q3300 57 3298 9L3298 9Q3291-125 3292-230L3292-230Q3293-325 3302.50-328.50Q3312-332 3334-289.50Q3356-247 3356-231L3356-231Q3356-204 3378.50-199.50Q3401-195 3413-206L3413-206Q3453-243 3421.50-301Q3390-359 3323-397L3323-397Q3304-407 3299.50-412.50Q3295-418 3294-424L3294-424Q3293-434 3302.50-437.50Q3312-441 3373-441L3373-441Q3446-441 3462-457Q3478-473 3422-521L3422-521Q3387-551 3380.50-552.50Q3374-554 3357-528L3357-528Q3334-494 3313.50-492.50Q3293-491 3294-511L3294-511Q3294-537 3294-562L3294-562Q3292-723 3294-752L3294-752Q3296-776 3304-781L3304-781Q3335-800 3315-815Q3295-830 3254-842L3254-842Q3252-843 3243-845L3243-845Q3206-857 3200-856Q3194-855 3197-826L3197-826Q3197-824 3197-822L3197-822Q3205-758 3205-626L3205-626Q3205-616 3205-597L3205-597Q3206-519 3205-509.50Q3204-500 3199-497L3199-497Q3190-492 3130.50-492.50Q3071-493 3052-498L3052-498Q3036-503 3061-453L3061-453Q3070-434 3072.50-432Q3075-430 3081-432L3081-432Q3106-440 3136.50-441Q3167-442 3176-434L3176-434Q3185-426 3145-308.50Q3105-191 3056-109L3056-109Q3056-106 3054-104L3054-104Q3044-87 3042.50-77Q3041-67 3050-59L3050-59Q3053-57 3086.50-93.50Q3120-130 3160-186L3160-186Q3179-211 3190-217Q3201-223 3205-212L3205-212Q3207-205 3206-121L3206-121Q3204-34 3200 32L3200 32Q3198 62 3200 74Q3202 86 3212 92L3212 92ZM3386 76.50Q3389 80 3389 80L3389 80Q3423 72 3495 70L3495 70Q3568 67 3741 67L3741 67Q3908 67 3934.50 66Q3961 65 3966 54L3966 54Q3975 26 3924-33L3924-33Q3910-50 3906-51Q3902-52 3895-39L3895-39Q3875-6 3865-23L3865-23Q3863-25 3862-357Q3861-689 3864-696L3864-696Q3867-705 3880-710L3880-710Q3918-722 3901-747Q3884-772 3833-806L3833-806Q3811-821 3806.50-820Q3802-819 3784-792L3784-792Q3782-790 3779-786L3779-786Q3772-773 3758.50-770.50Q3745-768 3681-767L3681-767Q3674-767 3670-767L3670-767Q3663-767 3650-767L3650-767Q3594-767 3579-769.50Q3564-772 3528-786L3528-786Q3521-790 3516-792L3516-792Q3494-800 3476-807L3476-807Q3474-806 3475.50-768.50Q3477-731 3480-717L3480-717Q3483-700 3484-347L3484-347Q3485 3 3483 7L3483 7Q3474 26 3372 12L3372 12Q3364 11 3364 21.50Q3364 32 3373.50 52.50Q3383 73 3386 76.50ZM3674.50 17Q3589 18 3583 16L3583 16Q3571 12 3570 2L3570 2Q3568-14 3568-101L3568-101Q3568-113 3568-134L3568-134Q3568-179 3571-189L3571-189Q3573-201 3588-205L3588-205Q3600-208 3642-207L3642-207Q3661-207 3672-207L3672-207Q3683-207 3702-207L3702-207Q3744-208 3756-205L3756-205Q3770-200 3772-188L3772-188Q3775-178 3774-130L3774-130Q3774-107 3774-94L3774-94Q3774-10 3773 0Q3772 10 3766 13L3766 13Q3760 16 3674.50 17ZM3766-261Q3756-255 3670-256Q3584-257 3576-263L3576-263Q3571-266 3570-274L3570-274Q3568-288 3568-367L3568-367Q3568-379 3568-399L3568-399Q3568-442 3571-452L3571-452Q3573-463 3588-467L3588-467Q3600-470 3642-469L3642-469Q3660-469 3671-469L3671-469Q3682-469 3701-469L3701-469Q3743-470 3755-467L3755-467Q3770-463 3772-451L3772-451Q3775-441 3774-396L3774-396Q3774-375 3774-362L3774-362Q3774-284 3773-274Q3772-264 3766-261L3766-261ZM3671-516Q3589-516 3578-521L3578-521Q3571-524 3570-532.50Q3569-541 3568-611L3568-611Q3568-623 3568-643L3568-643Q3567-689 3569-699L3569-699Q3571-710 3586-714L3586-714Q3598-717 3641-717L3641-717Q3659-717 3669-717L3669-717Q3681-717 3701-717L3701-717Q3743-718 3755-715L3755-715Q3770-711 3772-701L3772-701Q3775-692 3774-651L3774-651Q3774-630 3774-618L3774-618Q3774-543 3773-534.50Q3772-526 3764-522L3764-522Q3755-517 3671-516L3671-516ZM3122-530Q3149-517 3164-543L3164-543Q3181-576 3170-630L3170-630Q3159-684 3125-726L3125-726Q3057-815 3080-720L3080-720Q3102-627 3102-572L3102-572Q3102-554 3107-545Q3112-536 3122-530L3122-530ZM3318-527Q3320-526 3320-526.50Q3320-527 3324-533L3324-533Q3357-567 3410-667L3410-667Q3430-709 3447-716L3447-716Q3471-728 3462-742.50Q3453-757 3430-764L3430-764Q3406-772 3381-783L3381-783Q3359-792 3356-792L3356-792Q3350-792 3350-772L3350-772Q3350-747 3339-686L3339-686Q3328-625 3317-580L3317-580Q3303-533 3318-527L3318-527Z" /><path d="M4460 93Q4472 98 4500.50 89.50Q4529 81 4543 65L4543 65Q4550 58 4550 44.50Q4550 31 4548-21L4548-21Q4544-101 4545-229L4545-229Q4545-351 4548-356L4548-356Q4555-365 4561.50-357.50Q4568-350 4580-321L4580-321Q4677-94 4847 18L4847 18L4848 19Q4862 29 4863 29L4863 29Q4864 29 4869 16L4869 16L4871 14Q4887-27 4925-42L4925-42Q4954-52 4942.50-66Q4931-80 4895-98L4895-98Q4727-184 4620-328L4620-328Q4615-334 4607-344L4607-344Q4583-376 4583-381L4583-381Q4583-381 4610-384L4610-384Q4632-387 4721-387L4721-387Q4745-387 4759-387L4759-387Q4855-388 4881-388L4881-388Q4915-389 4925-392L4925-392Q4932-394 4932-413L4932-413Q4932-433 4889.50-470Q4847-507 4839-507L4839-507Q4836-507 4808-471L4808-471Q4805-464 4803-462L4803-462Q4790-443 4775-440Q4760-437 4692-438L4692-438Q4675-438 4665-438L4665-438Q4652-438 4631-438L4631-438Q4582-438 4568-439L4568-439Q4548-442 4546-448L4546-448Q4544-453 4544-476L4544-476Q4544-489 4544-496L4544-496Q4544-541 4545.50-548.50Q4547-556 4564.50-572.50Q4582-589 4558.50-601.50Q4535-614 4476-630L4476-630Q4475-631 4474-631L4474-631Q4450-637 4445.50-634.50Q4441-632 4444-598L4444-598Q4445-595 4445-597L4445-597Q4451-544 4452-497.50Q4453-451 4450-445L4450-445Q4448-440 4426.50-438.50Q4405-437 4293-437L4293-437Q4137-437 4078-442L4078-442Q4067-443 4064-433.50Q4061-424 4076-397L4076-397Q4077-395 4079-392L4079-392Q4089-377 4091.50-375Q4094-373 4109-376L4109-376Q4113-377 4115-377L4115-377Q4171-385 4272-386L4272-386Q4274-386 4277-386L4277-386Q4340-387 4355-385L4355-385Q4375-382 4375-381L4375-381Q4374-376 4357-340L4357-340Q4357-340 4357-340L4357-340Q4307-238 4235-150.50Q4163-63 4081-6L4081-6Q4067 3 4060.50 12Q4054 21 4059 30.50Q4064 40 4065.50 39.50Q4067 39 4085 32L4085 32Q4283-69 4399-227L4399-227Q4423-259 4434-268Q4445-277 4451-265L4451-265Q4454-262 4453.50-176.50Q4453-91 4447 12L4447 12Q4444 61 4446 74.50Q4448 88 4460 93L4460 93ZM4103-499Q4133-491 4164-525Q4195-559 4203-620L4203-620Q4206-643 4216-648L4216-648Q4228-651 4506-651L4506-651Q4785-652 4795-647L4795-647Q4803-644 4801-635.50Q4799-627 4780-574L4780-574Q4769-546 4767-531.50Q4765-517 4773-517L4773-517Q4776-517 4810-543.50Q4844-570 4872-597L4872-597Q4908-631 4927-635L4927-635Q4955-640 4942-667Q4929-694 4888-733L4888-733Q4866-752 4863-752L4863-752Q4860-752 4834-726L4834-726Q4831-723 4831-723L4831-723Q4815-706 4799-703.50Q4783-701 4710-701L4710-701Q4689-701 4677-701L4677-701Q4588-702 4570.50-702.50Q4553-703 4549-708L4549-708Q4541-715 4543.50-746Q4546-777 4557-784L4557-784Q4594-807 4566.50-821Q4539-835 4484-849L4484-849Q4482-849 4478-850L4478-850Q4452-857 4446-855.50Q4440-854 4444-831L4444-831L4444-829Q4449-794 4450-752L4450-752Q4451-715 4448.50-709.50Q4446-704 4429-702.50Q4412-701 4326-701L4326-701Q4319-701 4307-701L4307-701Q4249-701 4233-702L4233-702Q4208-704 4201-711L4201-711Q4198-713 4196-721L4196-721Q4196-729 4194-733L4194-733Q4187-760 4182-762Q4177-764 4174-736L4174-736Q4166-663 4106-620L4106-620Q4066-590 4066-549Q4066-508 4103-499L4103-499Z" /></svg>